<svg width="342" height="395" viewBox="0 0 342 395" fill="none" xmlns="http://www.w3.org/2000/svg">
<g clip-path="url(#clip0_2_1006)">
<rect width="342" height="395" rx="8" fill="#131313"/>
<path d="M28.1836 278H25.5586V261.09H36.1172V263.352H28.1836V268.707H35.4492V270.922H28.1836V278ZM38.1797 278V265.672H40.7109V278H38.1797ZM39.4453 263.867C38.6367 263.867 37.9805 263.223 37.9805 262.426C37.9805 261.617 38.6367 260.973 39.4453 260.973C40.2656 260.973 40.9219 261.617 40.9219 262.426C40.9219 263.223 40.2656 263.867 39.4453 263.867ZM43.3008 278V265.672H45.7148V267.734H45.7734C46.4414 266.328 47.7539 265.461 49.6523 265.461C52.3711 265.461 53.9297 267.195 53.9297 270.02V278H51.3867V270.512C51.3867 268.66 50.5195 267.641 48.7617 267.641C46.9805 267.641 45.832 268.906 45.832 270.816V278H43.3008ZM60.6914 276.207C62.4609 276.207 63.8438 274.988 63.8438 273.383V272.41L60.8086 272.598C59.2969 272.703 58.4414 273.371 58.4414 274.426C58.4414 275.504 59.332 276.207 60.6914 276.207ZM59.9883 278.211C57.5742 278.211 55.8867 276.711 55.8867 274.496C55.8867 272.34 57.5391 271.016 60.4688 270.852L63.8438 270.652V269.703C63.8438 268.332 62.918 267.512 61.3711 267.512C59.9062 267.512 58.9922 268.215 58.7695 269.316H56.3789C56.5195 267.09 58.418 265.449 61.4648 265.449C64.4531 265.449 66.3633 267.031 66.3633 269.504V278H63.9375V275.973H63.8789C63.1641 277.344 61.6055 278.211 59.9883 278.211ZM68.8242 278V265.672H71.2383V267.734H71.2969C71.9648 266.328 73.2773 265.461 75.1758 265.461C77.8945 265.461 79.4531 267.195 79.4531 270.02V278H76.9102V270.512C76.9102 268.66 76.043 267.641 74.2852 267.641C72.5039 267.641 71.3555 268.906 71.3555 270.816V278H68.8242ZM92.4844 269.914H90.0703C89.8125 268.602 88.8281 267.559 87.1758 267.559C85.2188 267.559 83.9297 269.188 83.9297 271.836C83.9297 274.543 85.2305 276.113 87.1992 276.113C88.7578 276.113 89.7773 275.258 90.0703 273.828H92.5078C92.2383 276.453 90.1406 278.234 87.1758 278.234C83.6484 278.234 81.3516 275.82 81.3516 271.836C81.3516 267.922 83.6484 265.449 87.1523 265.449C90.3281 265.449 92.2617 267.488 92.4844 269.914ZM94.3828 278V265.672H96.9141V278H94.3828ZM95.6484 263.867C94.8398 263.867 94.1836 263.223 94.1836 262.426C94.1836 261.617 94.8398 260.973 95.6484 260.973C96.4688 260.973 97.125 261.617 97.125 262.426C97.125 263.223 96.4688 263.867 95.6484 263.867ZM103.816 276.207C105.586 276.207 106.969 274.988 106.969 273.383V272.41L103.934 272.598C102.422 272.703 101.566 273.371 101.566 274.426C101.566 275.504 102.457 276.207 103.816 276.207ZM103.113 278.211C100.699 278.211 99.0117 276.711 99.0117 274.496C99.0117 272.34 100.664 271.016 103.594 270.852L106.969 270.652V269.703C106.969 268.332 106.043 267.512 104.496 267.512C103.031 267.512 102.117 268.215 101.895 269.316H99.5039C99.6445 267.09 101.543 265.449 104.59 265.449C107.578 265.449 109.488 267.031 109.488 269.504V278H107.062V275.973H107.004C106.289 277.344 104.73 278.211 103.113 278.211ZM112.043 278V261.09H114.574V278H112.043ZM122.355 261.09H128.695C131.977 261.09 134.262 263.352 134.262 266.645C134.262 269.949 131.93 272.223 128.613 272.223H124.98V278H122.355V261.09ZM124.98 263.305V270.02H127.992C130.277 270.02 131.578 268.789 131.578 266.656C131.578 264.523 130.277 263.305 128.004 263.305H124.98ZM136.348 278V261.09H138.879V278H136.348ZM145.793 276.207C147.562 276.207 148.945 274.988 148.945 273.383V272.41L145.91 272.598C144.398 272.703 143.543 273.371 143.543 274.426C143.543 275.504 144.434 276.207 145.793 276.207ZM145.09 278.211C142.676 278.211 140.988 276.711 140.988 274.496C140.988 272.34 142.641 271.016 145.57 270.852L148.945 270.652V269.703C148.945 268.332 148.02 267.512 146.473 267.512C145.008 267.512 144.094 268.215 143.871 269.316H141.48C141.621 267.09 143.52 265.449 146.566 265.449C149.555 265.449 151.465 267.031 151.465 269.504V278H149.039V275.973H148.98C148.266 277.344 146.707 278.211 145.09 278.211ZM153.926 278V265.672H156.34V267.734H156.398C157.066 266.328 158.379 265.461 160.277 265.461C162.996 265.461 164.555 267.195 164.555 270.02V278H162.012V270.512C162.012 268.66 161.145 267.641 159.387 267.641C157.605 267.641 156.457 268.906 156.457 270.816V278H153.926ZM167.004 278V265.672H169.418V267.734H169.477C170.145 266.328 171.457 265.461 173.355 265.461C176.074 265.461 177.633 267.195 177.633 270.02V278H175.09V270.512C175.09 268.66 174.223 267.641 172.465 267.641C170.684 267.641 169.535 268.906 169.535 270.816V278H167.004ZM180.164 278V265.672H182.695V278H180.164ZM181.43 263.867C180.621 263.867 179.965 263.223 179.965 262.426C179.965 261.617 180.621 260.973 181.43 260.973C182.25 260.973 182.906 261.617 182.906 262.426C182.906 263.223 182.25 263.867 181.43 263.867ZM185.285 278V265.672H187.699V267.734H187.758C188.426 266.328 189.738 265.461 191.637 265.461C194.355 265.461 195.914 267.195 195.914 270.02V278H193.371V270.512C193.371 268.66 192.504 267.641 190.746 267.641C188.965 267.641 187.816 268.906 187.816 270.816V278H185.285ZM203.613 275.949C205.594 275.949 206.895 274.344 206.895 271.801C206.895 269.27 205.594 267.605 203.613 267.605C201.668 267.605 200.402 269.234 200.402 271.801C200.402 274.379 201.668 275.949 203.613 275.949ZM203.637 282.641C200.73 282.641 198.574 281.094 198.258 278.961H200.801C201.164 279.992 202.289 280.672 203.73 280.672C205.711 280.672 206.883 279.547 206.883 277.859V275.832H206.836C206.145 277.168 204.691 278.047 202.934 278.047C199.84 278.047 197.812 275.633 197.812 271.789C197.812 267.91 199.828 265.473 202.992 265.473C204.738 265.473 206.168 266.352 206.918 267.781H206.965V265.672H209.426V277.777C209.426 280.719 207.152 282.641 203.637 282.641Z" fill="white"/>
<path d="M32.4219 317L31.2891 313.773H26.8047L25.6719 317H24.1953L28.3516 305.727H29.7422L33.8984 317H32.4219ZM29.0234 307.438L27.2188 312.578H30.875L29.0703 307.438H29.0234ZM41.5703 311.539H40.2422C40.0469 310.656 39.3594 309.93 38.1641 309.93C36.7578 309.93 35.8047 311.094 35.8047 312.938C35.8047 314.828 36.7734 315.945 38.1797 315.945C39.2891 315.945 40.0156 315.359 40.25 314.383H41.5859C41.375 316 40.0156 317.141 38.1719 317.141C35.9219 317.141 34.4219 315.555 34.4219 312.938C34.4219 310.375 35.9141 308.734 38.1562 308.734C40.1875 308.734 41.3984 310.078 41.5703 311.539ZM42.9062 317V305.727H44.2656V310.172H44.2969C44.75 309.266 45.6406 308.734 46.875 308.734C48.6562 308.734 49.7344 309.938 49.7344 311.75V317H48.375V312C48.375 310.711 47.7266 309.938 46.4531 309.938C45.1016 309.938 44.2656 310.859 44.2656 312.266V317H42.9062ZM51.5312 317V308.875H52.8906V317H51.5312ZM52.2109 307.508C51.75 307.508 51.3672 307.125 51.3672 306.664C51.3672 306.195 51.75 305.82 52.2109 305.82C52.6797 305.82 53.0625 306.195 53.0625 306.664C53.0625 307.125 52.6797 307.508 52.2109 307.508ZM57.9844 309.914C56.7109 309.914 55.8203 310.891 55.7344 312.242H60.1484C60.1172 310.883 59.2656 309.914 57.9844 309.914ZM60.1172 314.672H61.4531C61.2188 316.094 59.8438 317.141 58.0703 317.141C55.7422 317.141 54.3281 315.523 54.3281 312.969C54.3281 310.445 55.7656 308.734 58.0078 308.734C60.2031 308.734 61.5547 310.328 61.5547 312.789V313.305H55.7266V313.383C55.7266 314.938 56.6406 315.961 58.1016 315.961C59.1328 315.961 59.8906 315.438 60.1172 314.672ZM69.5938 308.875L66.6094 317H65.2188L62.2266 308.875H63.6562L65.8984 315.555H65.9297L68.1797 308.875H69.5938ZM73.6875 309.914C72.4141 309.914 71.5234 310.891 71.4375 312.242H75.8516C75.8203 310.883 74.9688 309.914 73.6875 309.914ZM75.8203 314.672H77.1562C76.9219 316.094 75.5469 317.141 73.7734 317.141C71.4453 317.141 70.0312 315.523 70.0312 312.969C70.0312 310.445 71.4688 308.734 73.7109 308.734C75.9062 308.734 77.2578 310.328 77.2578 312.789V313.305H71.4297V313.383C71.4297 314.938 72.3438 315.961 73.8047 315.961C74.8359 315.961 75.5938 315.438 75.8203 314.672ZM82.5859 320.039C82.4219 320.039 82.1484 320.023 82 319.992V318.852C82.1484 318.883 82.3594 318.891 82.5312 318.891C83.2891 318.891 83.7109 318.523 84.0234 317.578L84.2109 317.008L81.2109 308.875H82.6641L84.9141 315.641H84.9375L87.1875 308.875H88.6172L85.4219 317.57C84.7266 319.469 84.0547 320.039 82.5859 320.039ZM92.8281 317.141C90.5781 317.141 89.0625 315.523 89.0625 312.938C89.0625 310.344 90.5781 308.734 92.8281 308.734C95.0703 308.734 96.5859 310.344 96.5859 312.938C96.5859 315.523 95.0703 317.141 92.8281 317.141ZM92.8281 315.945C94.2656 315.945 95.2031 314.852 95.2031 312.938C95.2031 311.023 94.2656 309.93 92.8281 309.93C91.3906 309.93 90.4453 311.023 90.4453 312.938C90.4453 314.852 91.3906 315.945 92.8281 315.945ZM104.633 308.875V317H103.344V315.68H103.312C102.828 316.617 101.984 317.141 100.734 317.141C98.9609 317.141 97.9219 315.992 97.9219 314.148V308.875H99.2812V313.906C99.2812 315.227 99.8984 315.938 101.156 315.938C102.477 315.938 103.273 315.031 103.273 313.648V308.875H104.633ZM106.398 317V308.875H107.68V310.203H107.711C107.977 309.305 108.727 308.734 109.68 308.734C109.914 308.734 110.117 308.773 110.227 308.789V310.109C110.117 310.07 109.828 310.031 109.5 310.031C108.445 310.031 107.758 310.789 107.758 311.938V317H106.398ZM115.055 317V309.992H113.922V308.875H115.055V307.969C115.055 306.406 115.781 305.664 117.281 305.664C117.586 305.664 117.914 305.695 118.109 305.727V306.828C117.945 306.805 117.719 306.781 117.492 306.781C116.758 306.781 116.406 307.172 116.406 307.977V308.875H118.07V309.992H116.414V317H115.055ZM119.547 317V308.875H120.906V317H119.547ZM120.227 307.508C119.766 307.508 119.383 307.125 119.383 306.664C119.383 306.195 119.766 305.82 120.227 305.82C120.695 305.82 121.078 306.195 121.078 306.664C121.078 307.125 120.695 307.508 120.227 307.508ZM122.742 317V308.875H124.023V310.172H124.055C124.508 309.297 125.375 308.734 126.633 308.734C128.414 308.734 129.445 309.883 129.445 311.727V317H128.086V311.969C128.086 310.656 127.469 309.938 126.219 309.938C124.938 309.938 124.102 310.844 124.102 312.219V317H122.742ZM133.859 315.984C135.141 315.984 136.125 315.086 136.125 313.914V313.25L133.953 313.383C132.859 313.453 132.234 313.938 132.234 314.703C132.234 315.477 132.883 315.984 133.859 315.984ZM133.555 317.141C131.938 317.141 130.852 316.164 130.852 314.703C130.852 313.312 131.922 312.438 133.797 312.328L136.125 312.195V311.516C136.125 310.523 135.469 309.93 134.344 309.93C133.297 309.93 132.641 310.422 132.469 311.219H131.156C131.25 309.812 132.453 308.734 134.375 308.734C136.281 308.734 137.484 309.766 137.484 311.383V317H136.195V315.602H136.164C135.68 316.531 134.648 317.141 133.555 317.141ZM139.211 317V308.875H140.492V310.172H140.523C140.977 309.297 141.844 308.734 143.102 308.734C144.883 308.734 145.914 309.883 145.914 311.727V317H144.555V311.969C144.555 310.656 143.938 309.938 142.688 309.938C141.406 309.938 140.57 310.844 140.57 312.219V317H139.211ZM154.398 311.539H153.07C152.875 310.656 152.188 309.93 150.992 309.93C149.586 309.93 148.633 311.094 148.633 312.938C148.633 314.828 149.602 315.945 151.008 315.945C152.117 315.945 152.844 315.359 153.078 314.383H154.414C154.203 316 152.844 317.141 151 317.141C148.75 317.141 147.25 315.555 147.25 312.938C147.25 310.375 148.742 308.734 150.984 308.734C153.016 308.734 154.227 310.078 154.398 311.539ZM155.734 317V308.875H157.094V317H155.734ZM156.414 307.508C155.953 307.508 155.57 307.125 155.57 306.664C155.57 306.195 155.953 305.82 156.414 305.82C156.883 305.82 157.266 306.195 157.266 306.664C157.266 307.125 156.883 307.508 156.414 307.508ZM161.609 315.984C162.891 315.984 163.875 315.086 163.875 313.914V313.25L161.703 313.383C160.609 313.453 159.984 313.938 159.984 314.703C159.984 315.477 160.633 315.984 161.609 315.984ZM161.305 317.141C159.688 317.141 158.602 316.164 158.602 314.703C158.602 313.312 159.672 312.438 161.547 312.328L163.875 312.195V311.516C163.875 310.523 163.219 309.93 162.094 309.93C161.047 309.93 160.391 310.422 160.219 311.219H158.906C159 309.812 160.203 308.734 162.125 308.734C164.031 308.734 165.234 309.766 165.234 311.383V317H163.945V315.602H163.914C163.43 316.531 162.398 317.141 161.305 317.141ZM167.031 317V305.727H168.391V317H167.031ZM176.586 317.141C174.516 317.141 173.109 315.484 173.109 312.938C173.109 310.391 174.508 308.734 176.555 308.734C177.719 308.734 178.656 309.305 179.141 310.195H179.172V305.727H180.531V317H179.234V315.625H179.211C178.688 316.562 177.758 317.141 176.586 317.141ZM176.844 309.93C175.406 309.93 174.5 311.102 174.5 312.938C174.5 314.781 175.406 315.945 176.844 315.945C178.242 315.945 179.18 314.758 179.18 312.938C179.18 311.125 178.242 309.93 176.844 309.93ZM182.367 317V308.875H183.648V310.203H183.68C183.945 309.305 184.695 308.734 185.648 308.734C185.883 308.734 186.086 308.773 186.195 308.789V310.109C186.086 310.07 185.797 310.031 185.469 310.031C184.414 310.031 183.727 310.789 183.727 311.938V317H182.367ZM190.172 309.914C188.898 309.914 188.008 310.891 187.922 312.242H192.336C192.305 310.883 191.453 309.914 190.172 309.914ZM192.305 314.672H193.641C193.406 316.094 192.031 317.141 190.258 317.141C187.93 317.141 186.516 315.523 186.516 312.969C186.516 310.445 187.953 308.734 190.195 308.734C192.391 308.734 193.742 310.328 193.742 312.789V313.305H187.914V313.383C187.914 314.938 188.828 315.961 190.289 315.961C191.32 315.961 192.078 315.438 192.305 314.672ZM197.797 315.984C199.078 315.984 200.062 315.086 200.062 313.914V313.25L197.891 313.383C196.797 313.453 196.172 313.938 196.172 314.703C196.172 315.477 196.82 315.984 197.797 315.984ZM197.492 317.141C195.875 317.141 194.789 316.164 194.789 314.703C194.789 313.312 195.859 312.438 197.734 312.328L200.062 312.195V311.516C200.062 310.523 199.406 309.93 198.281 309.93C197.234 309.93 196.578 310.422 196.406 311.219H195.094C195.188 309.812 196.391 308.734 198.312 308.734C200.219 308.734 201.422 309.766 201.422 311.383V317H200.133V315.602H200.102C199.617 316.531 198.586 317.141 197.492 317.141ZM203.148 317V308.875H204.43V310.172H204.461C204.844 309.312 205.672 308.734 206.766 308.734C207.875 308.734 208.695 309.297 209.047 310.281H209.078C209.531 309.312 210.484 308.734 211.625 308.734C213.234 308.734 214.273 309.781 214.273 311.391V317H212.914V311.703C212.914 310.594 212.297 309.938 211.227 309.938C210.148 309.938 209.391 310.734 209.391 311.836V317H208.031V311.555C208.031 310.578 207.375 309.938 206.367 309.938C205.289 309.938 204.508 310.781 204.508 311.906V317H203.148ZM215.867 311.117C215.867 309.727 217.109 308.734 218.898 308.734C220.578 308.734 221.812 309.734 221.875 311.109H220.578C220.484 310.328 219.852 309.844 218.852 309.844C217.859 309.844 217.203 310.336 217.203 311.047C217.203 311.609 217.633 311.984 218.555 312.219L219.812 312.523C221.453 312.938 222.047 313.531 222.047 314.727C222.047 316.141 220.711 317.141 218.812 317.141C217.031 317.141 215.789 316.172 215.648 314.734H217.008C217.156 315.578 217.797 316.031 218.898 316.031C220 316.031 220.68 315.562 220.68 314.828C220.68 314.25 220.344 313.938 219.43 313.695L218 313.328C216.57 312.961 215.867 312.227 215.867 311.117ZM237.078 308.875L234.812 317H233.43L231.594 310.711H231.562L229.734 317H228.352L226.078 308.875H227.43L229.055 315.484H229.086L230.922 308.875H232.234L234.078 315.484H234.109L235.734 308.875H237.078ZM238.266 317V308.875H239.625V317H238.266ZM238.945 307.508C238.484 307.508 238.102 307.125 238.102 306.664C238.102 306.195 238.484 305.82 238.945 305.82C239.414 305.82 239.797 306.195 239.797 306.664C239.797 307.125 239.414 307.508 238.945 307.508ZM241.898 306.914H243.258V308.875H244.836V309.992H243.258V314.82C243.258 315.562 243.57 315.898 244.266 315.898C244.422 315.898 244.734 315.875 244.828 315.859V317C244.664 317.039 244.289 317.062 243.969 317.062C242.477 317.062 241.898 316.453 241.898 314.891V309.992H240.688V308.875H241.898V306.914ZM246.359 317V305.727H247.719V310.172H247.75C248.203 309.266 249.094 308.734 250.328 308.734C252.109 308.734 253.188 309.938 253.188 311.75V317H251.828V312C251.828 310.711 251.18 309.938 249.906 309.938C248.555 309.938 247.719 310.859 247.719 312.266V317H246.359ZM261.562 317.141C259.312 317.141 257.797 315.523 257.797 312.938C257.797 310.344 259.312 308.734 261.562 308.734C263.805 308.734 265.32 310.344 265.32 312.938C265.32 315.523 263.805 317.141 261.562 317.141ZM261.562 315.945C263 315.945 263.938 314.852 263.938 312.938C263.938 311.023 263 309.93 261.562 309.93C260.125 309.93 259.18 311.023 259.18 312.938C259.18 314.852 260.125 315.945 261.562 315.945ZM273.367 308.875V317H272.078V315.68H272.047C271.562 316.617 270.719 317.141 269.469 317.141C267.695 317.141 266.656 315.992 266.656 314.148V308.875H268.016V313.906C268.016 315.227 268.633 315.938 269.891 315.938C271.211 315.938 272.008 315.031 272.008 313.648V308.875H273.367ZM275.133 317V308.875H276.414V310.203H276.445C276.711 309.305 277.461 308.734 278.414 308.734C278.648 308.734 278.852 308.773 278.961 308.789V310.109C278.852 310.07 278.562 310.031 278.234 310.031C277.18 310.031 276.492 310.789 276.492 311.938V317H275.133ZM31.6328 335.539H30.3047C30.1094 334.656 29.4219 333.93 28.2266 333.93C26.8203 333.93 25.8672 335.094 25.8672 336.938C25.8672 338.828 26.8359 339.945 28.2422 339.945C29.3516 339.945 30.0781 339.359 30.3125 338.383H31.6484C31.4375 340 30.0781 341.141 28.2344 341.141C25.9844 341.141 24.4844 339.555 24.4844 336.938C24.4844 334.375 25.9766 332.734 28.2188 332.734C30.25 332.734 31.4609 334.078 31.6328 335.539ZM36.2656 341.141C34.0156 341.141 32.5 339.523 32.5 336.938C32.5 334.344 34.0156 332.734 36.2656 332.734C38.5078 332.734 40.0234 334.344 40.0234 336.938C40.0234 339.523 38.5078 341.141 36.2656 341.141ZM36.2656 339.945C37.7031 339.945 38.6406 338.852 38.6406 336.938C38.6406 335.023 37.7031 333.93 36.2656 333.93C34.8281 333.93 33.8828 335.023 33.8828 336.938C33.8828 338.852 34.8281 339.945 36.2656 339.945ZM41.3984 341V332.875H42.6797V334.172H42.7109C43.0938 333.312 43.9219 332.734 45.0156 332.734C46.125 332.734 46.9453 333.297 47.2969 334.281H47.3281C47.7812 333.312 48.7344 332.734 49.875 332.734C51.4844 332.734 52.5234 333.781 52.5234 335.391V341H51.1641V335.703C51.1641 334.594 50.5469 333.938 49.4766 333.938C48.3984 333.938 47.6406 334.734 47.6406 335.836V341H46.2812V335.555C46.2812 334.578 45.625 333.938 44.6172 333.938C43.5391 333.938 42.7578 334.781 42.7578 335.906V341H41.3984ZM58.2031 332.734C60.2734 332.734 61.6797 334.391 61.6797 336.938C61.6797 339.484 60.2812 341.141 58.2344 341.141C57.0703 341.141 56.1328 340.57 55.6484 339.68H55.6172V343.711H54.2578V332.875H55.5469V334.25H55.5781C56.0781 333.336 57.0234 332.734 58.2031 332.734ZM57.9375 339.945C59.3828 339.945 60.2891 338.781 60.2891 336.938C60.2891 335.102 59.3828 333.93 57.9375 333.93C56.5469 333.93 55.6094 335.133 55.6094 336.938C55.6094 338.75 56.5469 339.945 57.9375 339.945ZM63.0547 341V332.875H64.3359V334.203H64.3672C64.6328 333.305 65.3828 332.734 66.3359 332.734C66.5703 332.734 66.7734 332.773 66.8828 332.789V334.109C66.7734 334.07 66.4844 334.031 66.1562 334.031C65.1016 334.031 64.4141 334.789 64.4141 335.938V341H63.0547ZM70.8594 333.914C69.5859 333.914 68.6953 334.891 68.6094 336.242H73.0234C72.9922 334.883 72.1406 333.914 70.8594 333.914ZM72.9922 338.672H74.3281C74.0938 340.094 72.7188 341.141 70.9453 341.141C68.6172 341.141 67.2031 339.523 67.2031 336.969C67.2031 334.445 68.6406 332.734 70.8828 332.734C73.0781 332.734 74.4297 334.328 74.4297 336.789V337.305H68.6016V337.383C68.6016 338.938 69.5156 339.961 70.9766 339.961C72.0078 339.961 72.7656 339.438 72.9922 338.672ZM75.875 341V329.727H77.2344V334.172H77.2656C77.7188 333.266 78.6094 332.734 79.8438 332.734C81.625 332.734 82.7031 333.938 82.7031 335.75V341H81.3438V336C81.3438 334.711 80.6953 333.938 79.4219 333.938C78.0703 333.938 77.2344 334.859 77.2344 336.266V341H75.875ZM87.6875 333.914C86.4141 333.914 85.5234 334.891 85.4375 336.242H89.8516C89.8203 334.883 88.9688 333.914 87.6875 333.914ZM89.8203 338.672H91.1562C90.9219 340.094 89.5469 341.141 87.7734 341.141C85.4453 341.141 84.0312 339.523 84.0312 336.969C84.0312 334.445 85.4688 332.734 87.7109 332.734C89.9062 332.734 91.2578 334.328 91.2578 336.789V337.305H85.4297V337.383C85.4297 338.938 86.3438 339.961 87.8047 339.961C88.8359 339.961 89.5938 339.438 89.8203 338.672ZM92.6328 341V332.875H93.9141V334.172H93.9453C94.3984 333.297 95.2656 332.734 96.5234 332.734C98.3047 332.734 99.3359 333.883 99.3359 335.727V341H97.9766V335.969C97.9766 334.656 97.3594 333.938 96.1094 333.938C94.8281 333.938 93.9922 334.844 93.9922 336.219V341H92.6328ZM100.93 335.117C100.93 333.727 102.172 332.734 103.961 332.734C105.641 332.734 106.875 333.734 106.938 335.109H105.641C105.547 334.328 104.914 333.844 103.914 333.844C102.922 333.844 102.266 334.336 102.266 335.047C102.266 335.609 102.695 335.984 103.617 336.219L104.875 336.523C106.516 336.938 107.109 337.531 107.109 338.727C107.109 340.141 105.773 341.141 103.875 341.141C102.094 341.141 100.852 340.172 100.711 338.734H102.07C102.219 339.578 102.859 340.031 103.961 340.031C105.062 340.031 105.742 339.562 105.742 338.828C105.742 338.25 105.406 337.938 104.492 337.695L103.062 337.328C101.633 336.961 100.93 336.227 100.93 335.117ZM108.594 341V332.875H109.953V341H108.594ZM109.273 331.508C108.812 331.508 108.43 331.125 108.43 330.664C108.43 330.195 108.812 329.82 109.273 329.82C109.742 329.82 110.125 330.195 110.125 330.664C110.125 331.125 109.742 331.508 109.273 331.508ZM118.453 332.875L115.469 341H114.078L111.086 332.875H112.516L114.758 339.555H114.789L117.039 332.875H118.453ZM122.547 333.914C121.273 333.914 120.383 334.891 120.297 336.242H124.711C124.68 334.883 123.828 333.914 122.547 333.914ZM124.68 338.672H126.016C125.781 340.094 124.406 341.141 122.633 341.141C120.305 341.141 118.891 339.523 118.891 336.969C118.891 334.445 120.328 332.734 122.57 332.734C124.766 332.734 126.117 334.328 126.117 336.789V337.305H120.289V337.383C120.289 338.938 121.203 339.961 122.664 339.961C123.695 339.961 124.453 339.438 124.68 338.672ZM131.211 341V333.992H130.078V332.875H131.211V331.969C131.211 330.406 131.938 329.664 133.438 329.664C133.742 329.664 134.07 329.695 134.266 329.727V330.828C134.102 330.805 133.875 330.781 133.648 330.781C132.914 330.781 132.562 331.172 132.562 331.977V332.875H134.227V333.992H132.57V341H131.211ZM135.703 341V332.875H137.062V341H135.703ZM136.383 331.508C135.922 331.508 135.539 331.125 135.539 330.664C135.539 330.195 135.922 329.82 136.383 329.82C136.852 329.82 137.234 330.195 137.234 330.664C137.234 331.125 136.852 331.508 136.383 331.508ZM138.898 341V332.875H140.18V334.172H140.211C140.664 333.297 141.531 332.734 142.789 332.734C144.57 332.734 145.602 333.883 145.602 335.727V341H144.242V335.969C144.242 334.656 143.625 333.938 142.375 333.938C141.094 333.938 140.258 334.844 140.258 336.219V341H138.898ZM150.016 339.984C151.297 339.984 152.281 339.086 152.281 337.914V337.25L150.109 337.383C149.016 337.453 148.391 337.938 148.391 338.703C148.391 339.477 149.039 339.984 150.016 339.984ZM149.711 341.141C148.094 341.141 147.008 340.164 147.008 338.703C147.008 337.312 148.078 336.438 149.953 336.328L152.281 336.195V335.516C152.281 334.523 151.625 333.93 150.5 333.93C149.453 333.93 148.797 334.422 148.625 335.219H147.312C147.406 333.812 148.609 332.734 150.531 332.734C152.438 332.734 153.641 333.766 153.641 335.383V341H152.352V339.602H152.32C151.836 340.531 150.805 341.141 149.711 341.141ZM155.367 341V332.875H156.648V334.172H156.68C157.133 333.297 158 332.734 159.258 332.734C161.039 332.734 162.07 333.883 162.07 335.727V341H160.711V335.969C160.711 334.656 160.094 333.938 158.844 333.938C157.562 333.938 156.727 334.844 156.727 336.219V341H155.367ZM170.555 335.539H169.227C169.031 334.656 168.344 333.93 167.148 333.93C165.742 333.93 164.789 335.094 164.789 336.938C164.789 338.828 165.758 339.945 167.164 339.945C168.273 339.945 169 339.359 169.234 338.383H170.57C170.359 340 169 341.141 167.156 341.141C164.906 341.141 163.406 339.555 163.406 336.938C163.406 334.375 164.898 332.734 167.141 332.734C169.172 332.734 170.383 334.078 170.555 335.539ZM171.891 341V332.875H173.25V341H171.891ZM172.57 331.508C172.109 331.508 171.727 331.125 171.727 330.664C171.727 330.195 172.109 329.82 172.57 329.82C173.039 329.82 173.422 330.195 173.422 330.664C173.422 331.125 173.039 331.508 172.57 331.508ZM177.766 339.984C179.047 339.984 180.031 339.086 180.031 337.914V337.25L177.859 337.383C176.766 337.453 176.141 337.938 176.141 338.703C176.141 339.477 176.789 339.984 177.766 339.984ZM177.461 341.141C175.844 341.141 174.758 340.164 174.758 338.703C174.758 337.312 175.828 336.438 177.703 336.328L180.031 336.195V335.516C180.031 334.523 179.375 333.93 178.25 333.93C177.203 333.93 176.547 334.422 176.375 335.219H175.062C175.156 333.812 176.359 332.734 178.281 332.734C180.188 332.734 181.391 333.766 181.391 335.383V341H180.102V339.602H180.07C179.586 340.531 178.555 341.141 177.461 341.141ZM183.188 341V329.727H184.547V341H183.188ZM193.609 332.734C195.68 332.734 197.086 334.391 197.086 336.938C197.086 339.484 195.688 341.141 193.641 341.141C192.477 341.141 191.539 340.57 191.055 339.68H191.023V343.711H189.664V332.875H190.953V334.25H190.984C191.484 333.336 192.43 332.734 193.609 332.734ZM193.344 339.945C194.789 339.945 195.695 338.781 195.695 336.938C195.695 335.102 194.789 333.93 193.344 333.93C191.953 333.93 191.016 335.133 191.016 336.938C191.016 338.75 191.953 339.945 193.344 339.945ZM198.531 341V329.727H199.891V341H198.531ZM204.406 339.984C205.688 339.984 206.672 339.086 206.672 337.914V337.25L204.5 337.383C203.406 337.453 202.781 337.938 202.781 338.703C202.781 339.477 203.43 339.984 204.406 339.984ZM204.102 341.141C202.484 341.141 201.398 340.164 201.398 338.703C201.398 337.312 202.469 336.438 204.344 336.328L206.672 336.195V335.516C206.672 334.523 206.016 333.93 204.891 333.93C203.844 333.93 203.188 334.422 203.016 335.219H201.703C201.797 333.812 203 332.734 204.922 332.734C206.828 332.734 208.031 333.766 208.031 335.383V341H206.742V339.602H206.711C206.227 340.531 205.195 341.141 204.102 341.141ZM209.758 341V332.875H211.039V334.172H211.07C211.523 333.297 212.391 332.734 213.648 332.734C215.43 332.734 216.461 333.883 216.461 335.727V341H215.102V335.969C215.102 334.656 214.484 333.938 213.234 333.938C211.953 333.938 211.117 334.844 211.117 336.219V341H209.758ZM218.195 341V332.875H219.477V334.172H219.508C219.961 333.297 220.828 332.734 222.086 332.734C223.867 332.734 224.898 333.883 224.898 335.727V341H223.539V335.969C223.539 334.656 222.922 333.938 221.672 333.938C220.391 333.938 219.555 334.844 219.555 336.219V341H218.195ZM226.703 341V332.875H228.062V341H226.703ZM227.383 331.508C226.922 331.508 226.539 331.125 226.539 330.664C226.539 330.195 226.922 329.82 227.383 329.82C227.852 329.82 228.234 330.195 228.234 330.664C228.234 331.125 227.852 331.508 227.383 331.508ZM229.898 341V332.875H231.18V334.172H231.211C231.664 333.297 232.531 332.734 233.789 332.734C235.57 332.734 236.602 333.883 236.602 335.727V341H235.242V335.969C235.242 334.656 234.625 333.938 233.375 333.938C232.094 333.938 231.258 334.844 231.258 336.219V341H229.898ZM241.641 339.867C243.055 339.867 244 338.695 244 336.906C244 335.117 243.055 333.93 241.641 333.93C240.242 333.93 239.328 335.086 239.328 336.906C239.328 338.727 240.242 339.867 241.641 339.867ZM241.688 344.062C239.898 344.062 238.484 343.055 238.258 341.672H239.656C239.922 342.414 240.727 342.906 241.742 342.906C243.148 342.906 244 342.094 244 340.883V339.602H243.969C243.469 340.484 242.508 341.062 241.367 341.062C239.297 341.062 237.938 339.43 237.938 336.906C237.938 334.359 239.297 332.734 241.398 332.734C242.547 332.734 243.5 333.297 244.039 334.242H244.062V332.875H245.359V340.836C245.359 342.773 243.93 344.062 241.688 344.062ZM250.273 335.117C250.273 333.727 251.516 332.734 253.305 332.734C254.984 332.734 256.219 333.734 256.281 335.109H254.984C254.891 334.328 254.258 333.844 253.258 333.844C252.266 333.844 251.609 334.336 251.609 335.047C251.609 335.609 252.039 335.984 252.961 336.219L254.219 336.523C255.859 336.938 256.453 337.531 256.453 338.727C256.453 340.141 255.117 341.141 253.219 341.141C251.438 341.141 250.195 340.172 250.055 338.734H251.414C251.562 339.578 252.203 340.031 253.305 340.031C254.406 340.031 255.086 339.562 255.086 338.828C255.086 338.25 254.75 337.938 253.836 337.695L252.406 337.328C250.977 336.961 250.273 336.227 250.273 335.117ZM261.125 333.914C259.852 333.914 258.961 334.891 258.875 336.242H263.289C263.258 334.883 262.406 333.914 261.125 333.914ZM263.258 338.672H264.594C264.359 340.094 262.984 341.141 261.211 341.141C258.883 341.141 257.469 339.523 257.469 336.969C257.469 334.445 258.906 332.734 261.148 332.734C263.344 332.734 264.695 334.328 264.695 336.789V337.305H258.867V337.383C258.867 338.938 259.781 339.961 261.242 339.961C262.273 339.961 263.031 339.438 263.258 338.672ZM266.07 341V332.875H267.352V334.203H267.383C267.648 333.305 268.398 332.734 269.352 332.734C269.586 332.734 269.789 332.773 269.898 332.789V334.109C269.789 334.07 269.5 334.031 269.172 334.031C268.117 334.031 267.43 334.789 267.43 335.938V341H266.07ZM277.672 332.875L274.688 341H273.297L270.305 332.875H271.734L273.977 339.555H274.008L276.258 332.875H277.672ZM278.812 341V332.875H280.172V341H278.812ZM279.492 331.508C279.031 331.508 278.648 331.125 278.648 330.664C278.648 330.195 279.031 329.82 279.492 329.82C279.961 329.82 280.344 330.195 280.344 330.664C280.344 331.125 279.961 331.508 279.492 331.508ZM288.758 335.539H287.43C287.234 334.656 286.547 333.93 285.352 333.93C283.945 333.93 282.992 335.094 282.992 336.938C282.992 338.828 283.961 339.945 285.367 339.945C286.477 339.945 287.203 339.359 287.438 338.383H288.773C288.562 340 287.203 341.141 285.359 341.141C283.109 341.141 281.609 339.555 281.609 336.938C281.609 334.375 283.102 332.734 285.344 332.734C287.375 332.734 288.586 334.078 288.758 335.539ZM293.281 333.914C292.008 333.914 291.117 334.891 291.031 336.242H295.445C295.414 334.883 294.562 333.914 293.281 333.914ZM295.414 338.672H296.75C296.516 340.094 295.141 341.141 293.367 341.141C291.039 341.141 289.625 339.523 289.625 336.969C289.625 334.445 291.062 332.734 293.305 332.734C295.5 332.734 296.852 334.328 296.852 336.789V337.305H291.023V337.383C291.023 338.938 291.938 339.961 293.398 339.961C294.43 339.961 295.188 339.438 295.414 338.672ZM298.086 335.117C298.086 333.727 299.328 332.734 301.117 332.734C302.797 332.734 304.031 333.734 304.094 335.109H302.797C302.703 334.328 302.07 333.844 301.07 333.844C300.078 333.844 299.422 334.336 299.422 335.047C299.422 335.609 299.852 335.984 300.773 336.219L302.031 336.523C303.672 336.938 304.266 337.531 304.266 338.727C304.266 340.141 302.93 341.141 301.031 341.141C299.25 341.141 298.008 340.172 297.867 338.734H299.227C299.375 339.578 300.016 340.031 301.117 340.031C302.219 340.031 302.898 339.562 302.898 338.828C302.898 338.25 302.562 337.938 301.648 337.695L300.219 337.328C298.789 336.961 298.086 336.227 298.086 335.117ZM306.609 343.242H305.477L306.234 339.266H307.68L306.609 343.242ZM28.1875 363.867C29.6016 363.867 30.5469 362.695 30.5469 360.906C30.5469 359.117 29.6016 357.93 28.1875 357.93C26.7891 357.93 25.875 359.086 25.875 360.906C25.875 362.727 26.7891 363.867 28.1875 363.867ZM28.2344 368.062C26.4453 368.062 25.0312 367.055 24.8047 365.672H26.2031C26.4688 366.414 27.2734 366.906 28.2891 366.906C29.6953 366.906 30.5469 366.094 30.5469 364.883V363.602H30.5156C30.0156 364.484 29.0547 365.062 27.9141 365.062C25.8438 365.062 24.4844 363.43 24.4844 360.906C24.4844 358.359 25.8438 356.734 27.9453 356.734C29.0938 356.734 30.0469 357.297 30.5859 358.242H30.6094V356.875H31.9062V364.836C31.9062 366.773 30.4766 368.062 28.2344 368.062ZM40.3516 356.875V365H39.0625V363.68H39.0312C38.5469 364.617 37.7031 365.141 36.4531 365.141C34.6797 365.141 33.6406 363.992 33.6406 362.148V356.875H35V361.906C35 363.227 35.6172 363.938 36.875 363.938C38.1953 363.938 38.9922 363.031 38.9922 361.648V356.875H40.3516ZM42.1875 365V356.875H43.5469V365H42.1875ZM42.8672 355.508C42.4062 355.508 42.0234 355.125 42.0234 354.664C42.0234 354.195 42.4062 353.82 42.8672 353.82C43.3359 353.82 43.7188 354.195 43.7188 354.664C43.7188 355.125 43.3359 355.508 42.8672 355.508ZM48.4609 365.141C46.3906 365.141 44.9844 363.484 44.9844 360.938C44.9844 358.391 46.3828 356.734 48.4297 356.734C49.5938 356.734 50.5312 357.305 51.0156 358.195H51.0469V353.727H52.4062V365H51.1094V363.625H51.0859C50.5625 364.562 49.6328 365.141 48.4609 365.141ZM48.7188 357.93C47.2812 357.93 46.375 359.102 46.375 360.938C46.375 362.781 47.2812 363.945 48.7188 363.945C50.1172 363.945 51.0547 362.758 51.0547 360.938C51.0547 359.125 50.1172 357.93 48.7188 357.93ZM54.3125 365V356.875H55.6719V365H54.3125ZM54.9922 355.508C54.5312 355.508 54.1484 355.125 54.1484 354.664C54.1484 354.195 54.5312 353.82 54.9922 353.82C55.4609 353.82 55.8438 354.195 55.8438 354.664C55.8438 355.125 55.4609 355.508 54.9922 355.508ZM57.5078 365V356.875H58.7891V358.172H58.8203C59.2734 357.297 60.1406 356.734 61.3984 356.734C63.1797 356.734 64.2109 357.883 64.2109 359.727V365H62.8516V359.969C62.8516 358.656 62.2344 357.938 60.9844 357.938C59.7031 357.938 58.8672 358.844 58.8672 360.219V365H57.5078ZM69.25 363.867C70.6641 363.867 71.6094 362.695 71.6094 360.906C71.6094 359.117 70.6641 357.93 69.25 357.93C67.8516 357.93 66.9375 359.086 66.9375 360.906C66.9375 362.727 67.8516 363.867 69.25 363.867ZM69.2969 368.062C67.5078 368.062 66.0938 367.055 65.8672 365.672H67.2656C67.5312 366.414 68.3359 366.906 69.3516 366.906C70.7578 366.906 71.6094 366.094 71.6094 364.883V363.602H71.5781C71.0781 364.484 70.1172 365.062 68.9766 365.062C66.9062 365.062 65.5469 363.43 65.5469 360.906C65.5469 358.359 66.9062 356.734 69.0078 356.734C70.1562 356.734 71.1094 357.297 71.6484 358.242H71.6719V356.875H72.9688V364.836C72.9688 366.773 71.5391 368.062 69.2969 368.062ZM78.6953 368.039C78.5312 368.039 78.2578 368.023 78.1094 367.992V366.852C78.2578 366.883 78.4688 366.891 78.6406 366.891C79.3984 366.891 79.8203 366.523 80.1328 365.578L80.3203 365.008L77.3203 356.875H78.7734L81.0234 363.641H81.0469L83.2969 356.875H84.7266L81.5312 365.57C80.8359 367.469 80.1641 368.039 78.6953 368.039ZM88.9375 365.141C86.6875 365.141 85.1719 363.523 85.1719 360.938C85.1719 358.344 86.6875 356.734 88.9375 356.734C91.1797 356.734 92.6953 358.344 92.6953 360.938C92.6953 363.523 91.1797 365.141 88.9375 365.141ZM88.9375 363.945C90.375 363.945 91.3125 362.852 91.3125 360.938C91.3125 359.023 90.375 357.93 88.9375 357.93C87.5 357.93 86.5547 359.023 86.5547 360.938C86.5547 362.852 87.5 363.945 88.9375 363.945ZM100.742 356.875V365H99.4531V363.68H99.4219C98.9375 364.617 98.0938 365.141 96.8438 365.141C95.0703 365.141 94.0312 363.992 94.0312 362.148V356.875H95.3906V361.906C95.3906 363.227 96.0078 363.938 97.2656 363.938C98.5859 363.938 99.3828 363.031 99.3828 361.648V356.875H100.742ZM106.227 354.914H107.586V356.875H109.164V357.992H107.586V362.82C107.586 363.562 107.898 363.898 108.594 363.898C108.75 363.898 109.062 363.875 109.156 363.859V365C108.992 365.039 108.617 365.062 108.297 365.062C106.805 365.062 106.227 364.453 106.227 362.891V357.992H105.016V356.875H106.227V354.914ZM113.75 365.141C111.5 365.141 109.984 363.523 109.984 360.938C109.984 358.344 111.5 356.734 113.75 356.734C115.992 356.734 117.508 358.344 117.508 360.938C117.508 363.523 115.992 365.141 113.75 365.141ZM113.75 363.945C115.188 363.945 116.125 362.852 116.125 360.938C116.125 359.023 115.188 357.93 113.75 357.93C112.312 357.93 111.367 359.023 111.367 360.938C111.367 362.852 112.312 363.945 113.75 363.945ZM129.219 356.875L126.953 365H125.57L123.734 358.711H123.703L121.875 365H120.492L118.219 356.875H119.57L121.195 363.484H121.227L123.062 356.875H124.375L126.219 363.484H126.25L127.875 356.875H129.219ZM132.859 363.984C134.141 363.984 135.125 363.086 135.125 361.914V361.25L132.953 361.383C131.859 361.453 131.234 361.938 131.234 362.703C131.234 363.477 131.883 363.984 132.859 363.984ZM132.555 365.141C130.938 365.141 129.852 364.164 129.852 362.703C129.852 361.312 130.922 360.438 132.797 360.328L135.125 360.195V359.516C135.125 358.523 134.469 357.93 133.344 357.93C132.297 357.93 131.641 358.422 131.469 359.219H130.156C130.25 357.812 131.453 356.734 133.375 356.734C135.281 356.734 136.484 357.766 136.484 359.383V365H135.195V363.602H135.164C134.68 364.531 133.648 365.141 132.555 365.141ZM138.211 365V356.875H139.492V358.203H139.523C139.789 357.305 140.539 356.734 141.492 356.734C141.727 356.734 141.93 356.773 142.039 356.789V358.109C141.93 358.07 141.641 358.031 141.312 358.031C140.258 358.031 139.57 358.789 139.57 359.938V365H138.211ZM145.836 365.141C143.766 365.141 142.359 363.484 142.359 360.938C142.359 358.391 143.758 356.734 145.805 356.734C146.969 356.734 147.906 357.305 148.391 358.195H148.422V353.727H149.781V365H148.484V363.625H148.461C147.938 364.562 147.008 365.141 145.836 365.141ZM146.094 357.93C144.656 357.93 143.75 359.102 143.75 360.938C143.75 362.781 144.656 363.945 146.094 363.945C147.492 363.945 148.43 362.758 148.43 360.938C148.43 359.125 147.492 357.93 146.094 357.93ZM157.578 363.984C158.859 363.984 159.844 363.086 159.844 361.914V361.25L157.672 361.383C156.578 361.453 155.953 361.938 155.953 362.703C155.953 363.477 156.602 363.984 157.578 363.984ZM157.273 365.141C155.656 365.141 154.57 364.164 154.57 362.703C154.57 361.312 155.641 360.438 157.516 360.328L159.844 360.195V359.516C159.844 358.523 159.188 357.93 158.062 357.93C157.016 357.93 156.359 358.422 156.188 359.219H154.875C154.969 357.812 156.172 356.734 158.094 356.734C160 356.734 161.203 357.766 161.203 359.383V365H159.914V363.602H159.883C159.398 364.531 158.367 365.141 157.273 365.141ZM166.07 359.117C166.07 357.727 167.312 356.734 169.102 356.734C170.781 356.734 172.016 357.734 172.078 359.109H170.781C170.688 358.328 170.055 357.844 169.055 357.844C168.062 357.844 167.406 358.336 167.406 359.047C167.406 359.609 167.836 359.984 168.758 360.219L170.016 360.523C171.656 360.938 172.25 361.531 172.25 362.727C172.25 364.141 170.914 365.141 169.016 365.141C167.234 365.141 165.992 364.172 165.852 362.734H167.211C167.359 363.578 168 364.031 169.102 364.031C170.203 364.031 170.883 363.562 170.883 362.828C170.883 362.25 170.547 361.938 169.633 361.695L168.203 361.328C166.773 360.961 166.07 360.227 166.07 359.117ZM176.922 357.914C175.648 357.914 174.758 358.891 174.672 360.242H179.086C179.055 358.883 178.203 357.914 176.922 357.914ZM179.055 362.672H180.391C180.156 364.094 178.781 365.141 177.008 365.141C174.68 365.141 173.266 363.523 173.266 360.969C173.266 358.445 174.703 356.734 176.945 356.734C179.141 356.734 180.492 358.328 180.492 360.789V361.305H174.664V361.383C174.664 362.938 175.578 363.961 177.039 363.961C178.07 363.961 178.828 363.438 179.055 362.672ZM188.617 359.539H187.289C187.094 358.656 186.406 357.93 185.211 357.93C183.805 357.93 182.852 359.094 182.852 360.938C182.852 362.828 183.82 363.945 185.227 363.945C186.336 363.945 187.062 363.359 187.297 362.383H188.633C188.422 364 187.062 365.141 185.219 365.141C182.969 365.141 181.469 363.555 181.469 360.938C181.469 358.375 182.961 356.734 185.203 356.734C187.234 356.734 188.445 358.078 188.617 359.539ZM196.555 356.875V365H195.266V363.68H195.234C194.75 364.617 193.906 365.141 192.656 365.141C190.883 365.141 189.844 363.992 189.844 362.148V356.875H191.203V361.906C191.203 363.227 191.82 363.938 193.078 363.938C194.398 363.938 195.195 363.031 195.195 361.648V356.875H196.555ZM198.32 365V356.875H199.602V358.203H199.633C199.898 357.305 200.648 356.734 201.602 356.734C201.836 356.734 202.039 356.773 202.148 356.789V358.109C202.039 358.07 201.75 358.031 201.422 358.031C200.367 358.031 199.68 358.789 199.68 359.938V365H198.32ZM206.125 357.914C204.852 357.914 203.961 358.891 203.875 360.242H208.289C208.258 358.883 207.406 357.914 206.125 357.914ZM208.258 362.672H209.594C209.359 364.094 207.984 365.141 206.211 365.141C203.883 365.141 202.469 363.523 202.469 360.969C202.469 358.445 203.906 356.734 206.148 356.734C208.344 356.734 209.695 358.328 209.695 360.789V361.305H203.867V361.383C203.867 362.938 204.781 363.961 206.242 363.961C207.273 363.961 208.031 363.438 208.258 362.672ZM214.789 365V357.992H213.656V356.875H214.789V355.969C214.789 354.406 215.516 353.664 217.016 353.664C217.32 353.664 217.648 353.695 217.844 353.727V354.828C217.68 354.805 217.453 354.781 217.227 354.781C216.492 354.781 216.141 355.172 216.141 355.977V356.875H217.805V357.992H216.148V365H214.789ZM225.883 356.875V365H224.594V363.68H224.562C224.078 364.617 223.234 365.141 221.984 365.141C220.211 365.141 219.172 363.992 219.172 362.148V356.875H220.531V361.906C220.531 363.227 221.148 363.938 222.406 363.938C223.727 363.938 224.523 363.031 224.523 361.648V356.875H225.883ZM228.086 354.914H229.445V356.875H231.023V357.992H229.445V362.82C229.445 363.562 229.758 363.898 230.453 363.898C230.609 363.898 230.922 363.875 231.016 363.859V365C230.852 365.039 230.477 365.062 230.156 365.062C228.664 365.062 228.086 364.453 228.086 362.891V357.992H226.875V356.875H228.086V354.914ZM239.148 356.875V365H237.859V363.68H237.828C237.344 364.617 236.5 365.141 235.25 365.141C233.477 365.141 232.438 363.992 232.438 362.148V356.875H233.797V361.906C233.797 363.227 234.414 363.938 235.672 363.938C236.992 363.938 237.789 363.031 237.789 361.648V356.875H239.148ZM240.914 365V356.875H242.195V358.203H242.227C242.492 357.305 243.242 356.734 244.195 356.734C244.43 356.734 244.633 356.773 244.742 356.789V358.109C244.633 358.07 244.344 358.031 244.016 358.031C242.961 358.031 242.273 358.789 242.273 359.938V365H240.914ZM248.719 357.914C247.445 357.914 246.555 358.891 246.469 360.242H250.883C250.852 358.883 250 357.914 248.719 357.914ZM250.852 362.672H252.188C251.953 364.094 250.578 365.141 248.805 365.141C246.477 365.141 245.062 363.523 245.062 360.969C245.062 358.445 246.5 356.734 248.742 356.734C250.938 356.734 252.289 358.328 252.289 360.789V361.305H246.461V361.383C246.461 362.938 247.375 363.961 248.836 363.961C249.867 363.961 250.625 363.438 250.852 362.672ZM254.812 365.078C254.312 365.078 253.922 364.688 253.922 364.188C253.922 363.688 254.312 363.297 254.812 363.297C255.312 363.297 255.703 363.688 255.703 364.188C255.703 364.688 255.312 365.078 254.812 365.078Z" fill="#BDBDBD"/>
<path d="M4.2353 -42H-20V-17.6667M4.2353 -42V-17.6667M4.2353 -42H28.4706M4.2353 -17.6667H-20M4.2353 -17.6667H28.4706M4.2353 -17.6667V6.66667M-20 -17.6667V6.66667M28.4706 -42V-17.6667M28.4706 -42H52.7059M28.4706 -17.6667H52.7059M28.4706 -17.6667V6.66667M52.7059 -42V-17.6667M52.7059 -42H76.9412M52.7059 -17.6667H76.9412M52.7059 -17.6667V6.66667M76.9412 -42V-17.6667M76.9412 -42H101.176M76.9412 -17.6667H101.176M76.9412 -17.6667V6.66667M101.176 -42V-17.6667M101.176 -42H125.412M101.176 -17.6667H125.412M101.176 -17.6667V6.66667M125.412 -42V-17.6667M125.412 -42H149.647M125.412 -17.6667H149.647M125.412 -17.6667V6.66667M149.647 -42V-17.6667M149.647 -42H173.882M149.647 -17.6667H173.882M149.647 -17.6667V6.66667M173.882 -42V-17.6667M173.882 -42H198.118M173.882 -17.6667H198.118M173.882 -17.6667V6.66667M198.118 -42V-17.6667M198.118 -42H222.353M198.118 -17.6667H222.353M198.118 -17.6667V6.66667M222.353 -42V-17.6667M222.353 -42H246.588M222.353 -17.6667H246.588M222.353 -17.6667V6.66667M246.588 -42V-17.6667M246.588 -42H270.824M246.588 -17.6667H270.824M246.588 -17.6667V6.66667M270.824 -42V-17.6667M270.824 -42H295.059M270.824 -17.6667H295.059M270.824 -17.6667V6.66667M295.059 -42V-17.6667M295.059 -42H319.294M295.059 -17.6667H319.294M295.059 -17.6667V6.66667M319.294 -42V-17.6667M319.294 -42H343.529M319.294 -17.6667H343.529M319.294 -17.6667V6.66667M343.529 -42V-17.6667M343.529 -42H367.765M343.529 -17.6667H367.765M343.529 -17.6667V6.66667M367.765 -42V-17.6667M367.765 -42H392V-17.6667M367.765 -17.6667H392M367.765 -17.6667V6.66667M392 -17.6667V6.66667M4.2353 6.66667H-20M4.2353 6.66667H28.4706M4.2353 6.66667V31M-20 6.66667V31M28.4706 6.66667H52.7059M28.4706 6.66667V31M52.7059 6.66667H76.9412M52.7059 6.66667V31M76.9412 6.66667H101.176M76.9412 6.66667V31M101.176 6.66667H125.412M101.176 6.66667V31M125.412 6.66667H149.647M125.412 6.66667V31M149.647 6.66667H173.882M149.647 6.66667V31M173.882 6.66667H198.118M173.882 6.66667V31M198.118 6.66667H222.353M198.118 6.66667V31M222.353 6.66667H246.588M222.353 6.66667V31M246.588 6.66667H270.824M246.588 6.66667V31M270.824 6.66667H295.059M270.824 6.66667V31M295.059 6.66667H319.294M295.059 6.66667V31M319.294 6.66667H343.529M319.294 6.66667V31M343.529 6.66667H367.765M343.529 6.66667V31M367.765 6.66667H392M367.765 6.66667V31M392 6.66667V31M4.2353 31H-20M4.2353 31H28.4706M4.2353 31V55.3333M-20 31V55.3333M28.4706 31H52.7059M28.4706 31V55.3333M52.7059 31H76.9412M52.7059 31V55.3333M76.9412 31H101.176M76.9412 31V55.3333M101.176 31H125.412M101.176 31V55.3333M125.412 31H149.647M125.412 31V55.3333M149.647 31H173.882M149.647 31V55.3333M173.882 31H198.118M173.882 31V55.3333M198.118 31H222.353M198.118 31V55.3333M222.353 31H246.588M222.353 31V55.3333M246.588 31H270.824M246.588 31V55.3333M270.824 31H295.059M270.824 31V55.3333M295.059 31H319.294M295.059 31V55.3333M319.294 31H343.529M319.294 31V55.3333M343.529 31H367.765M343.529 31V55.3333M367.765 31H392M367.765 31V55.3333M392 31V55.3333M4.2353 55.3333H-20M4.2353 55.3333H28.4706M4.2353 55.3333V79.6667M-20 55.3333V79.6667M28.4706 55.3333H52.7059M28.4706 55.3333V79.6667M52.7059 55.3333H76.9412M52.7059 55.3333V79.6667M76.9412 55.3333H101.176M76.9412 55.3333V79.6667M101.176 55.3333H125.412M101.176 55.3333V79.6667M125.412 55.3333H149.647M125.412 55.3333V79.6667M149.647 55.3333H173.882M149.647 55.3333V79.6667M173.882 55.3333H198.118M173.882 55.3333V79.6667M198.118 55.3333H222.353M198.118 55.3333V79.6667M222.353 55.3333H246.588M222.353 55.3333V79.6667M246.588 55.3333H270.824M246.588 55.3333V79.6667M270.824 55.3333H295.059M270.824 55.3333V79.6667M295.059 55.3333H319.294M295.059 55.3333V79.6667M319.294 55.3333H343.529M319.294 55.3333V79.6667M343.529 55.3333H367.765M343.529 55.3333V79.6667M367.765 55.3333H392M367.765 55.3333V79.6667M392 55.3333V79.6667M4.2353 79.6667H-20M4.2353 79.6667H28.4706M4.2353 79.6667V104M-20 79.6667V104M28.4706 79.6667H52.7059M28.4706 79.6667V104M52.7059 79.6667H76.9412M52.7059 79.6667V104M76.9412 79.6667H101.176M76.9412 79.6667V104M101.176 79.6667H125.412M101.176 79.6667V104M125.412 79.6667H149.647M125.412 79.6667V104M149.647 79.6667H173.882M149.647 79.6667V104M173.882 79.6667H198.118M173.882 79.6667V104M198.118 79.6667H222.353M198.118 79.6667V104M222.353 79.6667H246.588M222.353 79.6667V104M246.588 79.6667H270.824M246.588 79.6667V104M270.824 79.6667H295.059M270.824 79.6667V104M295.059 79.6667H319.294M295.059 79.6667V104M319.294 79.6667H343.529M319.294 79.6667V104M343.529 79.6667H367.765M343.529 79.6667V104M367.765 79.6667H392M367.765 79.6667V104M392 79.6667V104M4.2353 104H-20M4.2353 104H28.4706M4.2353 104V128.333M-20 104V128.333M28.4706 104H52.7059M28.4706 104V128.333M52.7059 104H76.9412M52.7059 104V128.333M76.9412 104H101.176M76.9412 104V128.333M101.176 104H125.412M101.176 104V128.333M125.412 104H149.647M125.412 104V128.333M149.647 104H173.882M149.647 104V128.333M173.882 104H198.118M173.882 104V128.333M198.118 104H222.353M198.118 104V128.333M222.353 104H246.588M222.353 104V128.333M246.588 104H270.824M246.588 104V128.333M270.824 104H295.059M270.824 104V128.333M295.059 104H319.294M295.059 104V128.333M319.294 104H343.529M319.294 104V128.333M343.529 104H367.765M343.529 104V128.333M367.765 104H392M367.765 104V128.333M392 104V128.333M4.2353 128.333H-20M4.2353 128.333H28.4706M4.2353 128.333V152.667M-20 128.333V152.667M28.4706 128.333H52.7059M28.4706 128.333V152.667M52.7059 128.333H76.9412M52.7059 128.333V152.667M76.9412 128.333H101.176M76.9412 128.333V152.667M101.176 128.333H125.412M101.176 128.333V152.667M125.412 128.333H149.647M125.412 128.333V152.667M149.647 128.333H173.882M149.647 128.333V152.667M173.882 128.333H198.118M173.882 128.333V152.667M198.118 128.333H222.353M198.118 128.333V152.667M222.353 128.333H246.588M222.353 128.333V152.667M246.588 128.333H270.824M246.588 128.333V152.667M270.824 128.333H295.059M270.824 128.333V152.667M295.059 128.333H319.294M295.059 128.333V152.667M319.294 128.333H343.529M319.294 128.333V152.667M343.529 128.333H367.765M343.529 128.333V152.667M367.765 128.333H392M367.765 128.333V152.667M392 128.333V152.667M4.2353 152.667H-20M4.2353 152.667H28.4706M4.2353 152.667V177M-20 152.667V177M28.4706 152.667H52.7059M28.4706 152.667V177M52.7059 152.667H76.9412M52.7059 152.667V177M76.9412 152.667H101.176M76.9412 152.667V177M101.176 152.667H125.412M101.176 152.667V177M125.412 152.667H149.647M125.412 152.667V177M149.647 152.667H173.882M149.647 152.667V177M173.882 152.667H198.118M173.882 152.667V177M198.118 152.667H222.353M198.118 152.667V177M222.353 152.667H246.588M222.353 152.667V177M246.588 152.667H270.824M246.588 152.667V177M270.824 152.667H295.059M270.824 152.667V177M295.059 152.667H319.294M295.059 152.667V177M319.294 152.667H343.529M319.294 152.667V177M343.529 152.667H367.765M343.529 152.667V177M367.765 152.667H392M367.765 152.667V177M392 152.667V177M4.2353 177H-20M4.2353 177H28.4706M4.2353 177V201.333M-20 177V201.333M28.4706 177H52.7059M28.4706 177V201.333M52.7059 177H76.9412M52.7059 177V201.333M76.9412 177H101.176M76.9412 177V201.333M101.176 177H125.412M101.176 177V201.333M125.412 177H149.647M125.412 177V201.333M149.647 177H173.882M149.647 177V201.333M173.882 177H198.118M173.882 177V201.333M198.118 177H222.353M198.118 177V201.333M222.353 177H246.588M222.353 177V201.333M246.588 177H270.824M246.588 177V201.333M270.824 177H295.059M270.824 177V201.333M295.059 177H319.294M295.059 177V201.333M319.294 177H343.529M319.294 177V201.333M343.529 177H367.765M343.529 177V201.333M367.765 177H392M367.765 177V201.333M392 177V201.333M4.2353 201.333H-20M4.2353 201.333H28.4706M4.2353 201.333V225.667M-20 201.333V225.667M28.4706 201.333H52.7059M28.4706 201.333V225.667M52.7059 201.333H76.9412M52.7059 201.333V225.667M76.9412 201.333H101.176M76.9412 201.333V225.667M101.176 201.333H125.412M101.176 201.333V225.667M125.412 201.333H149.647M125.412 201.333V225.667M149.647 201.333H173.882M149.647 201.333V225.667M173.882 201.333H198.118M173.882 201.333V225.667M198.118 201.333H222.353M198.118 201.333V225.667M222.353 201.333H246.588M222.353 201.333V225.667M246.588 201.333H270.824M246.588 201.333V225.667M270.824 201.333H295.059M270.824 201.333V225.667M295.059 201.333H319.294M295.059 201.333V225.667M319.294 201.333H343.529M319.294 201.333V225.667M343.529 201.333H367.765M343.529 201.333V225.667M367.765 201.333H392M367.765 201.333V225.667M392 201.333V225.667M4.2353 225.667H-20M4.2353 225.667H28.4706M4.2353 225.667V250M-20 225.667V250H4.2353M28.4706 225.667H52.7059M28.4706 225.667V250M52.7059 225.667H76.9412M52.7059 225.667V250M76.9412 225.667H101.176M76.9412 225.667V250M101.176 225.667H125.412M101.176 225.667V250M125.412 225.667H149.647M125.412 225.667V250M149.647 225.667H173.882M149.647 225.667V250M173.882 225.667H198.118M173.882 225.667V250M198.118 225.667H222.353M198.118 225.667V250M222.353 225.667H246.588M222.353 225.667V250M246.588 225.667H270.824M246.588 225.667V250M270.824 225.667H295.059M270.824 225.667V250M295.059 225.667H319.294M295.059 225.667V250M319.294 225.667H343.529M319.294 225.667V250M343.529 225.667H367.765M343.529 225.667V250M367.765 225.667H392M367.765 225.667V250M392 225.667V250H367.765M4.2353 250H28.4706M28.4706 250H52.7059M52.7059 250H76.9412M76.9412 250H101.176M101.176 250H125.412M125.412 250H149.647M149.647 250H173.882M173.882 250H198.118M198.118 250H222.353M222.353 250H246.588M246.588 250H270.824M270.824 250H295.059M295.059 250H319.294M319.294 250H343.529M343.529 250H367.765" stroke="url(#paint0_radial_2_1006)" stroke-opacity="0.08"/>
<g clip-path="url(#clip1_2_1006)">
<path d="M101.263 46H34.0341C28.4924 46 24 50.4924 24 56.0341V123.263C24 128.804 28.4924 133.297 34.0341 133.297H101.263C106.804 133.297 111.297 128.804 111.297 123.263V56.0341C111.297 50.4924 106.804 46 101.263 46Z" fill="#202020"/>
<path d="M51.8834 79.4892C53.21 78.318 54.9528 77.6074 56.8616 77.6074H79.4384C81.3472 77.6074 83.09 78.318 84.4167 79.4892C84.1083 77.0142 81.997 75.0989 79.4384 75.0989H56.8616C54.303 75.0989 52.1917 77.0142 51.8834 79.4892Z" fill="white"/>
<path d="M51.8834 84.5063C53.21 83.3351 54.9528 82.6245 56.8616 82.6245H79.4384C81.3472 82.6245 83.09 83.3351 84.4167 84.5063C84.1083 82.0313 81.997 80.116 79.4384 80.116H56.8616C54.303 80.116 52.1917 82.0313 51.8834 84.5063Z" fill="white"/>
<path d="M56.8618 85.1331C54.091 85.1331 51.8447 87.3793 51.8447 90.1501V100.184C51.8447 102.955 54.091 105.201 56.8618 105.201H79.4386C82.2094 105.201 84.4556 102.955 84.4556 100.184V90.1501C84.4556 87.3793 82.2094 85.1331 79.4386 85.1331H73.1673C72.4745 85.1331 71.913 85.6946 71.913 86.3873C71.913 88.4655 70.2284 90.1501 68.1502 90.1501C66.072 90.1501 64.3874 88.4655 64.3874 86.3873C64.3874 85.6946 63.8259 85.1331 63.1331 85.1331H56.8618Z" fill="white"/>
<path d="M101.263 46.5017H34.0341C28.7695 46.5017 24.5017 50.7695 24.5017 56.0341V123.263C24.5017 128.527 28.7695 132.795 34.0341 132.795H101.263C106.527 132.795 110.795 128.527 110.795 123.263V56.0341C110.795 50.7695 106.527 46.5017 101.263 46.5017Z" stroke="white" stroke-opacity="0.04"/>
<path d="M101.263 46.5017H34.0341C28.7695 46.5017 24.5017 50.7695 24.5017 56.0341V123.263C24.5017 128.527 28.7695 132.795 34.0341 132.795H101.263C106.527 132.795 110.795 128.527 110.795 123.263V56.0341C110.795 50.7695 106.527 46.5017 101.263 46.5017Z" stroke="url(#paint1_linear_2_1006)" stroke-opacity="0.12"/>
<path d="M101.263 149.352H34.0341C28.4924 149.352 24 153.844 24 159.386V226.614C24 232.156 28.4924 236.648 34.0341 236.648H101.263C106.804 236.648 111.297 232.156 111.297 226.614V159.386C111.297 153.844 106.804 149.352 101.263 149.352Z" fill="#202020"/>
<path fill-rule="evenodd" clip-rule="evenodd" d="M60.6246 183.467V184.722H57.3014C55.6967 184.722 54.3509 185.933 54.183 187.529L52.0705 207.598C51.8756 209.449 53.3273 211.061 55.189 211.061H81.1117C82.9733 211.061 84.425 209.449 84.2301 207.598L82.1177 187.529C81.9496 185.933 80.6039 184.722 78.9992 184.722H75.6758V183.467C75.6758 179.311 72.3064 175.942 68.1502 175.942C63.9939 175.942 60.6246 179.311 60.6246 183.467ZM68.1502 178.45C65.3793 178.45 63.1331 180.697 63.1331 183.467V184.722H73.1672V183.467C73.1672 180.697 70.921 178.45 68.1502 178.45ZM63.1331 192.247C63.1331 195.018 65.3793 197.264 68.1502 197.264C70.921 197.264 73.1672 195.018 73.1672 192.247V190.993C73.1672 190.301 73.7287 189.739 74.4215 189.739C75.1143 189.739 75.6758 190.301 75.6758 190.993V192.247C75.6758 196.403 72.3064 199.773 68.1502 199.773C63.9939 199.773 60.6246 196.403 60.6246 192.247V190.993C60.6246 190.301 61.1861 189.739 61.8788 189.739C62.5716 189.739 63.1331 190.301 63.1331 190.993V192.247Z" fill="white"/>
<path d="M101.263 149.853H34.0341C28.7695 149.853 24.5017 154.121 24.5017 159.386V226.614C24.5017 231.879 28.7695 236.147 34.0341 236.147H101.263C106.527 236.147 110.795 231.879 110.795 226.614V159.386C110.795 154.121 106.527 149.853 101.263 149.853Z" stroke="white" stroke-opacity="0.04"/>
<path d="M101.263 149.853H34.0341C28.7695 149.853 24.5017 154.121 24.5017 159.386V226.614C24.5017 231.879 28.7695 236.147 34.0341 236.147H101.263C106.527 236.147 110.795 231.879 110.795 226.614V159.386C110.795 154.121 106.527 149.853 101.263 149.853Z" stroke="url(#paint2_linear_2_1006)" stroke-opacity="0.12"/>
<path d="M204.614 46H137.386C131.844 46 127.352 50.4924 127.352 56.0341V123.263C127.352 128.804 131.844 133.297 137.386 133.297H204.614C210.156 133.297 214.648 128.804 214.648 123.263V56.0341C214.648 50.4924 210.156 46 204.614 46Z" fill="#202020"/>
<path fill-rule="evenodd" clip-rule="evenodd" d="M153.942 80.7431C153.942 79.0113 155.346 77.6074 157.078 77.6074H185.926C187.658 77.6074 189.061 79.0113 189.061 80.7431V85.8042C189.061 86.2519 188.823 86.6657 188.435 86.8899C187.308 87.5424 186.553 88.7589 186.553 90.1501C186.553 91.5413 187.308 92.7578 188.435 93.4103C188.823 93.6344 189.061 94.0482 189.061 94.496V99.5571C189.061 101.289 187.658 102.693 185.926 102.693H157.078C155.346 102.693 153.942 101.289 153.942 99.5571V94.496C153.942 94.0482 154.181 93.6344 154.568 93.4103C155.696 92.7578 156.451 91.5413 156.451 90.1501C156.451 88.7589 155.696 87.5424 154.568 86.8899C154.181 86.6657 153.942 86.2519 153.942 85.8042V80.7431ZM179.027 78.8617C179.72 78.8617 180.282 79.4232 180.282 80.116V81.3702C180.282 82.063 179.72 82.6245 179.027 82.6245C178.335 82.6245 177.773 82.063 177.773 81.3702V80.116C177.773 79.4232 178.335 78.8617 179.027 78.8617ZM180.282 86.3873C180.282 85.6945 179.72 85.133 179.027 85.133C178.335 85.133 177.773 85.6945 177.773 86.3873V87.6416C177.773 88.3343 178.335 88.8958 179.027 88.8958C179.72 88.8958 180.282 88.3343 180.282 87.6416V86.3873ZM179.027 91.4044C179.72 91.4044 180.282 91.9659 180.282 92.6586V93.9129C180.282 94.6056 179.72 95.1671 179.027 95.1671C178.335 95.1671 177.773 94.6056 177.773 93.9129V92.6586C177.773 91.9659 178.335 91.4044 179.027 91.4044ZM180.282 98.9299C180.282 98.2372 179.72 97.6757 179.027 97.6757C178.335 97.6757 177.773 98.2372 177.773 98.9299V100.184C177.773 100.877 178.335 101.438 179.027 101.438C179.72 101.438 180.282 100.877 180.282 100.184V98.9299ZM161.468 90.1501C161.468 89.4573 162.03 88.8958 162.722 88.8958H171.502C172.194 88.8958 172.756 89.4573 172.756 90.1501C172.756 90.8428 172.194 91.4044 171.502 91.4044H162.722C162.03 91.4044 161.468 90.8428 161.468 90.1501ZM162.722 93.9129C162.03 93.9129 161.468 94.4744 161.468 95.1671C161.468 95.8599 162.03 96.4214 162.722 96.4214H167.739C168.431 96.4214 168.993 95.8599 168.993 95.1671C168.993 94.4744 168.431 93.9129 167.739 93.9129H162.722Z" fill="white"/>
<path d="M204.614 46.5017H137.386C132.121 46.5017 127.853 50.7695 127.853 56.0341V123.263C127.853 128.527 132.121 132.795 137.386 132.795H204.614C209.879 132.795 214.147 128.527 214.147 123.263V56.0341C214.147 50.7695 209.879 46.5017 204.614 46.5017Z" stroke="white" stroke-opacity="0.04"/>
<path d="M204.614 46.5017H137.386C132.121 46.5017 127.853 50.7695 127.853 56.0341V123.263C127.853 128.527 132.121 132.795 137.386 132.795H204.614C209.879 132.795 214.147 128.527 214.147 123.263V56.0341C214.147 50.7695 209.879 46.5017 204.614 46.5017Z" stroke="url(#paint3_linear_2_1006)" stroke-opacity="0.12"/>
<path d="M204.614 149.352H137.386C131.844 149.352 127.352 153.844 127.352 159.386V226.614C127.352 232.156 131.844 236.648 137.386 236.648H204.614C210.156 236.648 214.648 232.156 214.648 226.614V159.386C214.648 153.844 210.156 149.352 204.614 149.352Z" fill="#202020"/>
<path d="M167.112 178.45C165.38 178.45 163.976 179.854 163.976 181.586C163.976 183.318 165.38 184.722 167.112 184.722H170.247V192.247H157.078C155.346 192.247 153.942 190.844 153.942 189.112V187.857C153.942 186.126 155.346 184.722 157.078 184.722H162.418C161.818 183.825 161.468 182.746 161.468 181.586C161.468 178.468 163.994 175.942 167.112 175.942C168.885 175.942 170.467 176.76 171.502 178.038C172.536 176.76 174.119 175.942 175.892 175.942C179.009 175.942 181.536 178.468 181.536 181.586C181.536 182.746 181.186 183.825 180.586 184.722H187.18C188.912 184.722 190.316 186.126 190.316 187.857V189.112C190.316 190.844 188.912 192.247 187.18 192.247H172.756V184.722H175.892C177.624 184.722 179.027 183.318 179.027 181.586C179.027 179.854 177.624 178.45 175.892 178.45C174.16 178.45 172.756 179.854 172.756 181.586V184.722H170.247V181.586C170.247 179.854 168.844 178.45 167.112 178.45Z" fill="white"/>
<path d="M170.247 194.756H156.451V206.044C156.451 208.122 158.135 209.807 160.213 209.807H170.247V194.756Z" fill="white"/>
<path d="M172.756 194.756V209.807H184.044C186.122 209.807 187.807 208.122 187.807 206.044V194.756H172.756Z" fill="white"/>
<path d="M204.614 149.853H137.386C132.121 149.853 127.853 154.121 127.853 159.386V226.614C127.853 231.879 132.121 236.147 137.386 236.147H204.614C209.879 236.147 214.147 231.879 214.147 226.614V159.386C214.147 154.121 209.879 149.853 204.614 149.853Z" stroke="white" stroke-opacity="0.04"/>
<path d="M204.614 149.853H137.386C132.121 149.853 127.853 154.121 127.853 159.386V226.614C127.853 231.879 132.121 236.147 137.386 236.147H204.614C209.879 236.147 214.147 231.879 214.147 226.614V159.386C214.147 154.121 209.879 149.853 204.614 149.853Z" stroke="url(#paint4_linear_2_1006)" stroke-opacity="0.12"/>
<path d="M307.966 46H240.737C235.195 46 230.703 50.4924 230.703 56.0341V123.263C230.703 128.804 235.195 133.297 240.737 133.297H307.966C313.508 133.297 318 128.804 318 123.263V56.0341C318 50.4924 313.508 46 307.966 46Z" fill="#202020"/>
<path d="M274.853 82.6245C272.775 82.6245 271.09 84.3091 271.09 86.3873C271.09 88.4655 272.775 90.1501 274.853 90.1501C276.931 90.1501 278.616 88.4655 278.616 86.3873C278.616 84.3091 276.931 82.6245 274.853 82.6245Z" fill="white"/>
<path fill-rule="evenodd" clip-rule="evenodd" d="M257.294 78.2345C257.294 76.5028 258.697 75.0989 260.429 75.0989H289.277C291.009 75.0989 292.413 76.5028 292.413 78.2345V94.54C292.413 96.2718 291.009 97.6757 289.277 97.6757H260.429C258.697 97.6757 257.294 96.2718 257.294 94.54V78.2345ZM268.582 86.3873C268.582 82.9237 271.389 80.1159 274.853 80.1159C278.317 80.1159 281.125 82.9237 281.125 86.3873C281.125 89.8509 278.317 92.6586 274.853 92.6586C271.389 92.6586 268.582 89.8509 268.582 86.3873ZM286.142 85.133C285.449 85.133 284.887 85.6945 284.887 86.3873V86.3998C284.887 87.0926 285.449 87.6541 286.142 87.6541H286.155C286.847 87.6541 287.409 87.0926 287.409 86.3998V86.3873C287.409 85.6945 286.847 85.133 286.155 85.133H286.142ZM262.311 86.3873C262.311 85.6945 262.872 85.133 263.565 85.133H263.578C264.27 85.133 264.832 85.6945 264.832 86.3873V86.3998C264.832 87.0926 264.27 87.6541 263.578 87.6541H263.565C262.872 87.6541 262.311 87.0926 262.311 86.3998V86.3873Z" fill="white"/>
<path d="M258.548 100.184C257.855 100.184 257.294 100.746 257.294 101.439C257.294 102.131 257.855 102.693 258.548 102.693C267.579 102.693 276.325 103.901 284.637 106.163C286.627 106.705 288.65 105.229 288.65 103.12V101.439C288.65 100.746 288.088 100.184 287.396 100.184H258.548Z" fill="white"/>
<path d="M307.966 46.5017H240.737C235.473 46.5017 231.205 50.7695 231.205 56.0341V123.263C231.205 128.527 235.473 132.795 240.737 132.795H307.966C313.23 132.795 317.498 128.527 317.498 123.263V56.0341C317.498 50.7695 313.23 46.5017 307.966 46.5017Z" stroke="white" stroke-opacity="0.04"/>
<path d="M307.966 46.5017H240.737C235.473 46.5017 231.205 50.7695 231.205 56.0341V123.263C231.205 128.527 235.473 132.795 240.737 132.795H307.966C313.23 132.795 317.498 128.527 317.498 123.263V56.0341C317.498 50.7695 313.23 46.5017 307.966 46.5017Z" stroke="url(#paint5_linear_2_1006)" stroke-opacity="0.12"/>
<path d="M307.966 149.352H240.737C235.195 149.352 230.703 153.844 230.703 159.386V226.614C230.703 232.156 235.195 236.648 240.737 236.648H307.966C313.508 236.648 318 232.156 318 226.614V159.386C318 153.844 313.508 149.352 307.966 149.352Z" fill="#202020"/>
<path fill-rule="evenodd" clip-rule="evenodd" d="M264.192 175.942H269.836C273.3 175.942 276.108 178.749 276.108 182.213V185.349C276.108 187.081 277.511 188.485 279.243 188.485H282.379C285.843 188.485 288.65 191.292 288.65 194.756V207.926C288.65 209.658 287.246 211.061 285.515 211.061H264.192C262.46 211.061 261.056 209.658 261.056 207.926V179.078C261.056 177.346 262.46 175.942 264.192 175.942ZM271.09 202.281C271.09 201.589 270.529 201.027 269.836 201.027C269.144 201.027 268.582 201.589 268.582 202.281V203.536C268.582 204.228 269.144 204.79 269.836 204.79C270.529 204.79 271.09 204.228 271.09 203.536V202.281ZM274.853 197.264C275.546 197.264 276.108 197.826 276.108 198.519V203.536C276.108 204.228 275.546 204.79 274.853 204.79C274.161 204.79 273.599 204.228 273.599 203.536V198.519C273.599 197.826 274.161 197.264 274.853 197.264ZM281.125 194.756C281.125 194.064 280.563 193.502 279.87 193.502C279.178 193.502 278.616 194.064 278.616 194.756V203.536C278.616 204.228 279.178 204.79 279.87 204.79C280.563 204.79 281.125 204.228 281.125 203.536V194.756Z" fill="white"/>
<path d="M278.616 182.213C278.616 180.018 277.81 178.01 276.478 176.471C282.162 177.955 286.637 182.43 288.121 188.114C286.582 186.782 284.574 185.976 282.379 185.976H279.243C278.897 185.976 278.616 185.695 278.616 185.349V182.213Z" fill="white"/>
<path d="M307.966 149.853H240.737C235.473 149.853 231.205 154.121 231.205 159.386V226.614C231.205 231.879 235.473 236.147 240.737 236.147H307.966C313.23 236.147 317.498 231.879 317.498 226.614V159.386C317.498 154.121 313.23 149.853 307.966 149.853Z" stroke="white" stroke-opacity="0.04"/>
<path d="M307.966 149.853H240.737C235.473 149.853 231.205 154.121 231.205 159.386V226.614C231.205 231.879 235.473 236.147 240.737 236.147H307.966C313.23 236.147 317.498 231.879 317.498 226.614V159.386C317.498 154.121 313.23 149.853 307.966 149.853Z" stroke="url(#paint6_linear_2_1006)" stroke-opacity="0.12"/>
</g>
<rect y="105" width="342" height="137" fill="url(#paint7_linear_2_1006)"/>
</g>
<rect x="0.5" y="0.5" width="341" height="394" rx="7.5" stroke="white" stroke-opacity="0.04"/>
<rect x="0.5" y="0.5" width="341" height="394" rx="7.5" stroke="url(#paint8_linear_2_1006)" stroke-opacity="0.12"/>
<defs>
<radialGradient id="paint0_radial_2_1006" cx="0" cy="0" r="1" gradientUnits="userSpaceOnUse" gradientTransform="translate(186 111.799) rotate(90) scale(137.889 206.311)">
<stop stop-color="white"/>
<stop offset="1" stop-color="white" stop-opacity="0"/>
</radialGradient>
<linearGradient id="paint1_linear_2_1006" x1="67.6485" y1="46" x2="67.6485" y2="110.633" gradientUnits="userSpaceOnUse">
<stop stop-color="white"/>
<stop offset="1" stop-color="white" stop-opacity="0"/>
</linearGradient>
<linearGradient id="paint2_linear_2_1006" x1="67.6485" y1="149.352" x2="67.6485" y2="213.984" gradientUnits="userSpaceOnUse">
<stop stop-color="white"/>
<stop offset="1" stop-color="white" stop-opacity="0"/>
</linearGradient>
<linearGradient id="paint3_linear_2_1006" x1="171" y1="46" x2="171" y2="110.633" gradientUnits="userSpaceOnUse">
<stop stop-color="white"/>
<stop offset="1" stop-color="white" stop-opacity="0"/>
</linearGradient>
<linearGradient id="paint4_linear_2_1006" x1="171" y1="149.352" x2="171" y2="213.984" gradientUnits="userSpaceOnUse">
<stop stop-color="white"/>
<stop offset="1" stop-color="white" stop-opacity="0"/>
</linearGradient>
<linearGradient id="paint5_linear_2_1006" x1="274.352" y1="46" x2="274.352" y2="110.633" gradientUnits="userSpaceOnUse">
<stop stop-color="white"/>
<stop offset="1" stop-color="white" stop-opacity="0"/>
</linearGradient>
<linearGradient id="paint6_linear_2_1006" x1="274.352" y1="149.352" x2="274.352" y2="213.984" gradientUnits="userSpaceOnUse">
<stop stop-color="white"/>
<stop offset="1" stop-color="white" stop-opacity="0"/>
</linearGradient>
<linearGradient id="paint7_linear_2_1006" x1="171" y1="105" x2="171" y2="242" gradientUnits="userSpaceOnUse">
<stop stop-color="#131313" stop-opacity="0"/>
<stop offset="1" stop-color="#131313"/>
</linearGradient>
<linearGradient id="paint8_linear_2_1006" x1="171" y1="0" x2="171" y2="292.452" gradientUnits="userSpaceOnUse">
<stop stop-color="white"/>
<stop offset="1" stop-color="white" stop-opacity="0"/>
</linearGradient>
<clipPath id="clip0_2_1006">
<rect width="342" height="395" rx="8" fill="white"/>
</clipPath>
<clipPath id="clip1_2_1006">
<rect width="294" height="190.648" fill="white" transform="translate(24 46)"/>
</clipPath>
</defs>
</svg>
