<svg width="822" height="500" viewBox="0 0 822 500" fill="none" xmlns="http://www.w3.org/2000/svg">
<g clip-path="url(#clip0_2_752)">
<rect width="822" height="500" rx="12" fill="#131313"/>
<path d="M53.5882 -161H6V-118.583M53.5882 -161V-118.583M53.5882 -161H101.176M53.5882 -118.583H6M53.5882 -118.583H101.176M53.5882 -118.583V-76.1667M6 -118.583V-76.1667M101.176 -161V-118.583M101.176 -161H148.765M101.176 -118.583H148.765M101.176 -118.583V-76.1667M148.765 -161V-118.583M148.765 -161H196.353M148.765 -118.583H196.353M148.765 -118.583V-76.1667M196.353 -161V-118.583M196.353 -161H243.941M196.353 -118.583H243.941M196.353 -118.583V-76.1667M243.941 -161V-118.583M243.941 -161H291.529M243.941 -118.583H291.529M243.941 -118.583V-76.1667M291.529 -161V-118.583M291.529 -161H339.118M291.529 -118.583H339.118M291.529 -118.583V-76.1667M339.118 -161V-118.583M339.118 -161H386.706M339.118 -118.583H386.706M339.118 -118.583V-76.1667M386.706 -161V-118.583M386.706 -161H434.294M386.706 -118.583H434.294M386.706 -118.583V-76.1667M434.294 -161V-118.583M434.294 -161H481.882M434.294 -118.583H481.882M434.294 -118.583V-76.1667M481.882 -161V-118.583M481.882 -161H529.471M481.882 -118.583H529.471M481.882 -118.583V-76.1667M529.471 -161V-118.583M529.471 -161H577.059M529.471 -118.583H577.059M529.471 -118.583V-76.1667M577.059 -161V-118.583M577.059 -161H624.647M577.059 -118.583H624.647M577.059 -118.583V-76.1667M624.647 -161V-118.583M624.647 -161H672.235M624.647 -118.583H672.235M624.647 -118.583V-76.1667M672.235 -161V-118.583M672.235 -161H719.824M672.235 -118.583H719.824M672.235 -118.583V-76.1667M719.824 -161V-118.583M719.824 -161H767.412M719.824 -118.583H767.412M719.824 -118.583V-76.1667M767.412 -161V-118.583M767.412 -161H815V-118.583M767.412 -118.583H815M767.412 -118.583V-76.1667M815 -118.583V-76.1667M53.5882 -76.1667H6M53.5882 -76.1667H101.176M53.5882 -76.1667V-33.75M6 -76.1667V-33.75M101.176 -76.1667H148.765M101.176 -76.1667V-33.75M148.765 -76.1667H196.353M148.765 -76.1667V-33.75M196.353 -76.1667H243.941M196.353 -76.1667V-33.75M243.941 -76.1667H291.529M243.941 -76.1667V-33.75M291.529 -76.1667H339.118M291.529 -76.1667V-33.75M339.118 -76.1667H386.706M339.118 -76.1667V-33.75M386.706 -76.1667H434.294M386.706 -76.1667V-33.75M434.294 -76.1667H481.882M434.294 -76.1667V-33.75M481.882 -76.1667H529.471M481.882 -76.1667V-33.75M529.471 -76.1667H577.059M529.471 -76.1667V-33.75M577.059 -76.1667H624.647M577.059 -76.1667V-33.75M624.647 -76.1667H672.235M624.647 -76.1667V-33.75M672.235 -76.1667H719.824M672.235 -76.1667V-33.75M719.824 -76.1667H767.412M719.824 -76.1667V-33.75M767.412 -76.1667H815M767.412 -76.1667V-33.75M815 -76.1667V-33.75M53.5882 -33.75H6M53.5882 -33.75H101.176M53.5882 -33.75V8.66667M6 -33.75V8.66667M101.176 -33.75H148.765M101.176 -33.75V8.66667M148.765 -33.75H196.353M148.765 -33.75V8.66667M196.353 -33.75H243.941M196.353 -33.75V8.66667M243.941 -33.75H291.529M243.941 -33.75V8.66667M291.529 -33.75H339.118M291.529 -33.75V8.66667M339.118 -33.75H386.706M339.118 -33.75V8.66667M386.706 -33.75H434.294M386.706 -33.75V8.66667M434.294 -33.75H481.882M434.294 -33.75V8.66667M481.882 -33.75H529.471M481.882 -33.75V8.66667M529.471 -33.75H577.059M529.471 -33.75V8.66667M577.059 -33.75H624.647M577.059 -33.75V8.66667M624.647 -33.75H672.235M624.647 -33.75V8.66667M672.235 -33.75H719.824M672.235 -33.75V8.66667M719.824 -33.75H767.412M719.824 -33.75V8.66667M767.412 -33.75H815M767.412 -33.75V8.66667M815 -33.75V8.66667M53.5882 8.66667H6M53.5882 8.66667H101.176M53.5882 8.66667V51.0833M6 8.66667V51.0833M101.176 8.66667H148.765M101.176 8.66667V51.0833M148.765 8.66667H196.353M148.765 8.66667V51.0833M196.353 8.66667H243.941M196.353 8.66667V51.0833M243.941 8.66667H291.529M243.941 8.66667V51.0833M291.529 8.66667H339.118M291.529 8.66667V51.0833M339.118 8.66667H386.706M339.118 8.66667V51.0833M386.706 8.66667H434.294M386.706 8.66667V51.0833M434.294 8.66667H481.882M434.294 8.66667V51.0833M481.882 8.66667H529.471M481.882 8.66667V51.0833M529.471 8.66667H577.059M529.471 8.66667V51.0833M577.059 8.66667H624.647M577.059 8.66667V51.0833M624.647 8.66667H672.235M624.647 8.66667V51.0833M672.235 8.66667H719.824M672.235 8.66667V51.0833M719.824 8.66667H767.412M719.824 8.66667V51.0833M767.412 8.66667H815M767.412 8.66667V51.0833M815 8.66667V51.0833M53.5882 51.0833H6M53.5882 51.0833H101.176M53.5882 51.0833V93.5M6 51.0833V93.5M101.176 51.0833H148.765M101.176 51.0833V93.5M148.765 51.0833H196.353M148.765 51.0833V93.5M196.353 51.0833H243.941M196.353 51.0833V93.5M243.941 51.0833H291.529M243.941 51.0833V93.5M291.529 51.0833H339.118M291.529 51.0833V93.5M339.118 51.0833H386.706M339.118 51.0833V93.5M386.706 51.0833H434.294M386.706 51.0833V93.5M434.294 51.0833H481.882M434.294 51.0833V93.5M481.882 51.0833H529.471M481.882 51.0833V93.5M529.471 51.0833H577.059M529.471 51.0833V93.5M577.059 51.0833H624.647M577.059 51.0833V93.5M624.647 51.0833H672.235M624.647 51.0833V93.5M672.235 51.0833H719.824M672.235 51.0833V93.5M719.824 51.0833H767.412M719.824 51.0833V93.5M767.412 51.0833H815M767.412 51.0833V93.5M815 51.0833V93.5M53.5882 93.5H6M53.5882 93.5H101.176M53.5882 93.5V135.917M6 93.5V135.917M101.176 93.5H148.765M101.176 93.5V135.917M148.765 93.5H196.353M148.765 93.5V135.917M196.353 93.5H243.941M196.353 93.5V135.917M243.941 93.5H291.529M243.941 93.5V135.917M291.529 93.5H339.118M291.529 93.5V135.917M339.118 93.5H386.706M339.118 93.5V135.917M386.706 93.5H434.294M386.706 93.5V135.917M434.294 93.5H481.882M434.294 93.5V135.917M481.882 93.5H529.471M481.882 93.5V135.917M529.471 93.5H577.059M529.471 93.5V135.917M577.059 93.5H624.647M577.059 93.5V135.917M624.647 93.5H672.235M624.647 93.5V135.917M672.235 93.5H719.824M672.235 93.5V135.917M719.824 93.5H767.412M719.824 93.5V135.917M767.412 93.5H815M767.412 93.5V135.917M815 93.5V135.917M53.5882 135.917H6M53.5882 135.917H101.176M53.5882 135.917V178.333M6 135.917V178.333M101.176 135.917H148.765M101.176 135.917V178.333M148.765 135.917H196.353M148.765 135.917V178.333M196.353 135.917H243.941M196.353 135.917V178.333M243.941 135.917H291.529M243.941 135.917V178.333M291.529 135.917H339.118M291.529 135.917V178.333M339.118 135.917H386.706M339.118 135.917V178.333M386.706 135.917H434.294M386.706 135.917V178.333M434.294 135.917H481.882M434.294 135.917V178.333M481.882 135.917H529.471M481.882 135.917V178.333M529.471 135.917H577.059M529.471 135.917V178.333M577.059 135.917H624.647M577.059 135.917V178.333M624.647 135.917H672.235M624.647 135.917V178.333M672.235 135.917H719.824M672.235 135.917V178.333M719.824 135.917H767.412M719.824 135.917V178.333M767.412 135.917H815M767.412 135.917V178.333M815 135.917V178.333M53.5882 178.333H6M53.5882 178.333H101.176M53.5882 178.333V220.75M6 178.333V220.75M101.176 178.333H148.765M101.176 178.333V220.75M148.765 178.333H196.353M148.765 178.333V220.75M196.353 178.333H243.941M196.353 178.333V220.75M243.941 178.333H291.529M243.941 178.333V220.75M291.529 178.333H339.118M291.529 178.333V220.75M339.118 178.333H386.706M339.118 178.333V220.75M386.706 178.333H434.294M386.706 178.333V220.75M434.294 178.333H481.882M434.294 178.333V220.75M481.882 178.333H529.471M481.882 178.333V220.75M529.471 178.333H577.059M529.471 178.333V220.75M577.059 178.333H624.647M577.059 178.333V220.75M624.647 178.333H672.235M624.647 178.333V220.75M672.235 178.333H719.824M672.235 178.333V220.75M719.824 178.333H767.412M719.824 178.333V220.75M767.412 178.333H815M767.412 178.333V220.75M815 178.333V220.75M53.5882 220.75H6M53.5882 220.75H101.176M53.5882 220.75V263.167M6 220.75V263.167M101.176 220.75H148.765M101.176 220.75V263.167M148.765 220.75H196.353M148.765 220.75V263.167M196.353 220.75H243.941M196.353 220.75V263.167M243.941 220.75H291.529M243.941 220.75V263.167M291.529 220.75H339.118M291.529 220.75V263.167M339.118 220.75H386.706M339.118 220.75V263.167M386.706 220.75H434.294M386.706 220.75V263.167M434.294 220.75H481.882M434.294 220.75V263.167M481.882 220.75H529.471M481.882 220.75V263.167M529.471 220.75H577.059M529.471 220.75V263.167M577.059 220.75H624.647M577.059 220.75V263.167M624.647 220.75H672.235M624.647 220.75V263.167M672.235 220.75H719.824M672.235 220.75V263.167M719.824 220.75H767.412M719.824 220.75V263.167M767.412 220.75H815M767.412 220.75V263.167M815 220.75V263.167M53.5882 263.167H6M53.5882 263.167H101.176M53.5882 263.167V305.583M6 263.167V305.583M101.176 263.167H148.765M101.176 263.167V305.583M148.765 263.167H196.353M148.765 263.167V305.583M196.353 263.167H243.941M196.353 263.167V305.583M243.941 263.167H291.529M243.941 263.167V305.583M291.529 263.167H339.118M291.529 263.167V305.583M339.118 263.167H386.706M339.118 263.167V305.583M386.706 263.167H434.294M386.706 263.167V305.583M434.294 263.167H481.882M434.294 263.167V305.583M481.882 263.167H529.471M481.882 263.167V305.583M529.471 263.167H577.059M529.471 263.167V305.583M577.059 263.167H624.647M577.059 263.167V305.583M624.647 263.167H672.235M624.647 263.167V305.583M672.235 263.167H719.824M672.235 263.167V305.583M719.824 263.167H767.412M719.824 263.167V305.583M767.412 263.167H815M767.412 263.167V305.583M815 263.167V305.583M53.5882 305.583H6M53.5882 305.583H101.176M53.5882 305.583V348M6 305.583V348H53.5882M101.176 305.583H148.765M101.176 305.583V348M148.765 305.583H196.353M148.765 305.583V348M196.353 305.583H243.941M196.353 305.583V348M243.941 305.583H291.529M243.941 305.583V348M291.529 305.583H339.118M291.529 305.583V348M339.118 305.583H386.706M339.118 305.583V348M386.706 305.583H434.294M386.706 305.583V348M434.294 305.583H481.882M434.294 305.583V348M481.882 305.583H529.471M481.882 305.583V348M529.471 305.583H577.059M529.471 305.583V348M577.059 305.583H624.647M577.059 305.583V348M624.647 305.583H672.235M624.647 305.583V348M672.235 305.583H719.824M672.235 305.583V348M719.824 305.583H767.412M719.824 305.583V348M767.412 305.583H815M767.412 305.583V348M815 305.583V348H767.412M53.5882 348H101.176M101.176 348H148.765M148.765 348H196.353M196.353 348H243.941M243.941 348H291.529M291.529 348H339.118M339.118 348H386.706M386.706 348H434.294M434.294 348H481.882M481.882 348H529.471M529.471 348H577.059M577.059 348H624.647M624.647 348H672.235M672.235 348H719.824M719.824 348H767.412" stroke="url(#paint0_radial_2_752)" stroke-opacity="0.08"/>
<path d="M45.5781 393H42.0781V370.453H56.1562V373.469H45.5781V380.609H55.2656V383.562H45.5781V393ZM58.9062 393V376.562H62.2812V393H58.9062ZM60.5938 374.156C59.5156 374.156 58.6406 373.297 58.6406 372.234C58.6406 371.156 59.5156 370.297 60.5938 370.297C61.6875 370.297 62.5625 371.156 62.5625 372.234C62.5625 373.297 61.6875 374.156 60.5938 374.156ZM65.7344 393V376.562H68.9531V379.312H69.0312C69.9219 377.438 71.6719 376.281 74.2031 376.281C77.8281 376.281 79.9062 378.594 79.9062 382.359V393H76.5156V383.016C76.5156 380.547 75.3594 379.188 73.0156 379.188C70.6406 379.188 69.1094 380.875 69.1094 383.422V393H65.7344ZM88.9219 390.609C91.2812 390.609 93.125 388.984 93.125 386.844V385.547L89.0781 385.797C87.0625 385.938 85.9219 386.828 85.9219 388.234C85.9219 389.672 87.1094 390.609 88.9219 390.609ZM87.9844 393.281C84.7656 393.281 82.5156 391.281 82.5156 388.328C82.5156 385.453 84.7188 383.688 88.625 383.469L93.125 383.203V381.938C93.125 380.109 91.8906 379.016 89.8281 379.016C87.875 379.016 86.6562 379.953 86.3594 381.422H83.1719C83.3594 378.453 85.8906 376.266 89.9531 376.266C93.9375 376.266 96.4844 378.375 96.4844 381.672V393H93.25V390.297H93.1719C92.2188 392.125 90.1406 393.281 87.9844 393.281ZM99.7656 393V376.562H102.984V379.312H103.062C103.953 377.438 105.703 376.281 108.234 376.281C111.859 376.281 113.938 378.594 113.938 382.359V393H110.547V383.016C110.547 380.547 109.391 379.188 107.047 379.188C104.672 379.188 103.141 380.875 103.141 383.422V393H99.7656ZM131.312 382.219H128.094C127.75 380.469 126.438 379.078 124.234 379.078C121.625 379.078 119.906 381.25 119.906 384.781C119.906 388.391 121.641 390.484 124.266 390.484C126.344 390.484 127.703 389.344 128.094 387.438H131.344C130.984 390.938 128.188 393.312 124.234 393.312C119.531 393.312 116.469 390.094 116.469 384.781C116.469 379.562 119.531 376.266 124.203 376.266C128.438 376.266 131.016 378.984 131.312 382.219ZM133.844 393V376.562H137.219V393H133.844ZM135.531 374.156C134.453 374.156 133.578 373.297 133.578 372.234C133.578 371.156 134.453 370.297 135.531 370.297C136.625 370.297 137.5 371.156 137.5 372.234C137.5 373.297 136.625 374.156 135.531 374.156ZM146.422 390.609C148.781 390.609 150.625 388.984 150.625 386.844V385.547L146.578 385.797C144.562 385.938 143.422 386.828 143.422 388.234C143.422 389.672 144.609 390.609 146.422 390.609ZM145.484 393.281C142.266 393.281 140.016 391.281 140.016 388.328C140.016 385.453 142.219 383.688 146.125 383.469L150.625 383.203V381.938C150.625 380.109 149.391 379.016 147.328 379.016C145.375 379.016 144.156 379.953 143.859 381.422H140.672C140.859 378.453 143.391 376.266 147.453 376.266C151.438 376.266 153.984 378.375 153.984 381.672V393H150.75V390.297H150.672C149.719 392.125 147.641 393.281 145.484 393.281ZM157.391 393V370.453H160.766V393H157.391ZM171.141 370.453H179.594C183.969 370.453 187.016 373.469 187.016 377.859C187.016 382.266 183.906 385.297 179.484 385.297H174.641V393H171.141V370.453ZM174.641 373.406V382.359H178.656C181.703 382.359 183.438 380.719 183.438 377.875C183.438 375.031 181.703 373.406 178.672 373.406H174.641ZM189.797 393V370.453H193.172V393H189.797ZM202.391 390.609C204.75 390.609 206.594 388.984 206.594 386.844V385.547L202.547 385.797C200.531 385.938 199.391 386.828 199.391 388.234C199.391 389.672 200.578 390.609 202.391 390.609ZM201.453 393.281C198.234 393.281 195.984 391.281 195.984 388.328C195.984 385.453 198.188 383.688 202.094 383.469L206.594 383.203V381.938C206.594 380.109 205.359 379.016 203.297 379.016C201.344 379.016 200.125 379.953 199.828 381.422H196.641C196.828 378.453 199.359 376.266 203.422 376.266C207.406 376.266 209.953 378.375 209.953 381.672V393H206.719V390.297H206.641C205.688 392.125 203.609 393.281 201.453 393.281ZM213.234 393V376.562H216.453V379.312H216.531C217.422 377.438 219.172 376.281 221.703 376.281C225.328 376.281 227.406 378.594 227.406 382.359V393H224.016V383.016C224.016 380.547 222.859 379.188 220.516 379.188C218.141 379.188 216.609 380.875 216.609 383.422V393H213.234ZM230.672 393V376.562H233.891V379.312H233.969C234.859 377.438 236.609 376.281 239.141 376.281C242.766 376.281 244.844 378.594 244.844 382.359V393H241.453V383.016C241.453 380.547 240.297 379.188 237.953 379.188C235.578 379.188 234.047 380.875 234.047 383.422V393H230.672ZM248.219 393V376.562H251.594V393H248.219ZM249.906 374.156C248.828 374.156 247.953 373.297 247.953 372.234C247.953 371.156 248.828 370.297 249.906 370.297C251 370.297 251.875 371.156 251.875 372.234C251.875 373.297 251 374.156 249.906 374.156ZM255.047 393V376.562H258.266V379.312H258.344C259.234 377.438 260.984 376.281 263.516 376.281C267.141 376.281 269.219 378.594 269.219 382.359V393H265.828V383.016C265.828 380.547 264.672 379.188 262.328 379.188C259.953 379.188 258.422 380.875 258.422 383.422V393H255.047ZM279.484 390.266C282.125 390.266 283.859 388.125 283.859 384.734C283.859 381.359 282.125 379.141 279.484 379.141C276.891 379.141 275.203 381.312 275.203 384.734C275.203 388.172 276.891 390.266 279.484 390.266ZM279.516 399.188C275.641 399.188 272.766 397.125 272.344 394.281H275.734C276.219 395.656 277.719 396.562 279.641 396.562C282.281 396.562 283.844 395.062 283.844 392.812V390.109H283.781C282.859 391.891 280.922 393.062 278.578 393.062C274.453 393.062 271.75 389.844 271.75 384.719C271.75 379.547 274.438 376.297 278.656 376.297C280.984 376.297 282.891 377.469 283.891 379.375H283.953V376.562H287.234V392.703C287.234 396.625 284.203 399.188 279.516 399.188Z" fill="white"/>
<path d="M48.4219 430L47.2891 426.773H42.8047L41.6719 430H40.1953L44.3516 418.727H45.7422L49.8984 430H48.4219ZM45.0234 420.438L43.2188 425.578H46.875L45.0703 420.438H45.0234ZM57.5703 424.539H56.2422C56.0469 423.656 55.3594 422.93 54.1641 422.93C52.7578 422.93 51.8047 424.094 51.8047 425.938C51.8047 427.828 52.7734 428.945 54.1797 428.945C55.2891 428.945 56.0156 428.359 56.25 427.383H57.5859C57.375 429 56.0156 430.141 54.1719 430.141C51.9219 430.141 50.4219 428.555 50.4219 425.938C50.4219 423.375 51.9141 421.734 54.1562 421.734C56.1875 421.734 57.3984 423.078 57.5703 424.539ZM58.9062 430V418.727H60.2656V423.172H60.2969C60.75 422.266 61.6406 421.734 62.875 421.734C64.6562 421.734 65.7344 422.938 65.7344 424.75V430H64.375V425C64.375 423.711 63.7266 422.938 62.4531 422.938C61.1016 422.938 60.2656 423.859 60.2656 425.266V430H58.9062ZM67.5312 430V421.875H68.8906V430H67.5312ZM68.2109 420.508C67.75 420.508 67.3672 420.125 67.3672 419.664C67.3672 419.195 67.75 418.82 68.2109 418.82C68.6797 418.82 69.0625 419.195 69.0625 419.664C69.0625 420.125 68.6797 420.508 68.2109 420.508ZM73.9844 422.914C72.7109 422.914 71.8203 423.891 71.7344 425.242H76.1484C76.1172 423.883 75.2656 422.914 73.9844 422.914ZM76.1172 427.672H77.4531C77.2188 429.094 75.8438 430.141 74.0703 430.141C71.7422 430.141 70.3281 428.523 70.3281 425.969C70.3281 423.445 71.7656 421.734 74.0078 421.734C76.2031 421.734 77.5547 423.328 77.5547 425.789V426.305H71.7266V426.383C71.7266 427.938 72.6406 428.961 74.1016 428.961C75.1328 428.961 75.8906 428.438 76.1172 427.672ZM85.5938 421.875L82.6094 430H81.2188L78.2266 421.875H79.6562L81.8984 428.555H81.9297L84.1797 421.875H85.5938ZM89.6875 422.914C88.4141 422.914 87.5234 423.891 87.4375 425.242H91.8516C91.8203 423.883 90.9688 422.914 89.6875 422.914ZM91.8203 427.672H93.1562C92.9219 429.094 91.5469 430.141 89.7734 430.141C87.4453 430.141 86.0312 428.523 86.0312 425.969C86.0312 423.445 87.4688 421.734 89.7109 421.734C91.9062 421.734 93.2578 423.328 93.2578 425.789V426.305H87.4297V426.383C87.4297 427.938 88.3438 428.961 89.8047 428.961C90.8359 428.961 91.5938 428.438 91.8203 427.672ZM98.5859 433.039C98.4219 433.039 98.1484 433.023 98 432.992V431.852C98.1484 431.883 98.3594 431.891 98.5312 431.891C99.2891 431.891 99.7109 431.523 100.023 430.578L100.211 430.008L97.2109 421.875H98.6641L100.914 428.641H100.938L103.188 421.875H104.617L101.422 430.57C100.727 432.469 100.055 433.039 98.5859 433.039ZM108.828 430.141C106.578 430.141 105.062 428.523 105.062 425.938C105.062 423.344 106.578 421.734 108.828 421.734C111.07 421.734 112.586 423.344 112.586 425.938C112.586 428.523 111.07 430.141 108.828 430.141ZM108.828 428.945C110.266 428.945 111.203 427.852 111.203 425.938C111.203 424.023 110.266 422.93 108.828 422.93C107.391 422.93 106.445 424.023 106.445 425.938C106.445 427.852 107.391 428.945 108.828 428.945ZM120.633 421.875V430H119.344V428.68H119.312C118.828 429.617 117.984 430.141 116.734 430.141C114.961 430.141 113.922 428.992 113.922 427.148V421.875H115.281V426.906C115.281 428.227 115.898 428.938 117.156 428.938C118.477 428.938 119.273 428.031 119.273 426.648V421.875H120.633ZM122.398 430V421.875H123.68V423.203H123.711C123.977 422.305 124.727 421.734 125.68 421.734C125.914 421.734 126.117 421.773 126.227 421.789V423.109C126.117 423.07 125.828 423.031 125.5 423.031C124.445 423.031 123.758 423.789 123.758 424.938V430H122.398ZM131.055 430V422.992H129.922V421.875H131.055V420.969C131.055 419.406 131.781 418.664 133.281 418.664C133.586 418.664 133.914 418.695 134.109 418.727V419.828C133.945 419.805 133.719 419.781 133.492 419.781C132.758 419.781 132.406 420.172 132.406 420.977V421.875H134.07V422.992H132.414V430H131.055ZM135.547 430V421.875H136.906V430H135.547ZM136.227 420.508C135.766 420.508 135.383 420.125 135.383 419.664C135.383 419.195 135.766 418.82 136.227 418.82C136.695 418.82 137.078 419.195 137.078 419.664C137.078 420.125 136.695 420.508 136.227 420.508ZM138.742 430V421.875H140.023V423.172H140.055C140.508 422.297 141.375 421.734 142.633 421.734C144.414 421.734 145.445 422.883 145.445 424.727V430H144.086V424.969C144.086 423.656 143.469 422.938 142.219 422.938C140.938 422.938 140.102 423.844 140.102 425.219V430H138.742ZM149.859 428.984C151.141 428.984 152.125 428.086 152.125 426.914V426.25L149.953 426.383C148.859 426.453 148.234 426.938 148.234 427.703C148.234 428.477 148.883 428.984 149.859 428.984ZM149.555 430.141C147.938 430.141 146.852 429.164 146.852 427.703C146.852 426.312 147.922 425.438 149.797 425.328L152.125 425.195V424.516C152.125 423.523 151.469 422.93 150.344 422.93C149.297 422.93 148.641 423.422 148.469 424.219H147.156C147.25 422.812 148.453 421.734 150.375 421.734C152.281 421.734 153.484 422.766 153.484 424.383V430H152.195V428.602H152.164C151.68 429.531 150.648 430.141 149.555 430.141ZM155.211 430V421.875H156.492V423.172H156.523C156.977 422.297 157.844 421.734 159.102 421.734C160.883 421.734 161.914 422.883 161.914 424.727V430H160.555V424.969C160.555 423.656 159.938 422.938 158.688 422.938C157.406 422.938 156.57 423.844 156.57 425.219V430H155.211ZM170.398 424.539H169.07C168.875 423.656 168.188 422.93 166.992 422.93C165.586 422.93 164.633 424.094 164.633 425.938C164.633 427.828 165.602 428.945 167.008 428.945C168.117 428.945 168.844 428.359 169.078 427.383H170.414C170.203 429 168.844 430.141 167 430.141C164.75 430.141 163.25 428.555 163.25 425.938C163.25 423.375 164.742 421.734 166.984 421.734C169.016 421.734 170.227 423.078 170.398 424.539ZM171.734 430V421.875H173.094V430H171.734ZM172.414 420.508C171.953 420.508 171.57 420.125 171.57 419.664C171.57 419.195 171.953 418.82 172.414 418.82C172.883 418.82 173.266 419.195 173.266 419.664C173.266 420.125 172.883 420.508 172.414 420.508ZM177.609 428.984C178.891 428.984 179.875 428.086 179.875 426.914V426.25L177.703 426.383C176.609 426.453 175.984 426.938 175.984 427.703C175.984 428.477 176.633 428.984 177.609 428.984ZM177.305 430.141C175.688 430.141 174.602 429.164 174.602 427.703C174.602 426.312 175.672 425.438 177.547 425.328L179.875 425.195V424.516C179.875 423.523 179.219 422.93 178.094 422.93C177.047 422.93 176.391 423.422 176.219 424.219H174.906C175 422.812 176.203 421.734 178.125 421.734C180.031 421.734 181.234 422.766 181.234 424.383V430H179.945V428.602H179.914C179.43 429.531 178.398 430.141 177.305 430.141ZM183.031 430V418.727H184.391V430H183.031ZM192.586 430.141C190.516 430.141 189.109 428.484 189.109 425.938C189.109 423.391 190.508 421.734 192.555 421.734C193.719 421.734 194.656 422.305 195.141 423.195H195.172V418.727H196.531V430H195.234V428.625H195.211C194.688 429.562 193.758 430.141 192.586 430.141ZM192.844 422.93C191.406 422.93 190.5 424.102 190.5 425.938C190.5 427.781 191.406 428.945 192.844 428.945C194.242 428.945 195.18 427.758 195.18 425.938C195.18 424.125 194.242 422.93 192.844 422.93ZM198.367 430V421.875H199.648V423.203H199.68C199.945 422.305 200.695 421.734 201.648 421.734C201.883 421.734 202.086 421.773 202.195 421.789V423.109C202.086 423.07 201.797 423.031 201.469 423.031C200.414 423.031 199.727 423.789 199.727 424.938V430H198.367ZM206.172 422.914C204.898 422.914 204.008 423.891 203.922 425.242H208.336C208.305 423.883 207.453 422.914 206.172 422.914ZM208.305 427.672H209.641C209.406 429.094 208.031 430.141 206.258 430.141C203.93 430.141 202.516 428.523 202.516 425.969C202.516 423.445 203.953 421.734 206.195 421.734C208.391 421.734 209.742 423.328 209.742 425.789V426.305H203.914V426.383C203.914 427.938 204.828 428.961 206.289 428.961C207.32 428.961 208.078 428.438 208.305 427.672ZM213.797 428.984C215.078 428.984 216.062 428.086 216.062 426.914V426.25L213.891 426.383C212.797 426.453 212.172 426.938 212.172 427.703C212.172 428.477 212.82 428.984 213.797 428.984ZM213.492 430.141C211.875 430.141 210.789 429.164 210.789 427.703C210.789 426.312 211.859 425.438 213.734 425.328L216.062 425.195V424.516C216.062 423.523 215.406 422.93 214.281 422.93C213.234 422.93 212.578 423.422 212.406 424.219H211.094C211.188 422.812 212.391 421.734 214.312 421.734C216.219 421.734 217.422 422.766 217.422 424.383V430H216.133V428.602H216.102C215.617 429.531 214.586 430.141 213.492 430.141ZM219.148 430V421.875H220.43V423.172H220.461C220.844 422.312 221.672 421.734 222.766 421.734C223.875 421.734 224.695 422.297 225.047 423.281H225.078C225.531 422.312 226.484 421.734 227.625 421.734C229.234 421.734 230.273 422.781 230.273 424.391V430H228.914V424.703C228.914 423.594 228.297 422.938 227.227 422.938C226.148 422.938 225.391 423.734 225.391 424.836V430H224.031V424.555C224.031 423.578 223.375 422.938 222.367 422.938C221.289 422.938 220.508 423.781 220.508 424.906V430H219.148ZM231.867 424.117C231.867 422.727 233.109 421.734 234.898 421.734C236.578 421.734 237.812 422.734 237.875 424.109H236.578C236.484 423.328 235.852 422.844 234.852 422.844C233.859 422.844 233.203 423.336 233.203 424.047C233.203 424.609 233.633 424.984 234.555 425.219L235.812 425.523C237.453 425.938 238.047 426.531 238.047 427.727C238.047 429.141 236.711 430.141 234.812 430.141C233.031 430.141 231.789 429.172 231.648 427.734H233.008C233.156 428.578 233.797 429.031 234.898 429.031C236 429.031 236.68 428.562 236.68 427.828C236.68 427.25 236.344 426.938 235.43 426.695L234 426.328C232.57 425.961 231.867 425.227 231.867 424.117ZM253.078 421.875L250.812 430H249.43L247.594 423.711H247.562L245.734 430H244.352L242.078 421.875H243.43L245.055 428.484H245.086L246.922 421.875H248.234L250.078 428.484H250.109L251.734 421.875H253.078ZM254.266 430V421.875H255.625V430H254.266ZM254.945 420.508C254.484 420.508 254.102 420.125 254.102 419.664C254.102 419.195 254.484 418.82 254.945 418.82C255.414 418.82 255.797 419.195 255.797 419.664C255.797 420.125 255.414 420.508 254.945 420.508ZM257.898 419.914H259.258V421.875H260.836V422.992H259.258V427.82C259.258 428.562 259.57 428.898 260.266 428.898C260.422 428.898 260.734 428.875 260.828 428.859V430C260.664 430.039 260.289 430.062 259.969 430.062C258.477 430.062 257.898 429.453 257.898 427.891V422.992H256.688V421.875H257.898V419.914ZM262.359 430V418.727H263.719V423.172H263.75C264.203 422.266 265.094 421.734 266.328 421.734C268.109 421.734 269.188 422.938 269.188 424.75V430H267.828V425C267.828 423.711 267.18 422.938 265.906 422.938C264.555 422.938 263.719 423.859 263.719 425.266V430H262.359ZM277.562 430.141C275.312 430.141 273.797 428.523 273.797 425.938C273.797 423.344 275.312 421.734 277.562 421.734C279.805 421.734 281.32 423.344 281.32 425.938C281.32 428.523 279.805 430.141 277.562 430.141ZM277.562 428.945C279 428.945 279.938 427.852 279.938 425.938C279.938 424.023 279 422.93 277.562 422.93C276.125 422.93 275.18 424.023 275.18 425.938C275.18 427.852 276.125 428.945 277.562 428.945ZM289.367 421.875V430H288.078V428.68H288.047C287.562 429.617 286.719 430.141 285.469 430.141C283.695 430.141 282.656 428.992 282.656 427.148V421.875H284.016V426.906C284.016 428.227 284.633 428.938 285.891 428.938C287.211 428.938 288.008 428.031 288.008 426.648V421.875H289.367ZM291.133 430V421.875H292.414V423.203H292.445C292.711 422.305 293.461 421.734 294.414 421.734C294.648 421.734 294.852 421.773 294.961 421.789V423.109C294.852 423.07 294.562 423.031 294.234 423.031C293.18 423.031 292.492 423.789 292.492 424.938V430H291.133ZM306.102 424.539H304.773C304.578 423.656 303.891 422.93 302.695 422.93C301.289 422.93 300.336 424.094 300.336 425.938C300.336 427.828 301.305 428.945 302.711 428.945C303.82 428.945 304.547 428.359 304.781 427.383H306.117C305.906 429 304.547 430.141 302.703 430.141C300.453 430.141 298.953 428.555 298.953 425.938C298.953 423.375 300.445 421.734 302.688 421.734C304.719 421.734 305.93 423.078 306.102 424.539ZM310.734 430.141C308.484 430.141 306.969 428.523 306.969 425.938C306.969 423.344 308.484 421.734 310.734 421.734C312.977 421.734 314.492 423.344 314.492 425.938C314.492 428.523 312.977 430.141 310.734 430.141ZM310.734 428.945C312.172 428.945 313.109 427.852 313.109 425.938C313.109 424.023 312.172 422.93 310.734 422.93C309.297 422.93 308.352 424.023 308.352 425.938C308.352 427.852 309.297 428.945 310.734 428.945ZM315.867 430V421.875H317.148V423.172H317.18C317.562 422.312 318.391 421.734 319.484 421.734C320.594 421.734 321.414 422.297 321.766 423.281H321.797C322.25 422.312 323.203 421.734 324.344 421.734C325.953 421.734 326.992 422.781 326.992 424.391V430H325.633V424.703C325.633 423.594 325.016 422.938 323.945 422.938C322.867 422.938 322.109 423.734 322.109 424.836V430H320.75V424.555C320.75 423.578 320.094 422.938 319.086 422.938C318.008 422.938 317.227 423.781 317.227 424.906V430H315.867ZM332.672 421.734C334.742 421.734 336.148 423.391 336.148 425.938C336.148 428.484 334.75 430.141 332.703 430.141C331.539 430.141 330.602 429.57 330.117 428.68H330.086V432.711H328.727V421.875H330.016V423.25H330.047C330.547 422.336 331.492 421.734 332.672 421.734ZM332.406 428.945C333.852 428.945 334.758 427.781 334.758 425.938C334.758 424.102 333.852 422.93 332.406 422.93C331.016 422.93 330.078 424.133 330.078 425.938C330.078 427.75 331.016 428.945 332.406 428.945ZM337.523 430V421.875H338.805V423.203H338.836C339.102 422.305 339.852 421.734 340.805 421.734C341.039 421.734 341.242 421.773 341.352 421.789V423.109C341.242 423.07 340.953 423.031 340.625 423.031C339.57 423.031 338.883 423.789 338.883 424.938V430H337.523ZM345.328 422.914C344.055 422.914 343.164 423.891 343.078 425.242H347.492C347.461 423.883 346.609 422.914 345.328 422.914ZM347.461 427.672H348.797C348.562 429.094 347.188 430.141 345.414 430.141C343.086 430.141 341.672 428.523 341.672 425.969C341.672 423.445 343.109 421.734 345.352 421.734C347.547 421.734 348.898 423.328 348.898 425.789V426.305H343.07V426.383C343.07 427.938 343.984 428.961 345.445 428.961C346.477 428.961 347.234 428.438 347.461 427.672ZM350.344 430V418.727H351.703V423.172H351.734C352.188 422.266 353.078 421.734 354.312 421.734C356.094 421.734 357.172 422.938 357.172 424.75V430H355.812V425C355.812 423.711 355.164 422.938 353.891 422.938C352.539 422.938 351.703 423.859 351.703 425.266V430H350.344ZM362.156 422.914C360.883 422.914 359.992 423.891 359.906 425.242H364.32C364.289 423.883 363.438 422.914 362.156 422.914ZM364.289 427.672H365.625C365.391 429.094 364.016 430.141 362.242 430.141C359.914 430.141 358.5 428.523 358.5 425.969C358.5 423.445 359.938 421.734 362.18 421.734C364.375 421.734 365.727 423.328 365.727 425.789V426.305H359.898V426.383C359.898 427.938 360.812 428.961 362.273 428.961C363.305 428.961 364.062 428.438 364.289 427.672ZM367.102 430V421.875H368.383V423.172H368.414C368.867 422.297 369.734 421.734 370.992 421.734C372.773 421.734 373.805 422.883 373.805 424.727V430H372.445V424.969C372.445 423.656 371.828 422.938 370.578 422.938C369.297 422.938 368.461 423.844 368.461 425.219V430H367.102ZM375.398 424.117C375.398 422.727 376.641 421.734 378.43 421.734C380.109 421.734 381.344 422.734 381.406 424.109H380.109C380.016 423.328 379.383 422.844 378.383 422.844C377.391 422.844 376.734 423.336 376.734 424.047C376.734 424.609 377.164 424.984 378.086 425.219L379.344 425.523C380.984 425.938 381.578 426.531 381.578 427.727C381.578 429.141 380.242 430.141 378.344 430.141C376.562 430.141 375.32 429.172 375.18 427.734H376.539C376.688 428.578 377.328 429.031 378.43 429.031C379.531 429.031 380.211 428.562 380.211 427.828C380.211 427.25 379.875 426.938 378.961 426.695L377.531 426.328C376.102 425.961 375.398 425.227 375.398 424.117ZM383.062 430V421.875H384.422V430H383.062ZM383.742 420.508C383.281 420.508 382.898 420.125 382.898 419.664C382.898 419.195 383.281 418.82 383.742 418.82C384.211 418.82 384.594 419.195 384.594 419.664C384.594 420.125 384.211 420.508 383.742 420.508ZM392.922 421.875L389.938 430H388.547L385.555 421.875H386.984L389.227 428.555H389.258L391.508 421.875H392.922ZM397.016 422.914C395.742 422.914 394.852 423.891 394.766 425.242H399.18C399.148 423.883 398.297 422.914 397.016 422.914ZM399.148 427.672H400.484C400.25 429.094 398.875 430.141 397.102 430.141C394.773 430.141 393.359 428.523 393.359 425.969C393.359 423.445 394.797 421.734 397.039 421.734C399.234 421.734 400.586 423.328 400.586 425.789V426.305H394.758V426.383C394.758 427.938 395.672 428.961 397.133 428.961C398.164 428.961 398.922 428.438 399.148 427.672ZM405.68 430V422.992H404.547V421.875H405.68V420.969C405.68 419.406 406.406 418.664 407.906 418.664C408.211 418.664 408.539 418.695 408.734 418.727V419.828C408.57 419.805 408.344 419.781 408.117 419.781C407.383 419.781 407.031 420.172 407.031 420.977V421.875H408.695V422.992H407.039V430H405.68ZM410.172 430V421.875H411.531V430H410.172ZM410.852 420.508C410.391 420.508 410.008 420.125 410.008 419.664C410.008 419.195 410.391 418.82 410.852 418.82C411.32 418.82 411.703 419.195 411.703 419.664C411.703 420.125 411.32 420.508 410.852 420.508ZM413.367 430V421.875H414.648V423.172H414.68C415.133 422.297 416 421.734 417.258 421.734C419.039 421.734 420.07 422.883 420.07 424.727V430H418.711V424.969C418.711 423.656 418.094 422.938 416.844 422.938C415.562 422.938 414.727 423.844 414.727 425.219V430H413.367ZM424.484 428.984C425.766 428.984 426.75 428.086 426.75 426.914V426.25L424.578 426.383C423.484 426.453 422.859 426.938 422.859 427.703C422.859 428.477 423.508 428.984 424.484 428.984ZM424.18 430.141C422.562 430.141 421.477 429.164 421.477 427.703C421.477 426.312 422.547 425.438 424.422 425.328L426.75 425.195V424.516C426.75 423.523 426.094 422.93 424.969 422.93C423.922 422.93 423.266 423.422 423.094 424.219H421.781C421.875 422.812 423.078 421.734 425 421.734C426.906 421.734 428.109 422.766 428.109 424.383V430H426.82V428.602H426.789C426.305 429.531 425.273 430.141 424.18 430.141ZM429.836 430V421.875H431.117V423.172H431.148C431.602 422.297 432.469 421.734 433.727 421.734C435.508 421.734 436.539 422.883 436.539 424.727V430H435.18V424.969C435.18 423.656 434.562 422.938 433.312 422.938C432.031 422.938 431.195 423.844 431.195 425.219V430H429.836ZM445.023 424.539H443.695C443.5 423.656 442.812 422.93 441.617 422.93C440.211 422.93 439.258 424.094 439.258 425.938C439.258 427.828 440.227 428.945 441.633 428.945C442.742 428.945 443.469 428.359 443.703 427.383H445.039C444.828 429 443.469 430.141 441.625 430.141C439.375 430.141 437.875 428.555 437.875 425.938C437.875 423.375 439.367 421.734 441.609 421.734C443.641 421.734 444.852 423.078 445.023 424.539ZM446.359 430V421.875H447.719V430H446.359ZM447.039 420.508C446.578 420.508 446.195 420.125 446.195 419.664C446.195 419.195 446.578 418.82 447.039 418.82C447.508 418.82 447.891 419.195 447.891 419.664C447.891 420.125 447.508 420.508 447.039 420.508ZM452.234 428.984C453.516 428.984 454.5 428.086 454.5 426.914V426.25L452.328 426.383C451.234 426.453 450.609 426.938 450.609 427.703C450.609 428.477 451.258 428.984 452.234 428.984ZM451.93 430.141C450.312 430.141 449.227 429.164 449.227 427.703C449.227 426.312 450.297 425.438 452.172 425.328L454.5 425.195V424.516C454.5 423.523 453.844 422.93 452.719 422.93C451.672 422.93 451.016 423.422 450.844 424.219H449.531C449.625 422.812 450.828 421.734 452.75 421.734C454.656 421.734 455.859 422.766 455.859 424.383V430H454.57V428.602H454.539C454.055 429.531 453.023 430.141 451.93 430.141ZM457.656 430V418.727H459.016V430H457.656ZM468.078 421.734C470.148 421.734 471.555 423.391 471.555 425.938C471.555 428.484 470.156 430.141 468.109 430.141C466.945 430.141 466.008 429.57 465.523 428.68H465.492V432.711H464.133V421.875H465.422V423.25H465.453C465.953 422.336 466.898 421.734 468.078 421.734ZM467.812 428.945C469.258 428.945 470.164 427.781 470.164 425.938C470.164 424.102 469.258 422.93 467.812 422.93C466.422 422.93 465.484 424.133 465.484 425.938C465.484 427.75 466.422 428.945 467.812 428.945ZM473 430V418.727H474.359V430H473ZM478.875 428.984C480.156 428.984 481.141 428.086 481.141 426.914V426.25L478.969 426.383C477.875 426.453 477.25 426.938 477.25 427.703C477.25 428.477 477.898 428.984 478.875 428.984ZM478.57 430.141C476.953 430.141 475.867 429.164 475.867 427.703C475.867 426.312 476.938 425.438 478.812 425.328L481.141 425.195V424.516C481.141 423.523 480.484 422.93 479.359 422.93C478.312 422.93 477.656 423.422 477.484 424.219H476.172C476.266 422.812 477.469 421.734 479.391 421.734C481.297 421.734 482.5 422.766 482.5 424.383V430H481.211V428.602H481.18C480.695 429.531 479.664 430.141 478.57 430.141ZM484.227 430V421.875H485.508V423.172H485.539C485.992 422.297 486.859 421.734 488.117 421.734C489.898 421.734 490.93 422.883 490.93 424.727V430H489.57V424.969C489.57 423.656 488.953 422.938 487.703 422.938C486.422 422.938 485.586 423.844 485.586 425.219V430H484.227ZM492.664 430V421.875H493.945V423.172H493.977C494.43 422.297 495.297 421.734 496.555 421.734C498.336 421.734 499.367 422.883 499.367 424.727V430H498.008V424.969C498.008 423.656 497.391 422.938 496.141 422.938C494.859 422.938 494.023 423.844 494.023 425.219V430H492.664ZM501.172 430V421.875H502.531V430H501.172ZM501.852 420.508C501.391 420.508 501.008 420.125 501.008 419.664C501.008 419.195 501.391 418.82 501.852 418.82C502.32 418.82 502.703 419.195 502.703 419.664C502.703 420.125 502.32 420.508 501.852 420.508ZM504.367 430V421.875H505.648V423.172H505.68C506.133 422.297 507 421.734 508.258 421.734C510.039 421.734 511.07 422.883 511.07 424.727V430H509.711V424.969C509.711 423.656 509.094 422.938 507.844 422.938C506.562 422.938 505.727 423.844 505.727 425.219V430H504.367ZM516.109 428.867C517.523 428.867 518.469 427.695 518.469 425.906C518.469 424.117 517.523 422.93 516.109 422.93C514.711 422.93 513.797 424.086 513.797 425.906C513.797 427.727 514.711 428.867 516.109 428.867ZM516.156 433.062C514.367 433.062 512.953 432.055 512.727 430.672H514.125C514.391 431.414 515.195 431.906 516.211 431.906C517.617 431.906 518.469 431.094 518.469 429.883V428.602H518.438C517.938 429.484 516.977 430.062 515.836 430.062C513.766 430.062 512.406 428.43 512.406 425.906C512.406 423.359 513.766 421.734 515.867 421.734C517.016 421.734 517.969 422.297 518.508 423.242H518.531V421.875H519.828V429.836C519.828 431.773 518.398 433.062 516.156 433.062ZM40.7422 448.117C40.7422 446.727 41.9844 445.734 43.7734 445.734C45.4531 445.734 46.6875 446.734 46.75 448.109H45.4531C45.3594 447.328 44.7266 446.844 43.7266 446.844C42.7344 446.844 42.0781 447.336 42.0781 448.047C42.0781 448.609 42.5078 448.984 43.4297 449.219L44.6875 449.523C46.3281 449.938 46.9219 450.531 46.9219 451.727C46.9219 453.141 45.5859 454.141 43.6875 454.141C41.9062 454.141 40.6641 453.172 40.5234 451.734H41.8828C42.0312 452.578 42.6719 453.031 43.7734 453.031C44.875 453.031 45.5547 452.562 45.5547 451.828C45.5547 451.25 45.2188 450.938 44.3047 450.695L42.875 450.328C41.4453 449.961 40.7422 449.227 40.7422 448.117ZM51.5938 446.914C50.3203 446.914 49.4297 447.891 49.3438 449.242H53.7578C53.7266 447.883 52.875 446.914 51.5938 446.914ZM53.7266 451.672H55.0625C54.8281 453.094 53.4531 454.141 51.6797 454.141C49.3516 454.141 47.9375 452.523 47.9375 449.969C47.9375 447.445 49.375 445.734 51.6172 445.734C53.8125 445.734 55.1641 447.328 55.1641 449.789V450.305H49.3359V450.383C49.3359 451.938 50.25 452.961 51.7109 452.961C52.7422 452.961 53.5 452.438 53.7266 451.672ZM56.5391 454V445.875H57.8203V447.203H57.8516C58.1172 446.305 58.8672 445.734 59.8203 445.734C60.0547 445.734 60.2578 445.773 60.3672 445.789V447.109C60.2578 447.07 59.9688 447.031 59.6406 447.031C58.5859 447.031 57.8984 447.789 57.8984 448.938V454H56.5391ZM68.1406 445.875L65.1562 454H63.7656L60.7734 445.875H62.2031L64.4453 452.555H64.4766L66.7266 445.875H68.1406ZM69.2812 454V445.875H70.6406V454H69.2812ZM69.9609 444.508C69.5 444.508 69.1172 444.125 69.1172 443.664C69.1172 443.195 69.5 442.82 69.9609 442.82C70.4297 442.82 70.8125 443.195 70.8125 443.664C70.8125 444.125 70.4297 444.508 69.9609 444.508ZM79.2266 448.539H77.8984C77.7031 447.656 77.0156 446.93 75.8203 446.93C74.4141 446.93 73.4609 448.094 73.4609 449.938C73.4609 451.828 74.4297 452.945 75.8359 452.945C76.9453 452.945 77.6719 452.359 77.9062 451.383H79.2422C79.0312 453 77.6719 454.141 75.8281 454.141C73.5781 454.141 72.0781 452.555 72.0781 449.938C72.0781 447.375 73.5703 445.734 75.8125 445.734C77.8438 445.734 79.0547 447.078 79.2266 448.539ZM83.75 446.914C82.4766 446.914 81.5859 447.891 81.5 449.242H85.9141C85.8828 447.883 85.0312 446.914 83.75 446.914ZM85.8828 451.672H87.2188C86.9844 453.094 85.6094 454.141 83.8359 454.141C81.5078 454.141 80.0938 452.523 80.0938 449.969C80.0938 447.445 81.5312 445.734 83.7734 445.734C85.9688 445.734 87.3203 447.328 87.3203 449.789V450.305H81.4922V450.383C81.4922 451.938 82.4062 452.961 83.8672 452.961C84.8984 452.961 85.6562 452.438 85.8828 451.672ZM88.5547 448.117C88.5547 446.727 89.7969 445.734 91.5859 445.734C93.2656 445.734 94.5 446.734 94.5625 448.109H93.2656C93.1719 447.328 92.5391 446.844 91.5391 446.844C90.5469 446.844 89.8906 447.336 89.8906 448.047C89.8906 448.609 90.3203 448.984 91.2422 449.219L92.5 449.523C94.1406 449.938 94.7344 450.531 94.7344 451.727C94.7344 453.141 93.3984 454.141 91.5 454.141C89.7188 454.141 88.4766 453.172 88.3359 451.734H89.6953C89.8438 452.578 90.4844 453.031 91.5859 453.031C92.6875 453.031 93.3672 452.562 93.3672 451.828C93.3672 451.25 93.0312 450.938 92.1172 450.695L90.6875 450.328C89.2578 449.961 88.5547 449.227 88.5547 448.117ZM97.0781 456.242H95.9453L96.7031 452.266H98.1484L97.0781 456.242ZM106.016 452.867C107.43 452.867 108.375 451.695 108.375 449.906C108.375 448.117 107.43 446.93 106.016 446.93C104.617 446.93 103.703 448.086 103.703 449.906C103.703 451.727 104.617 452.867 106.016 452.867ZM106.062 457.062C104.273 457.062 102.859 456.055 102.633 454.672H104.031C104.297 455.414 105.102 455.906 106.117 455.906C107.523 455.906 108.375 455.094 108.375 453.883V452.602H108.344C107.844 453.484 106.883 454.062 105.742 454.062C103.672 454.062 102.312 452.43 102.312 449.906C102.312 447.359 103.672 445.734 105.773 445.734C106.922 445.734 107.875 446.297 108.414 447.242H108.438V445.875H109.734V453.836C109.734 455.773 108.305 457.062 106.062 457.062ZM118.18 445.875V454H116.891V452.68H116.859C116.375 453.617 115.531 454.141 114.281 454.141C112.508 454.141 111.469 452.992 111.469 451.148V445.875H112.828V450.906C112.828 452.227 113.445 452.938 114.703 452.938C116.023 452.938 116.82 452.031 116.82 450.648V445.875H118.18ZM120.016 454V445.875H121.375V454H120.016ZM120.695 444.508C120.234 444.508 119.852 444.125 119.852 443.664C119.852 443.195 120.234 442.82 120.695 442.82C121.164 442.82 121.547 443.195 121.547 443.664C121.547 444.125 121.164 444.508 120.695 444.508ZM126.289 454.141C124.219 454.141 122.812 452.484 122.812 449.938C122.812 447.391 124.211 445.734 126.258 445.734C127.422 445.734 128.359 446.305 128.844 447.195H128.875V442.727H130.234V454H128.938V452.625H128.914C128.391 453.562 127.461 454.141 126.289 454.141ZM126.547 446.93C125.109 446.93 124.203 448.102 124.203 449.938C124.203 451.781 125.109 452.945 126.547 452.945C127.945 452.945 128.883 451.758 128.883 449.938C128.883 448.125 127.945 446.93 126.547 446.93ZM132.141 454V445.875H133.5V454H132.141ZM132.82 444.508C132.359 444.508 131.977 444.125 131.977 443.664C131.977 443.195 132.359 442.82 132.82 442.82C133.289 442.82 133.672 443.195 133.672 443.664C133.672 444.125 133.289 444.508 132.82 444.508ZM135.336 454V445.875H136.617V447.172H136.648C137.102 446.297 137.969 445.734 139.227 445.734C141.008 445.734 142.039 446.883 142.039 448.727V454H140.68V448.969C140.68 447.656 140.062 446.938 138.812 446.938C137.531 446.938 136.695 447.844 136.695 449.219V454H135.336ZM147.078 452.867C148.492 452.867 149.438 451.695 149.438 449.906C149.438 448.117 148.492 446.93 147.078 446.93C145.68 446.93 144.766 448.086 144.766 449.906C144.766 451.727 145.68 452.867 147.078 452.867ZM147.125 457.062C145.336 457.062 143.922 456.055 143.695 454.672H145.094C145.359 455.414 146.164 455.906 147.18 455.906C148.586 455.906 149.438 455.094 149.438 453.883V452.602H149.406C148.906 453.484 147.945 454.062 146.805 454.062C144.734 454.062 143.375 452.43 143.375 449.906C143.375 447.359 144.734 445.734 146.836 445.734C147.984 445.734 148.938 446.297 149.477 447.242H149.5V445.875H150.797V453.836C150.797 455.773 149.367 457.062 147.125 457.062ZM156.523 457.039C156.359 457.039 156.086 457.023 155.938 456.992V455.852C156.086 455.883 156.297 455.891 156.469 455.891C157.227 455.891 157.648 455.523 157.961 454.578L158.148 454.008L155.148 445.875H156.602L158.852 452.641H158.875L161.125 445.875H162.555L159.359 454.57C158.664 456.469 157.992 457.039 156.523 457.039ZM166.766 454.141C164.516 454.141 163 452.523 163 449.938C163 447.344 164.516 445.734 166.766 445.734C169.008 445.734 170.523 447.344 170.523 449.938C170.523 452.523 169.008 454.141 166.766 454.141ZM166.766 452.945C168.203 452.945 169.141 451.852 169.141 449.938C169.141 448.023 168.203 446.93 166.766 446.93C165.328 446.93 164.383 448.023 164.383 449.938C164.383 451.852 165.328 452.945 166.766 452.945ZM178.57 445.875V454H177.281V452.68H177.25C176.766 453.617 175.922 454.141 174.672 454.141C172.898 454.141 171.859 452.992 171.859 451.148V445.875H173.219V450.906C173.219 452.227 173.836 452.938 175.094 452.938C176.414 452.938 177.211 452.031 177.211 450.648V445.875H178.57ZM184.055 443.914H185.414V445.875H186.992V446.992H185.414V451.82C185.414 452.562 185.727 452.898 186.422 452.898C186.578 452.898 186.891 452.875 186.984 452.859V454C186.82 454.039 186.445 454.062 186.125 454.062C184.633 454.062 184.055 453.453 184.055 451.891V446.992H182.844V445.875H184.055V443.914ZM191.578 454.141C189.328 454.141 187.812 452.523 187.812 449.938C187.812 447.344 189.328 445.734 191.578 445.734C193.82 445.734 195.336 447.344 195.336 449.938C195.336 452.523 193.82 454.141 191.578 454.141ZM191.578 452.945C193.016 452.945 193.953 451.852 193.953 449.938C193.953 448.023 193.016 446.93 191.578 446.93C190.141 446.93 189.195 448.023 189.195 449.938C189.195 451.852 190.141 452.945 191.578 452.945ZM207.047 445.875L204.781 454H203.398L201.562 447.711H201.531L199.703 454H198.32L196.047 445.875H197.398L199.023 452.484H199.055L200.891 445.875H202.203L204.047 452.484H204.078L205.703 445.875H207.047ZM210.688 452.984C211.969 452.984 212.953 452.086 212.953 450.914V450.25L210.781 450.383C209.688 450.453 209.062 450.938 209.062 451.703C209.062 452.477 209.711 452.984 210.688 452.984ZM210.383 454.141C208.766 454.141 207.68 453.164 207.68 451.703C207.68 450.312 208.75 449.438 210.625 449.328L212.953 449.195V448.516C212.953 447.523 212.297 446.93 211.172 446.93C210.125 446.93 209.469 447.422 209.297 448.219H207.984C208.078 446.812 209.281 445.734 211.203 445.734C213.109 445.734 214.312 446.766 214.312 448.383V454H213.023V452.602H212.992C212.508 453.531 211.477 454.141 210.383 454.141ZM216.039 454V445.875H217.32V447.203H217.352C217.617 446.305 218.367 445.734 219.32 445.734C219.555 445.734 219.758 445.773 219.867 445.789V447.109C219.758 447.07 219.469 447.031 219.141 447.031C218.086 447.031 217.398 447.789 217.398 448.938V454H216.039ZM223.664 454.141C221.594 454.141 220.188 452.484 220.188 449.938C220.188 447.391 221.586 445.734 223.633 445.734C224.797 445.734 225.734 446.305 226.219 447.195H226.25V442.727H227.609V454H226.312V452.625H226.289C225.766 453.562 224.836 454.141 223.664 454.141ZM223.922 446.93C222.484 446.93 221.578 448.102 221.578 449.938C221.578 451.781 222.484 452.945 223.922 452.945C225.32 452.945 226.258 451.758 226.258 449.938C226.258 448.125 225.32 446.93 223.922 446.93ZM235.406 452.984C236.688 452.984 237.672 452.086 237.672 450.914V450.25L235.5 450.383C234.406 450.453 233.781 450.938 233.781 451.703C233.781 452.477 234.43 452.984 235.406 452.984ZM235.102 454.141C233.484 454.141 232.398 453.164 232.398 451.703C232.398 450.312 233.469 449.438 235.344 449.328L237.672 449.195V448.516C237.672 447.523 237.016 446.93 235.891 446.93C234.844 446.93 234.188 447.422 234.016 448.219H232.703C232.797 446.812 234 445.734 235.922 445.734C237.828 445.734 239.031 446.766 239.031 448.383V454H237.742V452.602H237.711C237.227 453.531 236.195 454.141 235.102 454.141ZM243.898 448.117C243.898 446.727 245.141 445.734 246.93 445.734C248.609 445.734 249.844 446.734 249.906 448.109H248.609C248.516 447.328 247.883 446.844 246.883 446.844C245.891 446.844 245.234 447.336 245.234 448.047C245.234 448.609 245.664 448.984 246.586 449.219L247.844 449.523C249.484 449.938 250.078 450.531 250.078 451.727C250.078 453.141 248.742 454.141 246.844 454.141C245.062 454.141 243.82 453.172 243.68 451.734H245.039C245.188 452.578 245.828 453.031 246.93 453.031C248.031 453.031 248.711 452.562 248.711 451.828C248.711 451.25 248.375 450.938 247.461 450.695L246.031 450.328C244.602 449.961 243.898 449.227 243.898 448.117ZM254.75 446.914C253.477 446.914 252.586 447.891 252.5 449.242H256.914C256.883 447.883 256.031 446.914 254.75 446.914ZM256.883 451.672H258.219C257.984 453.094 256.609 454.141 254.836 454.141C252.508 454.141 251.094 452.523 251.094 449.969C251.094 447.445 252.531 445.734 254.773 445.734C256.969 445.734 258.32 447.328 258.32 449.789V450.305H252.492V450.383C252.492 451.938 253.406 452.961 254.867 452.961C255.898 452.961 256.656 452.438 256.883 451.672ZM266.445 448.539H265.117C264.922 447.656 264.234 446.93 263.039 446.93C261.633 446.93 260.68 448.094 260.68 449.938C260.68 451.828 261.648 452.945 263.055 452.945C264.164 452.945 264.891 452.359 265.125 451.383H266.461C266.25 453 264.891 454.141 263.047 454.141C260.797 454.141 259.297 452.555 259.297 449.938C259.297 447.375 260.789 445.734 263.031 445.734C265.062 445.734 266.273 447.078 266.445 448.539ZM274.383 445.875V454H273.094V452.68H273.062C272.578 453.617 271.734 454.141 270.484 454.141C268.711 454.141 267.672 452.992 267.672 451.148V445.875H269.031V450.906C269.031 452.227 269.648 452.938 270.906 452.938C272.227 452.938 273.023 452.031 273.023 450.648V445.875H274.383ZM276.148 454V445.875H277.43V447.203H277.461C277.727 446.305 278.477 445.734 279.43 445.734C279.664 445.734 279.867 445.773 279.977 445.789V447.109C279.867 447.07 279.578 447.031 279.25 447.031C278.195 447.031 277.508 447.789 277.508 448.938V454H276.148ZM283.953 446.914C282.68 446.914 281.789 447.891 281.703 449.242H286.117C286.086 447.883 285.234 446.914 283.953 446.914ZM286.086 451.672H287.422C287.188 453.094 285.812 454.141 284.039 454.141C281.711 454.141 280.297 452.523 280.297 449.969C280.297 447.445 281.734 445.734 283.977 445.734C286.172 445.734 287.523 447.328 287.523 449.789V450.305H281.695V450.383C281.695 451.938 282.609 452.961 284.07 452.961C285.102 452.961 285.859 452.438 286.086 451.672ZM292.617 454V446.992H291.484V445.875H292.617V444.969C292.617 443.406 293.344 442.664 294.844 442.664C295.148 442.664 295.477 442.695 295.672 442.727V443.828C295.508 443.805 295.281 443.781 295.055 443.781C294.32 443.781 293.969 444.172 293.969 444.977V445.875H295.633V446.992H293.977V454H292.617ZM303.711 445.875V454H302.422V452.68H302.391C301.906 453.617 301.062 454.141 299.812 454.141C298.039 454.141 297 452.992 297 451.148V445.875H298.359V450.906C298.359 452.227 298.977 452.938 300.234 452.938C301.555 452.938 302.352 452.031 302.352 450.648V445.875H303.711ZM305.914 443.914H307.273V445.875H308.852V446.992H307.273V451.82C307.273 452.562 307.586 452.898 308.281 452.898C308.438 452.898 308.75 452.875 308.844 452.859V454C308.68 454.039 308.305 454.062 307.984 454.062C306.492 454.062 305.914 453.453 305.914 451.891V446.992H304.703V445.875H305.914V443.914ZM316.977 445.875V454H315.688V452.68H315.656C315.172 453.617 314.328 454.141 313.078 454.141C311.305 454.141 310.266 452.992 310.266 451.148V445.875H311.625V450.906C311.625 452.227 312.242 452.938 313.5 452.938C314.82 452.938 315.617 452.031 315.617 450.648V445.875H316.977ZM318.742 454V445.875H320.023V447.203H320.055C320.32 446.305 321.07 445.734 322.023 445.734C322.258 445.734 322.461 445.773 322.57 445.789V447.109C322.461 447.07 322.172 447.031 321.844 447.031C320.789 447.031 320.102 447.789 320.102 448.938V454H318.742ZM326.547 446.914C325.273 446.914 324.383 447.891 324.297 449.242H328.711C328.68 447.883 327.828 446.914 326.547 446.914ZM328.68 451.672H330.016C329.781 453.094 328.406 454.141 326.633 454.141C324.305 454.141 322.891 452.523 322.891 449.969C322.891 447.445 324.328 445.734 326.57 445.734C328.766 445.734 330.117 447.328 330.117 449.789V450.305H324.289V450.383C324.289 451.938 325.203 452.961 326.664 452.961C327.695 452.961 328.453 452.438 328.68 451.672ZM332.641 454.078C332.141 454.078 331.75 453.688 331.75 453.188C331.75 452.688 332.141 452.297 332.641 452.297C333.141 452.297 333.531 452.688 333.531 453.188C333.531 453.688 333.141 454.078 332.641 454.078Z" fill="#BDBDBD"/>
<rect x="251" y="76" width="87" height="87" rx="10" fill="#202020"/>
<path d="M278.788 109.375C280.111 108.208 281.848 107.5 283.75 107.5H306.25C308.152 107.5 309.889 108.208 311.211 109.375C310.904 106.909 308.8 105 306.25 105H283.75C281.2 105 279.096 106.909 278.788 109.375Z" fill="white"/>
<path d="M278.788 114.375C280.111 113.208 281.848 112.5 283.75 112.5H306.25C308.152 112.5 309.889 113.208 311.211 114.375C310.904 111.909 308.8 110 306.25 110H283.75C281.2 110 279.096 111.909 278.788 114.375Z" fill="white"/>
<path d="M283.75 115C280.989 115 278.75 117.239 278.75 120V130C278.75 132.761 280.989 135 283.75 135H306.25C309.011 135 311.25 132.761 311.25 130V120C311.25 117.239 309.011 115 306.25 115H300C299.31 115 298.75 115.56 298.75 116.25C298.75 118.321 297.071 120 295 120C292.929 120 291.25 118.321 291.25 116.25C291.25 115.56 290.69 115 290 115H283.75Z" fill="white"/>
<rect x="251.5" y="76.5" width="86" height="86" rx="9.5" stroke="white" stroke-opacity="0.04"/>
<rect x="251.5" y="76.5" width="86" height="86" rx="9.5" stroke="url(#paint1_linear_2_752)" stroke-opacity="0.12"/>
<rect x="251" y="179" width="87" height="87" rx="10" fill="#202020"/>
<path fill-rule="evenodd" clip-rule="evenodd" d="M287.5 213V214.25H284.188C282.589 214.25 281.248 215.457 281.08 217.048L278.975 237.048C278.781 238.893 280.228 240.5 282.083 240.5H307.917C309.773 240.5 311.219 238.893 311.025 237.048L308.92 217.048C308.753 215.457 307.411 214.25 305.812 214.25H302.5V213C302.5 208.858 299.142 205.5 295 205.5C290.858 205.5 287.5 208.858 287.5 213ZM295 208C292.239 208 290 210.239 290 213V214.25H300V213C300 210.239 297.761 208 295 208ZM290 221.75C290 224.511 292.239 226.75 295 226.75C297.761 226.75 300 224.511 300 221.75V220.5C300 219.81 300.56 219.25 301.25 219.25C301.94 219.25 302.5 219.81 302.5 220.5V221.75C302.5 225.892 299.142 229.25 295 229.25C290.858 229.25 287.5 225.892 287.5 221.75V220.5C287.5 219.81 288.06 219.25 288.75 219.25C289.44 219.25 290 219.81 290 220.5V221.75Z" fill="white"/>
<rect x="251.5" y="179.5" width="86" height="86" rx="9.5" stroke="white" stroke-opacity="0.04"/>
<rect x="251.5" y="179.5" width="86" height="86" rx="9.5" stroke="url(#paint2_linear_2_752)" stroke-opacity="0.12"/>
<rect x="354" y="76" width="87" height="87" rx="10" fill="#202020"/>
<path fill-rule="evenodd" clip-rule="evenodd" d="M380.5 110.625C380.5 108.899 381.899 107.5 383.625 107.5H412.375C414.101 107.5 415.5 108.899 415.5 110.625V115.669C415.5 116.115 415.262 116.527 414.876 116.751C413.752 117.401 413 118.614 413 120C413 121.386 413.752 122.599 414.876 123.249C415.262 123.473 415.5 123.885 415.5 124.331V129.375C415.5 131.101 414.101 132.5 412.375 132.5H383.625C381.899 132.5 380.5 131.101 380.5 129.375V124.331C380.5 123.885 380.738 123.473 381.124 123.249C382.248 122.599 383 121.386 383 120C383 118.614 382.248 117.401 381.124 116.751C380.738 116.527 380.5 116.115 380.5 115.669V110.625ZM405.5 108.75C406.19 108.75 406.75 109.31 406.75 110V111.25C406.75 111.94 406.19 112.5 405.5 112.5C404.81 112.5 404.25 111.94 404.25 111.25V110C404.25 109.31 404.81 108.75 405.5 108.75ZM406.75 116.25C406.75 115.56 406.19 115 405.5 115C404.81 115 404.25 115.56 404.25 116.25V117.5C404.25 118.19 404.81 118.75 405.5 118.75C406.19 118.75 406.75 118.19 406.75 117.5V116.25ZM405.5 121.25C406.19 121.25 406.75 121.81 406.75 122.5V123.75C406.75 124.44 406.19 125 405.5 125C404.81 125 404.25 124.44 404.25 123.75V122.5C404.25 121.81 404.81 121.25 405.5 121.25ZM406.75 128.75C406.75 128.06 406.19 127.5 405.5 127.5C404.81 127.5 404.25 128.06 404.25 128.75V130C404.25 130.69 404.81 131.25 405.5 131.25C406.19 131.25 406.75 130.69 406.75 130V128.75ZM388 120C388 119.31 388.56 118.75 389.25 118.75H398C398.69 118.75 399.25 119.31 399.25 120C399.25 120.69 398.69 121.25 398 121.25H389.25C388.56 121.25 388 120.69 388 120ZM389.25 123.75C388.56 123.75 388 124.31 388 125C388 125.69 388.56 126.25 389.25 126.25H394.25C394.94 126.25 395.5 125.69 395.5 125C395.5 124.31 394.94 123.75 394.25 123.75H389.25Z" fill="white"/>
<rect x="354.5" y="76.5" width="86" height="86" rx="9.5" stroke="white" stroke-opacity="0.04"/>
<rect x="354.5" y="76.5" width="86" height="86" rx="9.5" stroke="url(#paint3_linear_2_752)" stroke-opacity="0.12"/>
<rect x="354" y="179" width="87" height="87" rx="10" fill="#202020"/>
<path d="M393.625 208C391.899 208 390.5 209.399 390.5 211.125C390.5 212.851 391.899 214.25 393.625 214.25H396.75V221.75H383.625C381.899 221.75 380.5 220.351 380.5 218.625V217.375C380.5 215.649 381.899 214.25 383.625 214.25H388.947C388.349 213.356 388 212.281 388 211.125C388 208.018 390.518 205.5 393.625 205.5C395.392 205.5 396.969 206.315 398 207.589C399.031 206.315 400.608 205.5 402.375 205.5C405.482 205.5 408 208.018 408 211.125C408 212.281 407.651 213.356 407.053 214.25H413.625C415.351 214.25 416.75 215.649 416.75 217.375V218.625C416.75 220.351 415.351 221.75 413.625 221.75H399.25V214.25H402.375C404.101 214.25 405.5 212.851 405.5 211.125C405.5 209.399 404.101 208 402.375 208C400.649 208 399.25 209.399 399.25 211.125V214.25H396.75V211.125C396.75 209.399 395.351 208 393.625 208Z" fill="white"/>
<path d="M396.75 224.25H383V235.5C383 237.571 384.679 239.25 386.75 239.25H396.75V224.25Z" fill="white"/>
<path d="M399.25 224.25V239.25H410.5C412.571 239.25 414.25 237.571 414.25 235.5V224.25H399.25Z" fill="white"/>
<rect x="354.5" y="179.5" width="86" height="86" rx="9.5" stroke="white" stroke-opacity="0.04"/>
<rect x="354.5" y="179.5" width="86" height="86" rx="9.5" stroke="url(#paint4_linear_2_752)" stroke-opacity="0.12"/>
<rect x="457" y="76" width="87" height="87" rx="10" fill="#202020"/>
<path d="M501 112.5C498.929 112.5 497.25 114.179 497.25 116.25C497.25 118.321 498.929 120 501 120C503.071 120 504.75 118.321 504.75 116.25C504.75 114.179 503.071 112.5 501 112.5Z" fill="white"/>
<path fill-rule="evenodd" clip-rule="evenodd" d="M483.5 108.125C483.5 106.399 484.899 105 486.625 105H515.375C517.101 105 518.5 106.399 518.5 108.125V124.375C518.5 126.101 517.101 127.5 515.375 127.5H486.625C484.899 127.5 483.5 126.101 483.5 124.375V108.125ZM494.75 116.25C494.75 112.798 497.548 110 501 110C504.452 110 507.25 112.798 507.25 116.25C507.25 119.702 504.452 122.5 501 122.5C497.548 122.5 494.75 119.702 494.75 116.25ZM512.25 115C511.56 115 511 115.56 511 116.25V116.263C511 116.953 511.56 117.513 512.25 117.513H512.263C512.953 117.513 513.513 116.953 513.513 116.263V116.25C513.513 115.56 512.953 115 512.263 115H512.25ZM488.5 116.25C488.5 115.56 489.06 115 489.75 115H489.763C490.453 115 491.013 115.56 491.013 116.25V116.263C491.013 116.953 490.453 117.513 489.763 117.513H489.75C489.06 117.513 488.5 116.953 488.5 116.263V116.25Z" fill="white"/>
<path d="M484.75 130C484.06 130 483.5 130.56 483.5 131.25C483.5 131.94 484.06 132.5 484.75 132.5C493.75 132.5 502.467 133.704 510.75 135.958C512.734 136.498 514.75 135.028 514.75 132.925V131.25C514.75 130.56 514.19 130 513.5 130H484.75Z" fill="white"/>
<rect x="457.5" y="76.5" width="86" height="86" rx="9.5" stroke="white" stroke-opacity="0.04"/>
<rect x="457.5" y="76.5" width="86" height="86" rx="9.5" stroke="url(#paint5_linear_2_752)" stroke-opacity="0.12"/>
<rect x="457" y="179" width="87" height="87" rx="10" fill="#202020"/>
<path fill-rule="evenodd" clip-rule="evenodd" d="M490.375 205.5H496C499.452 205.5 502.25 208.298 502.25 211.75V214.875C502.25 216.601 503.649 218 505.375 218H508.5C511.952 218 514.75 220.798 514.75 224.25V237.375C514.75 239.101 513.351 240.5 511.625 240.5H490.375C488.649 240.5 487.25 239.101 487.25 237.375V208.625C487.25 206.899 488.649 205.5 490.375 205.5ZM497.25 231.75C497.25 231.06 496.69 230.5 496 230.5C495.31 230.5 494.75 231.06 494.75 231.75V233C494.75 233.69 495.31 234.25 496 234.25C496.69 234.25 497.25 233.69 497.25 233V231.75ZM501 226.75C501.69 226.75 502.25 227.31 502.25 228V233C502.25 233.69 501.69 234.25 501 234.25C500.31 234.25 499.75 233.69 499.75 233V228C499.75 227.31 500.31 226.75 501 226.75ZM507.25 224.25C507.25 223.56 506.69 223 506 223C505.31 223 504.75 223.56 504.75 224.25V233C504.75 233.69 505.31 234.25 506 234.25C506.69 234.25 507.25 233.69 507.25 233V224.25Z" fill="white"/>
<path d="M504.75 211.75C504.75 209.562 503.947 207.561 502.619 206.027C508.284 207.506 512.744 211.966 514.223 217.631C512.689 216.303 510.688 215.5 508.5 215.5H505.375C505.03 215.5 504.75 215.22 504.75 214.875V211.75Z" fill="white"/>
<rect x="457.5" y="179.5" width="86" height="86" rx="9.5" stroke="white" stroke-opacity="0.04"/>
<rect x="457.5" y="179.5" width="86" height="86" rx="9.5" stroke="url(#paint6_linear_2_752)" stroke-opacity="0.12"/>
<rect y="55" width="822" height="269" fill="url(#paint7_linear_2_752)"/>
</g>
<rect x="0.5" y="0.5" width="821" height="499" rx="11.5" stroke="white" stroke-opacity="0.04"/>
<rect x="0.5" y="0.5" width="821" height="499" rx="11.5" stroke="url(#paint8_linear_2_752)" stroke-opacity="0.12"/>
<defs>
<radialGradient id="paint0_radial_2_752" cx="0" cy="0" r="1" gradientUnits="userSpaceOnUse" gradientTransform="translate(410.5 107.095) rotate(90) scale(240.361 405.11)">
<stop stop-color="white"/>
<stop offset="1" stop-color="white" stop-opacity="0"/>
</radialGradient>
<linearGradient id="paint1_linear_2_752" x1="294.5" y1="76" x2="294.5" y2="140.413" gradientUnits="userSpaceOnUse">
<stop stop-color="white"/>
<stop offset="1" stop-color="white" stop-opacity="0"/>
</linearGradient>
<linearGradient id="paint2_linear_2_752" x1="294.5" y1="179" x2="294.5" y2="243.413" gradientUnits="userSpaceOnUse">
<stop stop-color="white"/>
<stop offset="1" stop-color="white" stop-opacity="0"/>
</linearGradient>
<linearGradient id="paint3_linear_2_752" x1="397.5" y1="76" x2="397.5" y2="140.413" gradientUnits="userSpaceOnUse">
<stop stop-color="white"/>
<stop offset="1" stop-color="white" stop-opacity="0"/>
</linearGradient>
<linearGradient id="paint4_linear_2_752" x1="397.5" y1="179" x2="397.5" y2="243.413" gradientUnits="userSpaceOnUse">
<stop stop-color="white"/>
<stop offset="1" stop-color="white" stop-opacity="0"/>
</linearGradient>
<linearGradient id="paint5_linear_2_752" x1="500.5" y1="76" x2="500.5" y2="140.413" gradientUnits="userSpaceOnUse">
<stop stop-color="white"/>
<stop offset="1" stop-color="white" stop-opacity="0"/>
</linearGradient>
<linearGradient id="paint6_linear_2_752" x1="500.5" y1="179" x2="500.5" y2="243.413" gradientUnits="userSpaceOnUse">
<stop stop-color="white"/>
<stop offset="1" stop-color="white" stop-opacity="0"/>
</linearGradient>
<linearGradient id="paint7_linear_2_752" x1="411" y1="55" x2="411" y2="324" gradientUnits="userSpaceOnUse">
<stop stop-color="#131313" stop-opacity="0"/>
<stop offset="1" stop-color="#131313"/>
</linearGradient>
<linearGradient id="paint8_linear_2_752" x1="411" y1="0" x2="411" y2="370.192" gradientUnits="userSpaceOnUse">
<stop stop-color="white"/>
<stop offset="1" stop-color="white" stop-opacity="0"/>
</linearGradient>
<clipPath id="clip0_2_752">
<rect width="822" height="500" rx="12" fill="white"/>
</clipPath>
</defs>
</svg>
