<svg width="822" height="500" viewBox="0 0 822 500" fill="none" xmlns="http://www.w3.org/2000/svg">
<g clip-path="url(#clip0_2_732)">
<rect width="822" height="500" rx="12" fill="#131313"/>
<path d="M41.0781 386.719H44.5312C44.7812 388.953 46.9531 390.422 49.9219 390.422C52.7656 390.422 54.8125 388.953 54.8125 386.938C54.8125 385.188 53.5781 384.141 50.6562 383.422L47.7344 382.719C43.5938 381.719 41.6719 379.781 41.6719 376.641C41.6719 372.75 45.0625 370.078 49.875 370.078C54.6406 370.078 57.9062 372.75 58.0156 376.641H54.6094C54.4062 374.391 52.5469 373.031 49.8281 373.031C47.1094 373.031 45.25 374.406 45.25 376.406C45.25 378 46.4375 378.938 49.3438 379.656L51.8281 380.266C56.4531 381.359 58.375 383.219 58.375 386.516C58.375 390.734 55.0156 393.375 49.6719 393.375C44.6719 393.375 41.2969 390.797 41.0781 386.719ZM67.9844 378.984C65.625 378.984 63.9688 380.781 63.7969 383.266H72.0156C71.9375 380.75 70.3438 378.984 67.9844 378.984ZM72 388.172H75.2031C74.7344 391.172 71.8906 393.312 68.125 393.312C63.2969 393.312 60.375 390.047 60.375 384.859C60.375 379.703 63.3438 376.266 67.9844 376.266C72.5469 376.266 75.3906 379.484 75.3906 384.469V385.625H63.7812V385.828C63.7812 388.688 65.5 390.578 68.2031 390.578C70.125 390.578 71.5469 389.609 72 388.172ZM83.7656 390.609C86.125 390.609 87.9688 388.984 87.9688 386.844V385.547L83.9219 385.797C81.9062 385.938 80.7656 386.828 80.7656 388.234C80.7656 389.672 81.9531 390.609 83.7656 390.609ZM82.8281 393.281C79.6094 393.281 77.3594 391.281 77.3594 388.328C77.3594 385.453 79.5625 383.688 83.4688 383.469L87.9688 383.203V381.938C87.9688 380.109 86.7344 379.016 84.6719 379.016C82.7188 379.016 81.5 379.953 81.2031 381.422H78.0156C78.2031 378.453 80.7344 376.266 84.7969 376.266C88.7812 376.266 91.3281 378.375 91.3281 381.672V393H88.0938V390.297H88.0156C87.0625 392.125 84.9844 393.281 82.8281 393.281ZM94.6094 393V376.562H97.8281V379.328H97.9062C98.6406 377.5 100.359 376.281 102.578 376.281C104.859 376.281 106.516 377.453 107.172 379.5H107.25C108.094 377.5 110.031 376.281 112.375 376.281C115.625 376.281 117.75 378.438 117.75 381.703V393H114.359V382.516C114.359 380.391 113.219 379.172 111.219 379.172C109.219 379.172 107.828 380.656 107.828 382.734V393H104.516V382.266C104.516 380.375 103.312 379.172 101.406 379.172C99.4062 379.172 97.9844 380.734 97.9844 382.844V393H94.6094ZM121.141 393V370.453H124.516V393H121.141ZM134.859 378.984C132.5 378.984 130.844 380.781 130.672 383.266H138.891C138.812 380.75 137.219 378.984 134.859 378.984ZM138.875 388.172H142.078C141.609 391.172 138.766 393.312 135 393.312C130.172 393.312 127.25 390.047 127.25 384.859C127.25 379.703 130.219 376.266 134.859 376.266C139.422 376.266 142.266 379.484 142.266 384.469V385.625H130.656V385.828C130.656 388.688 132.375 390.578 135.078 390.578C137 390.578 138.422 389.609 138.875 388.172ZM144.594 381.219C144.594 378.281 147.188 376.266 151.031 376.266C154.688 376.266 157.25 378.312 157.359 381.234H154.188C154.031 379.75 152.828 378.828 150.938 378.828C149.109 378.828 147.891 379.719 147.891 381.016C147.891 382.031 148.703 382.719 150.406 383.141L153.172 383.781C156.484 384.578 157.734 385.828 157.734 388.25C157.734 391.25 154.938 393.312 150.906 393.312C147.016 393.312 144.438 391.297 144.172 388.281H147.516C147.781 389.859 149 390.734 151.062 390.734C153.094 390.734 154.344 389.891 154.344 388.562C154.344 387.516 153.719 386.938 152 386.5L149.062 385.781C146.094 385.062 144.594 383.516 144.594 381.219ZM160.062 381.219C160.062 378.281 162.656 376.266 166.5 376.266C170.156 376.266 172.719 378.312 172.828 381.234H169.656C169.5 379.75 168.297 378.828 166.406 378.828C164.578 378.828 163.359 379.719 163.359 381.016C163.359 382.031 164.172 382.719 165.875 383.141L168.641 383.781C171.953 384.578 173.203 385.828 173.203 388.25C173.203 391.25 170.406 393.312 166.375 393.312C162.484 393.312 159.906 391.297 159.641 388.281H162.984C163.25 389.859 164.469 390.734 166.531 390.734C168.562 390.734 169.812 389.891 169.812 388.562C169.812 387.516 169.188 386.938 167.469 386.5L164.531 385.781C161.562 385.062 160.062 383.516 160.062 381.219ZM182.734 370.453H191.188C195.562 370.453 198.609 373.469 198.609 377.859C198.609 382.266 195.5 385.297 191.078 385.297H186.234V393H182.734V370.453ZM186.234 373.406V382.359H190.25C193.297 382.359 195.031 380.719 195.031 377.875C195.031 375.031 193.297 373.406 190.266 373.406H186.234ZM205.703 390.609C208.062 390.609 209.906 388.984 209.906 386.844V385.547L205.859 385.797C203.844 385.938 202.703 386.828 202.703 388.234C202.703 389.672 203.891 390.609 205.703 390.609ZM204.766 393.281C201.547 393.281 199.297 391.281 199.297 388.328C199.297 385.453 201.5 383.688 205.406 383.469L209.906 383.203V381.938C209.906 380.109 208.672 379.016 206.609 379.016C204.656 379.016 203.438 379.953 203.141 381.422H199.953C200.141 378.453 202.672 376.266 206.734 376.266C210.719 376.266 213.266 378.375 213.266 381.672V393H210.031V390.297H209.953C209 392.125 206.922 393.281 204.766 393.281ZM218.172 399.125C217.906 399.125 217.047 399.094 216.797 399.047V396.312C217.047 396.375 217.609 396.375 217.891 396.375C219.469 396.375 220.297 395.719 220.812 394.031C220.812 394 221.109 393.031 221.109 393.016L215.172 376.562H218.828L223 389.938H223.047L227.219 376.562H230.781L224.609 393.859C223.203 397.844 221.594 399.125 218.172 399.125ZM232.766 393V376.562H235.984V379.328H236.062C236.797 377.5 238.516 376.281 240.734 376.281C243.016 376.281 244.672 377.453 245.328 379.5H245.406C246.25 377.5 248.188 376.281 250.531 376.281C253.781 376.281 255.906 378.438 255.906 381.703V393H252.516V382.516C252.516 380.391 251.375 379.172 249.375 379.172C247.375 379.172 245.984 380.656 245.984 382.734V393H242.672V382.266C242.672 380.375 241.469 379.172 239.562 379.172C237.562 379.172 236.141 380.734 236.141 382.844V393H232.766ZM266.047 378.984C263.688 378.984 262.031 380.781 261.859 383.266H270.078C270 380.75 268.406 378.984 266.047 378.984ZM270.062 388.172H273.266C272.797 391.172 269.953 393.312 266.188 393.312C261.359 393.312 258.438 390.047 258.438 384.859C258.438 379.703 261.406 376.266 266.047 376.266C270.609 376.266 273.453 379.484 273.453 384.469V385.625H261.844V385.828C261.844 388.688 263.562 390.578 266.266 390.578C268.188 390.578 269.609 389.609 270.062 388.172ZM276.078 393V376.562H279.297V379.312H279.375C280.266 377.438 282.016 376.281 284.547 376.281C288.172 376.281 290.25 378.594 290.25 382.359V393H286.859V383.016C286.859 380.547 285.703 379.188 283.359 379.188C280.984 379.188 279.453 380.875 279.453 383.422V393H276.078ZM294.5 372.672H297.891V376.562H301.016V379.234H297.891V388.297C297.891 389.719 298.516 390.359 299.891 390.359C300.234 390.359 300.781 390.328 301 390.281V392.953C300.625 393.047 299.875 393.109 299.125 393.109C295.797 393.109 294.5 391.844 294.5 388.672V379.234H292.109V376.562H294.5V372.672ZM303.5 381.219C303.5 378.281 306.094 376.266 309.938 376.266C313.594 376.266 316.156 378.312 316.266 381.234H313.094C312.938 379.75 311.734 378.828 309.844 378.828C308.016 378.828 306.797 379.719 306.797 381.016C306.797 382.031 307.609 382.719 309.312 383.141L312.078 383.781C315.391 384.578 316.641 385.828 316.641 388.25C316.641 391.25 313.844 393.312 309.812 393.312C305.922 393.312 303.344 391.297 303.078 388.281H306.422C306.688 389.859 307.906 390.734 309.969 390.734C312 390.734 313.25 389.891 313.25 388.562C313.25 387.516 312.625 386.938 310.906 386.5L307.969 385.781C305 385.062 303.5 383.516 303.5 381.219Z" fill="white"/>
<path d="M48.0781 428.734V430H41.0938V418.727H48.0781V419.992H42.5V423.609H47.7891V424.859H42.5V428.734H48.0781ZM49.7266 430V421.875H51.0078V423.172H51.0391C51.4922 422.297 52.3594 421.734 53.6172 421.734C55.3984 421.734 56.4297 422.883 56.4297 424.727V430H55.0703V424.969C55.0703 423.656 54.4531 422.938 53.2031 422.938C51.9219 422.938 51.0859 423.844 51.0859 425.219V430H49.7266ZM59.5938 421.875V430.398C59.5938 432.047 58.8125 432.797 57.0781 432.797C57.0547 432.797 56.8359 432.797 56.8203 432.789V431.656C56.8359 431.656 57.0234 431.656 57.0312 431.656C57.9141 431.656 58.2344 431.32 58.2344 430.414V421.875H59.5938ZM58.9141 420.508C58.4531 420.508 58.0703 420.125 58.0703 419.664C58.0703 419.195 58.4531 418.82 58.9141 418.82C59.3828 418.82 59.7656 419.195 59.7656 419.664C59.7656 420.125 59.3828 420.508 58.9141 420.508ZM64.7969 430.141C62.5469 430.141 61.0312 428.523 61.0312 425.938C61.0312 423.344 62.5469 421.734 64.7969 421.734C67.0391 421.734 68.5547 423.344 68.5547 425.938C68.5547 428.523 67.0391 430.141 64.7969 430.141ZM64.7969 428.945C66.2344 428.945 67.1719 427.852 67.1719 425.938C67.1719 424.023 66.2344 422.93 64.7969 422.93C63.3594 422.93 62.4141 424.023 62.4141 425.938C62.4141 427.852 63.3594 428.945 64.7969 428.945ZM70.3672 433.039C70.2031 433.039 69.9297 433.023 69.7812 432.992V431.852C69.9297 431.883 70.1406 431.891 70.3125 431.891C71.0703 431.891 71.4922 431.523 71.8047 430.578L71.9922 430.008L68.9922 421.875H70.4453L72.6953 428.641H72.7188L74.9688 421.875H76.3984L73.2031 430.57C72.5078 432.469 71.8359 433.039 70.3672 433.039ZM80.6172 424.117C80.6172 422.727 81.8594 421.734 83.6484 421.734C85.3281 421.734 86.5625 422.734 86.625 424.109H85.3281C85.2344 423.328 84.6016 422.844 83.6016 422.844C82.6094 422.844 81.9531 423.336 81.9531 424.047C81.9531 424.609 82.3828 424.984 83.3047 425.219L84.5625 425.523C86.2031 425.938 86.7969 426.531 86.7969 427.727C86.7969 429.141 85.4609 430.141 83.5625 430.141C81.7812 430.141 80.5391 429.172 80.3984 427.734H81.7578C81.9062 428.578 82.5469 429.031 83.6484 429.031C84.75 429.031 85.4297 428.562 85.4297 427.828C85.4297 427.25 85.0938 426.938 84.1797 426.695L82.75 426.328C81.3203 425.961 80.6172 425.227 80.6172 424.117ZM91.4688 422.914C90.1953 422.914 89.3047 423.891 89.2188 425.242H93.6328C93.6016 423.883 92.75 422.914 91.4688 422.914ZM93.6016 427.672H94.9375C94.7031 429.094 93.3281 430.141 91.5547 430.141C89.2266 430.141 87.8125 428.523 87.8125 425.969C87.8125 423.445 89.25 421.734 91.4922 421.734C93.6875 421.734 95.0391 423.328 95.0391 425.789V426.305H89.2109V426.383C89.2109 427.938 90.125 428.961 91.5859 428.961C92.6172 428.961 93.375 428.438 93.6016 427.672ZM103.164 424.539H101.836C101.641 423.656 100.953 422.93 99.7578 422.93C98.3516 422.93 97.3984 424.094 97.3984 425.938C97.3984 427.828 98.3672 428.945 99.7734 428.945C100.883 428.945 101.609 428.359 101.844 427.383H103.18C102.969 429 101.609 430.141 99.7656 430.141C97.5156 430.141 96.0156 428.555 96.0156 425.938C96.0156 423.375 97.5078 421.734 99.75 421.734C101.781 421.734 102.992 423.078 103.164 424.539ZM111.102 421.875V430H109.812V428.68H109.781C109.297 429.617 108.453 430.141 107.203 430.141C105.43 430.141 104.391 428.992 104.391 427.148V421.875H105.75V426.906C105.75 428.227 106.367 428.938 107.625 428.938C108.945 428.938 109.742 428.031 109.742 426.648V421.875H111.102ZM112.867 430V421.875H114.148V423.203H114.18C114.445 422.305 115.195 421.734 116.148 421.734C116.383 421.734 116.586 421.773 116.695 421.789V423.109C116.586 423.07 116.297 423.031 115.969 423.031C114.914 423.031 114.227 423.789 114.227 424.938V430H112.867ZM120.672 422.914C119.398 422.914 118.508 423.891 118.422 425.242H122.836C122.805 423.883 121.953 422.914 120.672 422.914ZM122.805 427.672H124.141C123.906 429.094 122.531 430.141 120.758 430.141C118.43 430.141 117.016 428.523 117.016 425.969C117.016 423.445 118.453 421.734 120.695 421.734C122.891 421.734 124.242 423.328 124.242 425.789V426.305H118.414V426.383C118.414 427.938 119.328 428.961 120.789 428.961C121.82 428.961 122.578 428.438 122.805 427.672ZM126.547 432.242H125.414L126.172 428.266H127.617L126.547 432.242ZM132.039 424.117C132.039 422.727 133.281 421.734 135.07 421.734C136.75 421.734 137.984 422.734 138.047 424.109H136.75C136.656 423.328 136.023 422.844 135.023 422.844C134.031 422.844 133.375 423.336 133.375 424.047C133.375 424.609 133.805 424.984 134.727 425.219L135.984 425.523C137.625 425.938 138.219 426.531 138.219 427.727C138.219 429.141 136.883 430.141 134.984 430.141C133.203 430.141 131.961 429.172 131.82 427.734H133.18C133.328 428.578 133.969 429.031 135.07 429.031C136.172 429.031 136.852 428.562 136.852 427.828C136.852 427.25 136.516 426.938 135.602 426.695L134.172 426.328C132.742 425.961 132.039 425.227 132.039 424.117ZM142.891 422.914C141.617 422.914 140.727 423.891 140.641 425.242H145.055C145.023 423.883 144.172 422.914 142.891 422.914ZM145.023 427.672H146.359C146.125 429.094 144.75 430.141 142.977 430.141C140.648 430.141 139.234 428.523 139.234 425.969C139.234 423.445 140.672 421.734 142.914 421.734C145.109 421.734 146.461 423.328 146.461 425.789V426.305H140.633V426.383C140.633 427.938 141.547 428.961 143.008 428.961C144.039 428.961 144.797 428.438 145.023 427.672ZM150.516 428.984C151.797 428.984 152.781 428.086 152.781 426.914V426.25L150.609 426.383C149.516 426.453 148.891 426.938 148.891 427.703C148.891 428.477 149.539 428.984 150.516 428.984ZM150.211 430.141C148.594 430.141 147.508 429.164 147.508 427.703C147.508 426.312 148.578 425.438 150.453 425.328L152.781 425.195V424.516C152.781 423.523 152.125 422.93 151 422.93C149.953 422.93 149.297 423.422 149.125 424.219H147.812C147.906 422.812 149.109 421.734 151.031 421.734C152.938 421.734 154.141 422.766 154.141 424.383V430H152.852V428.602H152.82C152.336 429.531 151.305 430.141 150.211 430.141ZM155.867 430V421.875H157.148V423.172H157.18C157.562 422.312 158.391 421.734 159.484 421.734C160.594 421.734 161.414 422.297 161.766 423.281H161.797C162.25 422.312 163.203 421.734 164.344 421.734C165.953 421.734 166.992 422.781 166.992 424.391V430H165.633V424.703C165.633 423.594 165.016 422.938 163.945 422.938C162.867 422.938 162.109 423.734 162.109 424.836V430H160.75V424.555C160.75 423.578 160.094 422.938 159.086 422.938C158.008 422.938 157.227 423.781 157.227 424.906V430H155.867ZM168.797 430V418.727H170.156V430H168.797ZM175.25 422.914C173.977 422.914 173.086 423.891 173 425.242H177.414C177.383 423.883 176.531 422.914 175.25 422.914ZM177.383 427.672H178.719C178.484 429.094 177.109 430.141 175.336 430.141C173.008 430.141 171.594 428.523 171.594 425.969C171.594 423.445 173.031 421.734 175.273 421.734C177.469 421.734 178.82 423.328 178.82 425.789V426.305H172.992V426.383C172.992 427.938 173.906 428.961 175.367 428.961C176.398 428.961 177.156 428.438 177.383 427.672ZM180.055 424.117C180.055 422.727 181.297 421.734 183.086 421.734C184.766 421.734 186 422.734 186.062 424.109H184.766C184.672 423.328 184.039 422.844 183.039 422.844C182.047 422.844 181.391 423.336 181.391 424.047C181.391 424.609 181.82 424.984 182.742 425.219L184 425.523C185.641 425.938 186.234 426.531 186.234 427.727C186.234 429.141 184.898 430.141 183 430.141C181.219 430.141 179.977 429.172 179.836 427.734H181.195C181.344 428.578 181.984 429.031 183.086 429.031C184.188 429.031 184.867 428.562 184.867 427.828C184.867 427.25 184.531 426.938 183.617 426.695L182.188 426.328C180.758 425.961 180.055 425.227 180.055 424.117ZM187.508 424.117C187.508 422.727 188.75 421.734 190.539 421.734C192.219 421.734 193.453 422.734 193.516 424.109H192.219C192.125 423.328 191.492 422.844 190.492 422.844C189.5 422.844 188.844 423.336 188.844 424.047C188.844 424.609 189.273 424.984 190.195 425.219L191.453 425.523C193.094 425.938 193.688 426.531 193.688 427.727C193.688 429.141 192.352 430.141 190.453 430.141C188.672 430.141 187.43 429.172 187.289 427.734H188.648C188.797 428.578 189.438 429.031 190.539 429.031C191.641 429.031 192.32 428.562 192.32 427.828C192.32 427.25 191.984 426.938 191.07 426.695L189.641 426.328C188.211 425.961 187.508 425.227 187.508 424.117ZM198.82 419.914H200.18V421.875H201.758V422.992H200.18V427.82C200.18 428.562 200.492 428.898 201.188 428.898C201.344 428.898 201.656 428.875 201.75 428.859V430C201.586 430.039 201.211 430.062 200.891 430.062C199.398 430.062 198.82 429.453 198.82 427.891V422.992H197.609V421.875H198.82V419.914ZM203.211 430V421.875H204.492V423.203H204.523C204.789 422.305 205.539 421.734 206.492 421.734C206.727 421.734 206.93 421.773 207.039 421.789V423.109C206.93 423.07 206.641 423.031 206.312 423.031C205.258 423.031 204.57 423.789 204.57 424.938V430H203.211ZM210.672 428.984C211.953 428.984 212.938 428.086 212.938 426.914V426.25L210.766 426.383C209.672 426.453 209.047 426.938 209.047 427.703C209.047 428.477 209.695 428.984 210.672 428.984ZM210.367 430.141C208.75 430.141 207.664 429.164 207.664 427.703C207.664 426.312 208.734 425.438 210.609 425.328L212.938 425.195V424.516C212.938 423.523 212.281 422.93 211.156 422.93C210.109 422.93 209.453 423.422 209.281 424.219H207.969C208.062 422.812 209.266 421.734 211.188 421.734C213.094 421.734 214.297 422.766 214.297 424.383V430H213.008V428.602H212.977C212.492 429.531 211.461 430.141 210.367 430.141ZM216.023 430V421.875H217.305V423.172H217.336C217.789 422.297 218.656 421.734 219.914 421.734C221.695 421.734 222.727 422.883 222.727 424.727V430H221.367V424.969C221.367 423.656 220.75 422.938 219.5 422.938C218.219 422.938 217.383 423.844 217.383 425.219V430H216.023ZM224.32 424.117C224.32 422.727 225.562 421.734 227.352 421.734C229.031 421.734 230.266 422.734 230.328 424.109H229.031C228.938 423.328 228.305 422.844 227.305 422.844C226.312 422.844 225.656 423.336 225.656 424.047C225.656 424.609 226.086 424.984 227.008 425.219L228.266 425.523C229.906 425.938 230.5 426.531 230.5 427.727C230.5 429.141 229.164 430.141 227.266 430.141C225.484 430.141 224.242 429.172 224.102 427.734H225.461C225.609 428.578 226.25 429.031 227.352 429.031C228.453 429.031 229.133 428.562 229.133 427.828C229.133 427.25 228.797 426.938 227.883 426.695L226.453 426.328C225.023 425.961 224.32 425.227 224.32 424.117ZM234.594 428.984C235.875 428.984 236.859 428.086 236.859 426.914V426.25L234.688 426.383C233.594 426.453 232.969 426.938 232.969 427.703C232.969 428.477 233.617 428.984 234.594 428.984ZM234.289 430.141C232.672 430.141 231.586 429.164 231.586 427.703C231.586 426.312 232.656 425.438 234.531 425.328L236.859 425.195V424.516C236.859 423.523 236.203 422.93 235.078 422.93C234.031 422.93 233.375 423.422 233.203 424.219H231.891C231.984 422.812 233.188 421.734 235.109 421.734C237.016 421.734 238.219 422.766 238.219 424.383V430H236.93V428.602H236.898C236.414 429.531 235.383 430.141 234.289 430.141ZM246.695 424.539H245.367C245.172 423.656 244.484 422.93 243.289 422.93C241.883 422.93 240.93 424.094 240.93 425.938C240.93 427.828 241.898 428.945 243.305 428.945C244.414 428.945 245.141 428.359 245.375 427.383H246.711C246.5 429 245.141 430.141 243.297 430.141C241.047 430.141 239.547 428.555 239.547 425.938C239.547 423.375 241.039 421.734 243.281 421.734C245.312 421.734 246.523 423.078 246.695 424.539ZM248.398 419.914H249.758V421.875H251.336V422.992H249.758V427.82C249.758 428.562 250.07 428.898 250.766 428.898C250.922 428.898 251.234 428.875 251.328 428.859V430C251.164 430.039 250.789 430.062 250.469 430.062C248.977 430.062 248.398 429.453 248.398 427.891V422.992H247.188V421.875H248.398V419.914ZM252.859 430V421.875H254.219V430H252.859ZM253.539 420.508C253.078 420.508 252.695 420.125 252.695 419.664C252.695 419.195 253.078 418.82 253.539 418.82C254.008 418.82 254.391 419.195 254.391 419.664C254.391 420.125 254.008 420.508 253.539 420.508ZM259.422 430.141C257.172 430.141 255.656 428.523 255.656 425.938C255.656 423.344 257.172 421.734 259.422 421.734C261.664 421.734 263.18 423.344 263.18 425.938C263.18 428.523 261.664 430.141 259.422 430.141ZM259.422 428.945C260.859 428.945 261.797 427.852 261.797 425.938C261.797 424.023 260.859 422.93 259.422 422.93C257.984 422.93 257.039 424.023 257.039 425.938C257.039 427.852 257.984 428.945 259.422 428.945ZM264.555 430V421.875H265.836V423.172H265.867C266.32 422.297 267.188 421.734 268.445 421.734C270.227 421.734 271.258 422.883 271.258 424.727V430H269.898V424.969C269.898 423.656 269.281 422.938 268.031 422.938C266.75 422.938 265.914 423.844 265.914 425.219V430H264.555ZM272.852 424.117C272.852 422.727 274.094 421.734 275.883 421.734C277.562 421.734 278.797 422.734 278.859 424.109H277.562C277.469 423.328 276.836 422.844 275.836 422.844C274.844 422.844 274.188 423.336 274.188 424.047C274.188 424.609 274.617 424.984 275.539 425.219L276.797 425.523C278.438 425.938 279.031 426.531 279.031 427.727C279.031 429.141 277.695 430.141 275.797 430.141C274.016 430.141 272.773 429.172 272.633 427.734H273.992C274.141 428.578 274.781 429.031 275.883 429.031C276.984 429.031 277.664 428.562 277.664 427.828C277.664 427.25 277.328 426.938 276.414 426.695L274.984 426.328C273.555 425.961 272.852 425.227 272.852 424.117ZM284.164 419.914H285.523V421.875H287.102V422.992H285.523V427.82C285.523 428.562 285.836 428.898 286.531 428.898C286.688 428.898 287 428.875 287.094 428.859V430C286.93 430.039 286.555 430.062 286.234 430.062C284.742 430.062 284.164 429.453 284.164 427.891V422.992H282.953V421.875H284.164V419.914ZM288.625 430V418.727H289.984V423.172H290.016C290.469 422.266 291.359 421.734 292.594 421.734C294.375 421.734 295.453 422.938 295.453 424.75V430H294.094V425C294.094 423.711 293.445 422.938 292.172 422.938C290.82 422.938 289.984 423.859 289.984 425.266V430H288.625ZM299.859 428.984C301.141 428.984 302.125 428.086 302.125 426.914V426.25L299.953 426.383C298.859 426.453 298.234 426.938 298.234 427.703C298.234 428.477 298.883 428.984 299.859 428.984ZM299.555 430.141C297.938 430.141 296.852 429.164 296.852 427.703C296.852 426.312 297.922 425.438 299.797 425.328L302.125 425.195V424.516C302.125 423.523 301.469 422.93 300.344 422.93C299.297 422.93 298.641 423.422 298.469 424.219H297.156C297.25 422.812 298.453 421.734 300.375 421.734C302.281 421.734 303.484 422.766 303.484 424.383V430H302.195V428.602H302.164C301.68 429.531 300.648 430.141 299.555 430.141ZM305.648 419.914H307.008V421.875H308.586V422.992H307.008V427.82C307.008 428.562 307.32 428.898 308.016 428.898C308.172 428.898 308.484 428.875 308.578 428.859V430C308.414 430.039 308.039 430.062 307.719 430.062C306.227 430.062 305.648 429.453 305.648 427.891V422.992H304.438V421.875H305.648V419.914ZM313.32 430V421.875H314.602V423.172H314.633C315.016 422.312 315.844 421.734 316.938 421.734C318.047 421.734 318.867 422.297 319.219 423.281H319.25C319.703 422.312 320.656 421.734 321.797 421.734C323.406 421.734 324.445 422.781 324.445 424.391V430H323.086V424.703C323.086 423.594 322.469 422.938 321.398 422.938C320.32 422.938 319.562 423.734 319.562 424.836V430H318.203V424.555C318.203 423.578 317.547 422.938 316.539 422.938C315.461 422.938 314.68 423.781 314.68 424.906V430H313.32ZM328.859 428.984C330.141 428.984 331.125 428.086 331.125 426.914V426.25L328.953 426.383C327.859 426.453 327.234 426.938 327.234 427.703C327.234 428.477 327.883 428.984 328.859 428.984ZM328.555 430.141C326.938 430.141 325.852 429.164 325.852 427.703C325.852 426.312 326.922 425.438 328.797 425.328L331.125 425.195V424.516C331.125 423.523 330.469 422.93 329.344 422.93C328.297 422.93 327.641 423.422 327.469 424.219H326.156C326.25 422.812 327.453 421.734 329.375 421.734C331.281 421.734 332.484 422.766 332.484 424.383V430H331.195V428.602H331.164C330.68 429.531 329.648 430.141 328.555 430.141ZM335.641 425.484L339.234 421.875H340.883L337.359 425.383L340.992 430H339.414L336.398 426.219L335.641 426.938V430H334.281V418.727H335.641V425.484ZM344.844 422.914C343.57 422.914 342.68 423.891 342.594 425.242H347.008C346.977 423.883 346.125 422.914 344.844 422.914ZM346.977 427.672H348.312C348.078 429.094 346.703 430.141 344.93 430.141C342.602 430.141 341.188 428.523 341.188 425.969C341.188 423.445 342.625 421.734 344.867 421.734C347.062 421.734 348.414 423.328 348.414 425.789V426.305H342.586V426.383C342.586 427.938 343.5 428.961 344.961 428.961C345.992 428.961 346.75 428.438 346.977 427.672ZM353.07 430V421.875H354.352V423.172H354.383C354.766 422.312 355.594 421.734 356.688 421.734C357.797 421.734 358.617 422.297 358.969 423.281H359C359.453 422.312 360.406 421.734 361.547 421.734C363.156 421.734 364.195 422.781 364.195 424.391V430H362.836V424.703C362.836 423.594 362.219 422.938 361.148 422.938C360.07 422.938 359.312 423.734 359.312 424.836V430H357.953V424.555C357.953 423.578 357.297 422.938 356.289 422.938C355.211 422.938 354.43 423.781 354.43 424.906V430H353.07ZM368.609 428.984C369.891 428.984 370.875 428.086 370.875 426.914V426.25L368.703 426.383C367.609 426.453 366.984 426.938 366.984 427.703C366.984 428.477 367.633 428.984 368.609 428.984ZM368.305 430.141C366.688 430.141 365.602 429.164 365.602 427.703C365.602 426.312 366.672 425.438 368.547 425.328L370.875 425.195V424.516C370.875 423.523 370.219 422.93 369.094 422.93C368.047 422.93 367.391 423.422 367.219 424.219H365.906C366 422.812 367.203 421.734 369.125 421.734C371.031 421.734 372.234 422.766 372.234 424.383V430H370.945V428.602H370.914C370.43 429.531 369.398 430.141 368.305 430.141ZM373.961 430V421.875H375.242V423.172H375.273C375.727 422.297 376.594 421.734 377.852 421.734C379.633 421.734 380.664 422.883 380.664 424.727V430H379.305V424.969C379.305 423.656 378.688 422.938 377.438 422.938C376.156 422.938 375.32 423.844 375.32 425.219V430H373.961ZM385.078 428.984C386.359 428.984 387.344 428.086 387.344 426.914V426.25L385.172 426.383C384.078 426.453 383.453 426.938 383.453 427.703C383.453 428.477 384.102 428.984 385.078 428.984ZM384.773 430.141C383.156 430.141 382.07 429.164 382.07 427.703C382.07 426.312 383.141 425.438 385.016 425.328L387.344 425.195V424.516C387.344 423.523 386.688 422.93 385.562 422.93C384.516 422.93 383.859 423.422 383.688 424.219H382.375C382.469 422.812 383.672 421.734 385.594 421.734C387.5 421.734 388.703 422.766 388.703 424.383V430H387.414V428.602H387.383C386.898 429.531 385.867 430.141 384.773 430.141ZM393.734 428.867C395.148 428.867 396.094 427.695 396.094 425.906C396.094 424.117 395.148 422.93 393.734 422.93C392.336 422.93 391.422 424.086 391.422 425.906C391.422 427.727 392.336 428.867 393.734 428.867ZM393.781 433.062C391.992 433.062 390.578 432.055 390.352 430.672H391.75C392.016 431.414 392.82 431.906 393.836 431.906C395.242 431.906 396.094 431.094 396.094 429.883V428.602H396.062C395.562 429.484 394.602 430.062 393.461 430.062C391.391 430.062 390.031 428.43 390.031 425.906C390.031 423.359 391.391 421.734 393.492 421.734C394.641 421.734 395.594 422.297 396.133 423.242H396.156V421.875H397.453V429.836C397.453 431.773 396.023 433.062 393.781 433.062ZM399.297 430V421.875H400.656V430H399.297ZM399.977 420.508C399.516 420.508 399.133 420.125 399.133 419.664C399.133 419.195 399.516 418.82 399.977 418.82C400.445 418.82 400.828 419.195 400.828 419.664C400.828 420.125 400.445 420.508 399.977 420.508ZM402.492 430V421.875H403.773V423.172H403.805C404.258 422.297 405.125 421.734 406.383 421.734C408.164 421.734 409.195 422.883 409.195 424.727V430H407.836V424.969C407.836 423.656 407.219 422.938 405.969 422.938C404.688 422.938 403.852 423.844 403.852 425.219V430H402.492ZM414.234 428.867C415.648 428.867 416.594 427.695 416.594 425.906C416.594 424.117 415.648 422.93 414.234 422.93C412.836 422.93 411.922 424.086 411.922 425.906C411.922 427.727 412.836 428.867 414.234 428.867ZM414.281 433.062C412.492 433.062 411.078 432.055 410.852 430.672H412.25C412.516 431.414 413.32 431.906 414.336 431.906C415.742 431.906 416.594 431.094 416.594 429.883V428.602H416.562C416.062 429.484 415.102 430.062 413.961 430.062C411.891 430.062 410.531 428.43 410.531 425.906C410.531 423.359 411.891 421.734 413.992 421.734C415.141 421.734 416.094 422.297 416.633 423.242H416.656V421.875H417.953V429.836C417.953 431.773 416.523 433.062 414.281 433.062ZM423.68 433.039C423.516 433.039 423.242 433.023 423.094 432.992V431.852C423.242 431.883 423.453 431.891 423.625 431.891C424.383 431.891 424.805 431.523 425.117 430.578L425.305 430.008L422.305 421.875H423.758L426.008 428.641H426.031L428.281 421.875H429.711L426.516 430.57C425.82 432.469 425.148 433.039 423.68 433.039ZM433.922 430.141C431.672 430.141 430.156 428.523 430.156 425.938C430.156 423.344 431.672 421.734 433.922 421.734C436.164 421.734 437.68 423.344 437.68 425.938C437.68 428.523 436.164 430.141 433.922 430.141ZM433.922 428.945C435.359 428.945 436.297 427.852 436.297 425.938C436.297 424.023 435.359 422.93 433.922 422.93C432.484 422.93 431.539 424.023 431.539 425.938C431.539 427.852 432.484 428.945 433.922 428.945ZM445.727 421.875V430H444.438V428.68H444.406C443.922 429.617 443.078 430.141 441.828 430.141C440.055 430.141 439.016 428.992 439.016 427.148V421.875H440.375V426.906C440.375 428.227 440.992 428.938 442.25 428.938C443.57 428.938 444.367 428.031 444.367 426.648V421.875H445.727ZM447.492 430V421.875H448.773V423.203H448.805C449.07 422.305 449.82 421.734 450.773 421.734C451.008 421.734 451.211 421.773 451.32 421.789V423.109C451.211 423.07 450.922 423.031 450.594 423.031C449.539 423.031 448.852 423.789 448.852 424.938V430H447.492ZM455.711 430V421.875H456.992V423.172H457.023C457.406 422.312 458.234 421.734 459.328 421.734C460.438 421.734 461.258 422.297 461.609 423.281H461.641C462.094 422.312 463.047 421.734 464.188 421.734C465.797 421.734 466.836 422.781 466.836 424.391V430H465.477V424.703C465.477 423.594 464.859 422.938 463.789 422.938C462.711 422.938 461.953 423.734 461.953 424.836V430H460.594V424.555C460.594 423.578 459.938 422.938 458.93 422.938C457.852 422.938 457.07 423.781 457.07 424.906V430H455.711ZM471.938 430.141C469.688 430.141 468.172 428.523 468.172 425.938C468.172 423.344 469.688 421.734 471.938 421.734C474.18 421.734 475.695 423.344 475.695 425.938C475.695 428.523 474.18 430.141 471.938 430.141ZM471.938 428.945C473.375 428.945 474.312 427.852 474.312 425.938C474.312 424.023 473.375 422.93 471.938 422.93C470.5 422.93 469.555 424.023 469.555 425.938C469.555 427.852 470.5 428.945 471.938 428.945ZM477.07 430V421.875H478.352V423.172H478.383C478.836 422.297 479.703 421.734 480.961 421.734C482.742 421.734 483.773 422.883 483.773 424.727V430H482.414V424.969C482.414 423.656 481.797 422.938 480.547 422.938C479.266 422.938 478.43 423.844 478.43 425.219V430H477.07ZM488.766 422.914C487.492 422.914 486.602 423.891 486.516 425.242H490.93C490.898 423.883 490.047 422.914 488.766 422.914ZM490.898 427.672H492.234C492 429.094 490.625 430.141 488.852 430.141C486.523 430.141 485.109 428.523 485.109 425.969C485.109 423.445 486.547 421.734 488.789 421.734C490.984 421.734 492.336 423.328 492.336 425.789V426.305H486.508V426.383C486.508 427.938 487.422 428.961 488.883 428.961C489.914 428.961 490.672 428.438 490.898 427.672ZM494.383 433.039C494.219 433.039 493.945 433.023 493.797 432.992V431.852C493.945 431.883 494.156 431.891 494.328 431.891C495.086 431.891 495.508 431.523 495.82 430.578L496.008 430.008L493.008 421.875H494.461L496.711 428.641H496.734L498.984 421.875H500.414L497.219 430.57C496.523 432.469 495.852 433.039 494.383 433.039ZM507.453 428.984C508.734 428.984 509.719 428.086 509.719 426.914V426.25L507.547 426.383C506.453 426.453 505.828 426.938 505.828 427.703C505.828 428.477 506.477 428.984 507.453 428.984ZM507.148 430.141C505.531 430.141 504.445 429.164 504.445 427.703C504.445 426.312 505.516 425.438 507.391 425.328L509.719 425.195V424.516C509.719 423.523 509.062 422.93 507.938 422.93C506.891 422.93 506.234 423.422 506.062 424.219H504.75C504.844 422.812 506.047 421.734 507.969 421.734C509.875 421.734 511.078 422.766 511.078 424.383V430H509.789V428.602H509.758C509.273 429.531 508.242 430.141 507.148 430.141ZM44.9219 454.141C43.7344 454.141 42.8047 453.562 42.2812 452.625H42.25V454H40.9531V442.727H42.3125V447.234H42.3438C42.8516 446.305 43.7969 445.734 44.9453 445.734C46.9922 445.734 48.375 447.391 48.375 449.938C48.375 452.492 47 454.141 44.9219 454.141ZM44.6562 446.93C43.2812 446.93 42.3047 448.133 42.3047 449.938C42.3047 451.75 43.2812 452.945 44.6562 452.945C46.0938 452.945 46.9844 451.797 46.9844 449.938C46.9844 448.094 46.0938 446.93 44.6562 446.93ZM49.7578 454V445.875H51.0391V447.203H51.0703C51.3359 446.305 52.0859 445.734 53.0391 445.734C53.2734 445.734 53.4766 445.773 53.5859 445.789V447.109C53.4766 447.07 53.1875 447.031 52.8594 447.031C51.8047 447.031 51.1172 447.789 51.1172 448.938V454H49.7578ZM57.5625 446.914C56.2891 446.914 55.3984 447.891 55.3125 449.242H59.7266C59.6953 447.883 58.8438 446.914 57.5625 446.914ZM59.6953 451.672H61.0312C60.7969 453.094 59.4219 454.141 57.6484 454.141C55.3203 454.141 53.9062 452.523 53.9062 449.969C53.9062 447.445 55.3438 445.734 57.5859 445.734C59.7812 445.734 61.1328 447.328 61.1328 449.789V450.305H55.3047V450.383C55.3047 451.938 56.2188 452.961 57.6797 452.961C58.7109 452.961 59.4688 452.438 59.6953 451.672ZM65.7656 446.914C64.4922 446.914 63.6016 447.891 63.5156 449.242H67.9297C67.8984 447.883 67.0469 446.914 65.7656 446.914ZM67.8984 451.672H69.2344C69 453.094 67.625 454.141 65.8516 454.141C63.5234 454.141 62.1094 452.523 62.1094 449.969C62.1094 447.445 63.5469 445.734 65.7891 445.734C67.9844 445.734 69.3359 447.328 69.3359 449.789V450.305H63.5078V450.383C63.5078 451.938 64.4219 452.961 65.8828 452.961C66.9141 452.961 67.6719 452.438 67.8984 451.672ZM70.5391 454V453.031L75.0391 447.016V446.992H70.5469V445.875H76.5781V446.867L72.1094 452.859V452.883H76.6016V454H70.5391ZM81.1406 446.914C79.8672 446.914 78.9766 447.891 78.8906 449.242H83.3047C83.2734 447.883 82.4219 446.914 81.1406 446.914ZM83.2734 451.672H84.6094C84.375 453.094 83 454.141 81.2266 454.141C78.8984 454.141 77.4844 452.523 77.4844 449.969C77.4844 447.445 78.9219 445.734 81.1641 445.734C83.3594 445.734 84.7109 447.328 84.7109 449.789V450.305H78.8828V450.383C78.8828 451.938 79.7969 452.961 81.2578 452.961C82.2891 452.961 83.0469 452.438 83.2734 451.672ZM87.2344 454.078C86.7344 454.078 86.3438 453.688 86.3438 453.188C86.3438 452.688 86.7344 452.297 87.2344 452.297C87.7344 452.297 88.125 452.688 88.125 453.188C88.125 453.688 87.7344 454.078 87.2344 454.078Z" fill="#BDBDBD"/>
<path d="M60.5882 -161H13V-118.583M60.5882 -161V-118.583M60.5882 -161H108.176M60.5882 -118.583H13M60.5882 -118.583H108.176M60.5882 -118.583V-76.1667M13 -118.583V-76.1667M108.176 -161V-118.583M108.176 -161H155.765M108.176 -118.583H155.765M108.176 -118.583V-76.1667M155.765 -161V-118.583M155.765 -161H203.353M155.765 -118.583H203.353M155.765 -118.583V-76.1667M203.353 -161V-118.583M203.353 -161H250.941M203.353 -118.583H250.941M203.353 -118.583V-76.1667M250.941 -161V-118.583M250.941 -161H298.529M250.941 -118.583H298.529M250.941 -118.583V-76.1667M298.529 -161V-118.583M298.529 -161H346.118M298.529 -118.583H346.118M298.529 -118.583V-76.1667M346.118 -161V-118.583M346.118 -161H393.706M346.118 -118.583H393.706M346.118 -118.583V-76.1667M393.706 -161V-118.583M393.706 -161H441.294M393.706 -118.583H441.294M393.706 -118.583V-76.1667M441.294 -161V-118.583M441.294 -161H488.882M441.294 -118.583H488.882M441.294 -118.583V-76.1667M488.882 -161V-118.583M488.882 -161H536.471M488.882 -118.583H536.471M488.882 -118.583V-76.1667M536.471 -161V-118.583M536.471 -161H584.059M536.471 -118.583H584.059M536.471 -118.583V-76.1667M584.059 -161V-118.583M584.059 -161H631.647M584.059 -118.583H631.647M584.059 -118.583V-76.1667M631.647 -161V-118.583M631.647 -161H679.235M631.647 -118.583H679.235M631.647 -118.583V-76.1667M679.235 -161V-118.583M679.235 -161H726.824M679.235 -118.583H726.824M679.235 -118.583V-76.1667M726.824 -161V-118.583M726.824 -161H774.412M726.824 -118.583H774.412M726.824 -118.583V-76.1667M774.412 -161V-118.583M774.412 -161H822V-118.583M774.412 -118.583H822M774.412 -118.583V-76.1667M822 -118.583V-76.1667M60.5882 -76.1667H13M60.5882 -76.1667H108.176M60.5882 -76.1667V-33.75M13 -76.1667V-33.75M108.176 -76.1667H155.765M108.176 -76.1667V-33.75M155.765 -76.1667H203.353M155.765 -76.1667V-33.75M203.353 -76.1667H250.941M203.353 -76.1667V-33.75M250.941 -76.1667H298.529M250.941 -76.1667V-33.75M298.529 -76.1667H346.118M298.529 -76.1667V-33.75M346.118 -76.1667H393.706M346.118 -76.1667V-33.75M393.706 -76.1667H441.294M393.706 -76.1667V-33.75M441.294 -76.1667H488.882M441.294 -76.1667V-33.75M488.882 -76.1667H536.471M488.882 -76.1667V-33.75M536.471 -76.1667H584.059M536.471 -76.1667V-33.75M584.059 -76.1667H631.647M584.059 -76.1667V-33.75M631.647 -76.1667H679.235M631.647 -76.1667V-33.75M679.235 -76.1667H726.824M679.235 -76.1667V-33.75M726.824 -76.1667H774.412M726.824 -76.1667V-33.75M774.412 -76.1667H822M774.412 -76.1667V-33.75M822 -76.1667V-33.75M60.5882 -33.75H13M60.5882 -33.75H108.176M60.5882 -33.75V8.66667M13 -33.75V8.66667M108.176 -33.75H155.765M108.176 -33.75V8.66667M155.765 -33.75H203.353M155.765 -33.75V8.66667M203.353 -33.75H250.941M203.353 -33.75V8.66667M250.941 -33.75H298.529M250.941 -33.75V8.66667M298.529 -33.75H346.118M298.529 -33.75V8.66667M346.118 -33.75H393.706M346.118 -33.75V8.66667M393.706 -33.75H441.294M393.706 -33.75V8.66667M441.294 -33.75H488.882M441.294 -33.75V8.66667M488.882 -33.75H536.471M488.882 -33.75V8.66667M536.471 -33.75H584.059M536.471 -33.75V8.66667M584.059 -33.75H631.647M584.059 -33.75V8.66667M631.647 -33.75H679.235M631.647 -33.75V8.66667M679.235 -33.75H726.824M679.235 -33.75V8.66667M726.824 -33.75H774.412M726.824 -33.75V8.66667M774.412 -33.75H822M774.412 -33.75V8.66667M822 -33.75V8.66667M60.5882 8.66667H13M60.5882 8.66667H108.176M60.5882 8.66667V51.0833M13 8.66667V51.0833M108.176 8.66667H155.765M108.176 8.66667V51.0833M155.765 8.66667H203.353M155.765 8.66667V51.0833M203.353 8.66667H250.941M203.353 8.66667V51.0833M250.941 8.66667H298.529M250.941 8.66667V51.0833M298.529 8.66667H346.118M298.529 8.66667V51.0833M346.118 8.66667H393.706M346.118 8.66667V51.0833M393.706 8.66667H441.294M393.706 8.66667V51.0833M441.294 8.66667H488.882M441.294 8.66667V51.0833M488.882 8.66667H536.471M488.882 8.66667V51.0833M536.471 8.66667H584.059M536.471 8.66667V51.0833M584.059 8.66667H631.647M584.059 8.66667V51.0833M631.647 8.66667H679.235M631.647 8.66667V51.0833M679.235 8.66667H726.824M679.235 8.66667V51.0833M726.824 8.66667H774.412M726.824 8.66667V51.0833M774.412 8.66667H822M774.412 8.66667V51.0833M822 8.66667V51.0833M60.5882 51.0833H13M60.5882 51.0833H108.176M60.5882 51.0833V93.5M13 51.0833V93.5M108.176 51.0833H155.765M108.176 51.0833V93.5M155.765 51.0833H203.353M155.765 51.0833V93.5M203.353 51.0833H250.941M203.353 51.0833V93.5M250.941 51.0833H298.529M250.941 51.0833V93.5M298.529 51.0833H346.118M298.529 51.0833V93.5M346.118 51.0833H393.706M346.118 51.0833V93.5M393.706 51.0833H441.294M393.706 51.0833V93.5M441.294 51.0833H488.882M441.294 51.0833V93.5M488.882 51.0833H536.471M488.882 51.0833V93.5M536.471 51.0833H584.059M536.471 51.0833V93.5M584.059 51.0833H631.647M584.059 51.0833V93.5M631.647 51.0833H679.235M631.647 51.0833V93.5M679.235 51.0833H726.824M679.235 51.0833V93.5M726.824 51.0833H774.412M726.824 51.0833V93.5M774.412 51.0833H822M774.412 51.0833V93.5M822 51.0833V93.5M60.5882 93.5H13M60.5882 93.5H108.176M60.5882 93.5V135.917M13 93.5V135.917M108.176 93.5H155.765M108.176 93.5V135.917M155.765 93.5H203.353M155.765 93.5V135.917M203.353 93.5H250.941M203.353 93.5V135.917M250.941 93.5H298.529M250.941 93.5V135.917M298.529 93.5H346.118M298.529 93.5V135.917M346.118 93.5H393.706M346.118 93.5V135.917M393.706 93.5H441.294M393.706 93.5V135.917M441.294 93.5H488.882M441.294 93.5V135.917M488.882 93.5H536.471M488.882 93.5V135.917M536.471 93.5H584.059M536.471 93.5V135.917M584.059 93.5H631.647M584.059 93.5V135.917M631.647 93.5H679.235M631.647 93.5V135.917M679.235 93.5H726.824M679.235 93.5V135.917M726.824 93.5H774.412M726.824 93.5V135.917M774.412 93.5H822M774.412 93.5V135.917M822 93.5V135.917M60.5882 135.917H13M60.5882 135.917H108.176M60.5882 135.917V178.333M13 135.917V178.333M108.176 135.917H155.765M108.176 135.917V178.333M155.765 135.917H203.353M155.765 135.917V178.333M203.353 135.917H250.941M203.353 135.917V178.333M250.941 135.917H298.529M250.941 135.917V178.333M298.529 135.917H346.118M298.529 135.917V178.333M346.118 135.917H393.706M346.118 135.917V178.333M393.706 135.917H441.294M393.706 135.917V178.333M441.294 135.917H488.882M441.294 135.917V178.333M488.882 135.917H536.471M488.882 135.917V178.333M536.471 135.917H584.059M536.471 135.917V178.333M584.059 135.917H631.647M584.059 135.917V178.333M631.647 135.917H679.235M631.647 135.917V178.333M679.235 135.917H726.824M679.235 135.917V178.333M726.824 135.917H774.412M726.824 135.917V178.333M774.412 135.917H822M774.412 135.917V178.333M822 135.917V178.333M60.5882 178.333H13M60.5882 178.333H108.176M60.5882 178.333V220.75M13 178.333V220.75M108.176 178.333H155.765M108.176 178.333V220.75M155.765 178.333H203.353M155.765 178.333V220.75M203.353 178.333H250.941M203.353 178.333V220.75M250.941 178.333H298.529M250.941 178.333V220.75M298.529 178.333H346.118M298.529 178.333V220.75M346.118 178.333H393.706M346.118 178.333V220.75M393.706 178.333H441.294M393.706 178.333V220.75M441.294 178.333H488.882M441.294 178.333V220.75M488.882 178.333H536.471M488.882 178.333V220.75M536.471 178.333H584.059M536.471 178.333V220.75M584.059 178.333H631.647M584.059 178.333V220.75M631.647 178.333H679.235M631.647 178.333V220.75M679.235 178.333H726.824M679.235 178.333V220.75M726.824 178.333H774.412M726.824 178.333V220.75M774.412 178.333H822M774.412 178.333V220.75M822 178.333V220.75M60.5882 220.75H13M60.5882 220.75H108.176M60.5882 220.75V263.167M13 220.75V263.167M108.176 220.75H155.765M108.176 220.75V263.167M155.765 220.75H203.353M155.765 220.75V263.167M203.353 220.75H250.941M203.353 220.75V263.167M250.941 220.75H298.529M250.941 220.75V263.167M298.529 220.75H346.118M298.529 220.75V263.167M346.118 220.75H393.706M346.118 220.75V263.167M393.706 220.75H441.294M393.706 220.75V263.167M441.294 220.75H488.882M441.294 220.75V263.167M488.882 220.75H536.471M488.882 220.75V263.167M536.471 220.75H584.059M536.471 220.75V263.167M584.059 220.75H631.647M584.059 220.75V263.167M631.647 220.75H679.235M631.647 220.75V263.167M679.235 220.75H726.824M679.235 220.75V263.167M726.824 220.75H774.412M726.824 220.75V263.167M774.412 220.75H822M774.412 220.75V263.167M822 220.75V263.167M60.5882 263.167H13M60.5882 263.167H108.176M60.5882 263.167V305.583M13 263.167V305.583M108.176 263.167H155.765M108.176 263.167V305.583M155.765 263.167H203.353M155.765 263.167V305.583M203.353 263.167H250.941M203.353 263.167V305.583M250.941 263.167H298.529M250.941 263.167V305.583M298.529 263.167H346.118M298.529 263.167V305.583M346.118 263.167H393.706M346.118 263.167V305.583M393.706 263.167H441.294M393.706 263.167V305.583M441.294 263.167H488.882M441.294 263.167V305.583M488.882 263.167H536.471M488.882 263.167V305.583M536.471 263.167H584.059M536.471 263.167V305.583M584.059 263.167H631.647M584.059 263.167V305.583M631.647 263.167H679.235M631.647 263.167V305.583M679.235 263.167H726.824M679.235 263.167V305.583M726.824 263.167H774.412M726.824 263.167V305.583M774.412 263.167H822M774.412 263.167V305.583M822 263.167V305.583M60.5882 305.583H13M60.5882 305.583H108.176M60.5882 305.583V348M13 305.583V348H60.5882M108.176 305.583H155.765M108.176 305.583V348M155.765 305.583H203.353M155.765 305.583V348M203.353 305.583H250.941M203.353 305.583V348M250.941 305.583H298.529M250.941 305.583V348M298.529 305.583H346.118M298.529 305.583V348M346.118 305.583H393.706M346.118 305.583V348M393.706 305.583H441.294M393.706 305.583V348M441.294 305.583H488.882M441.294 305.583V348M488.882 305.583H536.471M488.882 305.583V348M536.471 305.583H584.059M536.471 305.583V348M584.059 305.583H631.647M584.059 305.583V348M631.647 305.583H679.235M631.647 305.583V348M679.235 305.583H726.824M679.235 305.583V348M726.824 305.583H774.412M726.824 305.583V348M774.412 305.583H822M774.412 305.583V348M822 305.583V348H774.412M60.5882 348H108.176M108.176 348H155.765M155.765 348H203.353M203.353 348H250.941M250.941 348H298.529M298.529 348H346.118M346.118 348H393.706M393.706 348H441.294M441.294 348H488.882M488.882 348H536.471M536.471 348H584.059M584.059 348H631.647M631.647 348H679.235M679.235 348H726.824M726.824 348H774.412" stroke="url(#paint0_radial_2_732)" stroke-opacity="0.08"/>
<rect x="237" y="48" width="356" height="68" rx="12" fill="#202020"/>
<rect x="253" y="64" width="36" height="36" rx="8" fill="#2B2B2B"/>
<path fill-rule="evenodd" clip-rule="evenodd" d="M264.714 76.6668L264.714 85.1429C264.714 85.5149 264.413 85.8164 264.041 85.8164C263.669 85.8164 263.367 85.5149 263.367 85.1429L263.367 75.0409C263.367 74.8623 263.438 74.691 263.565 74.5647C263.691 74.4384 263.862 74.3674 264.041 74.3674L274.143 74.3674C274.515 74.3674 274.816 74.669 274.816 75.0409C274.816 75.4128 274.515 75.7144 274.143 75.7144L265.667 75.7144L277.986 88.0341C278.249 88.2971 278.249 88.7235 277.986 88.9865C277.723 89.2495 277.297 89.2495 277.034 88.9865L264.714 76.6668Z" fill="white"/>
<path d="M310.469 84.1875V87.7656H309.203V84.1875H305.867V82.9219H309.203V79.4297H310.469V82.9219H313.805V84.1875H310.469ZM323.344 89.0703H322.297V88.0234C320.188 87.8672 318.797 86.6562 318.789 84.9141H320.125C320.211 85.9609 321.008 86.6562 322.297 86.8125V82.75L321.672 82.5781C320 82.1406 319.062 81.1172 319.062 79.6641C319.062 77.9531 320.305 76.7891 322.297 76.5938V75.5H323.344V76.5859C325.297 76.75 326.578 77.9609 326.633 79.6484H325.305C325.273 78.6797 324.5 77.9375 323.344 77.7969V81.6172L324.008 81.7812C325.914 82.2891 326.828 83.2344 326.828 84.8125C326.828 86.6641 325.539 87.8359 323.344 88.0156V89.0703ZM325.477 84.9219C325.477 83.8906 324.82 83.2734 323.344 82.9609V86.8359C324.703 86.7656 325.477 86.0625 325.477 84.9219ZM320.406 79.5859C320.406 80.5156 321.062 81.1328 322.297 81.3906V77.7969C321.203 77.8594 320.406 78.6016 320.406 79.5859ZM328.5 79.9766C328.5 78.0078 330.094 76.5391 332.219 76.5391C334.234 76.5391 335.82 77.9062 335.82 79.6328C335.82 80.8906 335.25 81.8281 333.367 83.7734L330.516 86.7188V86.75H336.008V88H328.57V87.0312L332.539 82.8516C334.055 81.2578 334.414 80.6562 334.414 79.7188C334.414 78.6328 333.422 77.7656 332.18 77.7656C330.859 77.7656 329.859 78.7188 329.859 79.9766V79.9844H328.5V79.9766ZM337.562 79.9766C337.562 78.0078 339.156 76.5391 341.281 76.5391C343.297 76.5391 344.883 77.9062 344.883 79.6328C344.883 80.8906 344.312 81.8281 342.43 83.7734L339.578 86.7188V86.75H345.07V88H337.633V87.0312L341.602 82.8516C343.117 81.2578 343.477 80.6562 343.477 79.7188C343.477 78.6328 342.484 77.7656 341.242 77.7656C339.922 77.7656 338.922 78.7188 338.922 79.9766V79.9844H337.562V79.9766ZM347.812 88.0781C347.312 88.0781 346.922 87.6875 346.922 87.1875C346.922 86.6875 347.312 86.2969 347.812 86.2969C348.312 86.2969 348.703 86.6875 348.703 87.1875C348.703 87.6875 348.312 88.0781 347.812 88.0781ZM352.695 88V78.2188H352.664L349.68 80.3672V78.8828L352.68 76.7266H354.055V88H352.695ZM360.789 88.1875C358.633 88.1875 357.039 86.8438 356.922 84.9219H358.305C358.43 86.125 359.453 86.9531 360.805 86.9531C362.336 86.9531 363.398 85.8906 363.398 84.375C363.398 82.8594 362.328 81.7734 360.828 81.7734C359.773 81.7734 358.875 82.25 358.414 83.0391H357.094L357.711 76.7266H364.164V77.9766H358.867L358.523 81.6484H358.555C359.062 80.9688 360 80.5625 361.078 80.5625C363.242 80.5625 364.805 82.1484 364.805 84.3359C364.805 86.6016 363.141 88.1875 360.789 88.1875ZM371.141 77.9766V82.2969H373.836C375.281 82.2969 376.102 81.5156 376.102 80.1328C376.102 78.7812 375.227 77.9766 373.773 77.9766H371.141ZM371.141 83.5391V88H369.734V76.7266H373.961C376.133 76.7266 377.555 78.0547 377.555 80.0859C377.555 81.6562 376.703 82.875 375.289 83.3203L377.898 88H376.25L373.836 83.5391H371.141ZM382.375 80.9141C381.102 80.9141 380.211 81.8906 380.125 83.2422H384.539C384.508 81.8828 383.656 80.9141 382.375 80.9141ZM384.508 85.6719H385.844C385.609 87.0938 384.234 88.1406 382.461 88.1406C380.133 88.1406 378.719 86.5234 378.719 83.9688C378.719 81.4453 380.156 79.7344 382.398 79.7344C384.594 79.7344 385.945 81.3281 385.945 83.7891V84.3047H380.117V84.3828C380.117 85.9375 381.031 86.9609 382.492 86.9609C383.523 86.9609 384.281 86.4375 384.508 85.6719ZM394.07 82.5391H392.742C392.547 81.6562 391.859 80.9297 390.664 80.9297C389.258 80.9297 388.305 82.0938 388.305 83.9375C388.305 85.8281 389.273 86.9453 390.68 86.9453C391.789 86.9453 392.516 86.3594 392.75 85.3828H394.086C393.875 87 392.516 88.1406 390.672 88.1406C388.422 88.1406 386.922 86.5547 386.922 83.9375C386.922 81.375 388.414 79.7344 390.656 79.7344C392.688 79.7344 393.898 81.0781 394.07 82.5391ZM398.594 80.9141C397.32 80.9141 396.43 81.8906 396.344 83.2422H400.758C400.727 81.8828 399.875 80.9141 398.594 80.9141ZM400.727 85.6719H402.062C401.828 87.0938 400.453 88.1406 398.68 88.1406C396.352 88.1406 394.938 86.5234 394.938 83.9688C394.938 81.4453 396.375 79.7344 398.617 79.7344C400.812 79.7344 402.164 81.3281 402.164 83.7891V84.3047H396.336V84.3828C396.336 85.9375 397.25 86.9609 398.711 86.9609C399.742 86.9609 400.5 86.4375 400.727 85.6719ZM403.609 88V79.875H404.969V88H403.609ZM404.289 78.5078C403.828 78.5078 403.445 78.125 403.445 77.6641C403.445 77.1953 403.828 76.8203 404.289 76.8203C404.758 76.8203 405.141 77.1953 405.141 77.6641C405.141 78.125 404.758 78.5078 404.289 78.5078ZM413.469 79.875L410.484 88H409.094L406.102 79.875H407.531L409.773 86.5547H409.805L412.055 79.875H413.469ZM417.562 80.9141C416.289 80.9141 415.398 81.8906 415.312 83.2422H419.727C419.695 81.8828 418.844 80.9141 417.562 80.9141ZM419.695 85.6719H421.031C420.797 87.0938 419.422 88.1406 417.648 88.1406C415.32 88.1406 413.906 86.5234 413.906 83.9688C413.906 81.4453 415.344 79.7344 417.586 79.7344C419.781 79.7344 421.133 81.3281 421.133 83.7891V84.3047H415.305V84.3828C415.305 85.9375 416.219 86.9609 417.68 86.9609C418.711 86.9609 419.469 86.4375 419.695 85.6719ZM425.586 88.1406C423.516 88.1406 422.109 86.4844 422.109 83.9375C422.109 81.3906 423.508 79.7344 425.555 79.7344C426.719 79.7344 427.656 80.3047 428.141 81.1953H428.172V76.7266H429.531V88H428.234V86.625H428.211C427.688 87.5625 426.758 88.1406 425.586 88.1406ZM425.844 80.9297C424.406 80.9297 423.5 82.1016 423.5 83.9375C423.5 85.7812 424.406 86.9453 425.844 86.9453C427.242 86.9453 428.18 85.7578 428.18 83.9375C428.18 82.125 427.242 80.9297 425.844 80.9297ZM435.086 88V80.9922H433.953V79.875H435.086V78.9688C435.086 77.4062 435.812 76.6641 437.312 76.6641C437.617 76.6641 437.945 76.6953 438.141 76.7266V77.8281C437.977 77.8047 437.75 77.7812 437.523 77.7812C436.789 77.7812 436.438 78.1719 436.438 78.9766V79.875H438.102V80.9922H436.445V88H435.086ZM439.508 88V79.875H440.789V81.2031H440.82C441.086 80.3047 441.836 79.7344 442.789 79.7344C443.023 79.7344 443.227 79.7734 443.336 79.7891V81.1094C443.227 81.0703 442.938 81.0312 442.609 81.0312C441.555 81.0312 440.867 81.7891 440.867 82.9375V88H439.508ZM447.422 88.1406C445.172 88.1406 443.656 86.5234 443.656 83.9375C443.656 81.3438 445.172 79.7344 447.422 79.7344C449.664 79.7344 451.18 81.3438 451.18 83.9375C451.18 86.5234 449.664 88.1406 447.422 88.1406ZM447.422 86.9453C448.859 86.9453 449.797 85.8516 449.797 83.9375C449.797 82.0234 448.859 80.9297 447.422 80.9297C445.984 80.9297 445.039 82.0234 445.039 83.9375C445.039 85.8516 445.984 86.9453 447.422 86.9453ZM452.555 88V79.875H453.836V81.1719H453.867C454.25 80.3125 455.078 79.7344 456.172 79.7344C457.281 79.7344 458.102 80.2969 458.453 81.2812H458.484C458.938 80.3125 459.891 79.7344 461.031 79.7344C462.641 79.7344 463.68 80.7812 463.68 82.3906V88H462.32V82.7031C462.32 81.5938 461.703 80.9375 460.633 80.9375C459.555 80.9375 458.797 81.7344 458.797 82.8359V88H457.438V82.5547C457.438 81.5781 456.781 80.9375 455.773 80.9375C454.695 80.9375 453.914 81.7812 453.914 82.9062V88H452.555ZM470.297 88H468.906V76.7266H470.273L476.445 85.5781H476.516V76.7266H477.906V88H476.539L470.367 79.1797H470.297V88ZM483.188 86.8672C484.602 86.8672 485.547 85.6953 485.547 83.9062C485.547 82.1172 484.602 80.9297 483.188 80.9297C481.789 80.9297 480.875 82.0859 480.875 83.9062C480.875 85.7266 481.789 86.8672 483.188 86.8672ZM483.234 91.0625C481.445 91.0625 480.031 90.0547 479.805 88.6719H481.203C481.469 89.4141 482.273 89.9062 483.289 89.9062C484.695 89.9062 485.547 89.0938 485.547 87.8828V86.6016H485.516C485.016 87.4844 484.055 88.0625 482.914 88.0625C480.844 88.0625 479.484 86.4297 479.484 83.9062C479.484 81.3594 480.844 79.7344 482.945 79.7344C484.094 79.7344 485.047 80.2969 485.586 81.2422H485.609V79.875H486.906V87.8359C486.906 89.7734 485.477 91.0625 483.234 91.0625ZM495.352 79.875V88H494.062V86.6797H494.031C493.547 87.6172 492.703 88.1406 491.453 88.1406C489.68 88.1406 488.641 86.9922 488.641 85.1484V79.875H490V84.9062C490 86.2266 490.617 86.9375 491.875 86.9375C493.195 86.9375 493.992 86.0312 493.992 84.6484V79.875H495.352ZM497.789 91.0391C497.625 91.0391 497.352 91.0234 497.203 90.9922V89.8516C497.352 89.8828 497.562 89.8906 497.734 89.8906C498.492 89.8906 498.914 89.5234 499.227 88.5781L499.414 88.0078L496.414 79.875H497.867L500.117 86.6406H500.141L502.391 79.875H503.82L500.625 88.5703C499.93 90.4688 499.258 91.0391 497.789 91.0391ZM507.922 80.9141C506.648 80.9141 505.758 81.8906 505.672 83.2422H510.086C510.055 81.8828 509.203 80.9141 507.922 80.9141ZM510.055 85.6719H511.391C511.156 87.0938 509.781 88.1406 508.008 88.1406C505.68 88.1406 504.266 86.5234 504.266 83.9688C504.266 81.4453 505.703 79.7344 507.945 79.7344C510.141 79.7344 511.492 81.3281 511.492 83.7891V84.3047H505.664V84.3828C505.664 85.9375 506.578 86.9609 508.039 86.9609C509.07 86.9609 509.828 86.4375 510.055 85.6719ZM512.867 88V79.875H514.148V81.1719H514.18C514.633 80.2969 515.5 79.7344 516.758 79.7344C518.539 79.7344 519.57 80.8828 519.57 82.7266V88H518.211V82.9688C518.211 81.6562 517.594 80.9375 516.344 80.9375C515.062 80.9375 514.227 81.8438 514.227 83.2188V88H512.867ZM524.258 84.8984H525.672C525.805 86.1172 526.961 86.9219 528.57 86.9219C530.094 86.9219 531.203 86.1172 531.203 85.0078C531.203 84.0547 530.539 83.4688 529.023 83.0781L527.578 82.7031C525.5 82.1719 524.578 81.2578 524.578 79.7266C524.578 77.8516 526.219 76.5391 528.562 76.5391C530.805 76.5391 532.43 77.8672 532.492 79.7578H531.086C530.961 78.5469 529.984 77.8047 528.516 77.8047C527.055 77.8047 526.039 78.5625 526.039 79.6641C526.039 80.5156 526.664 81.0234 528.195 81.4219L529.375 81.7344C531.711 82.3203 532.656 83.2188 532.656 84.8359C532.656 86.8984 531.031 88.1875 528.438 88.1875C526.047 88.1875 524.391 86.8906 524.258 84.8984ZM534.156 88V76.7266H535.516V81.1719H535.547C536 80.2656 536.891 79.7344 538.125 79.7344C539.906 79.7344 540.984 80.9375 540.984 82.75V88H539.625V83C539.625 81.7109 538.977 80.9375 537.703 80.9375C536.352 80.9375 535.516 81.8594 535.516 83.2656V88H534.156ZM545.391 86.9844C546.672 86.9844 547.656 86.0859 547.656 84.9141V84.25L545.484 84.3828C544.391 84.4531 543.766 84.9375 543.766 85.7031C543.766 86.4766 544.414 86.9844 545.391 86.9844ZM545.086 88.1406C543.469 88.1406 542.383 87.1641 542.383 85.7031C542.383 84.3125 543.453 83.4375 545.328 83.3281L547.656 83.1953V82.5156C547.656 81.5234 547 80.9297 545.875 80.9297C544.828 80.9297 544.172 81.4219 544 82.2188H542.688C542.781 80.8125 543.984 79.7344 545.906 79.7344C547.812 79.7344 549.016 80.7656 549.016 82.3828V88H547.727V86.6016H547.695C547.211 87.5312 546.18 88.1406 545.086 88.1406ZM550.742 88V79.875H552.023V81.1719H552.055C552.508 80.2969 553.375 79.7344 554.633 79.7344C556.414 79.7344 557.445 80.8828 557.445 82.7266V88H556.086V82.9688C556.086 81.6562 555.469 80.9375 554.219 80.9375C552.938 80.9375 552.102 81.8438 552.102 83.2188V88H550.742ZM562.438 80.9141C561.164 80.9141 560.273 81.8906 560.188 83.2422H564.602C564.57 81.8828 563.719 80.9141 562.438 80.9141ZM564.57 85.6719H565.906C565.672 87.0938 564.297 88.1406 562.523 88.1406C560.195 88.1406 558.781 86.5234 558.781 83.9688C558.781 81.4453 560.219 79.7344 562.461 79.7344C564.656 79.7344 566.008 81.3281 566.008 83.7891V84.3047H560.18V84.3828C560.18 85.9375 561.094 86.9609 562.555 86.9609C563.586 86.9609 564.344 86.4375 564.57 85.6719Z" fill="white"/>
<rect x="237.5" y="48.5" width="355" height="67" rx="11.5" stroke="white" stroke-opacity="0.04"/>
<rect x="237.5" y="48.5" width="355" height="67" rx="11.5" stroke="url(#paint1_linear_2_732)" stroke-opacity="0.12"/>
<rect x="191" y="128" width="448" height="76" rx="16" fill="#202020"/>
<rect x="215" y="144" width="44" height="44" rx="8" fill="#2B2B2B"/>
<path fill-rule="evenodd" clip-rule="evenodd" d="M230.714 160.667L230.714 169.143C230.714 169.515 230.413 169.816 230.041 169.816C229.669 169.816 229.367 169.515 229.367 169.143L229.367 159.041C229.367 158.862 229.438 158.691 229.565 158.565C229.691 158.438 229.862 158.367 230.041 158.367L240.143 158.367C240.515 158.367 240.816 158.669 240.816 159.041C240.816 159.413 240.515 159.714 240.143 159.714L231.667 159.714L243.986 172.034C244.249 172.297 244.249 172.723 243.986 172.987C243.723 173.25 243.297 173.25 243.034 172.987L230.714 160.667Z" fill="white"/>
<path d="M281.836 168.234V172.707H280.254V168.234H276.084V166.652H280.254V162.287H281.836V166.652H286.006V168.234H281.836ZM297.93 174.338H296.621V173.029C293.984 172.834 292.246 171.32 292.236 169.143H293.906C294.014 170.451 295.01 171.32 296.621 171.516V166.438L295.84 166.223C293.75 165.676 292.578 164.396 292.578 162.58C292.578 160.441 294.131 158.986 296.621 158.742V157.375H297.93V158.732C300.371 158.938 301.973 160.451 302.041 162.561H300.381C300.342 161.35 299.375 160.422 297.93 160.246V165.021L298.76 165.227C301.143 165.861 302.285 167.043 302.285 169.016C302.285 171.33 300.674 172.795 297.93 173.02V174.338ZM300.596 169.152C300.596 167.863 299.775 167.092 297.93 166.701V171.545C299.629 171.457 300.596 170.578 300.596 169.152ZM294.258 162.482C294.258 163.645 295.078 164.416 296.621 164.738V160.246C295.254 160.324 294.258 161.252 294.258 162.482ZM307.334 166.496V165.012H309.023C310.645 165.012 311.777 163.967 311.777 162.541C311.777 161.145 310.83 160.197 309.043 160.197C307.422 160.197 306.348 161.125 306.191 162.6H304.502C304.697 160.207 306.475 158.674 309.121 158.674C311.641 158.674 313.545 160.188 313.545 162.307C313.545 164.074 312.412 165.344 310.654 165.656V165.695C312.783 165.822 314.15 167.141 314.15 169.123C314.15 171.545 311.943 173.234 309.18 173.234C306.23 173.234 304.346 171.604 304.219 169.27H305.908C306.064 170.715 307.266 171.711 309.16 171.711C311.025 171.711 312.363 170.656 312.363 169.182C312.363 167.521 311.113 166.496 309.102 166.496H307.334ZM321.23 173.234C317.939 173.234 316.035 170.402 316.035 165.949C316.035 161.535 317.959 158.674 321.23 158.674C324.502 158.674 326.406 161.516 326.406 165.939C326.406 170.393 324.512 173.234 321.23 173.234ZM321.23 171.701C323.428 171.701 324.639 169.465 324.639 165.949C324.639 162.482 323.408 160.217 321.23 160.217C319.053 160.217 317.803 162.502 317.803 165.939C317.803 169.455 319.023 171.701 321.23 171.701ZM333.359 173.234C330.068 173.234 328.164 170.402 328.164 165.949C328.164 161.535 330.088 158.674 333.359 158.674C336.631 158.674 338.535 161.516 338.535 165.939C338.535 170.393 336.641 173.234 333.359 173.234ZM333.359 171.701C335.557 171.701 336.768 169.465 336.768 165.949C336.768 162.482 335.537 160.217 333.359 160.217C331.182 160.217 329.932 162.502 329.932 165.939C329.932 169.455 331.152 171.701 333.359 171.701ZM341.562 173.098C340.938 173.098 340.449 172.609 340.449 171.984C340.449 171.359 340.938 170.871 341.562 170.871C342.188 170.871 342.676 171.359 342.676 171.984C342.676 172.609 342.188 173.098 341.562 173.098ZM350.283 173.234C347.588 173.234 345.596 171.555 345.449 169.152H347.178C347.334 170.656 348.613 171.691 350.303 171.691C352.217 171.691 353.545 170.363 353.545 168.469C353.545 166.574 352.207 165.217 350.332 165.217C349.014 165.217 347.891 165.812 347.314 166.799H345.664L346.436 158.908H354.502V160.471H347.881L347.451 165.061H347.49C348.125 164.211 349.297 163.703 350.645 163.703C353.35 163.703 355.303 165.686 355.303 168.42C355.303 171.252 353.223 173.234 350.283 173.234ZM357.051 162.971C357.051 160.51 359.043 158.674 361.699 158.674C364.219 158.674 366.201 160.383 366.201 162.541C366.201 164.113 365.488 165.285 363.135 167.717L359.57 171.398V171.438H366.436V173H357.139V171.789L362.1 166.564C363.994 164.572 364.443 163.82 364.443 162.648C364.443 161.291 363.203 160.207 361.65 160.207C360 160.207 358.75 161.398 358.75 162.971V162.98H357.051V162.971ZM374.551 160.471V165.871H377.92C379.727 165.871 380.752 164.895 380.752 163.166C380.752 161.477 379.658 160.471 377.842 160.471H374.551ZM374.551 167.424V173H372.793V158.908H378.076C380.791 158.908 382.568 160.568 382.568 163.107C382.568 165.07 381.504 166.594 379.736 167.15L382.998 173H380.938L377.92 167.424H374.551ZM388.594 164.143C387.002 164.143 385.889 165.363 385.781 167.053H391.299C391.26 165.354 390.195 164.143 388.594 164.143ZM391.26 170.09H392.93C392.637 171.867 390.918 173.176 388.701 173.176C385.791 173.176 384.023 171.154 384.023 167.961C384.023 164.807 385.82 162.668 388.623 162.668C391.367 162.668 393.057 164.66 393.057 167.736V168.381H385.771V168.479C385.771 170.422 386.914 171.701 388.74 171.701C390.029 171.701 390.977 171.047 391.26 170.09ZM403.213 166.174H401.553C401.309 165.07 400.449 164.162 398.955 164.162C397.197 164.162 396.006 165.617 396.006 167.922C396.006 170.285 397.217 171.682 398.975 171.682C400.361 171.682 401.27 170.949 401.562 169.729H403.232C402.969 171.75 401.27 173.176 398.965 173.176C396.152 173.176 394.277 171.193 394.277 167.922C394.277 164.719 396.143 162.668 398.945 162.668C401.484 162.668 402.998 164.348 403.213 166.174ZM408.867 164.143C407.275 164.143 406.162 165.363 406.055 167.053H411.572C411.533 165.354 410.469 164.143 408.867 164.143ZM411.533 170.09H413.203C412.91 171.867 411.191 173.176 408.975 173.176C406.064 173.176 404.297 171.154 404.297 167.961C404.297 164.807 406.094 162.668 408.896 162.668C411.641 162.668 413.33 164.66 413.33 167.736V168.381H406.045V168.479C406.045 170.422 407.188 171.701 409.014 171.701C410.303 171.701 411.25 171.047 411.533 170.09ZM415.137 173V162.844H416.836V173H415.137ZM415.986 161.135C415.41 161.135 414.932 160.656 414.932 160.08C414.932 159.494 415.41 159.025 415.986 159.025C416.572 159.025 417.051 159.494 417.051 160.08C417.051 160.656 416.572 161.135 415.986 161.135ZM427.461 162.844L423.73 173H421.992L418.252 162.844H420.039L422.842 171.193H422.881L425.693 162.844H427.461ZM432.578 164.143C430.986 164.143 429.873 165.363 429.766 167.053H435.283C435.244 165.354 434.18 164.143 432.578 164.143ZM435.244 170.09H436.914C436.621 171.867 434.902 173.176 432.686 173.176C429.775 173.176 428.008 171.154 428.008 167.961C428.008 164.807 429.805 162.668 432.607 162.668C435.352 162.668 437.041 164.66 437.041 167.736V168.381H429.756V168.479C429.756 170.422 430.898 171.701 432.725 171.701C434.014 171.701 434.961 171.047 435.244 170.09ZM442.607 173.176C440.02 173.176 438.262 171.105 438.262 167.922C438.262 164.738 440.01 162.668 442.568 162.668C444.023 162.668 445.195 163.381 445.801 164.494H445.84V158.908H447.539V173H445.918V171.281H445.889C445.234 172.453 444.072 173.176 442.607 173.176ZM442.93 164.162C441.133 164.162 440 165.627 440 167.922C440 170.227 441.133 171.682 442.93 171.682C444.678 171.682 445.85 170.197 445.85 167.922C445.85 165.656 444.678 164.162 442.93 164.162ZM454.482 173V164.24H453.066V162.844H454.482V161.711C454.482 159.758 455.391 158.83 457.266 158.83C457.646 158.83 458.057 158.869 458.301 158.908V160.285C458.096 160.256 457.812 160.227 457.529 160.227C456.611 160.227 456.172 160.715 456.172 161.721V162.844H458.252V164.24H456.182V173H454.482ZM460.01 173V162.844H461.611V164.504H461.65C461.982 163.381 462.92 162.668 464.111 162.668C464.404 162.668 464.658 162.717 464.795 162.736V164.387C464.658 164.338 464.297 164.289 463.887 164.289C462.568 164.289 461.709 165.236 461.709 166.672V173H460.01ZM469.902 173.176C467.09 173.176 465.195 171.154 465.195 167.922C465.195 164.68 467.09 162.668 469.902 162.668C472.705 162.668 474.6 164.68 474.6 167.922C474.6 171.154 472.705 173.176 469.902 173.176ZM469.902 171.682C471.699 171.682 472.871 170.314 472.871 167.922C472.871 165.529 471.699 164.162 469.902 164.162C468.105 164.162 466.924 165.529 466.924 167.922C466.924 170.314 468.105 171.682 469.902 171.682ZM476.318 173V162.844H477.92V164.465H477.959C478.438 163.391 479.473 162.668 480.84 162.668C482.227 162.668 483.252 163.371 483.691 164.602H483.73C484.297 163.391 485.488 162.668 486.914 162.668C488.926 162.668 490.225 163.977 490.225 165.988V173H488.525V166.379C488.525 164.992 487.754 164.172 486.416 164.172C485.068 164.172 484.121 165.168 484.121 166.545V173H482.422V166.193C482.422 164.973 481.602 164.172 480.342 164.172C478.994 164.172 478.018 165.227 478.018 166.633V173H476.318ZM502.559 173.234C498.672 173.234 496.211 170.412 496.211 165.949C496.211 161.525 498.701 158.674 502.559 158.674C505.625 158.674 507.959 160.539 508.408 163.352H506.631C506.182 161.506 504.57 160.295 502.559 160.295C499.805 160.295 498.018 162.521 498.018 165.949C498.018 169.406 499.785 171.613 502.568 171.613C504.639 171.613 506.123 170.617 506.631 168.898H508.408C507.764 171.682 505.674 173.234 502.559 173.234ZM514.434 173.176C511.621 173.176 509.727 171.154 509.727 167.922C509.727 164.68 511.621 162.668 514.434 162.668C517.236 162.668 519.131 164.68 519.131 167.922C519.131 171.154 517.236 173.176 514.434 173.176ZM514.434 171.682C516.23 171.682 517.402 170.314 517.402 167.922C517.402 165.529 516.23 164.162 514.434 164.162C512.637 164.162 511.455 165.529 511.455 167.922C511.455 170.314 512.637 171.682 514.434 171.682ZM525.059 173.176C522.246 173.176 520.352 171.154 520.352 167.922C520.352 164.68 522.246 162.668 525.059 162.668C527.861 162.668 529.756 164.68 529.756 167.922C529.756 171.154 527.861 173.176 525.059 173.176ZM525.059 171.682C526.855 171.682 528.027 170.314 528.027 167.922C528.027 165.529 526.855 164.162 525.059 164.162C523.262 164.162 522.08 165.529 522.08 167.922C522.08 170.314 523.262 171.682 525.059 171.682ZM536.406 162.668C538.994 162.668 540.752 164.738 540.752 167.922C540.752 171.105 539.004 173.176 536.445 173.176C534.99 173.176 533.818 172.463 533.213 171.35H533.174V176.389H531.475V162.844H533.086V164.562H533.125C533.75 163.42 534.932 162.668 536.406 162.668ZM536.074 171.682C537.881 171.682 539.014 170.227 539.014 167.922C539.014 165.627 537.881 164.162 536.074 164.162C534.336 164.162 533.164 165.666 533.164 167.922C533.164 170.188 534.336 171.682 536.074 171.682ZM546.543 164.143C544.951 164.143 543.838 165.363 543.73 167.053H549.248C549.209 165.354 548.145 164.143 546.543 164.143ZM549.209 170.09H550.879C550.586 171.867 548.867 173.176 546.65 173.176C543.74 173.176 541.973 171.154 541.973 167.961C541.973 164.807 543.77 162.668 546.572 162.668C549.316 162.668 551.006 164.66 551.006 167.736V168.381H543.721V168.479C543.721 170.422 544.863 171.701 546.689 171.701C547.979 171.701 548.926 171.047 549.209 170.09ZM552.725 173V162.844H554.326V164.504H554.365C554.697 163.381 555.635 162.668 556.826 162.668C557.119 162.668 557.373 162.717 557.51 162.736V164.387C557.373 164.338 557.012 164.289 556.602 164.289C555.283 164.289 554.424 165.236 554.424 166.672V173H552.725ZM565.02 173H563.262V158.908H565.02V165.783H565.117L571.338 158.908H573.555L567.764 165.148L574.072 173H571.826L566.543 166.398L565.02 168.078V173ZM575.303 173V162.844H576.904V164.504H576.943C577.275 163.381 578.213 162.668 579.404 162.668C579.697 162.668 579.951 162.717 580.088 162.736V164.387C579.951 164.338 579.59 164.289 579.18 164.289C577.861 164.289 577.002 165.236 577.002 166.672V173H575.303ZM581.562 173V162.844H583.262V173H581.562ZM582.412 161.135C581.836 161.135 581.357 160.656 581.357 160.08C581.357 159.494 581.836 159.025 582.412 159.025C582.998 159.025 583.477 159.494 583.477 160.08C583.477 160.656 582.998 161.135 582.412 161.135ZM585.381 165.646C585.381 163.908 586.934 162.668 589.17 162.668C591.27 162.668 592.812 163.918 592.891 165.637H591.27C591.152 164.66 590.361 164.055 589.111 164.055C587.871 164.055 587.051 164.67 587.051 165.559C587.051 166.262 587.588 166.73 588.74 167.023L590.312 167.404C592.363 167.922 593.105 168.664 593.105 170.158C593.105 171.926 591.436 173.176 589.062 173.176C586.836 173.176 585.283 171.965 585.107 170.168H586.807C586.992 171.223 587.793 171.789 589.17 171.789C590.547 171.789 591.396 171.203 591.396 170.285C591.396 169.562 590.977 169.172 589.834 168.869L588.047 168.41C586.26 167.951 585.381 167.033 585.381 165.646ZM595.42 160.393H597.119V162.844H599.092V164.24H597.119V170.275C597.119 171.203 597.51 171.623 598.379 171.623C598.574 171.623 598.965 171.594 599.082 171.574V173C598.877 173.049 598.408 173.078 598.008 173.078C596.143 173.078 595.42 172.316 595.42 170.363V164.24H593.906V162.844H595.42V160.393ZM600.996 173V162.844H602.695V173H600.996ZM601.846 161.135C601.27 161.135 600.791 160.656 600.791 160.08C600.791 159.494 601.27 159.025 601.846 159.025C602.432 159.025 602.91 159.494 602.91 160.08C602.91 160.656 602.432 161.135 601.846 161.135ZM604.99 173V162.844H606.592V164.465H606.631C607.197 163.371 608.281 162.668 609.854 162.668C612.08 162.668 613.369 164.104 613.369 166.408V173H611.67V166.711C611.67 165.07 610.898 164.172 609.336 164.172C607.734 164.172 606.689 165.305 606.689 167.023V173H604.99Z" fill="white"/>
<rect x="191.5" y="128.5" width="447" height="75" rx="15.5" stroke="white" stroke-opacity="0.04"/>
<rect x="191.5" y="128.5" width="447" height="75" rx="15.5" stroke="url(#paint2_linear_2_732)" stroke-opacity="0.12"/>
<rect x="237" y="216" width="356" height="68" rx="12" fill="#202020"/>
<rect x="253" y="232" width="36" height="36" rx="8" fill="#2B2B2B"/>
<path fill-rule="evenodd" clip-rule="evenodd" d="M265.214 244.667L265.214 253.143C265.214 253.515 264.913 253.816 264.541 253.816C264.169 253.816 263.867 253.515 263.867 253.143L263.867 243.041C263.867 242.862 263.938 242.691 264.065 242.565C264.191 242.438 264.362 242.367 264.541 242.367L274.643 242.367C275.015 242.367 275.316 242.669 275.316 243.041C275.316 243.413 275.015 243.714 274.643 243.714L266.167 243.714L278.486 256.034C278.749 256.297 278.749 256.723 278.486 256.987C278.223 257.25 277.797 257.25 277.534 256.987L265.214 244.667Z" fill="white"/>
<path d="M310.469 252.188V255.766H309.203V252.188H305.867V250.922H309.203V247.43H310.469V250.922H313.805V252.188H310.469ZM323.344 257.07H322.297V256.023C320.188 255.867 318.797 254.656 318.789 252.914H320.125C320.211 253.961 321.008 254.656 322.297 254.812V250.75L321.672 250.578C320 250.141 319.062 249.117 319.062 247.664C319.062 245.953 320.305 244.789 322.297 244.594V243.5H323.344V244.586C325.297 244.75 326.578 245.961 326.633 247.648H325.305C325.273 246.68 324.5 245.938 323.344 245.797V249.617L324.008 249.781C325.914 250.289 326.828 251.234 326.828 252.812C326.828 254.664 325.539 255.836 323.344 256.016V257.07ZM325.477 252.922C325.477 251.891 324.82 251.273 323.344 250.961V254.836C324.703 254.766 325.477 254.062 325.477 252.922ZM320.406 247.586C320.406 248.516 321.062 249.133 322.297 249.391V245.797C321.203 245.859 320.406 246.602 320.406 247.586ZM332.445 256.188C330.289 256.188 328.695 254.844 328.578 252.922H329.961C330.086 254.125 331.109 254.953 332.461 254.953C333.992 254.953 335.055 253.891 335.055 252.375C335.055 250.859 333.984 249.773 332.484 249.773C331.43 249.773 330.531 250.25 330.07 251.039H328.75L329.367 244.727H335.82V245.977H330.523L330.18 249.648H330.211C330.719 248.969 331.656 248.562 332.734 248.562C334.898 248.562 336.461 250.148 336.461 252.336C336.461 254.602 334.797 256.188 332.445 256.188ZM341.875 256.188C339.242 256.188 337.719 253.922 337.719 250.359C337.719 246.828 339.258 244.539 341.875 244.539C344.492 244.539 346.016 246.812 346.016 250.352C346.016 253.914 344.5 256.188 341.875 256.188ZM341.875 254.961C343.633 254.961 344.602 253.172 344.602 250.359C344.602 247.586 343.617 245.773 341.875 245.773C340.133 245.773 339.133 247.602 339.133 250.352C339.133 253.164 340.109 254.961 341.875 254.961ZM348.438 256.078C347.938 256.078 347.547 255.688 347.547 255.188C347.547 254.688 347.938 254.297 348.438 254.297C348.938 254.297 349.328 254.688 349.328 255.188C349.328 255.688 348.938 256.078 348.438 256.078ZM355.328 256.188C352.695 256.188 351.172 253.922 351.172 250.359C351.172 246.828 352.711 244.539 355.328 244.539C357.945 244.539 359.469 246.812 359.469 250.352C359.469 253.914 357.953 256.188 355.328 256.188ZM355.328 254.961C357.086 254.961 358.055 253.172 358.055 250.359C358.055 247.586 357.07 245.773 355.328 245.773C353.586 245.773 352.586 247.602 352.586 250.352C352.586 253.164 353.562 254.961 355.328 254.961ZM365.031 256.188C362.398 256.188 360.875 253.922 360.875 250.359C360.875 246.828 362.414 244.539 365.031 244.539C367.648 244.539 369.172 246.812 369.172 250.352C369.172 253.914 367.656 256.188 365.031 256.188ZM365.031 254.961C366.789 254.961 367.758 253.172 367.758 250.359C367.758 247.586 366.773 245.773 365.031 245.773C363.289 245.773 362.289 247.602 362.289 250.352C362.289 253.164 363.266 254.961 365.031 254.961ZM375.656 245.977V250.297H378.352C379.797 250.297 380.617 249.516 380.617 248.133C380.617 246.781 379.742 245.977 378.289 245.977H375.656ZM375.656 251.539V256H374.25V244.727H378.477C380.648 244.727 382.07 246.055 382.07 248.086C382.07 249.656 381.219 250.875 379.805 251.32L382.414 256H380.766L378.352 251.539H375.656ZM386.891 248.914C385.617 248.914 384.727 249.891 384.641 251.242H389.055C389.023 249.883 388.172 248.914 386.891 248.914ZM389.023 253.672H390.359C390.125 255.094 388.75 256.141 386.977 256.141C384.648 256.141 383.234 254.523 383.234 251.969C383.234 249.445 384.672 247.734 386.914 247.734C389.109 247.734 390.461 249.328 390.461 251.789V252.305H384.633V252.383C384.633 253.938 385.547 254.961 387.008 254.961C388.039 254.961 388.797 254.438 389.023 253.672ZM398.586 250.539H397.258C397.062 249.656 396.375 248.93 395.18 248.93C393.773 248.93 392.82 250.094 392.82 251.938C392.82 253.828 393.789 254.945 395.195 254.945C396.305 254.945 397.031 254.359 397.266 253.383H398.602C398.391 255 397.031 256.141 395.188 256.141C392.938 256.141 391.438 254.555 391.438 251.938C391.438 249.375 392.93 247.734 395.172 247.734C397.203 247.734 398.414 249.078 398.586 250.539ZM403.109 248.914C401.836 248.914 400.945 249.891 400.859 251.242H405.273C405.242 249.883 404.391 248.914 403.109 248.914ZM405.242 253.672H406.578C406.344 255.094 404.969 256.141 403.195 256.141C400.867 256.141 399.453 254.523 399.453 251.969C399.453 249.445 400.891 247.734 403.133 247.734C405.328 247.734 406.68 249.328 406.68 251.789V252.305H400.852V252.383C400.852 253.938 401.766 254.961 403.227 254.961C404.258 254.961 405.016 254.438 405.242 253.672ZM408.125 256V247.875H409.484V256H408.125ZM408.805 246.508C408.344 246.508 407.961 246.125 407.961 245.664C407.961 245.195 408.344 244.82 408.805 244.82C409.273 244.82 409.656 245.195 409.656 245.664C409.656 246.125 409.273 246.508 408.805 246.508ZM417.984 247.875L415 256H413.609L410.617 247.875H412.047L414.289 254.555H414.32L416.57 247.875H417.984ZM422.078 248.914C420.805 248.914 419.914 249.891 419.828 251.242H424.242C424.211 249.883 423.359 248.914 422.078 248.914ZM424.211 253.672H425.547C425.312 255.094 423.938 256.141 422.164 256.141C419.836 256.141 418.422 254.523 418.422 251.969C418.422 249.445 419.859 247.734 422.102 247.734C424.297 247.734 425.648 249.328 425.648 251.789V252.305H419.82V252.383C419.82 253.938 420.734 254.961 422.195 254.961C423.227 254.961 423.984 254.438 424.211 253.672ZM430.102 256.141C428.031 256.141 426.625 254.484 426.625 251.938C426.625 249.391 428.023 247.734 430.07 247.734C431.234 247.734 432.172 248.305 432.656 249.195H432.688V244.727H434.047V256H432.75V254.625H432.727C432.203 255.562 431.273 256.141 430.102 256.141ZM430.359 248.93C428.922 248.93 428.016 250.102 428.016 251.938C428.016 253.781 428.922 254.945 430.359 254.945C431.758 254.945 432.695 253.758 432.695 251.938C432.695 250.125 431.758 248.93 430.359 248.93ZM439.602 256V248.992H438.469V247.875H439.602V246.969C439.602 245.406 440.328 244.664 441.828 244.664C442.133 244.664 442.461 244.695 442.656 244.727V245.828C442.492 245.805 442.266 245.781 442.039 245.781C441.305 245.781 440.953 246.172 440.953 246.977V247.875H442.617V248.992H440.961V256H439.602ZM444.023 256V247.875H445.305V249.203H445.336C445.602 248.305 446.352 247.734 447.305 247.734C447.539 247.734 447.742 247.773 447.852 247.789V249.109C447.742 249.07 447.453 249.031 447.125 249.031C446.07 249.031 445.383 249.789 445.383 250.938V256H444.023ZM451.938 256.141C449.688 256.141 448.172 254.523 448.172 251.938C448.172 249.344 449.688 247.734 451.938 247.734C454.18 247.734 455.695 249.344 455.695 251.938C455.695 254.523 454.18 256.141 451.938 256.141ZM451.938 254.945C453.375 254.945 454.312 253.852 454.312 251.938C454.312 250.023 453.375 248.93 451.938 248.93C450.5 248.93 449.555 250.023 449.555 251.938C449.555 253.852 450.5 254.945 451.938 254.945ZM457.07 256V247.875H458.352V249.172H458.383C458.766 248.312 459.594 247.734 460.688 247.734C461.797 247.734 462.617 248.297 462.969 249.281H463C463.453 248.312 464.406 247.734 465.547 247.734C467.156 247.734 468.195 248.781 468.195 250.391V256H466.836V250.703C466.836 249.594 466.219 248.938 465.148 248.938C464.07 248.938 463.312 249.734 463.312 250.836V256H461.953V250.555C461.953 249.578 461.297 248.938 460.289 248.938C459.211 248.938 458.43 249.781 458.43 250.906V256H457.07ZM484.531 256H483.219V247.312H483.164L479.57 255.922H478.383L474.789 247.312H474.734V256H473.422V244.727H475.055L478.945 254.133H479.008L482.898 244.727H484.531V256ZM486.578 256V247.875H487.938V256H486.578ZM487.258 246.508C486.797 246.508 486.414 246.125 486.414 245.664C486.414 245.195 486.797 244.82 487.258 244.82C487.727 244.82 488.109 245.195 488.109 245.664C488.109 246.125 487.727 246.508 487.258 246.508ZM489.844 256V244.727H491.203V256H489.844ZM496.297 248.914C495.023 248.914 494.133 249.891 494.047 251.242H498.461C498.43 249.883 497.578 248.914 496.297 248.914ZM498.43 253.672H499.766C499.531 255.094 498.156 256.141 496.383 256.141C494.055 256.141 492.641 254.523 492.641 251.969C492.641 249.445 494.078 247.734 496.32 247.734C498.516 247.734 499.867 249.328 499.867 251.789V252.305H494.039V252.383C494.039 253.938 494.953 254.961 496.414 254.961C497.445 254.961 498.203 254.438 498.43 253.672ZM501.102 250.117C501.102 248.727 502.344 247.734 504.133 247.734C505.812 247.734 507.047 248.734 507.109 250.109H505.812C505.719 249.328 505.086 248.844 504.086 248.844C503.094 248.844 502.438 249.336 502.438 250.047C502.438 250.609 502.867 250.984 503.789 251.219L505.047 251.523C506.688 251.938 507.281 252.531 507.281 253.727C507.281 255.141 505.945 256.141 504.047 256.141C502.266 256.141 501.023 255.172 500.883 253.734H502.242C502.391 254.578 503.031 255.031 504.133 255.031C505.234 255.031 505.914 254.562 505.914 253.828C505.914 253.25 505.578 252.938 504.664 252.695L503.234 252.328C501.805 251.961 501.102 251.227 501.102 250.117ZM519.172 254.734V256H512.188V244.727H519.172V245.992H513.594V249.609H518.883V250.859H513.594V254.734H519.172ZM520.68 250.117C520.68 248.727 521.922 247.734 523.711 247.734C525.391 247.734 526.625 248.734 526.688 250.109H525.391C525.297 249.328 524.664 248.844 523.664 248.844C522.672 248.844 522.016 249.336 522.016 250.047C522.016 250.609 522.445 250.984 523.367 251.219L524.625 251.523C526.266 251.938 526.859 252.531 526.859 253.727C526.859 255.141 525.523 256.141 523.625 256.141C521.844 256.141 520.602 255.172 520.461 253.734H521.82C521.969 254.578 522.609 255.031 523.711 255.031C524.812 255.031 525.492 254.562 525.492 253.828C525.492 253.25 525.156 252.938 524.242 252.695L522.812 252.328C521.383 251.961 520.68 251.227 520.68 250.117ZM528.711 245.914H530.07V247.875H531.648V248.992H530.07V253.82C530.07 254.562 530.383 254.898 531.078 254.898C531.234 254.898 531.547 254.875 531.641 254.859V256C531.477 256.039 531.102 256.062 530.781 256.062C529.289 256.062 528.711 255.453 528.711 253.891V248.992H527.5V247.875H528.711V245.914ZM533.172 256V244.727H534.531V249.172H534.562C535.016 248.266 535.906 247.734 537.141 247.734C538.922 247.734 540 248.938 540 250.75V256H538.641V251C538.641 249.711 537.992 248.938 536.719 248.938C535.367 248.938 534.531 249.859 534.531 251.266V256H533.172ZM544.984 248.914C543.711 248.914 542.82 249.891 542.734 251.242H547.148C547.117 249.883 546.266 248.914 544.984 248.914ZM547.117 253.672H548.453C548.219 255.094 546.844 256.141 545.07 256.141C542.742 256.141 541.328 254.523 541.328 251.969C541.328 249.445 542.766 247.734 545.008 247.734C547.203 247.734 548.555 249.328 548.555 251.789V252.305H542.727V252.383C542.727 253.938 543.641 254.961 545.102 254.961C546.133 254.961 546.891 254.438 547.117 253.672ZM549.93 256V247.875H551.211V249.203H551.242C551.508 248.305 552.258 247.734 553.211 247.734C553.445 247.734 553.648 247.773 553.758 247.789V249.109C553.648 249.07 553.359 249.031 553.031 249.031C551.977 249.031 551.289 249.789 551.289 250.938V256H549.93Z" fill="white"/>
<rect x="237.5" y="216.5" width="355" height="67" rx="11.5" stroke="white" stroke-opacity="0.04"/>
<rect x="237.5" y="216.5" width="355" height="67" rx="11.5" stroke="url(#paint3_linear_2_732)" stroke-opacity="0.12"/>
<rect y="101" width="822" height="215" fill="url(#paint4_linear_2_732)"/>
</g>
<rect x="0.5" y="0.5" width="821" height="499" rx="11.5" stroke="white" stroke-opacity="0.04"/>
<rect x="0.5" y="0.5" width="821" height="499" rx="11.5" stroke="url(#paint5_linear_2_732)" stroke-opacity="0.12"/>
<defs>
<radialGradient id="paint0_radial_2_732" cx="0" cy="0" r="1" gradientUnits="userSpaceOnUse" gradientTransform="translate(417.5 107.095) rotate(90) scale(240.361 405.11)">
<stop stop-color="white"/>
<stop offset="1" stop-color="white" stop-opacity="0"/>
</radialGradient>
<linearGradient id="paint1_linear_2_732" x1="415" y1="48" x2="415" y2="98.3462" gradientUnits="userSpaceOnUse">
<stop stop-color="white"/>
<stop offset="1" stop-color="white" stop-opacity="0"/>
</linearGradient>
<linearGradient id="paint2_linear_2_732" x1="415" y1="128" x2="415" y2="184.269" gradientUnits="userSpaceOnUse">
<stop stop-color="white"/>
<stop offset="1" stop-color="white" stop-opacity="0"/>
</linearGradient>
<linearGradient id="paint3_linear_2_732" x1="415" y1="216" x2="415" y2="266.346" gradientUnits="userSpaceOnUse">
<stop stop-color="white"/>
<stop offset="1" stop-color="white" stop-opacity="0"/>
</linearGradient>
<linearGradient id="paint4_linear_2_732" x1="411" y1="101" x2="411" y2="316" gradientUnits="userSpaceOnUse">
<stop stop-color="#131313" stop-opacity="0"/>
<stop offset="1" stop-color="#131313"/>
</linearGradient>
<linearGradient id="paint5_linear_2_732" x1="411" y1="0" x2="411" y2="370.192" gradientUnits="userSpaceOnUse">
<stop stop-color="white"/>
<stop offset="1" stop-color="white" stop-opacity="0"/>
</linearGradient>
<clipPath id="clip0_2_732">
<rect width="822" height="500" rx="12" fill="white"/>
</clipPath>
</defs>
</svg>
