<svg width="342" height="395" viewBox="0 0 342 395" fill="none" xmlns="http://www.w3.org/2000/svg">
<g clip-path="url(#clip0_2_930)">
<rect width="342" height="395" rx="8" fill="#131313"/>
<path d="M24.8086 297.289H27.3984C27.5859 298.965 29.2148 300.066 31.4414 300.066C33.5742 300.066 35.1094 298.965 35.1094 297.453C35.1094 296.141 34.1836 295.355 31.9922 294.816L29.8008 294.289C26.6953 293.539 25.2539 292.086 25.2539 289.73C25.2539 286.812 27.7969 284.809 31.4062 284.809C34.9805 284.809 37.4297 286.812 37.5117 289.73H34.957C34.8047 288.043 33.4102 287.023 31.3711 287.023C29.332 287.023 27.9375 288.055 27.9375 289.555C27.9375 290.75 28.8281 291.453 31.0078 291.992L32.8711 292.449C36.3398 293.27 37.7812 294.664 37.7812 297.137C37.7812 300.301 35.2617 302.281 31.2539 302.281C27.5039 302.281 24.9727 300.348 24.8086 297.289ZM44.9883 291.488C43.2188 291.488 41.9766 292.836 41.8477 294.699H48.0117C47.9531 292.812 46.7578 291.488 44.9883 291.488ZM48 298.379H50.4023C50.0508 300.629 47.918 302.234 45.0938 302.234C41.4727 302.234 39.2812 299.785 39.2812 295.895C39.2812 292.027 41.5078 289.449 44.9883 289.449C48.4102 289.449 50.543 291.863 50.543 295.602V296.469H41.8359V296.621C41.8359 298.766 43.125 300.184 45.1523 300.184C46.5938 300.184 47.6602 299.457 48 298.379ZM56.8242 300.207C58.5938 300.207 59.9766 298.988 59.9766 297.383V296.41L56.9414 296.598C55.4297 296.703 54.5742 297.371 54.5742 298.426C54.5742 299.504 55.4648 300.207 56.8242 300.207ZM56.1211 302.211C53.707 302.211 52.0195 300.711 52.0195 298.496C52.0195 296.34 53.6719 295.016 56.6016 294.852L59.9766 294.652V293.703C59.9766 292.332 59.0508 291.512 57.5039 291.512C56.0391 291.512 55.125 292.215 54.9023 293.316H52.5117C52.6523 291.09 54.5508 289.449 57.5977 289.449C60.5859 289.449 62.4961 291.031 62.4961 293.504V302H60.0703V299.973H60.0117C59.2969 301.344 57.7383 302.211 56.1211 302.211ZM64.957 302V289.672H67.3711V291.746H67.4297C67.9805 290.375 69.2695 289.461 70.9336 289.461C72.6445 289.461 73.8867 290.34 74.3789 291.875H74.4375C75.0703 290.375 76.5234 289.461 78.2812 289.461C80.7188 289.461 82.3125 291.078 82.3125 293.527V302H79.7695V294.137C79.7695 292.543 78.9141 291.629 77.4141 291.629C75.9141 291.629 74.8711 292.742 74.8711 294.301V302H72.3867V293.949C72.3867 292.531 71.4844 291.629 70.0547 291.629C68.5547 291.629 67.4883 292.801 67.4883 294.383V302H64.957ZM84.8555 302V285.09H87.3867V302H84.8555ZM95.1445 291.488C93.375 291.488 92.1328 292.836 92.0039 294.699H98.168C98.1094 292.812 96.9141 291.488 95.1445 291.488ZM98.1562 298.379H100.559C100.207 300.629 98.0742 302.234 95.25 302.234C91.6289 302.234 89.4375 299.785 89.4375 295.895C89.4375 292.027 91.6641 289.449 95.1445 289.449C98.5664 289.449 100.699 291.863 100.699 295.602V296.469H91.9922V296.621C91.9922 298.766 93.2812 300.184 95.3086 300.184C96.75 300.184 97.8164 299.457 98.1562 298.379ZM102.445 293.164C102.445 290.961 104.391 289.449 107.273 289.449C110.016 289.449 111.938 290.984 112.02 293.176H109.641C109.523 292.062 108.621 291.371 107.203 291.371C105.832 291.371 104.918 292.039 104.918 293.012C104.918 293.773 105.527 294.289 106.805 294.605L108.879 295.086C111.363 295.684 112.301 296.621 112.301 298.438C112.301 300.688 110.203 302.234 107.18 302.234C104.262 302.234 102.328 300.723 102.129 298.461H104.637C104.836 299.645 105.75 300.301 107.297 300.301C108.82 300.301 109.758 299.668 109.758 298.672C109.758 297.887 109.289 297.453 108 297.125L105.797 296.586C103.57 296.047 102.445 294.887 102.445 293.164ZM114.047 293.164C114.047 290.961 115.992 289.449 118.875 289.449C121.617 289.449 123.539 290.984 123.621 293.176H121.242C121.125 292.062 120.223 291.371 118.805 291.371C117.434 291.371 116.52 292.039 116.52 293.012C116.52 293.773 117.129 294.289 118.406 294.605L120.48 295.086C122.965 295.684 123.902 296.621 123.902 298.438C123.902 300.688 121.805 302.234 118.781 302.234C115.863 302.234 113.93 300.723 113.73 298.461H116.238C116.438 299.645 117.352 300.301 118.898 300.301C120.422 300.301 121.359 299.668 121.359 298.672C121.359 297.887 120.891 297.453 119.602 297.125L117.398 296.586C115.172 296.047 114.047 294.887 114.047 293.164ZM131.051 285.09H137.391C140.672 285.09 142.957 287.352 142.957 290.645C142.957 293.949 140.625 296.223 137.309 296.223H133.676V302H131.051V285.09ZM133.676 287.305V294.02H136.688C138.973 294.02 140.273 292.789 140.273 290.656C140.273 288.523 138.973 287.305 136.699 287.305H133.676ZM148.277 300.207C150.047 300.207 151.43 298.988 151.43 297.383V296.41L148.395 296.598C146.883 296.703 146.027 297.371 146.027 298.426C146.027 299.504 146.918 300.207 148.277 300.207ZM147.574 302.211C145.16 302.211 143.473 300.711 143.473 298.496C143.473 296.34 145.125 295.016 148.055 294.852L151.43 294.652V293.703C151.43 292.332 150.504 291.512 148.957 291.512C147.492 291.512 146.578 292.215 146.355 293.316H143.965C144.105 291.09 146.004 289.449 149.051 289.449C152.039 289.449 153.949 291.031 153.949 293.504V302H151.523V299.973H151.465C150.75 301.344 149.191 302.211 147.574 302.211ZM157.629 306.594C157.43 306.594 156.785 306.57 156.598 306.535V304.484C156.785 304.531 157.207 304.531 157.418 304.531C158.602 304.531 159.223 304.039 159.609 302.773C159.609 302.75 159.832 302.023 159.832 302.012L155.379 289.672H158.121L161.25 299.703H161.285L164.414 289.672H167.086L162.457 302.645C161.402 305.633 160.195 306.594 157.629 306.594ZM168.574 302V289.672H170.988V291.746H171.047C171.598 290.375 172.887 289.461 174.551 289.461C176.262 289.461 177.504 290.34 177.996 291.875H178.055C178.688 290.375 180.141 289.461 181.898 289.461C184.336 289.461 185.93 291.078 185.93 293.527V302H183.387V294.137C183.387 292.543 182.531 291.629 181.031 291.629C179.531 291.629 178.488 292.742 178.488 294.301V302H176.004V293.949C176.004 292.531 175.102 291.629 173.672 291.629C172.172 291.629 171.105 292.801 171.105 294.383V302H168.574ZM193.535 291.488C191.766 291.488 190.523 292.836 190.395 294.699H196.559C196.5 292.812 195.305 291.488 193.535 291.488ZM196.547 298.379H198.949C198.598 300.629 196.465 302.234 193.641 302.234C190.02 302.234 187.828 299.785 187.828 295.895C187.828 292.027 190.055 289.449 193.535 289.449C196.957 289.449 199.09 291.863 199.09 295.602V296.469H190.383V296.621C190.383 298.766 191.672 300.184 193.699 300.184C195.141 300.184 196.207 299.457 196.547 298.379ZM201.059 302V289.672H203.473V291.734H203.531C204.199 290.328 205.512 289.461 207.41 289.461C210.129 289.461 211.688 291.195 211.688 294.02V302H209.145V294.512C209.145 292.66 208.277 291.641 206.52 291.641C204.738 291.641 203.59 292.906 203.59 294.816V302H201.059ZM214.875 286.754H217.418V289.672H219.762V291.676H217.418V298.473C217.418 299.539 217.887 300.02 218.918 300.02C219.176 300.02 219.586 299.996 219.75 299.961V301.965C219.469 302.035 218.906 302.082 218.344 302.082C215.848 302.082 214.875 301.133 214.875 298.754V291.676H213.082V289.672H214.875V286.754ZM221.625 293.164C221.625 290.961 223.57 289.449 226.453 289.449C229.195 289.449 231.117 290.984 231.199 293.176H228.82C228.703 292.062 227.801 291.371 226.383 291.371C225.012 291.371 224.098 292.039 224.098 293.012C224.098 293.773 224.707 294.289 225.984 294.605L228.059 295.086C230.543 295.684 231.48 296.621 231.48 298.438C231.48 300.688 229.383 302.234 226.359 302.234C223.441 302.234 221.508 300.723 221.309 298.461H223.816C224.016 299.645 224.93 300.301 226.477 300.301C228 300.301 228.938 299.668 228.938 298.672C228.938 297.887 228.469 297.453 227.18 297.125L224.977 296.586C222.75 296.047 221.625 294.887 221.625 293.164Z" fill="white"/>
<path d="M32.0781 339.734V341H25.0938V329.727H32.0781V330.992H26.5V334.609H31.7891V335.859H26.5V339.734H32.0781ZM33.7266 341V332.875H35.0078V334.172H35.0391C35.4922 333.297 36.3594 332.734 37.6172 332.734C39.3984 332.734 40.4297 333.883 40.4297 335.727V341H39.0703V335.969C39.0703 334.656 38.4531 333.938 37.2031 333.938C35.9219 333.938 35.0859 334.844 35.0859 336.219V341H33.7266ZM43.5938 332.875V341.398C43.5938 343.047 42.8125 343.797 41.0781 343.797C41.0547 343.797 40.8359 343.797 40.8203 343.789V342.656C40.8359 342.656 41.0234 342.656 41.0312 342.656C41.9141 342.656 42.2344 342.32 42.2344 341.414V332.875H43.5938ZM42.9141 331.508C42.4531 331.508 42.0703 331.125 42.0703 330.664C42.0703 330.195 42.4531 329.82 42.9141 329.82C43.3828 329.82 43.7656 330.195 43.7656 330.664C43.7656 331.125 43.3828 331.508 42.9141 331.508ZM48.7969 341.141C46.5469 341.141 45.0312 339.523 45.0312 336.938C45.0312 334.344 46.5469 332.734 48.7969 332.734C51.0391 332.734 52.5547 334.344 52.5547 336.938C52.5547 339.523 51.0391 341.141 48.7969 341.141ZM48.7969 339.945C50.2344 339.945 51.1719 338.852 51.1719 336.938C51.1719 335.023 50.2344 333.93 48.7969 333.93C47.3594 333.93 46.4141 335.023 46.4141 336.938C46.4141 338.852 47.3594 339.945 48.7969 339.945ZM54.3672 344.039C54.2031 344.039 53.9297 344.023 53.7812 343.992V342.852C53.9297 342.883 54.1406 342.891 54.3125 342.891C55.0703 342.891 55.4922 342.523 55.8047 341.578L55.9922 341.008L52.9922 332.875H54.4453L56.6953 339.641H56.7188L58.9688 332.875H60.3984L57.2031 341.57C56.5078 343.469 55.8359 344.039 54.3672 344.039ZM64.6172 335.117C64.6172 333.727 65.8594 332.734 67.6484 332.734C69.3281 332.734 70.5625 333.734 70.625 335.109H69.3281C69.2344 334.328 68.6016 333.844 67.6016 333.844C66.6094 333.844 65.9531 334.336 65.9531 335.047C65.9531 335.609 66.3828 335.984 67.3047 336.219L68.5625 336.523C70.2031 336.938 70.7969 337.531 70.7969 338.727C70.7969 340.141 69.4609 341.141 67.5625 341.141C65.7812 341.141 64.5391 340.172 64.3984 338.734H65.7578C65.9062 339.578 66.5469 340.031 67.6484 340.031C68.75 340.031 69.4297 339.562 69.4297 338.828C69.4297 338.25 69.0938 337.938 68.1797 337.695L66.75 337.328C65.3203 336.961 64.6172 336.227 64.6172 335.117ZM75.4688 333.914C74.1953 333.914 73.3047 334.891 73.2188 336.242H77.6328C77.6016 334.883 76.75 333.914 75.4688 333.914ZM77.6016 338.672H78.9375C78.7031 340.094 77.3281 341.141 75.5547 341.141C73.2266 341.141 71.8125 339.523 71.8125 336.969C71.8125 334.445 73.25 332.734 75.4922 332.734C77.6875 332.734 79.0391 334.328 79.0391 336.789V337.305H73.2109V337.383C73.2109 338.938 74.125 339.961 75.5859 339.961C76.6172 339.961 77.375 339.438 77.6016 338.672ZM87.1641 335.539H85.8359C85.6406 334.656 84.9531 333.93 83.7578 333.93C82.3516 333.93 81.3984 335.094 81.3984 336.938C81.3984 338.828 82.3672 339.945 83.7734 339.945C84.8828 339.945 85.6094 339.359 85.8438 338.383H87.1797C86.9688 340 85.6094 341.141 83.7656 341.141C81.5156 341.141 80.0156 339.555 80.0156 336.938C80.0156 334.375 81.5078 332.734 83.75 332.734C85.7812 332.734 86.9922 334.078 87.1641 335.539ZM95.1016 332.875V341H93.8125V339.68H93.7812C93.2969 340.617 92.4531 341.141 91.2031 341.141C89.4297 341.141 88.3906 339.992 88.3906 338.148V332.875H89.75V337.906C89.75 339.227 90.3672 339.938 91.625 339.938C92.9453 339.938 93.7422 339.031 93.7422 337.648V332.875H95.1016ZM96.8672 341V332.875H98.1484V334.203H98.1797C98.4453 333.305 99.1953 332.734 100.148 332.734C100.383 332.734 100.586 332.773 100.695 332.789V334.109C100.586 334.07 100.297 334.031 99.9688 334.031C98.9141 334.031 98.2266 334.789 98.2266 335.938V341H96.8672ZM104.672 333.914C103.398 333.914 102.508 334.891 102.422 336.242H106.836C106.805 334.883 105.953 333.914 104.672 333.914ZM106.805 338.672H108.141C107.906 340.094 106.531 341.141 104.758 341.141C102.43 341.141 101.016 339.523 101.016 336.969C101.016 334.445 102.453 332.734 104.695 332.734C106.891 332.734 108.242 334.328 108.242 336.789V337.305H102.414V337.383C102.414 338.938 103.328 339.961 104.789 339.961C105.82 339.961 106.578 339.438 106.805 338.672ZM110.547 343.242H109.414L110.172 339.266H111.617L110.547 343.242ZM116.039 335.117C116.039 333.727 117.281 332.734 119.07 332.734C120.75 332.734 121.984 333.734 122.047 335.109H120.75C120.656 334.328 120.023 333.844 119.023 333.844C118.031 333.844 117.375 334.336 117.375 335.047C117.375 335.609 117.805 335.984 118.727 336.219L119.984 336.523C121.625 336.938 122.219 337.531 122.219 338.727C122.219 340.141 120.883 341.141 118.984 341.141C117.203 341.141 115.961 340.172 115.82 338.734H117.18C117.328 339.578 117.969 340.031 119.07 340.031C120.172 340.031 120.852 339.562 120.852 338.828C120.852 338.25 120.516 337.938 119.602 337.695L118.172 337.328C116.742 336.961 116.039 336.227 116.039 335.117ZM126.891 333.914C125.617 333.914 124.727 334.891 124.641 336.242H129.055C129.023 334.883 128.172 333.914 126.891 333.914ZM129.023 338.672H130.359C130.125 340.094 128.75 341.141 126.977 341.141C124.648 341.141 123.234 339.523 123.234 336.969C123.234 334.445 124.672 332.734 126.914 332.734C129.109 332.734 130.461 334.328 130.461 336.789V337.305H124.633V337.383C124.633 338.938 125.547 339.961 127.008 339.961C128.039 339.961 128.797 339.438 129.023 338.672ZM134.516 339.984C135.797 339.984 136.781 339.086 136.781 337.914V337.25L134.609 337.383C133.516 337.453 132.891 337.938 132.891 338.703C132.891 339.477 133.539 339.984 134.516 339.984ZM134.211 341.141C132.594 341.141 131.508 340.164 131.508 338.703C131.508 337.312 132.578 336.438 134.453 336.328L136.781 336.195V335.516C136.781 334.523 136.125 333.93 135 333.93C133.953 333.93 133.297 334.422 133.125 335.219H131.812C131.906 333.812 133.109 332.734 135.031 332.734C136.938 332.734 138.141 333.766 138.141 335.383V341H136.852V339.602H136.82C136.336 340.531 135.305 341.141 134.211 341.141ZM139.867 341V332.875H141.148V334.172H141.18C141.562 333.312 142.391 332.734 143.484 332.734C144.594 332.734 145.414 333.297 145.766 334.281H145.797C146.25 333.312 147.203 332.734 148.344 332.734C149.953 332.734 150.992 333.781 150.992 335.391V341H149.633V335.703C149.633 334.594 149.016 333.938 147.945 333.938C146.867 333.938 146.109 334.734 146.109 335.836V341H144.75V335.555C144.75 334.578 144.094 333.938 143.086 333.938C142.008 333.938 141.227 334.781 141.227 335.906V341H139.867ZM152.797 341V329.727H154.156V341H152.797ZM159.25 333.914C157.977 333.914 157.086 334.891 157 336.242H161.414C161.383 334.883 160.531 333.914 159.25 333.914ZM161.383 338.672H162.719C162.484 340.094 161.109 341.141 159.336 341.141C157.008 341.141 155.594 339.523 155.594 336.969C155.594 334.445 157.031 332.734 159.273 332.734C161.469 332.734 162.82 334.328 162.82 336.789V337.305H156.992V337.383C156.992 338.938 157.906 339.961 159.367 339.961C160.398 339.961 161.156 339.438 161.383 338.672ZM164.055 335.117C164.055 333.727 165.297 332.734 167.086 332.734C168.766 332.734 170 333.734 170.062 335.109H168.766C168.672 334.328 168.039 333.844 167.039 333.844C166.047 333.844 165.391 334.336 165.391 335.047C165.391 335.609 165.82 335.984 166.742 336.219L168 336.523C169.641 336.938 170.234 337.531 170.234 338.727C170.234 340.141 168.898 341.141 167 341.141C165.219 341.141 163.977 340.172 163.836 338.734H165.195C165.344 339.578 165.984 340.031 167.086 340.031C168.188 340.031 168.867 339.562 168.867 338.828C168.867 338.25 168.531 337.938 167.617 337.695L166.188 337.328C164.758 336.961 164.055 336.227 164.055 335.117ZM171.508 335.117C171.508 333.727 172.75 332.734 174.539 332.734C176.219 332.734 177.453 333.734 177.516 335.109H176.219C176.125 334.328 175.492 333.844 174.492 333.844C173.5 333.844 172.844 334.336 172.844 335.047C172.844 335.609 173.273 335.984 174.195 336.219L175.453 336.523C177.094 336.938 177.688 337.531 177.688 338.727C177.688 340.141 176.352 341.141 174.453 341.141C172.672 341.141 171.43 340.172 171.289 338.734H172.648C172.797 339.578 173.438 340.031 174.539 340.031C175.641 340.031 176.32 339.562 176.32 338.828C176.32 338.25 175.984 337.938 175.07 337.695L173.641 337.328C172.211 336.961 171.508 336.227 171.508 335.117ZM182.82 330.914H184.18V332.875H185.758V333.992H184.18V338.82C184.18 339.562 184.492 339.898 185.188 339.898C185.344 339.898 185.656 339.875 185.75 339.859V341C185.586 341.039 185.211 341.062 184.891 341.062C183.398 341.062 182.82 340.453 182.82 338.891V333.992H181.609V332.875H182.82V330.914ZM187.211 341V332.875H188.492V334.203H188.523C188.789 333.305 189.539 332.734 190.492 332.734C190.727 332.734 190.93 332.773 191.039 332.789V334.109C190.93 334.07 190.641 334.031 190.312 334.031C189.258 334.031 188.57 334.789 188.57 335.938V341H187.211ZM194.672 339.984C195.953 339.984 196.938 339.086 196.938 337.914V337.25L194.766 337.383C193.672 337.453 193.047 337.938 193.047 338.703C193.047 339.477 193.695 339.984 194.672 339.984ZM194.367 341.141C192.75 341.141 191.664 340.164 191.664 338.703C191.664 337.312 192.734 336.438 194.609 336.328L196.938 336.195V335.516C196.938 334.523 196.281 333.93 195.156 333.93C194.109 333.93 193.453 334.422 193.281 335.219H191.969C192.062 333.812 193.266 332.734 195.188 332.734C197.094 332.734 198.297 333.766 198.297 335.383V341H197.008V339.602H196.977C196.492 340.531 195.461 341.141 194.367 341.141ZM200.023 341V332.875H201.305V334.172H201.336C201.789 333.297 202.656 332.734 203.914 332.734C205.695 332.734 206.727 333.883 206.727 335.727V341H205.367V335.969C205.367 334.656 204.75 333.938 203.5 333.938C202.219 333.938 201.383 334.844 201.383 336.219V341H200.023ZM208.32 335.117C208.32 333.727 209.562 332.734 211.352 332.734C213.031 332.734 214.266 333.734 214.328 335.109H213.031C212.938 334.328 212.305 333.844 211.305 333.844C210.312 333.844 209.656 334.336 209.656 335.047C209.656 335.609 210.086 335.984 211.008 336.219L212.266 336.523C213.906 336.938 214.5 337.531 214.5 338.727C214.5 340.141 213.164 341.141 211.266 341.141C209.484 341.141 208.242 340.172 208.102 338.734H209.461C209.609 339.578 210.25 340.031 211.352 340.031C212.453 340.031 213.133 339.562 213.133 338.828C213.133 338.25 212.797 337.938 211.883 337.695L210.453 337.328C209.023 336.961 208.32 336.227 208.32 335.117ZM218.594 339.984C219.875 339.984 220.859 339.086 220.859 337.914V337.25L218.688 337.383C217.594 337.453 216.969 337.938 216.969 338.703C216.969 339.477 217.617 339.984 218.594 339.984ZM218.289 341.141C216.672 341.141 215.586 340.164 215.586 338.703C215.586 337.312 216.656 336.438 218.531 336.328L220.859 336.195V335.516C220.859 334.523 220.203 333.93 219.078 333.93C218.031 333.93 217.375 334.422 217.203 335.219H215.891C215.984 333.812 217.188 332.734 219.109 332.734C221.016 332.734 222.219 333.766 222.219 335.383V341H220.93V339.602H220.898C220.414 340.531 219.383 341.141 218.289 341.141ZM230.695 335.539H229.367C229.172 334.656 228.484 333.93 227.289 333.93C225.883 333.93 224.93 335.094 224.93 336.938C224.93 338.828 225.898 339.945 227.305 339.945C228.414 339.945 229.141 339.359 229.375 338.383H230.711C230.5 340 229.141 341.141 227.297 341.141C225.047 341.141 223.547 339.555 223.547 336.938C223.547 334.375 225.039 332.734 227.281 332.734C229.312 332.734 230.523 334.078 230.695 335.539ZM232.398 330.914H233.758V332.875H235.336V333.992H233.758V338.82C233.758 339.562 234.07 339.898 234.766 339.898C234.922 339.898 235.234 339.875 235.328 339.859V341C235.164 341.039 234.789 341.062 234.469 341.062C232.977 341.062 232.398 340.453 232.398 338.891V333.992H231.188V332.875H232.398V330.914ZM236.859 341V332.875H238.219V341H236.859ZM237.539 331.508C237.078 331.508 236.695 331.125 236.695 330.664C236.695 330.195 237.078 329.82 237.539 329.82C238.008 329.82 238.391 330.195 238.391 330.664C238.391 331.125 238.008 331.508 237.539 331.508ZM243.422 341.141C241.172 341.141 239.656 339.523 239.656 336.938C239.656 334.344 241.172 332.734 243.422 332.734C245.664 332.734 247.18 334.344 247.18 336.938C247.18 339.523 245.664 341.141 243.422 341.141ZM243.422 339.945C244.859 339.945 245.797 338.852 245.797 336.938C245.797 335.023 244.859 333.93 243.422 333.93C241.984 333.93 241.039 335.023 241.039 336.938C241.039 338.852 241.984 339.945 243.422 339.945ZM248.555 341V332.875H249.836V334.172H249.867C250.32 333.297 251.188 332.734 252.445 332.734C254.227 332.734 255.258 333.883 255.258 335.727V341H253.898V335.969C253.898 334.656 253.281 333.938 252.031 333.938C250.75 333.938 249.914 334.844 249.914 336.219V341H248.555ZM256.852 335.117C256.852 333.727 258.094 332.734 259.883 332.734C261.562 332.734 262.797 333.734 262.859 335.109H261.562C261.469 334.328 260.836 333.844 259.836 333.844C258.844 333.844 258.188 334.336 258.188 335.047C258.188 335.609 258.617 335.984 259.539 336.219L260.797 336.523C262.438 336.938 263.031 337.531 263.031 338.727C263.031 340.141 261.695 341.141 259.797 341.141C258.016 341.141 256.773 340.172 256.633 338.734H257.992C258.141 339.578 258.781 340.031 259.883 340.031C260.984 340.031 261.664 339.562 261.664 338.828C261.664 338.25 261.328 337.938 260.414 337.695L258.984 337.328C257.555 336.961 256.852 336.227 256.852 335.117ZM268.164 330.914H269.523V332.875H271.102V333.992H269.523V338.82C269.523 339.562 269.836 339.898 270.531 339.898C270.688 339.898 271 339.875 271.094 339.859V341C270.93 341.039 270.555 341.062 270.234 341.062C268.742 341.062 268.164 340.453 268.164 338.891V333.992H266.953V332.875H268.164V330.914ZM272.625 341V329.727H273.984V334.172H274.016C274.469 333.266 275.359 332.734 276.594 332.734C278.375 332.734 279.453 333.938 279.453 335.75V341H278.094V336C278.094 334.711 277.445 333.938 276.172 333.938C274.82 333.938 273.984 334.859 273.984 336.266V341H272.625ZM283.859 339.984C285.141 339.984 286.125 339.086 286.125 337.914V337.25L283.953 337.383C282.859 337.453 282.234 337.938 282.234 338.703C282.234 339.477 282.883 339.984 283.859 339.984ZM283.555 341.141C281.938 341.141 280.852 340.164 280.852 338.703C280.852 337.312 281.922 336.438 283.797 336.328L286.125 336.195V335.516C286.125 334.523 285.469 333.93 284.344 333.93C283.297 333.93 282.641 334.422 282.469 335.219H281.156C281.25 333.812 282.453 332.734 284.375 332.734C286.281 332.734 287.484 333.766 287.484 335.383V341H286.195V339.602H286.164C285.68 340.531 284.648 341.141 283.555 341.141ZM289.648 330.914H291.008V332.875H292.586V333.992H291.008V338.82C291.008 339.562 291.32 339.898 292.016 339.898C292.172 339.898 292.484 339.875 292.578 339.859V341C292.414 341.039 292.039 341.062 291.719 341.062C290.227 341.062 289.648 340.453 289.648 338.891V333.992H288.438V332.875H289.648V330.914ZM24.8828 365V356.875H26.1641V358.172H26.1953C26.5781 357.312 27.4062 356.734 28.5 356.734C29.6094 356.734 30.4297 357.297 30.7812 358.281H30.8125C31.2656 357.312 32.2188 356.734 33.3594 356.734C34.9688 356.734 36.0078 357.781 36.0078 359.391V365H34.6484V359.703C34.6484 358.594 34.0312 357.938 32.9609 357.938C31.8828 357.938 31.125 358.734 31.125 359.836V365H29.7656V359.555C29.7656 358.578 29.1094 357.938 28.1016 357.938C27.0234 357.938 26.2422 358.781 26.2422 359.906V365H24.8828ZM40.4219 363.984C41.7031 363.984 42.6875 363.086 42.6875 361.914V361.25L40.5156 361.383C39.4219 361.453 38.7969 361.938 38.7969 362.703C38.7969 363.477 39.4453 363.984 40.4219 363.984ZM40.1172 365.141C38.5 365.141 37.4141 364.164 37.4141 362.703C37.4141 361.312 38.4844 360.438 40.3594 360.328L42.6875 360.195V359.516C42.6875 358.523 42.0312 357.93 40.9062 357.93C39.8594 357.93 39.2031 358.422 39.0312 359.219H37.7188C37.8125 357.812 39.0156 356.734 40.9375 356.734C42.8438 356.734 44.0469 357.766 44.0469 359.383V365H42.7578V363.602H42.7266C42.2422 364.531 41.2109 365.141 40.1172 365.141ZM47.2031 360.484L50.7969 356.875H52.4453L48.9219 360.383L52.5547 365H50.9766L47.9609 361.219L47.2031 361.938V365H45.8438V353.727H47.2031V360.484ZM56.4062 357.914C55.1328 357.914 54.2422 358.891 54.1562 360.242H58.5703C58.5391 358.883 57.6875 357.914 56.4062 357.914ZM58.5391 362.672H59.875C59.6406 364.094 58.2656 365.141 56.4922 365.141C54.1641 365.141 52.75 363.523 52.75 360.969C52.75 358.445 54.1875 356.734 56.4297 356.734C58.625 356.734 59.9766 358.328 59.9766 360.789V361.305H54.1484V361.383C54.1484 362.938 55.0625 363.961 56.5234 363.961C57.5547 363.961 58.3125 363.438 58.5391 362.672ZM64.6328 365V356.875H65.9141V358.172H65.9453C66.3281 357.312 67.1562 356.734 68.25 356.734C69.3594 356.734 70.1797 357.297 70.5312 358.281H70.5625C71.0156 357.312 71.9688 356.734 73.1094 356.734C74.7188 356.734 75.7578 357.781 75.7578 359.391V365H74.3984V359.703C74.3984 358.594 73.7812 357.938 72.7109 357.938C71.6328 357.938 70.875 358.734 70.875 359.836V365H69.5156V359.555C69.5156 358.578 68.8594 357.938 67.8516 357.938C66.7734 357.938 65.9922 358.781 65.9922 359.906V365H64.6328ZM80.1719 363.984C81.4531 363.984 82.4375 363.086 82.4375 361.914V361.25L80.2656 361.383C79.1719 361.453 78.5469 361.938 78.5469 362.703C78.5469 363.477 79.1953 363.984 80.1719 363.984ZM79.8672 365.141C78.25 365.141 77.1641 364.164 77.1641 362.703C77.1641 361.312 78.2344 360.438 80.1094 360.328L82.4375 360.195V359.516C82.4375 358.523 81.7812 357.93 80.6562 357.93C79.6094 357.93 78.9531 358.422 78.7812 359.219H77.4688C77.5625 357.812 78.7656 356.734 80.6875 356.734C82.5938 356.734 83.7969 357.766 83.7969 359.383V365H82.5078V363.602H82.4766C81.9922 364.531 80.9609 365.141 79.8672 365.141ZM85.5234 365V356.875H86.8047V358.172H86.8359C87.2891 357.297 88.1562 356.734 89.4141 356.734C91.1953 356.734 92.2266 357.883 92.2266 359.727V365H90.8672V359.969C90.8672 358.656 90.25 357.938 89 357.938C87.7188 357.938 86.8828 358.844 86.8828 360.219V365H85.5234ZM96.6406 363.984C97.9219 363.984 98.9062 363.086 98.9062 361.914V361.25L96.7344 361.383C95.6406 361.453 95.0156 361.938 95.0156 362.703C95.0156 363.477 95.6641 363.984 96.6406 363.984ZM96.3359 365.141C94.7188 365.141 93.6328 364.164 93.6328 362.703C93.6328 361.312 94.7031 360.438 96.5781 360.328L98.9062 360.195V359.516C98.9062 358.523 98.25 357.93 97.125 357.93C96.0781 357.93 95.4219 358.422 95.25 359.219H93.9375C94.0312 357.812 95.2344 356.734 97.1562 356.734C99.0625 356.734 100.266 357.766 100.266 359.383V365H98.9766V363.602H98.9453C98.4609 364.531 97.4297 365.141 96.3359 365.141ZM105.297 363.867C106.711 363.867 107.656 362.695 107.656 360.906C107.656 359.117 106.711 357.93 105.297 357.93C103.898 357.93 102.984 359.086 102.984 360.906C102.984 362.727 103.898 363.867 105.297 363.867ZM105.344 368.062C103.555 368.062 102.141 367.055 101.914 365.672H103.312C103.578 366.414 104.383 366.906 105.398 366.906C106.805 366.906 107.656 366.094 107.656 364.883V363.602H107.625C107.125 364.484 106.164 365.062 105.023 365.062C102.953 365.062 101.594 363.43 101.594 360.906C101.594 358.359 102.953 356.734 105.055 356.734C106.203 356.734 107.156 357.297 107.695 358.242H107.719V356.875H109.016V364.836C109.016 366.773 107.586 368.062 105.344 368.062ZM110.859 365V356.875H112.219V365H110.859ZM111.539 355.508C111.078 355.508 110.695 355.125 110.695 354.664C110.695 354.195 111.078 353.82 111.539 353.82C112.008 353.82 112.391 354.195 112.391 354.664C112.391 355.125 112.008 355.508 111.539 355.508ZM114.055 365V356.875H115.336V358.172H115.367C115.82 357.297 116.688 356.734 117.945 356.734C119.727 356.734 120.758 357.883 120.758 359.727V365H119.398V359.969C119.398 358.656 118.781 357.938 117.531 357.938C116.25 357.938 115.414 358.844 115.414 360.219V365H114.055ZM125.797 363.867C127.211 363.867 128.156 362.695 128.156 360.906C128.156 359.117 127.211 357.93 125.797 357.93C124.398 357.93 123.484 359.086 123.484 360.906C123.484 362.727 124.398 363.867 125.797 363.867ZM125.844 368.062C124.055 368.062 122.641 367.055 122.414 365.672H123.812C124.078 366.414 124.883 366.906 125.898 366.906C127.305 366.906 128.156 366.094 128.156 364.883V363.602H128.125C127.625 364.484 126.664 365.062 125.523 365.062C123.453 365.062 122.094 363.43 122.094 360.906C122.094 358.359 123.453 356.734 125.555 356.734C126.703 356.734 127.656 357.297 128.195 358.242H128.219V356.875H129.516V364.836C129.516 366.773 128.086 368.062 125.844 368.062ZM135.242 368.039C135.078 368.039 134.805 368.023 134.656 367.992V366.852C134.805 366.883 135.016 366.891 135.188 366.891C135.945 366.891 136.367 366.523 136.68 365.578L136.867 365.008L133.867 356.875H135.32L137.57 363.641H137.594L139.844 356.875H141.273L138.078 365.57C137.383 367.469 136.711 368.039 135.242 368.039ZM145.484 365.141C143.234 365.141 141.719 363.523 141.719 360.938C141.719 358.344 143.234 356.734 145.484 356.734C147.727 356.734 149.242 358.344 149.242 360.938C149.242 363.523 147.727 365.141 145.484 365.141ZM145.484 363.945C146.922 363.945 147.859 362.852 147.859 360.938C147.859 359.023 146.922 357.93 145.484 357.93C144.047 357.93 143.102 359.023 143.102 360.938C143.102 362.852 144.047 363.945 145.484 363.945ZM157.289 356.875V365H156V363.68H155.969C155.484 364.617 154.641 365.141 153.391 365.141C151.617 365.141 150.578 363.992 150.578 362.148V356.875H151.938V361.906C151.938 363.227 152.555 363.938 153.812 363.938C155.133 363.938 155.93 363.031 155.93 361.648V356.875H157.289ZM159.055 365V356.875H160.336V358.203H160.367C160.633 357.305 161.383 356.734 162.336 356.734C162.57 356.734 162.773 356.773 162.883 356.789V358.109C162.773 358.07 162.484 358.031 162.156 358.031C161.102 358.031 160.414 358.789 160.414 359.938V365H159.055ZM167.273 365V356.875H168.555V358.172H168.586C168.969 357.312 169.797 356.734 170.891 356.734C172 356.734 172.82 357.297 173.172 358.281H173.203C173.656 357.312 174.609 356.734 175.75 356.734C177.359 356.734 178.398 357.781 178.398 359.391V365H177.039V359.703C177.039 358.594 176.422 357.938 175.352 357.938C174.273 357.938 173.516 358.734 173.516 359.836V365H172.156V359.555C172.156 358.578 171.5 357.938 170.492 357.938C169.414 357.938 168.633 358.781 168.633 359.906V365H167.273ZM183.5 365.141C181.25 365.141 179.734 363.523 179.734 360.938C179.734 358.344 181.25 356.734 183.5 356.734C185.742 356.734 187.258 358.344 187.258 360.938C187.258 363.523 185.742 365.141 183.5 365.141ZM183.5 363.945C184.938 363.945 185.875 362.852 185.875 360.938C185.875 359.023 184.938 357.93 183.5 357.93C182.062 357.93 181.117 359.023 181.117 360.938C181.117 362.852 182.062 363.945 183.5 363.945ZM188.633 365V356.875H189.914V358.172H189.945C190.398 357.297 191.266 356.734 192.523 356.734C194.305 356.734 195.336 357.883 195.336 359.727V365H193.977V359.969C193.977 358.656 193.359 357.938 192.109 357.938C190.828 357.938 189.992 358.844 189.992 360.219V365H188.633ZM200.328 357.914C199.055 357.914 198.164 358.891 198.078 360.242H202.492C202.461 358.883 201.609 357.914 200.328 357.914ZM202.461 362.672H203.797C203.562 364.094 202.188 365.141 200.414 365.141C198.086 365.141 196.672 363.523 196.672 360.969C196.672 358.445 198.109 356.734 200.352 356.734C202.547 356.734 203.898 358.328 203.898 360.789V361.305H198.07V361.383C198.07 362.938 198.984 363.961 200.445 363.961C201.477 363.961 202.234 363.438 202.461 362.672ZM205.945 368.039C205.781 368.039 205.508 368.023 205.359 367.992V366.852C205.508 366.883 205.719 366.891 205.891 366.891C206.648 366.891 207.07 366.523 207.383 365.578L207.57 365.008L204.57 356.875H206.023L208.273 363.641H208.297L210.547 356.875H211.977L208.781 365.57C208.086 367.469 207.414 368.039 205.945 368.039ZM219.016 363.984C220.297 363.984 221.281 363.086 221.281 361.914V361.25L219.109 361.383C218.016 361.453 217.391 361.938 217.391 362.703C217.391 363.477 218.039 363.984 219.016 363.984ZM218.711 365.141C217.094 365.141 216.008 364.164 216.008 362.703C216.008 361.312 217.078 360.438 218.953 360.328L221.281 360.195V359.516C221.281 358.523 220.625 357.93 219.5 357.93C218.453 357.93 217.797 358.422 217.625 359.219H216.312C216.406 357.812 217.609 356.734 219.531 356.734C221.438 356.734 222.641 357.766 222.641 359.383V365H221.352V363.602H221.32C220.836 364.531 219.805 365.141 218.711 365.141ZM231.688 365.141C230.5 365.141 229.57 364.562 229.047 363.625H229.016V365H227.719V353.727H229.078V358.234H229.109C229.617 357.305 230.562 356.734 231.711 356.734C233.758 356.734 235.141 358.391 235.141 360.938C235.141 363.492 233.766 365.141 231.688 365.141ZM231.422 357.93C230.047 357.93 229.07 359.133 229.07 360.938C229.07 362.75 230.047 363.945 231.422 363.945C232.859 363.945 233.75 362.797 233.75 360.938C233.75 359.094 232.859 357.93 231.422 357.93ZM236.523 365V356.875H237.805V358.203H237.836C238.102 357.305 238.852 356.734 239.805 356.734C240.039 356.734 240.242 356.773 240.352 356.789V358.109C240.242 358.07 239.953 358.031 239.625 358.031C238.57 358.031 237.883 358.789 237.883 359.938V365H236.523ZM244.328 357.914C243.055 357.914 242.164 358.891 242.078 360.242H246.492C246.461 358.883 245.609 357.914 244.328 357.914ZM246.461 362.672H247.797C247.562 364.094 246.188 365.141 244.414 365.141C242.086 365.141 240.672 363.523 240.672 360.969C240.672 358.445 242.109 356.734 244.352 356.734C246.547 356.734 247.898 358.328 247.898 360.789V361.305H242.07V361.383C242.07 362.938 242.984 363.961 244.445 363.961C245.477 363.961 246.234 363.438 246.461 362.672ZM252.531 357.914C251.258 357.914 250.367 358.891 250.281 360.242H254.695C254.664 358.883 253.812 357.914 252.531 357.914ZM254.664 362.672H256C255.766 364.094 254.391 365.141 252.617 365.141C250.289 365.141 248.875 363.523 248.875 360.969C248.875 358.445 250.312 356.734 252.555 356.734C254.75 356.734 256.102 358.328 256.102 360.789V361.305H250.273V361.383C250.273 362.938 251.188 363.961 252.648 363.961C253.68 363.961 254.438 363.438 254.664 362.672ZM257.305 365V364.031L261.805 358.016V357.992H257.312V356.875H263.344V357.867L258.875 363.859V363.883H263.367V365H257.305ZM267.906 357.914C266.633 357.914 265.742 358.891 265.656 360.242H270.07C270.039 358.883 269.188 357.914 267.906 357.914ZM270.039 362.672H271.375C271.141 364.094 269.766 365.141 267.992 365.141C265.664 365.141 264.25 363.523 264.25 360.969C264.25 358.445 265.688 356.734 267.93 356.734C270.125 356.734 271.477 358.328 271.477 360.789V361.305H265.648V361.383C265.648 362.938 266.562 363.961 268.023 363.961C269.055 363.961 269.812 363.438 270.039 362.672ZM274 365.078C273.5 365.078 273.109 364.688 273.109 364.188C273.109 363.688 273.5 363.297 274 363.297C274.5 363.297 274.891 363.688 274.891 364.188C274.891 364.688 274.5 365.078 274 365.078Z" fill="#BDBDBD"/>
<path d="M4.2353 -42H-20V-17.6667M4.2353 -42V-17.6667M4.2353 -42H28.4706M4.2353 -17.6667H-20M4.2353 -17.6667H28.4706M4.2353 -17.6667V6.66667M-20 -17.6667V6.66667M28.4706 -42V-17.6667M28.4706 -42H52.7059M28.4706 -17.6667H52.7059M28.4706 -17.6667V6.66667M52.7059 -42V-17.6667M52.7059 -42H76.9412M52.7059 -17.6667H76.9412M52.7059 -17.6667V6.66667M76.9412 -42V-17.6667M76.9412 -42H101.176M76.9412 -17.6667H101.176M76.9412 -17.6667V6.66667M101.176 -42V-17.6667M101.176 -42H125.412M101.176 -17.6667H125.412M101.176 -17.6667V6.66667M125.412 -42V-17.6667M125.412 -42H149.647M125.412 -17.6667H149.647M125.412 -17.6667V6.66667M149.647 -42V-17.6667M149.647 -42H173.882M149.647 -17.6667H173.882M149.647 -17.6667V6.66667M173.882 -42V-17.6667M173.882 -42H198.118M173.882 -17.6667H198.118M173.882 -17.6667V6.66667M198.118 -42V-17.6667M198.118 -42H222.353M198.118 -17.6667H222.353M198.118 -17.6667V6.66667M222.353 -42V-17.6667M222.353 -42H246.588M222.353 -17.6667H246.588M222.353 -17.6667V6.66667M246.588 -42V-17.6667M246.588 -42H270.824M246.588 -17.6667H270.824M246.588 -17.6667V6.66667M270.824 -42V-17.6667M270.824 -42H295.059M270.824 -17.6667H295.059M270.824 -17.6667V6.66667M295.059 -42V-17.6667M295.059 -42H319.294M295.059 -17.6667H319.294M295.059 -17.6667V6.66667M319.294 -42V-17.6667M319.294 -42H343.529M319.294 -17.6667H343.529M319.294 -17.6667V6.66667M343.529 -42V-17.6667M343.529 -42H367.765M343.529 -17.6667H367.765M343.529 -17.6667V6.66667M367.765 -42V-17.6667M367.765 -42H392V-17.6667M367.765 -17.6667H392M367.765 -17.6667V6.66667M392 -17.6667V6.66667M4.2353 6.66667H-20M4.2353 6.66667H28.4706M4.2353 6.66667V31M-20 6.66667V31M28.4706 6.66667H52.7059M28.4706 6.66667V31M52.7059 6.66667H76.9412M52.7059 6.66667V31M76.9412 6.66667H101.176M76.9412 6.66667V31M101.176 6.66667H125.412M101.176 6.66667V31M125.412 6.66667H149.647M125.412 6.66667V31M149.647 6.66667H173.882M149.647 6.66667V31M173.882 6.66667H198.118M173.882 6.66667V31M198.118 6.66667H222.353M198.118 6.66667V31M222.353 6.66667H246.588M222.353 6.66667V31M246.588 6.66667H270.824M246.588 6.66667V31M270.824 6.66667H295.059M270.824 6.66667V31M295.059 6.66667H319.294M295.059 6.66667V31M319.294 6.66667H343.529M319.294 6.66667V31M343.529 6.66667H367.765M343.529 6.66667V31M367.765 6.66667H392M367.765 6.66667V31M392 6.66667V31M4.2353 31H-20M4.2353 31H28.4706M4.2353 31V55.3333M-20 31V55.3333M28.4706 31H52.7059M28.4706 31V55.3333M52.7059 31H76.9412M52.7059 31V55.3333M76.9412 31H101.176M76.9412 31V55.3333M101.176 31H125.412M101.176 31V55.3333M125.412 31H149.647M125.412 31V55.3333M149.647 31H173.882M149.647 31V55.3333M173.882 31H198.118M173.882 31V55.3333M198.118 31H222.353M198.118 31V55.3333M222.353 31H246.588M222.353 31V55.3333M246.588 31H270.824M246.588 31V55.3333M270.824 31H295.059M270.824 31V55.3333M295.059 31H319.294M295.059 31V55.3333M319.294 31H343.529M319.294 31V55.3333M343.529 31H367.765M343.529 31V55.3333M367.765 31H392M367.765 31V55.3333M392 31V55.3333M4.2353 55.3333H-20M4.2353 55.3333H28.4706M4.2353 55.3333V79.6667M-20 55.3333V79.6667M28.4706 55.3333H52.7059M28.4706 55.3333V79.6667M52.7059 55.3333H76.9412M52.7059 55.3333V79.6667M76.9412 55.3333H101.176M76.9412 55.3333V79.6667M101.176 55.3333H125.412M101.176 55.3333V79.6667M125.412 55.3333H149.647M125.412 55.3333V79.6667M149.647 55.3333H173.882M149.647 55.3333V79.6667M173.882 55.3333H198.118M173.882 55.3333V79.6667M198.118 55.3333H222.353M198.118 55.3333V79.6667M222.353 55.3333H246.588M222.353 55.3333V79.6667M246.588 55.3333H270.824M246.588 55.3333V79.6667M270.824 55.3333H295.059M270.824 55.3333V79.6667M295.059 55.3333H319.294M295.059 55.3333V79.6667M319.294 55.3333H343.529M319.294 55.3333V79.6667M343.529 55.3333H367.765M343.529 55.3333V79.6667M367.765 55.3333H392M367.765 55.3333V79.6667M392 55.3333V79.6667M4.2353 79.6667H-20M4.2353 79.6667H28.4706M4.2353 79.6667V104M-20 79.6667V104M28.4706 79.6667H52.7059M28.4706 79.6667V104M52.7059 79.6667H76.9412M52.7059 79.6667V104M76.9412 79.6667H101.176M76.9412 79.6667V104M101.176 79.6667H125.412M101.176 79.6667V104M125.412 79.6667H149.647M125.412 79.6667V104M149.647 79.6667H173.882M149.647 79.6667V104M173.882 79.6667H198.118M173.882 79.6667V104M198.118 79.6667H222.353M198.118 79.6667V104M222.353 79.6667H246.588M222.353 79.6667V104M246.588 79.6667H270.824M246.588 79.6667V104M270.824 79.6667H295.059M270.824 79.6667V104M295.059 79.6667H319.294M295.059 79.6667V104M319.294 79.6667H343.529M319.294 79.6667V104M343.529 79.6667H367.765M343.529 79.6667V104M367.765 79.6667H392M367.765 79.6667V104M392 79.6667V104M4.2353 104H-20M4.2353 104H28.4706M4.2353 104V128.333M-20 104V128.333M28.4706 104H52.7059M28.4706 104V128.333M52.7059 104H76.9412M52.7059 104V128.333M76.9412 104H101.176M76.9412 104V128.333M101.176 104H125.412M101.176 104V128.333M125.412 104H149.647M125.412 104V128.333M149.647 104H173.882M149.647 104V128.333M173.882 104H198.118M173.882 104V128.333M198.118 104H222.353M198.118 104V128.333M222.353 104H246.588M222.353 104V128.333M246.588 104H270.824M246.588 104V128.333M270.824 104H295.059M270.824 104V128.333M295.059 104H319.294M295.059 104V128.333M319.294 104H343.529M319.294 104V128.333M343.529 104H367.765M343.529 104V128.333M367.765 104H392M367.765 104V128.333M392 104V128.333M4.2353 128.333H-20M4.2353 128.333H28.4706M4.2353 128.333V152.667M-20 128.333V152.667M28.4706 128.333H52.7059M28.4706 128.333V152.667M52.7059 128.333H76.9412M52.7059 128.333V152.667M76.9412 128.333H101.176M76.9412 128.333V152.667M101.176 128.333H125.412M101.176 128.333V152.667M125.412 128.333H149.647M125.412 128.333V152.667M149.647 128.333H173.882M149.647 128.333V152.667M173.882 128.333H198.118M173.882 128.333V152.667M198.118 128.333H222.353M198.118 128.333V152.667M222.353 128.333H246.588M222.353 128.333V152.667M246.588 128.333H270.824M246.588 128.333V152.667M270.824 128.333H295.059M270.824 128.333V152.667M295.059 128.333H319.294M295.059 128.333V152.667M319.294 128.333H343.529M319.294 128.333V152.667M343.529 128.333H367.765M343.529 128.333V152.667M367.765 128.333H392M367.765 128.333V152.667M392 128.333V152.667M4.2353 152.667H-20M4.2353 152.667H28.4706M4.2353 152.667V177M-20 152.667V177M28.4706 152.667H52.7059M28.4706 152.667V177M52.7059 152.667H76.9412M52.7059 152.667V177M76.9412 152.667H101.176M76.9412 152.667V177M101.176 152.667H125.412M101.176 152.667V177M125.412 152.667H149.647M125.412 152.667V177M149.647 152.667H173.882M149.647 152.667V177M173.882 152.667H198.118M173.882 152.667V177M198.118 152.667H222.353M198.118 152.667V177M222.353 152.667H246.588M222.353 152.667V177M246.588 152.667H270.824M246.588 152.667V177M270.824 152.667H295.059M270.824 152.667V177M295.059 152.667H319.294M295.059 152.667V177M319.294 152.667H343.529M319.294 152.667V177M343.529 152.667H367.765M343.529 152.667V177M367.765 152.667H392M367.765 152.667V177M392 152.667V177M4.2353 177H-20M4.2353 177H28.4706M4.2353 177V201.333M-20 177V201.333M28.4706 177H52.7059M28.4706 177V201.333M52.7059 177H76.9412M52.7059 177V201.333M76.9412 177H101.176M76.9412 177V201.333M101.176 177H125.412M101.176 177V201.333M125.412 177H149.647M125.412 177V201.333M149.647 177H173.882M149.647 177V201.333M173.882 177H198.118M173.882 177V201.333M198.118 177H222.353M198.118 177V201.333M222.353 177H246.588M222.353 177V201.333M246.588 177H270.824M246.588 177V201.333M270.824 177H295.059M270.824 177V201.333M295.059 177H319.294M295.059 177V201.333M319.294 177H343.529M319.294 177V201.333M343.529 177H367.765M343.529 177V201.333M367.765 177H392M367.765 177V201.333M392 177V201.333M4.2353 201.333H-20M4.2353 201.333H28.4706M4.2353 201.333V225.667M-20 201.333V225.667M28.4706 201.333H52.7059M28.4706 201.333V225.667M52.7059 201.333H76.9412M52.7059 201.333V225.667M76.9412 201.333H101.176M76.9412 201.333V225.667M101.176 201.333H125.412M101.176 201.333V225.667M125.412 201.333H149.647M125.412 201.333V225.667M149.647 201.333H173.882M149.647 201.333V225.667M173.882 201.333H198.118M173.882 201.333V225.667M198.118 201.333H222.353M198.118 201.333V225.667M222.353 201.333H246.588M222.353 201.333V225.667M246.588 201.333H270.824M246.588 201.333V225.667M270.824 201.333H295.059M270.824 201.333V225.667M295.059 201.333H319.294M295.059 201.333V225.667M319.294 201.333H343.529M319.294 201.333V225.667M343.529 201.333H367.765M343.529 201.333V225.667M367.765 201.333H392M367.765 201.333V225.667M392 201.333V225.667M4.2353 225.667H-20M4.2353 225.667H28.4706M4.2353 225.667V250M-20 225.667V250H4.2353M28.4706 225.667H52.7059M28.4706 225.667V250M52.7059 225.667H76.9412M52.7059 225.667V250M76.9412 225.667H101.176M76.9412 225.667V250M101.176 225.667H125.412M101.176 225.667V250M125.412 225.667H149.647M125.412 225.667V250M149.647 225.667H173.882M149.647 225.667V250M173.882 225.667H198.118M173.882 225.667V250M198.118 225.667H222.353M198.118 225.667V250M222.353 225.667H246.588M222.353 225.667V250M246.588 225.667H270.824M246.588 225.667V250M270.824 225.667H295.059M270.824 225.667V250M295.059 225.667H319.294M295.059 225.667V250M319.294 225.667H343.529M319.294 225.667V250M343.529 225.667H367.765M343.529 225.667V250M367.765 225.667H392M367.765 225.667V250M392 225.667V250H367.765M4.2353 250H28.4706M28.4706 250H52.7059M52.7059 250H76.9412M76.9412 250H101.176M101.176 250H125.412M125.412 250H149.647M149.647 250H173.882M173.882 250H198.118M198.118 250H222.353M222.353 250H246.588M246.588 250H270.824M270.824 250H295.059M295.059 250H319.294M319.294 250H343.529M343.529 250H367.765" stroke="url(#paint0_radial_2_930)" stroke-opacity="0.08"/>
<rect y="61" width="342" height="194" fill="url(#paint1_linear_2_930)"/>
<g clip-path="url(#clip1_2_930)">
<path d="M279.938 37H62.0625C57.7133 37 54.1875 40.5258 54.1875 44.875V73.75C54.1875 78.0992 57.7133 81.625 62.0625 81.625H279.938C284.287 81.625 287.813 78.0992 287.813 73.75V44.875C287.813 40.5258 284.287 37 279.938 37Z" fill="#202020"/>
<path d="M83.0625 47.5H69.9375C67.038 47.5 64.6875 49.8505 64.6875 52.75V65.875C64.6875 68.7745 67.038 71.125 69.9375 71.125H83.0625C85.962 71.125 88.3125 68.7745 88.3125 65.875V52.75C88.3125 49.8505 85.962 47.5 83.0625 47.5Z" fill="#2B2B2B"/>
<path fill-rule="evenodd" clip-rule="evenodd" d="M72.3751 55.8127V61.3751C72.3751 61.6193 72.1771 61.8171 71.9331 61.8171C71.689 61.8171 71.4911 61.6193 71.4911 61.3751V54.7457C71.4911 54.6285 71.5377 54.5161 71.6206 54.4332C71.7034 54.3503 71.8159 54.3037 71.9331 54.3037H78.5625C78.8066 54.3037 79.0045 54.5016 79.0045 54.7457C79.0045 54.9898 78.8066 55.1876 78.5625 55.1876H73.0001L81.0849 63.2725C81.2575 63.4451 81.2575 63.7249 81.0849 63.8975C80.9123 64.0701 80.6325 64.0701 80.4599 63.8975L72.3751 55.8127Z" fill="white"/>
<path d="M102.401 60.748V63.0962H101.571V60.748H99.3814V59.9175H101.571V57.6257H102.401V59.9175H104.591V60.748H102.401ZM110.851 63.9524H110.164V63.2654C108.78 63.1629 107.867 62.3681 107.861 61.2249H108.738C108.795 61.9118 109.318 62.3681 110.164 62.4707V59.8047L109.753 59.6919C108.656 59.4048 108.041 58.7332 108.041 57.7796C108.041 56.6567 108.856 55.8928 110.164 55.7647V55.0469H110.851V55.7595C112.132 55.8672 112.973 56.6618 113.009 57.7693H112.138C112.117 57.1336 111.609 56.6465 110.851 56.5542V59.0613L111.286 59.1689C112.537 59.5022 113.137 60.1226 113.137 61.1582C113.137 62.3733 112.291 63.1423 110.851 63.2602V63.9524ZM112.25 61.23C112.25 60.5532 111.819 60.1482 110.851 59.9431V62.4861C111.743 62.4399 112.25 61.9785 112.25 61.23ZM108.923 57.7282C108.923 58.3384 109.353 58.7434 110.164 58.9126V56.5542C109.446 56.5952 108.923 57.0823 108.923 57.7282ZM114.234 57.9846C114.234 56.6926 115.28 55.7288 116.675 55.7288C117.997 55.7288 119.038 56.6259 119.038 57.759C119.038 58.5845 118.664 59.1997 117.428 60.4763L115.557 62.4092V62.4297H119.161V63.25H114.28V62.6142L116.885 59.8714C117.88 58.8254 118.115 58.4306 118.115 57.8155C118.115 57.1028 117.464 56.5337 116.649 56.5337C115.782 56.5337 115.126 57.1592 115.126 57.9846V57.9898H114.234V57.9846ZM120.181 57.9846C120.181 56.6926 121.227 55.7288 122.622 55.7288C123.945 55.7288 124.986 56.6259 124.986 57.759C124.986 58.5845 124.611 59.1997 123.376 60.4763L121.504 62.4092V62.4297H125.108V63.25H120.228V62.6142L122.833 59.8714C123.827 58.8254 124.063 58.4306 124.063 57.8155C124.063 57.1028 123.411 56.5337 122.596 56.5337C121.73 56.5337 121.074 57.1592 121.074 57.9846V57.9898H120.181V57.9846ZM126.908 63.3013C126.58 63.3013 126.324 63.0449 126.324 62.7168C126.324 62.3887 126.58 62.1323 126.908 62.1323C127.236 62.1323 127.493 62.3887 127.493 62.7168C127.493 63.0449 127.236 63.3013 126.908 63.3013ZM130.112 63.25V56.8311H130.092L128.134 58.241V57.2668L130.102 55.8518H131.005V63.25H130.112ZM135.424 63.373C134.009 63.373 132.963 62.4912 132.886 61.23H133.794C133.876 62.0195 134.547 62.563 135.434 62.563C136.439 62.563 137.136 61.8657 137.136 60.8711C137.136 59.8765 136.434 59.1638 135.45 59.1638C134.757 59.1638 134.168 59.4766 133.865 59.9944H132.999L133.404 55.8518H137.639V56.6721H134.163L133.937 59.0818H133.958C134.291 58.6358 134.906 58.3691 135.614 58.3691C137.034 58.3691 138.059 59.4099 138.059 60.8454C138.059 62.3323 136.967 63.373 135.424 63.373ZM142.217 56.6721V59.5073H143.986C144.934 59.5073 145.473 58.9946 145.473 58.0872C145.473 57.2002 144.899 56.6721 143.945 56.6721H142.217ZM142.217 60.3225V63.25H141.294V55.8518H144.068C145.493 55.8518 146.427 56.7234 146.427 58.0564C146.427 59.0869 145.868 59.8867 144.94 60.1789L146.652 63.25H145.57L143.986 60.3225H142.217ZM149.59 58.5999C148.754 58.5999 148.17 59.2407 148.113 60.1277H151.01C150.99 59.2356 150.43 58.5999 149.59 58.5999ZM150.99 61.7222H151.866C151.712 62.6553 150.81 63.3423 149.646 63.3423C148.118 63.3423 147.191 62.281 147.191 60.6045C147.191 58.9485 148.134 57.8257 149.605 57.8257C151.046 57.8257 151.933 58.8716 151.933 60.4866V60.825H148.108V60.8762C148.108 61.8965 148.708 62.5681 149.667 62.5681C150.343 62.5681 150.841 62.2246 150.99 61.7222ZM157.265 59.6663H156.393C156.265 59.0869 155.814 58.6101 155.029 58.6101C154.107 58.6101 153.481 59.3741 153.481 60.584C153.481 61.8247 154.117 62.5579 155.04 62.5579C155.768 62.5579 156.245 62.1734 156.398 61.5325H157.275C157.137 62.5938 156.245 63.3423 155.035 63.3423C153.558 63.3423 152.574 62.3015 152.574 60.584C152.574 58.9023 153.553 57.8257 155.024 57.8257C156.358 57.8257 157.152 58.7075 157.265 59.6663ZM160.234 58.5999C159.397 58.5999 158.813 59.2407 158.757 60.1277H161.654C161.633 59.2356 161.074 58.5999 160.234 58.5999ZM161.633 61.7222H162.509C162.356 62.6553 161.453 63.3423 160.29 63.3423C158.762 63.3423 157.834 62.281 157.834 60.6045C157.834 58.9485 158.777 57.8257 160.249 57.8257C161.689 57.8257 162.576 58.8716 162.576 60.4866V60.825H158.752V60.8762C158.752 61.8965 159.352 62.5681 160.31 62.5681C160.987 62.5681 161.484 62.2246 161.633 61.7222ZM163.525 63.25V57.918H164.417V63.25H163.525ZM163.971 57.0207C163.668 57.0207 163.417 56.7695 163.417 56.4671C163.417 56.1594 163.668 55.9133 163.971 55.9133C164.279 55.9133 164.53 56.1594 164.53 56.4671C164.53 56.7695 164.279 57.0207 163.971 57.0207ZM169.995 57.918L168.036 63.25H167.124L165.161 57.918H166.098L167.57 62.3015H167.591L169.067 57.918H169.995ZM172.681 58.5999C171.846 58.5999 171.261 59.2407 171.205 60.1277H174.102C174.081 59.2356 173.523 58.5999 172.681 58.5999ZM174.081 61.7222H174.958C174.804 62.6553 173.902 63.3423 172.738 63.3423C171.21 63.3423 170.282 62.281 170.282 60.6045C170.282 58.9485 171.226 57.8257 172.697 57.8257C174.137 57.8257 175.025 58.8716 175.025 60.4866V60.825H171.2V60.8762C171.2 61.8965 171.8 62.5681 172.759 62.5681C173.435 62.5681 173.933 62.2246 174.081 61.7222ZM177.947 63.3423C176.589 63.3423 175.665 62.2554 175.665 60.584C175.665 58.9126 176.583 57.8257 177.927 57.8257C178.691 57.8257 179.305 58.2 179.624 58.7844H179.644V55.8518H180.536V63.25H179.685V62.3477H179.67C179.326 62.9629 178.716 63.3423 177.947 63.3423ZM178.116 58.6101C177.173 58.6101 176.578 59.3792 176.578 60.584C176.578 61.7939 177.173 62.5579 178.116 62.5579C179.034 62.5579 179.649 61.7786 179.649 60.584C179.649 59.3945 179.034 58.6101 178.116 58.6101ZM184.181 63.25V58.6511H183.438V57.918H184.181V57.3233C184.181 56.2978 184.658 55.8108 185.642 55.8108C185.842 55.8108 186.058 55.8313 186.186 55.8518V56.5747C186.079 56.5593 185.93 56.5439 185.781 56.5439C185.299 56.5439 185.069 56.8003 185.069 57.3284V57.918H186.161V58.6511H185.073V63.25H184.181ZM187.083 63.25V57.918H187.924V58.7895H187.944C188.119 58.2 188.611 57.8257 189.236 57.8257C189.39 57.8257 189.524 57.8513 189.595 57.8616V58.728C189.524 58.7024 189.334 58.6767 189.118 58.6767C188.427 58.6767 187.975 59.1741 187.975 59.9277V63.25H187.083ZM192.277 63.3423C190.8 63.3423 189.805 62.281 189.805 60.584C189.805 58.8819 190.8 57.8257 192.277 57.8257C193.748 57.8257 194.743 58.8819 194.743 60.584C194.743 62.281 193.748 63.3423 192.277 63.3423ZM192.277 62.5579C193.22 62.5579 193.835 61.8401 193.835 60.584C193.835 59.3279 193.22 58.6101 192.277 58.6101C191.333 58.6101 190.713 59.3279 190.713 60.584C190.713 61.8401 191.333 62.5579 192.277 62.5579ZM195.645 63.25V57.918H196.486V58.7691H196.506C196.758 58.2051 197.301 57.8257 198.019 57.8257C198.747 57.8257 199.286 58.1948 199.516 58.8408H199.536C199.834 58.2051 200.46 57.8257 201.208 57.8257C202.264 57.8257 202.946 58.5127 202.946 59.5688V63.25H202.054V59.7739C202.054 59.0459 201.649 58.6152 200.947 58.6152C200.239 58.6152 199.742 59.1382 199.742 59.8611V63.25H198.85V59.6765C198.85 59.0356 198.419 58.6152 197.757 58.6152C197.05 58.6152 196.537 59.1689 196.537 59.9072V63.25H195.645ZM207.289 63.25H206.376V55.8518H207.273L211.323 61.6606H211.37V55.8518H212.282V63.25H211.385L207.335 57.4617H207.289V63.25ZM215.748 62.5066C216.676 62.5066 217.296 61.7375 217.296 60.5634C217.296 59.3894 216.676 58.6101 215.748 58.6101C214.83 58.6101 214.23 59.3689 214.23 60.5634C214.23 61.7581 214.83 62.5066 215.748 62.5066ZM215.779 65.2598C214.604 65.2598 213.677 64.5984 213.528 63.6909H214.446C214.62 64.178 215.148 64.5009 215.815 64.5009C216.737 64.5009 217.296 63.9678 217.296 63.1731V62.3323H217.276C216.948 62.9116 216.317 63.291 215.569 63.291C214.21 63.291 213.318 62.2195 213.318 60.5634C213.318 58.8921 214.21 57.8257 215.589 57.8257C216.343 57.8257 216.968 58.1948 217.322 58.8152H217.337V57.918H218.188V63.1423C218.188 64.4138 217.25 65.2598 215.779 65.2598ZM223.731 57.918V63.25H222.884V62.3836H222.864C222.546 62.9988 221.993 63.3423 221.172 63.3423C220.009 63.3423 219.327 62.5886 219.327 61.3786V57.918H220.219V61.2197C220.219 62.0862 220.624 62.5527 221.449 62.5527C222.315 62.5527 222.838 61.958 222.838 61.0505V57.918H223.731ZM225.33 65.2444C225.223 65.2444 225.043 65.2341 224.946 65.2136V64.4651C225.043 64.4856 225.181 64.4907 225.294 64.4907C225.792 64.4907 226.069 64.2497 226.274 63.6294L226.397 63.2551L224.428 57.918H225.381L226.858 62.3579H226.874L228.35 57.918H229.288L227.191 63.6243C226.735 64.8702 226.294 65.2444 225.33 65.2444ZM231.98 58.5999C231.144 58.5999 230.56 59.2407 230.503 60.1277H233.4C233.38 59.2356 232.821 58.5999 231.98 58.5999ZM233.38 61.7222H234.257C234.102 62.6553 233.2 63.3423 232.036 63.3423C230.509 63.3423 229.581 62.281 229.581 60.6045C229.581 58.9485 230.524 57.8257 231.995 57.8257C233.436 57.8257 234.323 58.8716 234.323 60.4866V60.825H230.498V60.8762C230.498 61.8965 231.098 62.5681 232.057 62.5681C232.733 62.5681 233.231 62.2246 233.38 61.7222ZM235.225 63.25V57.918H236.066V58.7691H236.087C236.384 58.1948 236.953 57.8257 237.779 57.8257C238.947 57.8257 239.624 58.5793 239.624 59.7893V63.25H238.732V59.9483C238.732 59.0869 238.327 58.6152 237.507 58.6152C236.666 58.6152 236.118 59.21 236.118 60.1123V63.25H235.225ZM242.701 61.2146H243.628C243.716 62.0144 244.474 62.5425 245.53 62.5425C246.53 62.5425 247.258 62.0144 247.258 61.2864C247.258 60.6609 246.822 60.2764 245.828 60.02L244.879 59.7739C243.516 59.4253 242.911 58.8254 242.911 57.8206C242.911 56.5901 243.987 55.7288 245.525 55.7288C246.997 55.7288 248.063 56.6003 248.104 57.8411H247.181C247.099 57.0464 246.458 56.5593 245.495 56.5593C244.536 56.5593 243.869 57.0566 243.869 57.7796C243.869 58.3384 244.279 58.6716 245.284 58.9331L246.059 59.1382C247.592 59.5227 248.212 60.1123 248.212 61.1736C248.212 62.5271 247.145 63.373 245.444 63.373C243.875 63.373 242.788 62.522 242.701 61.2146ZM249.196 63.25V55.8518H250.089V58.7691H250.109C250.406 58.1743 250.991 57.8257 251.801 57.8257C252.97 57.8257 253.677 58.6152 253.677 59.8047V63.25H252.785V59.9688C252.785 59.1228 252.36 58.6152 251.524 58.6152C250.637 58.6152 250.089 59.2202 250.089 60.143V63.25H249.196ZM256.569 62.5835C257.41 62.5835 258.055 61.9939 258.055 61.2249V60.7891L256.63 60.8762C255.913 60.9223 255.503 61.2402 255.503 61.7427C255.503 62.2503 255.928 62.5835 256.569 62.5835ZM256.369 63.3423C255.308 63.3423 254.595 62.7014 254.595 61.7427C254.595 60.8301 255.297 60.2559 256.528 60.1841L258.055 60.0969V59.6509C258.055 58.9997 257.625 58.6101 256.887 58.6101C256.2 58.6101 255.769 58.9331 255.656 59.4561H254.795C254.856 58.5332 255.646 57.8257 256.907 57.8257C258.158 57.8257 258.948 58.5024 258.948 59.5637V63.25H258.102V62.3323H258.081C257.763 62.9424 257.087 63.3423 256.369 63.3423ZM260.081 63.25V57.918H260.921V58.7691H260.942C261.24 58.1948 261.809 57.8257 262.634 57.8257C263.803 57.8257 264.48 58.5793 264.48 59.7893V63.25H263.588V59.9483C263.588 59.0869 263.183 58.6152 262.362 58.6152C261.522 58.6152 260.973 59.21 260.973 60.1123V63.25H260.081ZM267.756 58.5999C266.92 58.5999 266.335 59.2407 266.28 60.1277H269.176C269.155 59.2356 268.597 58.5999 267.756 58.5999ZM269.155 61.7222H270.032C269.878 62.6553 268.976 63.3423 267.812 63.3423C266.284 63.3423 265.356 62.281 265.356 60.6045C265.356 58.9485 266.3 57.8257 267.771 57.8257C269.212 57.8257 270.099 58.8716 270.099 60.4866V60.825H266.274V60.8762C266.274 61.8965 266.874 62.5681 267.833 62.5681C268.51 62.5681 269.007 62.2246 269.155 61.7222Z" fill="white"/>
<path d="M279.937 37.3281H62.0625C57.8945 37.3281 54.5156 40.707 54.5156 44.875V73.75C54.5156 77.918 57.8945 81.2969 62.0625 81.2969H279.937C284.105 81.2969 287.484 77.918 287.484 73.75V44.875C287.484 40.707 284.105 37.3281 279.937 37.3281Z" stroke="white" stroke-opacity="0.04"/>
<path d="M279.937 37.3281H62.0625C57.8945 37.3281 54.5156 40.707 54.5156 44.875V73.75C54.5156 77.918 57.8945 81.2969 62.0625 81.2969H279.937C284.105 81.2969 287.484 77.918 287.484 73.75V44.875C287.484 40.707 284.105 37.3281 279.937 37.3281Z" stroke="url(#paint2_linear_2_930)" stroke-opacity="0.12"/>
<path d="M307.5 89.5H34.5C28.701 89.5 24 94.201 24 100V128.875C24 134.674 28.701 139.375 34.5 139.375H307.5C313.299 139.375 318 134.674 318 128.875V100C318 94.201 313.299 89.5 307.5 89.5Z" fill="#202020"/>
<path d="M63.375 100H45C42.1005 100 39.75 102.351 39.75 105.25V123.625C39.75 126.524 42.1005 128.875 45 128.875H63.375C66.2745 128.875 68.625 126.524 68.625 123.625V105.25C68.625 102.351 66.2745 100 63.375 100Z" fill="#2B2B2B"/>
<path fill-rule="evenodd" clip-rule="evenodd" d="M50.0626 110.938V116.5C50.0626 116.744 49.8646 116.942 49.6206 116.942C49.3765 116.942 49.1786 116.744 49.1786 116.5V109.871C49.1786 109.753 49.2252 109.641 49.3081 109.558C49.391 109.475 49.5034 109.428 49.6206 109.428H56.25C56.4941 109.428 56.692 109.626 56.692 109.871C56.692 110.115 56.4941 110.312 56.25 110.312H50.6876L58.7724 118.397C58.945 118.57 58.945 118.849 58.7724 119.022C58.5998 119.195 58.32 119.195 58.1474 119.022L50.0626 110.938Z" fill="white"/>
<path d="M83.611 115.904V118.839H82.5729V115.904H79.8364V114.865H82.5729V112.001H83.611V114.865H86.3476V115.904H83.611ZM94.1728 119.909H93.3138V119.05C91.5832 118.922 90.4427 117.929 90.4361 116.5H91.532C91.6029 117.358 92.2566 117.929 93.3138 118.057V114.725L92.8012 114.584C91.4297 114.225 90.6606 113.385 90.6606 112.193C90.6606 110.789 91.6797 109.835 93.3138 109.674V108.777H94.1728V109.668C95.7747 109.803 96.826 110.796 96.8706 112.181H95.7813C95.7557 111.386 95.1211 110.777 94.1728 110.661V113.795L94.7175 113.93C96.2813 114.346 97.0308 115.122 97.0308 116.417C97.0308 117.935 95.9735 118.897 94.1728 119.044V119.909ZM95.9224 116.506C95.9224 115.66 95.3836 115.154 94.1728 114.898V118.076C95.2878 118.019 95.9224 117.442 95.9224 116.506ZM91.7631 112.129C91.7631 112.892 92.3012 113.398 93.3138 113.609V110.661C92.4167 110.713 91.7631 111.322 91.7631 112.129ZM100.344 114.763V113.789H101.453C102.517 113.789 103.26 113.103 103.26 112.168C103.26 111.251 102.638 110.629 101.466 110.629C100.402 110.629 99.6971 111.238 99.5941 112.206H98.4857C98.6136 110.636 99.7805 109.63 101.517 109.63C103.171 109.63 104.42 110.623 104.42 112.014C104.42 113.174 103.677 114.007 102.523 114.212V114.237C103.92 114.321 104.817 115.186 104.817 116.487C104.817 118.076 103.369 119.185 101.556 119.185C99.6197 119.185 98.3833 118.115 98.3 116.583H99.4084C99.5107 117.532 100.3 118.185 101.542 118.185C102.766 118.185 103.644 117.493 103.644 116.526C103.644 115.436 102.824 114.763 101.504 114.763H100.344ZM109.463 119.185C107.304 119.185 106.054 117.326 106.054 114.404C106.054 111.507 107.317 109.63 109.463 109.63C111.611 109.63 112.86 111.495 112.86 114.397C112.86 117.32 111.617 119.185 109.463 119.185ZM109.463 118.179C110.906 118.179 111.701 116.711 111.701 114.404C111.701 112.129 110.893 110.642 109.463 110.642C108.035 110.642 107.214 112.142 107.214 114.397C107.214 116.705 108.015 118.179 109.463 118.179ZM117.423 119.185C115.263 119.185 114.014 117.326 114.014 114.404C114.014 111.507 115.276 109.63 117.423 109.63C119.57 109.63 120.82 111.495 120.82 114.397C120.82 117.32 119.577 119.185 117.423 119.185ZM117.423 118.179C118.866 118.179 119.66 116.711 119.66 114.404C119.66 112.129 118.852 110.642 117.423 110.642C115.994 110.642 115.174 112.142 115.174 114.397C115.174 116.705 115.975 118.179 117.423 118.179ZM122.806 119.096C122.397 119.096 122.076 118.775 122.076 118.365C122.076 117.954 122.397 117.634 122.806 117.634C123.217 117.634 123.537 117.954 123.537 118.365C123.537 118.775 123.217 119.096 122.806 119.096ZM128.529 119.185C126.761 119.185 125.454 118.083 125.357 116.506H126.492C126.594 117.493 127.434 118.172 128.543 118.172C129.799 118.172 130.67 117.301 130.67 116.058C130.67 114.814 129.792 113.924 128.562 113.924C127.697 113.924 126.96 114.314 126.581 114.962H125.498L126.005 109.783H131.298V110.809H126.953L126.671 113.821H126.697C127.113 113.263 127.882 112.93 128.767 112.93C130.542 112.93 131.824 114.231 131.824 116.026C131.824 117.884 130.459 119.185 128.529 119.185ZM132.971 112.45C132.971 110.835 134.278 109.63 136.021 109.63C137.675 109.63 138.976 110.751 138.976 112.168C138.976 113.199 138.508 113.968 136.964 115.564L134.624 117.98V118.006H139.13V119.031H133.029V118.237L136.284 114.808C137.527 113.5 137.822 113.007 137.822 112.238C137.822 111.347 137.008 110.636 135.989 110.636C134.906 110.636 134.086 111.417 134.086 112.45V112.456H132.971V112.45ZM144.455 110.809V114.353H146.666C147.852 114.353 148.525 113.712 148.525 112.578C148.525 111.469 147.807 110.809 146.615 110.809H144.455ZM144.455 115.372V119.031H143.302V109.783H146.769C148.55 109.783 149.716 110.873 149.716 112.539C149.716 113.827 149.018 114.827 147.858 115.192L149.999 119.031H148.647L146.666 115.372H144.455ZM153.671 113.219C152.626 113.219 151.896 114.019 151.825 115.129H155.446C155.421 114.014 154.722 113.219 153.671 113.219ZM155.421 117.122H156.517C156.324 118.288 155.196 119.147 153.741 119.147C151.832 119.147 150.671 117.82 150.671 115.724C150.671 113.655 151.851 112.251 153.69 112.251C155.491 112.251 156.6 113.558 156.6 115.577V116H151.818V116.064C151.818 117.339 152.569 118.179 153.767 118.179C154.613 118.179 155.235 117.75 155.421 117.122ZM163.265 114.552H162.175C162.015 113.827 161.451 113.231 160.47 113.231C159.317 113.231 158.535 114.186 158.535 115.699C158.535 117.25 159.33 118.166 160.484 118.166C161.393 118.166 161.99 117.685 162.181 116.885H163.277C163.105 118.211 161.99 119.147 160.477 119.147C158.631 119.147 157.401 117.845 157.401 115.699C157.401 113.597 158.625 112.251 160.464 112.251C162.13 112.251 163.124 113.353 163.265 114.552ZM166.975 113.219C165.93 113.219 165.2 114.019 165.13 115.129H168.75C168.725 114.014 168.027 113.219 166.975 113.219ZM168.725 117.122H169.821C169.628 118.288 168.5 119.147 167.046 119.147C165.136 119.147 163.976 117.82 163.976 115.724C163.976 113.655 165.155 112.251 166.994 112.251C168.796 112.251 169.904 113.558 169.904 115.577V116H165.123V116.064C165.123 117.339 165.873 118.179 167.072 118.179C167.918 118.179 168.539 117.75 168.725 117.122ZM171.09 119.031V112.366H172.205V119.031H171.09ZM171.647 111.245C171.269 111.245 170.955 110.931 170.955 110.553C170.955 110.168 171.269 109.86 171.647 109.86C172.032 109.86 172.346 110.168 172.346 110.553C172.346 110.931 172.032 111.245 171.647 111.245ZM179.178 112.366L176.729 119.031H175.588L173.134 112.366H174.307L176.146 117.845H176.172L178.017 112.366H179.178ZM182.536 113.219C181.491 113.219 180.76 114.019 180.69 115.129H184.311C184.285 114.014 183.587 113.219 182.536 113.219ZM184.285 117.122H185.381C185.189 118.288 184.061 119.147 182.606 119.147C180.696 119.147 179.536 117.82 179.536 115.724C179.536 113.655 180.716 112.251 182.555 112.251C184.356 112.251 185.464 113.558 185.464 115.577V116H180.684V116.064C180.684 117.339 181.433 118.179 182.632 118.179C183.478 118.179 184.099 117.75 184.285 117.122ZM189.117 119.147C187.419 119.147 186.266 117.788 186.266 115.699C186.266 113.609 187.413 112.251 189.091 112.251C190.046 112.251 190.815 112.719 191.213 113.449H191.239V109.783H192.354V119.031H191.29V117.903H191.271C190.841 118.672 190.078 119.147 189.117 119.147ZM189.329 113.231C188.15 113.231 187.406 114.193 187.406 115.699C187.406 117.211 188.15 118.166 189.329 118.166C190.476 118.166 191.245 117.192 191.245 115.699C191.245 114.212 190.476 113.231 189.329 113.231ZM196.91 119.031V113.282H195.981V112.366H196.91V111.623C196.91 110.341 197.507 109.732 198.737 109.732C198.986 109.732 199.256 109.758 199.416 109.783V110.687C199.282 110.668 199.095 110.649 198.91 110.649C198.307 110.649 198.019 110.969 198.019 111.629V112.366H199.384V113.282H198.026V119.031H196.91ZM200.538 119.031V112.366H201.588V113.456H201.614C201.832 112.719 202.447 112.251 203.229 112.251C203.421 112.251 203.588 112.283 203.678 112.296V113.379C203.588 113.347 203.351 113.315 203.082 113.315C202.216 113.315 201.653 113.936 201.653 114.878V119.031H200.538ZM207.029 119.147C205.184 119.147 203.94 117.82 203.94 115.699C203.94 113.571 205.184 112.251 207.029 112.251C208.869 112.251 210.112 113.571 210.112 115.699C210.112 117.82 208.869 119.147 207.029 119.147ZM207.029 118.166C208.209 118.166 208.978 117.269 208.978 115.699C208.978 114.128 208.209 113.231 207.029 113.231C205.85 113.231 205.075 114.128 205.075 115.699C205.075 117.269 205.85 118.166 207.029 118.166ZM211.24 119.031V112.366H212.291V113.43H212.317C212.631 112.725 213.31 112.251 214.207 112.251C215.118 112.251 215.79 112.712 216.078 113.52H216.104C216.476 112.725 217.258 112.251 218.194 112.251C219.514 112.251 220.366 113.11 220.366 114.43V119.031H219.251V114.686C219.251 113.776 218.745 113.238 217.867 113.238C216.982 113.238 216.361 113.891 216.361 114.795V119.031H215.246V114.564C215.246 113.764 214.708 113.238 213.881 113.238C212.996 113.238 212.356 113.93 212.356 114.853V119.031H211.24ZM228.461 119.185C225.91 119.185 224.295 117.333 224.295 114.404C224.295 111.501 225.929 109.63 228.461 109.63C230.473 109.63 232.004 110.854 232.299 112.7H231.133C230.838 111.488 229.78 110.694 228.461 110.694C226.653 110.694 225.481 112.154 225.481 114.404C225.481 116.673 226.64 118.121 228.466 118.121C229.826 118.121 230.799 117.467 231.133 116.339H232.299C231.876 118.166 230.505 119.185 228.461 119.185ZM236.254 119.147C234.407 119.147 233.165 117.82 233.165 115.699C233.165 113.571 234.407 112.251 236.254 112.251C238.092 112.251 239.336 113.571 239.336 115.699C239.336 117.82 238.092 119.147 236.254 119.147ZM236.254 118.166C237.432 118.166 238.201 117.269 238.201 115.699C238.201 114.128 237.432 113.231 236.254 113.231C235.074 113.231 234.299 114.128 234.299 115.699C234.299 117.269 235.074 118.166 236.254 118.166ZM243.226 119.147C241.38 119.147 240.137 117.82 240.137 115.699C240.137 113.571 241.38 112.251 243.226 112.251C245.065 112.251 246.309 113.571 246.309 115.699C246.309 117.82 245.065 119.147 243.226 119.147ZM243.226 118.166C244.405 118.166 245.174 117.269 245.174 115.699C245.174 114.128 244.405 113.231 243.226 113.231C242.047 113.231 241.271 114.128 241.271 115.699C241.271 117.269 242.047 118.166 243.226 118.166ZM250.673 112.251C252.371 112.251 253.525 113.609 253.525 115.699C253.525 117.788 252.378 119.147 250.698 119.147C249.743 119.147 248.974 118.679 248.577 117.948H248.552V121.255H247.437V112.366H248.494V113.494H248.52C248.93 112.744 249.705 112.251 250.673 112.251ZM250.455 118.166C251.641 118.166 252.384 117.211 252.384 115.699C252.384 114.193 251.641 113.231 250.455 113.231C249.314 113.231 248.545 114.218 248.545 115.699C248.545 117.186 249.314 118.166 250.455 118.166ZM257.325 113.219C256.28 113.219 255.55 114.019 255.479 115.129H259.1C259.075 114.014 258.376 113.219 257.325 113.219ZM259.075 117.122H260.171C259.978 118.288 258.85 119.147 257.395 119.147C255.486 119.147 254.326 117.82 254.326 115.724C254.326 113.655 255.505 112.251 257.344 112.251C259.145 112.251 260.254 113.558 260.254 115.577V116H255.473V116.064C255.473 117.339 256.223 118.179 257.421 118.179C258.267 118.179 258.889 117.75 259.075 117.122ZM261.382 119.031V112.366H262.433V113.456H262.458C262.676 112.719 263.292 112.251 264.073 112.251C264.266 112.251 264.432 112.283 264.522 112.296V113.379C264.432 113.347 264.195 113.315 263.926 113.315C263.061 113.315 262.497 113.936 262.497 114.878V119.031H261.382ZM269.451 119.031H268.297V109.783H269.451V114.295H269.514L273.597 109.783H275.052L271.251 113.878L275.391 119.031H273.917L270.45 114.699L269.451 115.801V119.031ZM276.199 119.031V112.366H277.249V113.456H277.275C277.493 112.719 278.108 112.251 278.89 112.251C279.082 112.251 279.249 112.283 279.339 112.296V113.379C279.249 113.347 279.012 113.315 278.743 113.315C277.877 113.315 277.314 113.936 277.314 114.878V119.031H276.199ZM280.306 119.031V112.366H281.422V119.031H280.306ZM280.864 111.245C280.486 111.245 280.172 110.931 280.172 110.553C280.172 110.168 280.486 109.86 280.864 109.86C281.249 109.86 281.563 110.168 281.563 110.553C281.563 110.931 281.249 111.245 280.864 111.245ZM282.812 114.205C282.812 113.065 283.832 112.251 285.299 112.251C286.677 112.251 287.689 113.071 287.741 114.199H286.677C286.6 113.558 286.081 113.161 285.26 113.161C284.447 113.161 283.908 113.565 283.908 114.148C283.908 114.609 284.261 114.917 285.017 115.109L286.048 115.359C287.394 115.699 287.881 116.186 287.881 117.166C287.881 118.326 286.786 119.147 285.228 119.147C283.767 119.147 282.748 118.352 282.633 117.173H283.748C283.87 117.865 284.395 118.237 285.299 118.237C286.203 118.237 286.76 117.852 286.76 117.25C286.76 116.775 286.485 116.519 285.735 116.32L284.562 116.019C283.389 115.718 282.812 115.115 282.812 114.205ZM289.401 110.758H290.516V112.366H291.81V113.282H290.516V117.243C290.516 117.852 290.772 118.128 291.342 118.128C291.47 118.128 291.727 118.109 291.804 118.095V119.031C291.669 119.063 291.361 119.082 291.099 119.082C289.875 119.082 289.401 118.582 289.401 117.301V113.282H288.407V112.366H289.401V110.758ZM293.06 119.031V112.366H294.175V119.031H293.06ZM293.618 111.245C293.24 111.245 292.925 110.931 292.925 110.553C292.925 110.168 293.24 109.86 293.618 109.86C294.002 109.86 294.316 110.168 294.316 110.553C294.316 110.931 294.002 111.245 293.618 111.245ZM295.681 119.031V112.366H296.732V113.43H296.758C297.129 112.712 297.841 112.251 298.873 112.251C300.334 112.251 301.18 113.193 301.18 114.705V119.031H300.065V114.904C300.065 113.827 299.558 113.238 298.533 113.238C297.482 113.238 296.796 113.981 296.796 115.109V119.031H295.681Z" fill="white"/>
<path d="M307.5 89.8281H34.5C28.8822 89.8281 24.3281 94.3822 24.3281 100V128.875C24.3281 134.493 28.8822 139.047 34.5 139.047H307.5C313.118 139.047 317.672 134.493 317.672 128.875V100C317.672 94.3822 313.118 89.8281 307.5 89.8281Z" stroke="white" stroke-opacity="0.04"/>
<path d="M307.5 89.8281H34.5C28.8822 89.8281 24.3281 94.3822 24.3281 100V128.875C24.3281 134.493 28.8822 139.047 34.5 139.047H307.5C313.118 139.047 317.672 134.493 317.672 128.875V100C317.672 94.3822 313.118 89.8281 307.5 89.8281Z" stroke="url(#paint3_linear_2_930)" stroke-opacity="0.12"/>
<path d="M279.938 147.25H62.0625C57.7133 147.25 54.1875 150.776 54.1875 155.125V184C54.1875 188.349 57.7133 191.875 62.0625 191.875H279.938C284.287 191.875 287.813 188.349 287.813 184V155.125C287.813 150.776 284.287 147.25 279.938 147.25Z" fill="#202020"/>
<path d="M83.0625 157.75H69.9375C67.038 157.75 64.6875 160.101 64.6875 163V176.125C64.6875 179.024 67.038 181.375 69.9375 181.375H83.0625C85.962 181.375 88.3125 179.024 88.3125 176.125V163C88.3125 160.101 85.962 157.75 83.0625 157.75Z" fill="#2B2B2B"/>
<path fill-rule="evenodd" clip-rule="evenodd" d="M72.7032 166.063V171.625C72.7032 171.869 72.5053 172.067 72.2612 172.067C72.0171 172.067 71.8192 171.869 71.8192 171.625V164.996C71.8192 164.878 71.8658 164.766 71.9487 164.683C72.0316 164.6 72.144 164.553 72.2612 164.553H78.8906C79.1348 164.553 79.3326 164.751 79.3326 164.996C79.3326 165.24 79.1348 165.437 78.8906 165.437H73.3282L81.413 173.522C81.5856 173.695 81.5856 173.974 81.413 174.147C81.2404 174.32 80.9606 174.32 80.788 174.147L72.7032 166.063Z" fill="white"/>
<path d="M102.401 170.998V173.346H101.571V170.998H99.3814V170.168H101.571V167.876H102.401V170.168H104.591V170.998H102.401ZM110.851 174.202H110.164V173.515C108.78 173.413 107.867 172.618 107.861 171.475H108.738C108.795 172.162 109.318 172.618 110.164 172.72V170.055L109.753 169.942C108.656 169.655 108.041 168.983 108.041 168.03C108.041 166.907 108.856 166.143 110.164 166.015V165.297H110.851V166.01C112.132 166.117 112.973 166.912 113.009 168.019H112.138C112.117 167.384 111.609 166.897 110.851 166.804V169.311L111.286 169.419C112.537 169.752 113.137 170.372 113.137 171.408C113.137 172.623 112.291 173.392 110.851 173.511V174.202ZM112.25 171.48C112.25 170.803 111.819 170.398 110.851 170.193V172.736C111.743 172.69 112.25 172.228 112.25 171.48ZM108.923 167.978C108.923 168.589 109.353 168.994 110.164 169.163V166.804C109.446 166.845 108.923 167.333 108.923 167.978ZM116.823 173.623C115.408 173.623 114.362 172.741 114.286 171.48H115.193C115.275 172.27 115.946 172.813 116.834 172.813C117.838 172.813 118.536 172.116 118.536 171.121C118.536 170.126 117.833 169.414 116.849 169.414C116.157 169.414 115.567 169.727 115.265 170.244H114.398L114.803 166.102H119.038V166.922H115.562L115.337 169.331H115.357C115.691 168.886 116.305 168.619 117.013 168.619C118.433 168.619 119.459 169.66 119.459 171.095C119.459 172.583 118.367 173.623 116.823 173.623ZM123.012 173.623C121.284 173.623 120.284 172.136 120.284 169.798C120.284 167.481 121.294 165.979 123.012 165.979C124.729 165.979 125.729 167.47 125.729 169.794C125.729 172.131 124.734 173.623 123.012 173.623ZM123.012 172.818C124.165 172.818 124.801 171.644 124.801 169.798C124.801 167.978 124.155 166.789 123.012 166.789C121.868 166.789 121.212 167.989 121.212 169.794C121.212 171.639 121.853 172.818 123.012 172.818ZM127.319 173.551C126.991 173.551 126.734 173.295 126.734 172.967C126.734 172.639 126.991 172.382 127.319 172.382C127.647 172.382 127.903 172.639 127.903 172.967C127.903 173.295 127.647 173.551 127.319 173.551ZM131.84 173.623C130.112 173.623 129.113 172.136 129.113 169.798C129.113 167.481 130.123 165.979 131.84 165.979C133.558 165.979 134.558 167.47 134.558 169.794C134.558 172.131 133.563 173.623 131.84 173.623ZM131.84 172.818C132.994 172.818 133.63 171.644 133.63 169.798C133.63 167.978 132.983 166.789 131.84 166.789C130.697 166.789 130.041 167.989 130.041 169.794C130.041 171.639 130.681 172.818 131.84 172.818ZM138.208 173.623C136.48 173.623 135.48 172.136 135.48 169.798C135.48 167.481 136.49 165.979 138.208 165.979C139.925 165.979 140.925 167.47 140.925 169.794C140.925 172.131 139.93 173.623 138.208 173.623ZM138.208 172.818C139.361 172.818 139.997 171.644 139.997 169.798C139.997 167.978 139.351 166.789 138.208 166.789C137.065 166.789 136.408 167.989 136.408 169.794C136.408 171.639 137.05 172.818 138.208 172.818ZM145.18 166.922V169.757H146.95C147.898 169.757 148.436 169.245 148.436 168.337C148.436 167.45 147.862 166.922 146.908 166.922H145.18ZM145.18 170.572V173.5H144.258V166.102H147.032C148.456 166.102 149.39 166.974 149.39 168.306C149.39 169.337 148.831 170.137 147.903 170.429L149.615 173.5H148.534L146.95 170.572H145.18ZM152.553 168.85C151.717 168.85 151.133 169.491 151.077 170.378H153.974C153.953 169.486 153.394 168.85 152.553 168.85ZM153.953 171.972H154.829C154.676 172.905 153.773 173.593 152.61 173.593C151.081 173.593 150.154 172.531 150.154 170.855C150.154 169.198 151.097 168.075 152.569 168.075C154.009 168.075 154.896 169.122 154.896 170.737V171.075H151.072V171.126C151.072 172.147 151.671 172.818 152.63 172.818C153.307 172.818 153.804 172.475 153.953 171.972ZM160.228 169.916H159.357C159.228 169.337 158.777 168.86 157.993 168.86C157.07 168.86 156.444 169.624 156.444 170.834C156.444 172.075 157.08 172.808 158.003 172.808C158.731 172.808 159.208 172.423 159.362 171.783H160.239C160.1 172.844 159.208 173.593 157.998 173.593C156.522 173.593 155.537 172.552 155.537 170.834C155.537 169.152 156.517 168.075 157.988 168.075C159.321 168.075 160.115 168.957 160.228 169.916ZM163.196 168.85C162.361 168.85 161.776 169.491 161.72 170.378H164.617C164.596 169.486 164.038 168.85 163.196 168.85ZM164.596 171.972H165.473C165.319 172.905 164.417 173.593 163.253 173.593C161.725 173.593 160.797 172.531 160.797 170.855C160.797 169.198 161.741 168.075 163.212 168.075C164.653 168.075 165.54 169.122 165.54 170.737V171.075H161.715V171.126C161.715 172.147 162.315 172.818 163.274 172.818C163.951 172.818 164.448 172.475 164.596 171.972ZM166.488 173.5V168.168H167.38V173.5H166.488ZM166.934 167.271C166.632 167.271 166.381 167.02 166.381 166.717C166.381 166.409 166.632 166.163 166.934 166.163C167.242 166.163 167.493 166.409 167.493 166.717C167.493 167.02 167.242 167.271 166.934 167.271ZM172.958 168.168L171 173.5H170.087L168.124 168.168H169.062L170.533 172.552H170.554L172.03 168.168H172.958ZM175.645 168.85C174.809 168.85 174.225 169.491 174.168 170.378H177.065C177.045 169.486 176.486 168.85 175.645 168.85ZM177.045 171.972H177.921C177.767 172.905 176.866 173.593 175.701 173.593C174.174 173.593 173.246 172.531 173.246 170.855C173.246 169.198 174.189 168.075 175.661 168.075C177.101 168.075 177.988 169.122 177.988 170.737V171.075H174.163V171.126C174.163 172.147 174.763 172.818 175.722 172.818C176.399 172.818 176.896 172.475 177.045 171.972ZM180.911 173.593C179.552 173.593 178.629 172.505 178.629 170.834C178.629 169.163 179.546 168.075 180.89 168.075C181.654 168.075 182.269 168.45 182.587 169.034H182.608V166.102H183.5V173.5H182.648V172.598H182.633C182.289 173.213 181.679 173.593 180.911 173.593ZM181.079 168.86C180.136 168.86 179.542 169.629 179.542 170.834C179.542 172.044 180.136 172.808 181.079 172.808C181.997 172.808 182.612 172.029 182.612 170.834C182.612 169.645 181.997 168.86 181.079 168.86ZM187.145 173.5V168.901H186.401V168.168H187.145V167.573C187.145 166.548 187.621 166.061 188.606 166.061C188.806 166.061 189.021 166.081 189.149 166.102V166.825C189.042 166.81 188.893 166.794 188.744 166.794C188.263 166.794 188.032 167.05 188.032 167.579V168.168H189.124V168.901H188.037V173.5H187.145ZM190.046 173.5V168.168H190.888V169.039H190.908C191.083 168.45 191.575 168.075 192.2 168.075C192.354 168.075 192.487 168.101 192.559 168.112V168.978C192.487 168.952 192.297 168.927 192.082 168.927C191.39 168.927 190.939 169.424 190.939 170.178V173.5H190.046ZM195.241 173.593C193.764 173.593 192.769 172.531 192.769 170.834C192.769 169.132 193.764 168.075 195.241 168.075C196.712 168.075 197.706 169.132 197.706 170.834C197.706 172.531 196.712 173.593 195.241 173.593ZM195.241 172.808C196.184 172.808 196.798 172.09 196.798 170.834C196.798 169.578 196.184 168.86 195.241 168.86C194.297 168.86 193.677 169.578 193.677 170.834C193.677 172.09 194.297 172.808 195.241 172.808ZM198.608 173.5V168.168H199.45V169.019H199.47C199.721 168.455 200.265 168.075 200.983 168.075C201.71 168.075 202.249 168.445 202.48 169.091H202.5C202.797 168.455 203.423 168.075 204.171 168.075C205.227 168.075 205.909 168.763 205.909 169.819V173.5H205.017V170.024C205.017 169.296 204.612 168.866 203.91 168.866C203.202 168.866 202.705 169.388 202.705 170.111V173.5H201.813V169.927C201.813 169.286 201.382 168.866 200.721 168.866C200.013 168.866 199.501 169.419 199.501 170.157V173.5H198.608ZM216.63 173.5H215.769V167.798H215.733L213.374 173.449H212.595L210.236 167.798H210.2V173.5H209.339V166.102H210.411L212.964 172.275H213.005L215.558 166.102H216.63V173.5ZM217.973 173.5V168.168H218.866V173.5H217.973ZM218.419 167.271C218.117 167.271 217.865 167.02 217.865 166.717C217.865 166.409 218.117 166.163 218.419 166.163C218.727 166.163 218.978 166.409 218.978 166.717C218.978 167.02 218.727 167.271 218.419 167.271ZM220.116 173.5V166.102H221.008V173.5H220.116ZM224.351 168.85C223.515 168.85 222.931 169.491 222.875 170.378H225.771C225.751 169.486 225.192 168.85 224.351 168.85ZM225.751 171.972H226.628C226.473 172.905 225.571 173.593 224.408 173.593C222.88 173.593 221.952 172.531 221.952 170.855C221.952 169.198 222.895 168.075 224.366 168.075C225.807 168.075 226.694 169.122 226.694 170.737V171.075H222.869V171.126C222.869 172.147 223.469 172.818 224.428 172.818C225.104 172.818 225.602 172.475 225.751 171.972ZM227.504 169.639C227.504 168.727 228.319 168.075 229.493 168.075C230.595 168.075 231.406 168.732 231.447 169.634H230.595C230.534 169.121 230.119 168.804 229.463 168.804C228.812 168.804 228.381 169.127 228.381 169.593C228.381 169.962 228.663 170.208 229.268 170.362L230.093 170.562C231.17 170.834 231.559 171.223 231.559 172.008C231.559 172.936 230.683 173.593 229.437 173.593C228.268 173.593 227.453 172.957 227.361 172.013H228.253C228.35 172.567 228.77 172.864 229.493 172.864C230.216 172.864 230.662 172.556 230.662 172.075C230.662 171.695 230.442 171.491 229.842 171.331L228.904 171.09C227.966 170.849 227.504 170.368 227.504 169.639ZM239.363 172.669V173.5H234.78V166.102H239.363V166.932H235.702V169.306H239.173V170.126H235.702V172.669H239.363ZM240.352 169.639C240.352 168.727 241.168 168.075 242.342 168.075C243.444 168.075 244.254 168.732 244.295 169.634H243.444C243.382 169.121 242.967 168.804 242.311 168.804C241.66 168.804 241.229 169.127 241.229 169.593C241.229 169.962 241.511 170.208 242.116 170.362L242.941 170.562C244.018 170.834 244.407 171.223 244.407 172.008C244.407 172.936 243.531 173.593 242.285 173.593C241.116 173.593 240.301 172.957 240.209 172.013H241.101C241.198 172.567 241.618 172.864 242.342 172.864C243.064 172.864 243.51 172.556 243.51 172.075C243.51 171.695 243.29 171.491 242.69 171.331L241.752 171.09C240.814 170.849 240.352 170.368 240.352 169.639ZM245.623 166.881H246.515V168.168H247.55V168.901H246.515V172.069C246.515 172.556 246.72 172.777 247.176 172.777C247.279 172.777 247.484 172.762 247.546 172.751V173.5C247.438 173.526 247.192 173.541 246.981 173.541C246.002 173.541 245.623 173.141 245.623 172.116V168.901H244.828V168.168H245.623V166.881ZM248.55 173.5V166.102H249.442V169.019H249.463C249.76 168.425 250.345 168.075 251.155 168.075C252.324 168.075 253.031 168.866 253.031 170.055V173.5H252.139V170.219C252.139 169.373 251.713 168.866 250.878 168.866C249.991 168.866 249.442 169.47 249.442 170.393V173.5H248.55ZM256.302 168.85C255.467 168.85 254.882 169.491 254.825 170.378H257.722C257.702 169.486 257.143 168.85 256.302 168.85ZM257.702 171.972H258.579C258.425 172.905 257.523 173.593 256.358 173.593C254.831 173.593 253.903 172.531 253.903 170.855C253.903 169.198 254.846 168.075 256.318 168.075C257.758 168.075 258.645 169.122 258.645 170.737V171.075H254.821V171.126C254.821 172.147 255.421 172.818 256.379 172.818C257.056 172.818 257.553 172.475 257.702 171.972ZM259.548 173.5V168.168H260.388V169.039H260.409C260.583 168.45 261.076 168.075 261.701 168.075C261.854 168.075 261.988 168.101 262.06 168.112V168.978C261.988 168.952 261.798 168.927 261.583 168.927C260.891 168.927 260.44 169.424 260.44 170.178V173.5H259.548Z" fill="white"/>
<path d="M279.937 147.578H62.0625C57.8945 147.578 54.5156 150.957 54.5156 155.125V184C54.5156 188.168 57.8945 191.547 62.0625 191.547H279.937C284.105 191.547 287.484 188.168 287.484 184V155.125C287.484 150.957 284.105 147.578 279.937 147.578Z" stroke="white" stroke-opacity="0.04"/>
<path d="M279.937 147.578H62.0625C57.8945 147.578 54.5156 150.957 54.5156 155.125V184C54.5156 188.168 57.8945 191.547 62.0625 191.547H279.937C284.105 191.547 287.484 188.168 287.484 184V155.125C287.484 150.957 284.105 147.578 279.937 147.578Z" stroke="url(#paint4_linear_2_930)" stroke-opacity="0.12"/>
</g>
</g>
<rect x="0.5" y="0.5" width="341" height="394" rx="7.5" stroke="white" stroke-opacity="0.04"/>
<rect x="0.5" y="0.5" width="341" height="394" rx="7.5" stroke="url(#paint5_linear_2_930)" stroke-opacity="0.12"/>
<defs>
<radialGradient id="paint0_radial_2_930" cx="0" cy="0" r="1" gradientUnits="userSpaceOnUse" gradientTransform="translate(186 111.799) rotate(90) scale(137.889 206.311)">
<stop stop-color="white"/>
<stop offset="1" stop-color="white" stop-opacity="0"/>
</radialGradient>
<linearGradient id="paint1_linear_2_930" x1="171" y1="61" x2="171" y2="255" gradientUnits="userSpaceOnUse">
<stop stop-color="#131313" stop-opacity="0"/>
<stop offset="1" stop-color="#131313"/>
</linearGradient>
<linearGradient id="paint2_linear_2_930" x1="171" y1="37" x2="171" y2="70.0397" gradientUnits="userSpaceOnUse">
<stop stop-color="white"/>
<stop offset="1" stop-color="white" stop-opacity="0"/>
</linearGradient>
<linearGradient id="paint3_linear_2_930" x1="171" y1="89.5" x2="171" y2="126.427" gradientUnits="userSpaceOnUse">
<stop stop-color="white"/>
<stop offset="1" stop-color="white" stop-opacity="0"/>
</linearGradient>
<linearGradient id="paint4_linear_2_930" x1="171" y1="147.25" x2="171" y2="180.29" gradientUnits="userSpaceOnUse">
<stop stop-color="white"/>
<stop offset="1" stop-color="white" stop-opacity="0"/>
</linearGradient>
<linearGradient id="paint5_linear_2_930" x1="171" y1="0" x2="171" y2="292.452" gradientUnits="userSpaceOnUse">
<stop stop-color="white"/>
<stop offset="1" stop-color="white" stop-opacity="0"/>
</linearGradient>
<clipPath id="clip0_2_930">
<rect width="342" height="395" rx="8" fill="white"/>
</clipPath>
<clipPath id="clip1_2_930">
<rect width="294" height="154.875" fill="white" transform="translate(24 37)"/>
</clipPath>
</defs>
</svg>
