<svg width="342" height="395" viewBox="0 0 342 395" fill="none" xmlns="http://www.w3.org/2000/svg">
<g clip-path="url(#clip0_2_956)">
<rect width="342" height="395" rx="8" fill="#131313"/>
<path d="M24.8086 273.289H27.3984C27.5859 274.965 29.2148 276.066 31.4414 276.066C33.5742 276.066 35.1094 274.965 35.1094 273.453C35.1094 272.141 34.1836 271.355 31.9922 270.816L29.8008 270.289C26.6953 269.539 25.2539 268.086 25.2539 265.73C25.2539 262.812 27.7969 260.809 31.4062 260.809C34.9805 260.809 37.4297 262.812 37.5117 265.73H34.957C34.8047 264.043 33.4102 263.023 31.3711 263.023C29.332 263.023 27.9375 264.055 27.9375 265.555C27.9375 266.75 28.8281 267.453 31.0078 267.992L32.8711 268.449C36.3398 269.27 37.7812 270.664 37.7812 273.137C37.7812 276.301 35.2617 278.281 31.2539 278.281C27.5039 278.281 24.9727 276.348 24.8086 273.289ZM39.832 278V265.672H42.2461V267.746H42.3047C42.8555 266.375 44.1445 265.461 45.8086 265.461C47.5195 265.461 48.7617 266.34 49.2539 267.875H49.3125C49.9453 266.375 51.3984 265.461 53.1562 265.461C55.5938 265.461 57.1875 267.078 57.1875 269.527V278H54.6445V270.137C54.6445 268.543 53.7891 267.629 52.2891 267.629C50.7891 267.629 49.7461 268.742 49.7461 270.301V278H47.2617V269.949C47.2617 268.531 46.3594 267.629 44.9297 267.629C43.4297 267.629 42.3633 268.801 42.3633 270.383V278H39.832ZM63.9492 276.207C65.7188 276.207 67.1016 274.988 67.1016 273.383V272.41L64.0664 272.598C62.5547 272.703 61.6992 273.371 61.6992 274.426C61.6992 275.504 62.5898 276.207 63.9492 276.207ZM63.2461 278.211C60.832 278.211 59.1445 276.711 59.1445 274.496C59.1445 272.34 60.7969 271.016 63.7266 270.852L67.1016 270.652V269.703C67.1016 268.332 66.1758 267.512 64.6289 267.512C63.1641 267.512 62.25 268.215 62.0273 269.316H59.6367C59.7773 267.09 61.6758 265.449 64.7227 265.449C67.7109 265.449 69.6211 267.031 69.6211 269.504V278H67.1953V275.973H67.1367C66.4219 277.344 64.8633 278.211 63.2461 278.211ZM72.082 278V265.672H74.4961V267.77H74.5547C74.9648 266.328 76.0664 265.473 77.5195 265.473C77.8828 265.473 78.1992 265.531 78.3867 265.566V267.922C78.1875 267.84 77.7422 267.781 77.25 267.781C75.6211 267.781 74.6133 268.871 74.6133 270.617V278H72.082ZM80.6953 262.754H83.2383V265.672H85.582V267.676H83.2383V274.473C83.2383 275.539 83.707 276.02 84.7383 276.02C84.9961 276.02 85.4062 275.996 85.5703 275.961V277.965C85.2891 278.035 84.7266 278.082 84.1641 278.082C81.668 278.082 80.6953 277.133 80.6953 274.754V267.676H78.9023V265.672H80.6953V262.754ZM95.4727 278H92.8477V261.09H95.4727V278ZM98.2852 278V265.672H100.699V267.734H100.758C101.426 266.328 102.738 265.461 104.637 265.461C107.355 265.461 108.914 267.195 108.914 270.02V278H106.371V270.512C106.371 268.66 105.504 267.641 103.746 267.641C101.965 267.641 100.816 268.906 100.816 270.816V278H98.2852ZM121.887 265.672L117.469 278H114.75L110.309 265.672H113.004L116.098 275.527H116.145L119.238 265.672H121.887ZM128.145 267.488C126.375 267.488 125.133 268.836 125.004 270.699H131.168C131.109 268.812 129.914 267.488 128.145 267.488ZM131.156 274.379H133.559C133.207 276.629 131.074 278.234 128.25 278.234C124.629 278.234 122.438 275.785 122.438 271.895C122.438 268.027 124.664 265.449 128.145 265.449C131.566 265.449 133.699 267.863 133.699 271.602V272.469H124.992V272.621C124.992 274.766 126.281 276.184 128.309 276.184C129.75 276.184 130.816 275.457 131.156 274.379ZM135.445 269.164C135.445 266.961 137.391 265.449 140.273 265.449C143.016 265.449 144.938 266.984 145.02 269.176H142.641C142.523 268.062 141.621 267.371 140.203 267.371C138.832 267.371 137.918 268.039 137.918 269.012C137.918 269.773 138.527 270.289 139.805 270.605L141.879 271.086C144.363 271.684 145.301 272.621 145.301 274.438C145.301 276.688 143.203 278.234 140.18 278.234C137.262 278.234 135.328 276.723 135.129 274.461H137.637C137.836 275.645 138.75 276.301 140.297 276.301C141.82 276.301 142.758 275.668 142.758 274.672C142.758 273.887 142.289 273.453 141 273.125L138.797 272.586C136.57 272.047 135.445 270.887 135.445 269.164ZM148.008 262.754H150.551V265.672H152.895V267.676H150.551V274.473C150.551 275.539 151.02 276.02 152.051 276.02C152.309 276.02 152.719 275.996 152.883 275.961V277.965C152.602 278.035 152.039 278.082 151.477 278.082C148.98 278.082 148.008 277.133 148.008 274.754V267.676H146.215V265.672H148.008V262.754ZM155.062 278V265.672H157.594V278H155.062ZM156.328 263.867C155.52 263.867 154.863 263.223 154.863 262.426C154.863 261.617 155.52 260.973 156.328 260.973C157.148 260.973 157.805 261.617 157.805 262.426C157.805 263.223 157.148 263.867 156.328 263.867ZM160.184 278V265.672H162.598V267.734H162.656C163.324 266.328 164.637 265.461 166.535 265.461C169.254 265.461 170.812 267.195 170.812 270.02V278H168.27V270.512C168.27 268.66 167.402 267.641 165.645 267.641C163.863 267.641 162.715 268.906 162.715 270.816V278H160.184ZM178.512 275.949C180.492 275.949 181.793 274.344 181.793 271.801C181.793 269.27 180.492 267.605 178.512 267.605C176.566 267.605 175.301 269.234 175.301 271.801C175.301 274.379 176.566 275.949 178.512 275.949ZM178.535 282.641C175.629 282.641 173.473 281.094 173.156 278.961H175.699C176.062 279.992 177.188 280.672 178.629 280.672C180.609 280.672 181.781 279.547 181.781 277.859V275.832H181.734C181.043 277.168 179.59 278.047 177.832 278.047C174.738 278.047 172.711 275.633 172.711 271.789C172.711 267.91 174.727 265.473 177.891 265.473C179.637 265.473 181.066 266.352 181.816 267.781H181.863V265.672H184.324V277.777C184.324 280.719 182.051 282.641 178.535 282.641Z" fill="white"/>
<path d="M34.6016 312.336C34.6016 315.383 32.8281 317.188 29.8203 317.188C26.6719 317.188 24.6562 314.891 24.6562 311.305C24.6562 307.781 26.6641 305.539 29.8203 305.539C32.2578 305.539 34.1094 306.984 34.5312 309.227H33.0547C32.5859 307.703 31.4062 306.836 29.8203 306.836C27.5 306.836 26.1016 308.508 26.1016 311.297C26.1016 314.133 27.5234 315.891 29.8203 315.891C31.8203 315.891 33.1953 314.594 33.1953 312.703V312.5H30.0156V311.266H34.6016V312.336ZM36.1953 317V308.875H37.4766V310.203H37.5078C37.7734 309.305 38.5234 308.734 39.4766 308.734C39.7109 308.734 39.9141 308.773 40.0234 308.789V310.109C39.9141 310.07 39.625 310.031 39.2969 310.031C38.2422 310.031 37.5547 310.789 37.5547 311.938V317H36.1953ZM44.1094 317.141C41.8594 317.141 40.3438 315.523 40.3438 312.938C40.3438 310.344 41.8594 308.734 44.1094 308.734C46.3516 308.734 47.8672 310.344 47.8672 312.938C47.8672 315.523 46.3516 317.141 44.1094 317.141ZM44.1094 315.945C45.5469 315.945 46.4844 314.852 46.4844 312.938C46.4844 311.023 45.5469 309.93 44.1094 309.93C42.6719 309.93 41.7266 311.023 41.7266 312.938C41.7266 314.852 42.6719 315.945 44.1094 315.945ZM59.5781 308.875L57.3125 317H55.9297L54.0938 310.711H54.0625L52.2344 317H50.8516L48.5781 308.875H49.9297L51.5547 315.484H51.5859L53.4219 308.875H54.7344L56.5781 315.484H56.6094L58.2344 308.875H59.5781ZM64.6484 320.039C64.4844 320.039 64.2109 320.023 64.0625 319.992V318.852C64.2109 318.883 64.4219 318.891 64.5938 318.891C65.3516 318.891 65.7734 318.523 66.0859 317.578L66.2734 317.008L63.2734 308.875H64.7266L66.9766 315.641H67L69.25 308.875H70.6797L67.4844 317.57C66.7891 319.469 66.1172 320.039 64.6484 320.039ZM74.8906 317.141C72.6406 317.141 71.125 315.523 71.125 312.938C71.125 310.344 72.6406 308.734 74.8906 308.734C77.1328 308.734 78.6484 310.344 78.6484 312.938C78.6484 315.523 77.1328 317.141 74.8906 317.141ZM74.8906 315.945C76.3281 315.945 77.2656 314.852 77.2656 312.938C77.2656 311.023 76.3281 309.93 74.8906 309.93C73.4531 309.93 72.5078 311.023 72.5078 312.938C72.5078 314.852 73.4531 315.945 74.8906 315.945ZM86.6953 308.875V317H85.4062V315.68H85.375C84.8906 316.617 84.0469 317.141 82.7969 317.141C81.0234 317.141 79.9844 315.992 79.9844 314.148V308.875H81.3438V313.906C81.3438 315.227 81.9609 315.938 83.2188 315.938C84.5391 315.938 85.3359 315.031 85.3359 313.648V308.875H86.6953ZM88.4609 317V308.875H89.7422V310.203H89.7734C90.0391 309.305 90.7891 308.734 91.7422 308.734C91.9766 308.734 92.1797 308.773 92.2891 308.789V310.109C92.1797 310.07 91.8906 310.031 91.5625 310.031C90.5078 310.031 89.8203 310.789 89.8203 311.938V317H88.4609ZM107.016 308.875L104.75 317H103.367L101.531 310.711H101.5L99.6719 317H98.2891L96.0156 308.875H97.3672L98.9922 315.484H99.0234L100.859 308.875H102.172L104.016 315.484H104.047L105.672 308.875H107.016ZM111.391 309.914C110.117 309.914 109.227 310.891 109.141 312.242H113.555C113.523 310.883 112.672 309.914 111.391 309.914ZM113.523 314.672H114.859C114.625 316.094 113.25 317.141 111.477 317.141C109.148 317.141 107.734 315.523 107.734 312.969C107.734 310.445 109.172 308.734 111.414 308.734C113.609 308.734 114.961 310.328 114.961 312.789V313.305H109.133V313.383C109.133 314.938 110.047 315.961 111.508 315.961C112.539 315.961 113.297 315.438 113.523 314.672ZM119.016 315.984C120.297 315.984 121.281 315.086 121.281 313.914V313.25L119.109 313.383C118.016 313.453 117.391 313.938 117.391 314.703C117.391 315.477 118.039 315.984 119.016 315.984ZM118.711 317.141C117.094 317.141 116.008 316.164 116.008 314.703C116.008 313.312 117.078 312.438 118.953 312.328L121.281 312.195V311.516C121.281 310.523 120.625 309.93 119.5 309.93C118.453 309.93 117.797 310.422 117.625 311.219H116.312C116.406 309.812 117.609 308.734 119.531 308.734C121.438 308.734 122.641 309.766 122.641 311.383V317H121.352V315.602H121.32C120.836 316.531 119.805 317.141 118.711 317.141ZM124.438 317V305.727H125.797V317H124.438ZM128.07 306.914H129.43V308.875H131.008V309.992H129.43V314.82C129.43 315.562 129.742 315.898 130.438 315.898C130.594 315.898 130.906 315.875 131 315.859V317C130.836 317.039 130.461 317.062 130.141 317.062C128.648 317.062 128.07 316.453 128.07 314.891V309.992H126.859V308.875H128.07V306.914ZM132.531 317V305.727H133.891V310.172H133.922C134.375 309.266 135.266 308.734 136.5 308.734C138.281 308.734 139.359 309.938 139.359 311.75V317H138V312C138 310.711 137.352 309.938 136.078 309.938C134.727 309.938 133.891 310.859 133.891 312.266V317H132.531ZM151.117 311.539H149.789C149.594 310.656 148.906 309.93 147.711 309.93C146.305 309.93 145.352 311.094 145.352 312.938C145.352 314.828 146.32 315.945 147.727 315.945C148.836 315.945 149.562 315.359 149.797 314.383H151.133C150.922 316 149.562 317.141 147.719 317.141C145.469 317.141 143.969 315.555 143.969 312.938C143.969 310.375 145.461 308.734 147.703 308.734C149.734 308.734 150.945 310.078 151.117 311.539ZM155.75 317.141C153.5 317.141 151.984 315.523 151.984 312.938C151.984 310.344 153.5 308.734 155.75 308.734C157.992 308.734 159.508 310.344 159.508 312.938C159.508 315.523 157.992 317.141 155.75 317.141ZM155.75 315.945C157.188 315.945 158.125 314.852 158.125 312.938C158.125 311.023 157.188 309.93 155.75 309.93C154.312 309.93 153.367 311.023 153.367 312.938C153.367 314.852 154.312 315.945 155.75 315.945ZM160.883 317V308.875H162.164V310.172H162.195C162.648 309.297 163.516 308.734 164.773 308.734C166.555 308.734 167.586 309.883 167.586 311.727V317H166.227V311.969C166.227 310.656 165.609 309.938 164.359 309.938C163.078 309.938 162.242 310.844 162.242 312.219V317H160.883ZM169.758 317V309.992H168.625V308.875H169.758V307.969C169.758 306.406 170.484 305.664 171.984 305.664C172.289 305.664 172.617 305.695 172.812 305.727V306.828C172.648 306.805 172.422 306.781 172.195 306.781C171.461 306.781 171.109 307.172 171.109 307.977V308.875H172.773V309.992H171.117V317H169.758ZM174.25 317V308.875H175.609V317H174.25ZM174.93 307.508C174.469 307.508 174.086 307.125 174.086 306.664C174.086 306.195 174.469 305.82 174.93 305.82C175.398 305.82 175.781 306.195 175.781 306.664C175.781 307.125 175.398 307.508 174.93 307.508ZM180.523 317.141C178.453 317.141 177.047 315.484 177.047 312.938C177.047 310.391 178.445 308.734 180.492 308.734C181.656 308.734 182.594 309.305 183.078 310.195H183.109V305.727H184.469V317H183.172V315.625H183.148C182.625 316.562 181.695 317.141 180.523 317.141ZM180.781 309.93C179.344 309.93 178.438 311.102 178.438 312.938C178.438 314.781 179.344 315.945 180.781 315.945C182.18 315.945 183.117 314.758 183.117 312.938C183.117 311.125 182.18 309.93 180.781 309.93ZM189.562 309.914C188.289 309.914 187.398 310.891 187.312 312.242H191.727C191.695 310.883 190.844 309.914 189.562 309.914ZM191.695 314.672H193.031C192.797 316.094 191.422 317.141 189.648 317.141C187.32 317.141 185.906 315.523 185.906 312.969C185.906 310.445 187.344 308.734 189.586 308.734C191.781 308.734 193.133 310.328 193.133 312.789V313.305H187.305V313.383C187.305 314.938 188.219 315.961 189.68 315.961C190.711 315.961 191.469 315.438 191.695 314.672ZM194.508 317V308.875H195.789V310.172H195.82C196.273 309.297 197.141 308.734 198.398 308.734C200.18 308.734 201.211 309.883 201.211 311.727V317H199.852V311.969C199.852 310.656 199.234 309.938 197.984 309.938C196.703 309.938 195.867 310.844 195.867 312.219V317H194.508ZM203.383 306.914H204.742V308.875H206.32V309.992H204.742V314.82C204.742 315.562 205.055 315.898 205.75 315.898C205.906 315.898 206.219 315.875 206.312 315.859V317C206.148 317.039 205.773 317.062 205.453 317.062C203.961 317.062 203.383 316.453 203.383 314.891V309.992H202.172V308.875H203.383V306.914ZM207.844 317V305.727H209.203V317H207.844ZM211.711 320.039C211.547 320.039 211.273 320.023 211.125 319.992V318.852C211.273 318.883 211.484 318.891 211.656 318.891C212.414 318.891 212.836 318.523 213.148 317.578L213.336 317.008L210.336 308.875H211.789L214.039 315.641H214.062L216.312 308.875H217.742L214.547 317.57C213.852 319.469 213.18 320.039 211.711 320.039ZM232.438 308.875L230.172 317H228.789L226.953 310.711H226.922L225.094 317H223.711L221.438 308.875H222.789L224.414 315.484H224.445L226.281 308.875H227.594L229.438 315.484H229.469L231.094 308.875H232.438ZM233.625 317V308.875H234.984V317H233.625ZM234.305 307.508C233.844 307.508 233.461 307.125 233.461 306.664C233.461 306.195 233.844 305.82 234.305 305.82C234.773 305.82 235.156 306.195 235.156 306.664C235.156 307.125 234.773 307.508 234.305 307.508ZM237.258 306.914H238.617V308.875H240.195V309.992H238.617V314.82C238.617 315.562 238.93 315.898 239.625 315.898C239.781 315.898 240.094 315.875 240.188 315.859V317C240.023 317.039 239.648 317.062 239.328 317.062C237.836 317.062 237.258 316.453 237.258 314.891V309.992H236.047V308.875H237.258V306.914ZM241.719 317V305.727H243.078V310.172H243.109C243.562 309.266 244.453 308.734 245.688 308.734C247.469 308.734 248.547 309.938 248.547 311.75V317H247.188V312C247.188 310.711 246.539 309.938 245.266 309.938C243.914 309.938 243.078 310.859 243.078 312.266V317H241.719ZM256.922 317.141C254.672 317.141 253.156 315.523 253.156 312.938C253.156 310.344 254.672 308.734 256.922 308.734C259.164 308.734 260.68 310.344 260.68 312.938C260.68 315.523 259.164 317.141 256.922 317.141ZM256.922 315.945C258.359 315.945 259.297 314.852 259.297 312.938C259.297 311.023 258.359 309.93 256.922 309.93C255.484 309.93 254.539 311.023 254.539 312.938C254.539 314.852 255.484 315.945 256.922 315.945ZM268.727 308.875V317H267.438V315.68H267.406C266.922 316.617 266.078 317.141 264.828 317.141C263.055 317.141 262.016 315.992 262.016 314.148V308.875H263.375V313.906C263.375 315.227 263.992 315.938 265.25 315.938C266.57 315.938 267.367 315.031 267.367 313.648V308.875H268.727ZM270.492 317V308.875H271.773V310.203H271.805C272.07 309.305 272.82 308.734 273.773 308.734C274.008 308.734 274.211 308.773 274.32 308.789V310.109C274.211 310.07 273.922 310.031 273.594 310.031C272.539 310.031 271.852 310.789 271.852 311.938V317H270.492ZM28.8281 332.734C30.8984 332.734 32.3047 334.391 32.3047 336.938C32.3047 339.484 30.9062 341.141 28.8594 341.141C27.6953 341.141 26.7578 340.57 26.2734 339.68H26.2422V343.711H24.8828V332.875H26.1719V334.25H26.2031C26.7031 333.336 27.6484 332.734 28.8281 332.734ZM28.5625 339.945C30.0078 339.945 30.9141 338.781 30.9141 336.938C30.9141 335.102 30.0078 333.93 28.5625 333.93C27.1719 333.93 26.2344 335.133 26.2344 336.938C26.2344 338.75 27.1719 339.945 28.5625 339.945ZM36.9375 333.914C35.6641 333.914 34.7734 334.891 34.6875 336.242H39.1016C39.0703 334.883 38.2188 333.914 36.9375 333.914ZM39.0703 338.672H40.4062C40.1719 340.094 38.7969 341.141 37.0234 341.141C34.6953 341.141 33.2812 339.523 33.2812 336.969C33.2812 334.445 34.7188 332.734 36.9609 332.734C39.1562 332.734 40.5078 334.328 40.5078 336.789V337.305H34.6797V337.383C34.6797 338.938 35.5938 339.961 37.0547 339.961C38.0859 339.961 38.8438 339.438 39.0703 338.672ZM41.8828 341V332.875H43.1641V334.203H43.1953C43.4609 333.305 44.2109 332.734 45.1641 332.734C45.3984 332.734 45.6016 332.773 45.7109 332.789V334.109C45.6016 334.07 45.3125 334.031 44.9844 334.031C43.9297 334.031 43.2422 334.789 43.2422 335.938V341H41.8828ZM46.6797 335.117C46.6797 333.727 47.9219 332.734 49.7109 332.734C51.3906 332.734 52.625 333.734 52.6875 335.109H51.3906C51.2969 334.328 50.6641 333.844 49.6641 333.844C48.6719 333.844 48.0156 334.336 48.0156 335.047C48.0156 335.609 48.4453 335.984 49.3672 336.219L50.625 336.523C52.2656 336.938 52.8594 337.531 52.8594 338.727C52.8594 340.141 51.5234 341.141 49.625 341.141C47.8438 341.141 46.6016 340.172 46.4609 338.734H47.8203C47.9688 339.578 48.6094 340.031 49.7109 340.031C50.8125 340.031 51.4922 339.562 51.4922 338.828C51.4922 338.25 51.1562 337.938 50.2422 337.695L48.8125 337.328C47.3828 336.961 46.6797 336.227 46.6797 335.117ZM57.6406 341.141C55.3906 341.141 53.875 339.523 53.875 336.938C53.875 334.344 55.3906 332.734 57.6406 332.734C59.8828 332.734 61.3984 334.344 61.3984 336.938C61.3984 339.523 59.8828 341.141 57.6406 341.141ZM57.6406 339.945C59.0781 339.945 60.0156 338.852 60.0156 336.938C60.0156 335.023 59.0781 333.93 57.6406 333.93C56.2031 333.93 55.2578 335.023 55.2578 336.938C55.2578 338.852 56.2031 339.945 57.6406 339.945ZM62.7734 341V332.875H64.0547V334.172H64.0859C64.5391 333.297 65.4062 332.734 66.6641 332.734C68.4453 332.734 69.4766 333.883 69.4766 335.727V341H68.1172V335.969C68.1172 334.656 67.5 333.938 66.25 333.938C64.9688 333.938 64.1328 334.844 64.1328 336.219V341H62.7734ZM73.8906 339.984C75.1719 339.984 76.1562 339.086 76.1562 337.914V337.25L73.9844 337.383C72.8906 337.453 72.2656 337.938 72.2656 338.703C72.2656 339.477 72.9141 339.984 73.8906 339.984ZM73.5859 341.141C71.9688 341.141 70.8828 340.164 70.8828 338.703C70.8828 337.312 71.9531 336.438 73.8281 336.328L76.1562 336.195V335.516C76.1562 334.523 75.5 333.93 74.375 333.93C73.3281 333.93 72.6719 334.422 72.5 335.219H71.1875C71.2812 333.812 72.4844 332.734 74.4062 332.734C76.3125 332.734 77.5156 333.766 77.5156 335.383V341H76.2266V339.602H76.1953C75.7109 340.531 74.6797 341.141 73.5859 341.141ZM79.3125 341V329.727H80.6719V341H79.3125ZM82.5781 341V332.875H83.9375V341H82.5781ZM83.2578 331.508C82.7969 331.508 82.4141 331.125 82.4141 330.664C82.4141 330.195 82.7969 329.82 83.2578 329.82C83.7266 329.82 84.1094 330.195 84.1094 330.664C84.1094 331.125 83.7266 331.508 83.2578 331.508ZM85.6016 341V340.031L90.1016 334.016V333.992H85.6094V332.875H91.6406V333.867L87.1719 339.859V339.883H91.6641V341H85.6016ZM96.2031 333.914C94.9297 333.914 94.0391 334.891 93.9531 336.242H98.3672C98.3359 334.883 97.4844 333.914 96.2031 333.914ZM98.3359 338.672H99.6719C99.4375 340.094 98.0625 341.141 96.2891 341.141C93.9609 341.141 92.5469 339.523 92.5469 336.969C92.5469 334.445 93.9844 332.734 96.2266 332.734C98.4219 332.734 99.7734 334.328 99.7734 336.789V337.305H93.9453V337.383C93.9453 338.938 94.8594 339.961 96.3203 339.961C97.3516 339.961 98.1094 339.438 98.3359 338.672ZM104.227 341.141C102.156 341.141 100.75 339.484 100.75 336.938C100.75 334.391 102.148 332.734 104.195 332.734C105.359 332.734 106.297 333.305 106.781 334.195H106.812V329.727H108.172V341H106.875V339.625H106.852C106.328 340.562 105.398 341.141 104.227 341.141ZM104.484 333.93C103.047 333.93 102.141 335.102 102.141 336.938C102.141 338.781 103.047 339.945 104.484 339.945C105.883 339.945 106.82 338.758 106.82 336.938C106.82 335.125 105.883 333.93 104.484 333.93ZM113.359 341V332.875H114.719V341H113.359ZM114.039 331.508C113.578 331.508 113.195 331.125 113.195 330.664C113.195 330.195 113.578 329.82 114.039 329.82C114.508 329.82 114.891 330.195 114.891 330.664C114.891 331.125 114.508 331.508 114.039 331.508ZM116.555 341V332.875H117.836V334.172H117.867C118.32 333.297 119.188 332.734 120.445 332.734C122.227 332.734 123.258 333.883 123.258 335.727V341H121.898V335.969C121.898 334.656 121.281 333.938 120.031 333.938C118.75 333.938 117.914 334.844 117.914 336.219V341H116.555ZM131.656 332.875L128.672 341H127.281L124.289 332.875H125.719L127.961 339.555H127.992L130.242 332.875H131.656ZM135.75 333.914C134.477 333.914 133.586 334.891 133.5 336.242H137.914C137.883 334.883 137.031 333.914 135.75 333.914ZM137.883 338.672H139.219C138.984 340.094 137.609 341.141 135.836 341.141C133.508 341.141 132.094 339.523 132.094 336.969C132.094 334.445 133.531 332.734 135.773 332.734C137.969 332.734 139.32 334.328 139.32 336.789V337.305H133.492V337.383C133.492 338.938 134.406 339.961 135.867 339.961C136.898 339.961 137.656 339.438 137.883 338.672ZM140.555 335.117C140.555 333.727 141.797 332.734 143.586 332.734C145.266 332.734 146.5 333.734 146.562 335.109H145.266C145.172 334.328 144.539 333.844 143.539 333.844C142.547 333.844 141.891 334.336 141.891 335.047C141.891 335.609 142.32 335.984 143.242 336.219L144.5 336.523C146.141 336.938 146.734 337.531 146.734 338.727C146.734 340.141 145.398 341.141 143.5 341.141C141.719 341.141 140.477 340.172 140.336 338.734H141.695C141.844 339.578 142.484 340.031 143.586 340.031C144.688 340.031 145.367 339.562 145.367 338.828C145.367 338.25 145.031 337.938 144.117 337.695L142.688 337.328C141.258 336.961 140.555 336.227 140.555 335.117ZM148.586 330.914H149.945V332.875H151.523V333.992H149.945V338.82C149.945 339.562 150.258 339.898 150.953 339.898C151.109 339.898 151.422 339.875 151.516 339.859V341C151.352 341.039 150.977 341.062 150.656 341.062C149.164 341.062 148.586 340.453 148.586 338.891V333.992H147.375V332.875H148.586V330.914ZM152.977 341V332.875H154.258V334.172H154.289C154.672 333.312 155.5 332.734 156.594 332.734C157.703 332.734 158.523 333.297 158.875 334.281H158.906C159.359 333.312 160.312 332.734 161.453 332.734C163.062 332.734 164.102 333.781 164.102 335.391V341H162.742V335.703C162.742 334.594 162.125 333.938 161.055 333.938C159.977 333.938 159.219 334.734 159.219 335.836V341H157.859V335.555C157.859 334.578 157.203 333.938 156.195 333.938C155.117 333.938 154.336 334.781 154.336 335.906V341H152.977ZM169.094 333.914C167.82 333.914 166.93 334.891 166.844 336.242H171.258C171.227 334.883 170.375 333.914 169.094 333.914ZM171.227 338.672H172.562C172.328 340.094 170.953 341.141 169.18 341.141C166.852 341.141 165.438 339.523 165.438 336.969C165.438 334.445 166.875 332.734 169.117 332.734C171.312 332.734 172.664 334.328 172.664 336.789V337.305H166.836V337.383C166.836 338.938 167.75 339.961 169.211 339.961C170.242 339.961 171 339.438 171.227 338.672ZM174.039 341V332.875H175.32V334.172H175.352C175.805 333.297 176.672 332.734 177.93 332.734C179.711 332.734 180.742 333.883 180.742 335.727V341H179.383V335.969C179.383 334.656 178.766 333.938 177.516 333.938C176.234 333.938 175.398 334.844 175.398 336.219V341H174.039ZM182.914 330.914H184.273V332.875H185.852V333.992H184.273V338.82C184.273 339.562 184.586 339.898 185.281 339.898C185.438 339.898 185.75 339.875 185.844 339.859V341C185.68 341.039 185.305 341.062 184.984 341.062C183.492 341.062 182.914 340.453 182.914 338.891V333.992H181.703V332.875H182.914V330.914ZM190.445 335.117C190.445 333.727 191.688 332.734 193.477 332.734C195.156 332.734 196.391 333.734 196.453 335.109H195.156C195.062 334.328 194.43 333.844 193.43 333.844C192.438 333.844 191.781 334.336 191.781 335.047C191.781 335.609 192.211 335.984 193.133 336.219L194.391 336.523C196.031 336.938 196.625 337.531 196.625 338.727C196.625 340.141 195.289 341.141 193.391 341.141C191.609 341.141 190.367 340.172 190.227 338.734H191.586C191.734 339.578 192.375 340.031 193.477 340.031C194.578 340.031 195.258 339.562 195.258 338.828C195.258 338.25 194.922 337.938 194.008 337.695L192.578 337.328C191.148 336.961 190.445 336.227 190.445 335.117ZM201.406 341.141C199.156 341.141 197.641 339.523 197.641 336.938C197.641 334.344 199.156 332.734 201.406 332.734C203.648 332.734 205.164 334.344 205.164 336.938C205.164 339.523 203.648 341.141 201.406 341.141ZM201.406 339.945C202.844 339.945 203.781 338.852 203.781 336.938C203.781 335.023 202.844 333.93 201.406 333.93C199.969 333.93 199.023 335.023 199.023 336.938C199.023 338.852 199.969 339.945 201.406 339.945ZM206.609 341V329.727H207.969V341H206.609ZM216.477 332.875V341H215.188V339.68H215.156C214.672 340.617 213.828 341.141 212.578 341.141C210.805 341.141 209.766 339.992 209.766 338.148V332.875H211.125V337.906C211.125 339.227 211.742 339.938 213 339.938C214.32 339.938 215.117 339.031 215.117 337.648V332.875H216.477ZM218.68 330.914H220.039V332.875H221.617V333.992H220.039V338.82C220.039 339.562 220.352 339.898 221.047 339.898C221.203 339.898 221.516 339.875 221.609 339.859V341C221.445 341.039 221.07 341.062 220.75 341.062C219.258 341.062 218.68 340.453 218.68 338.891V333.992H217.469V332.875H218.68V330.914ZM223.141 341V332.875H224.5V341H223.141ZM223.82 331.508C223.359 331.508 222.977 331.125 222.977 330.664C222.977 330.195 223.359 329.82 223.82 329.82C224.289 329.82 224.672 330.195 224.672 330.664C224.672 331.125 224.289 331.508 223.82 331.508ZM229.703 341.141C227.453 341.141 225.938 339.523 225.938 336.938C225.938 334.344 227.453 332.734 229.703 332.734C231.945 332.734 233.461 334.344 233.461 336.938C233.461 339.523 231.945 341.141 229.703 341.141ZM229.703 339.945C231.141 339.945 232.078 338.852 232.078 336.938C232.078 335.023 231.141 333.93 229.703 333.93C228.266 333.93 227.32 335.023 227.32 336.938C227.32 338.852 228.266 339.945 229.703 339.945ZM234.836 341V332.875H236.117V334.172H236.148C236.602 333.297 237.469 332.734 238.727 332.734C240.508 332.734 241.539 333.883 241.539 335.727V341H240.18V335.969C240.18 334.656 239.562 333.938 238.312 333.938C237.031 333.938 236.195 334.844 236.195 336.219V341H234.836ZM243.133 335.117C243.133 333.727 244.375 332.734 246.164 332.734C247.844 332.734 249.078 333.734 249.141 335.109H247.844C247.75 334.328 247.117 333.844 246.117 333.844C245.125 333.844 244.469 334.336 244.469 335.047C244.469 335.609 244.898 335.984 245.82 336.219L247.078 336.523C248.719 336.938 249.312 337.531 249.312 338.727C249.312 340.141 247.977 341.141 246.078 341.141C244.297 341.141 243.055 340.172 242.914 338.734H244.273C244.422 339.578 245.062 340.031 246.164 340.031C247.266 340.031 247.945 339.562 247.945 338.828C247.945 338.25 247.609 337.938 246.695 337.695L245.266 337.328C243.836 336.961 243.133 336.227 243.133 335.117ZM251.656 343.242H250.523L251.281 339.266H252.727L251.656 343.242ZM257.727 330.914H259.086V332.875H260.664V333.992H259.086V338.82C259.086 339.562 259.398 339.898 260.094 339.898C260.25 339.898 260.562 339.875 260.656 339.859V341C260.492 341.039 260.117 341.062 259.797 341.062C258.305 341.062 257.727 340.453 257.727 338.891V333.992H256.516V332.875H257.727V330.914ZM264.641 339.984C265.922 339.984 266.906 339.086 266.906 337.914V337.25L264.734 337.383C263.641 337.453 263.016 337.938 263.016 338.703C263.016 339.477 263.664 339.984 264.641 339.984ZM264.336 341.141C262.719 341.141 261.633 340.164 261.633 338.703C261.633 337.312 262.703 336.438 264.578 336.328L266.906 336.195V335.516C266.906 334.523 266.25 333.93 265.125 333.93C264.078 333.93 263.422 334.422 263.25 335.219H261.938C262.031 333.812 263.234 332.734 265.156 332.734C267.062 332.734 268.266 333.766 268.266 335.383V341H266.977V339.602H266.945C266.461 340.531 265.43 341.141 264.336 341.141ZM270.062 341V332.875H271.422V341H270.062ZM270.742 331.508C270.281 331.508 269.898 331.125 269.898 330.664C269.898 330.195 270.281 329.82 270.742 329.82C271.211 329.82 271.594 330.195 271.594 330.664C271.594 331.125 271.211 331.508 270.742 331.508ZM273.328 341V329.727H274.688V341H273.328ZM279.891 341.141C277.641 341.141 276.125 339.523 276.125 336.938C276.125 334.344 277.641 332.734 279.891 332.734C282.133 332.734 283.648 334.344 283.648 336.938C283.648 339.523 282.133 341.141 279.891 341.141ZM279.891 339.945C281.328 339.945 282.266 338.852 282.266 336.938C282.266 335.023 281.328 333.93 279.891 333.93C278.453 333.93 277.508 335.023 277.508 336.938C277.508 338.852 278.453 339.945 279.891 339.945ZM285.023 341V332.875H286.305V334.203H286.336C286.602 333.305 287.352 332.734 288.305 332.734C288.539 332.734 288.742 332.773 288.852 332.789V334.109C288.742 334.07 288.453 334.031 288.125 334.031C287.07 334.031 286.383 334.789 286.383 335.938V341H285.023ZM292.828 333.914C291.555 333.914 290.664 334.891 290.578 336.242H294.992C294.961 334.883 294.109 333.914 292.828 333.914ZM294.961 338.672H296.297C296.062 340.094 294.688 341.141 292.914 341.141C290.586 341.141 289.172 339.523 289.172 336.969C289.172 334.445 290.609 332.734 292.852 332.734C295.047 332.734 296.398 334.328 296.398 336.789V337.305H290.57V337.383C290.57 338.938 291.484 339.961 292.945 339.961C293.977 339.961 294.734 339.438 294.961 338.672ZM300.852 341.141C298.781 341.141 297.375 339.484 297.375 336.938C297.375 334.391 298.773 332.734 300.82 332.734C301.984 332.734 302.922 333.305 303.406 334.195H303.438V329.727H304.797V341H303.5V339.625H303.477C302.953 340.562 302.023 341.141 300.852 341.141ZM301.109 333.93C299.672 333.93 298.766 335.102 298.766 336.938C298.766 338.781 299.672 339.945 301.109 339.945C302.508 339.945 303.445 338.758 303.445 336.938C303.445 335.125 302.508 333.93 301.109 333.93ZM25.3203 354.914H26.6797V356.875H28.2578V357.992H26.6797V362.82C26.6797 363.562 26.9922 363.898 27.6875 363.898C27.8438 363.898 28.1562 363.875 28.25 363.859V365C28.0859 365.039 27.7109 365.062 27.3906 365.062C25.8984 365.062 25.3203 364.453 25.3203 362.891V357.992H24.1094V356.875H25.3203V354.914ZM32.8438 365.141C30.5938 365.141 29.0781 363.523 29.0781 360.938C29.0781 358.344 30.5938 356.734 32.8438 356.734C35.0859 356.734 36.6016 358.344 36.6016 360.938C36.6016 363.523 35.0859 365.141 32.8438 365.141ZM32.8438 363.945C34.2812 363.945 35.2188 362.852 35.2188 360.938C35.2188 359.023 34.2812 357.93 32.8438 357.93C31.4062 357.93 30.4609 359.023 30.4609 360.938C30.4609 362.852 31.4062 363.945 32.8438 363.945ZM41.9297 368.039C41.7656 368.039 41.4922 368.023 41.3438 367.992V366.852C41.4922 366.883 41.7031 366.891 41.875 366.891C42.6328 366.891 43.0547 366.523 43.3672 365.578L43.5547 365.008L40.5547 356.875H42.0078L44.2578 363.641H44.2812L46.5312 356.875H47.9609L44.7656 365.57C44.0703 367.469 43.3984 368.039 41.9297 368.039ZM52.1719 365.141C49.9219 365.141 48.4062 363.523 48.4062 360.938C48.4062 358.344 49.9219 356.734 52.1719 356.734C54.4141 356.734 55.9297 358.344 55.9297 360.938C55.9297 363.523 54.4141 365.141 52.1719 365.141ZM52.1719 363.945C53.6094 363.945 54.5469 362.852 54.5469 360.938C54.5469 359.023 53.6094 357.93 52.1719 357.93C50.7344 357.93 49.7891 359.023 49.7891 360.938C49.7891 362.852 50.7344 363.945 52.1719 363.945ZM63.9766 356.875V365H62.6875V363.68H62.6562C62.1719 364.617 61.3281 365.141 60.0781 365.141C58.3047 365.141 57.2656 363.992 57.2656 362.148V356.875H58.625V361.906C58.625 363.227 59.2422 363.938 60.5 363.938C61.8203 363.938 62.6172 363.031 62.6172 361.648V356.875H63.9766ZM65.7422 365V356.875H67.0234V358.203H67.0547C67.3203 357.305 68.0703 356.734 69.0234 356.734C69.2578 356.734 69.4609 356.773 69.5703 356.789V358.109C69.4609 358.07 69.1719 358.031 68.8438 358.031C67.7891 358.031 67.1016 358.789 67.1016 359.938V365H65.7422ZM74.3984 365V357.992H73.2656V356.875H74.3984V355.969C74.3984 354.406 75.125 353.664 76.625 353.664C76.9297 353.664 77.2578 353.695 77.4531 353.727V354.828C77.2891 354.805 77.0625 354.781 76.8359 354.781C76.1016 354.781 75.75 355.172 75.75 355.977V356.875H77.4141V357.992H75.7578V365H74.3984ZM78.8906 365V356.875H80.25V365H78.8906ZM79.5703 355.508C79.1094 355.508 78.7266 355.125 78.7266 354.664C78.7266 354.195 79.1094 353.82 79.5703 353.82C80.0391 353.82 80.4219 354.195 80.4219 354.664C80.4219 355.125 80.0391 355.508 79.5703 355.508ZM82.0859 365V356.875H83.3672V358.172H83.3984C83.8516 357.297 84.7188 356.734 85.9766 356.734C87.7578 356.734 88.7891 357.883 88.7891 359.727V365H87.4297V359.969C87.4297 358.656 86.8125 357.938 85.5625 357.938C84.2812 357.938 83.4453 358.844 83.4453 360.219V365H82.0859ZM93.2031 363.984C94.4844 363.984 95.4688 363.086 95.4688 361.914V361.25L93.2969 361.383C92.2031 361.453 91.5781 361.938 91.5781 362.703C91.5781 363.477 92.2266 363.984 93.2031 363.984ZM92.8984 365.141C91.2812 365.141 90.1953 364.164 90.1953 362.703C90.1953 361.312 91.2656 360.438 93.1406 360.328L95.4688 360.195V359.516C95.4688 358.523 94.8125 357.93 93.6875 357.93C92.6406 357.93 91.9844 358.422 91.8125 359.219H90.5C90.5938 357.812 91.7969 356.734 93.7188 356.734C95.625 356.734 96.8281 357.766 96.8281 359.383V365H95.5391V363.602H95.5078C95.0234 364.531 93.9922 365.141 92.8984 365.141ZM98.5547 365V356.875H99.8359V358.172H99.8672C100.32 357.297 101.188 356.734 102.445 356.734C104.227 356.734 105.258 357.883 105.258 359.727V365H103.898V359.969C103.898 358.656 103.281 357.938 102.031 357.938C100.75 357.938 99.9141 358.844 99.9141 360.219V365H98.5547ZM113.742 359.539H112.414C112.219 358.656 111.531 357.93 110.336 357.93C108.93 357.93 107.977 359.094 107.977 360.938C107.977 362.828 108.945 363.945 110.352 363.945C111.461 363.945 112.188 363.359 112.422 362.383H113.758C113.547 364 112.188 365.141 110.344 365.141C108.094 365.141 106.594 363.555 106.594 360.938C106.594 358.375 108.086 356.734 110.328 356.734C112.359 356.734 113.57 358.078 113.742 359.539ZM115.078 365V356.875H116.438V365H115.078ZM115.758 355.508C115.297 355.508 114.914 355.125 114.914 354.664C114.914 354.195 115.297 353.82 115.758 353.82C116.227 353.82 116.609 354.195 116.609 354.664C116.609 355.125 116.227 355.508 115.758 355.508ZM120.953 363.984C122.234 363.984 123.219 363.086 123.219 361.914V361.25L121.047 361.383C119.953 361.453 119.328 361.938 119.328 362.703C119.328 363.477 119.977 363.984 120.953 363.984ZM120.648 365.141C119.031 365.141 117.945 364.164 117.945 362.703C117.945 361.312 119.016 360.438 120.891 360.328L123.219 360.195V359.516C123.219 358.523 122.562 357.93 121.438 357.93C120.391 357.93 119.734 358.422 119.562 359.219H118.25C118.344 357.812 119.547 356.734 121.469 356.734C123.375 356.734 124.578 357.766 124.578 359.383V365H123.289V363.602H123.258C122.773 364.531 121.742 365.141 120.648 365.141ZM126.375 365V353.727H127.734V365H126.375ZM136.156 363.867C137.57 363.867 138.516 362.695 138.516 360.906C138.516 359.117 137.57 357.93 136.156 357.93C134.758 357.93 133.844 359.086 133.844 360.906C133.844 362.727 134.758 363.867 136.156 363.867ZM136.203 368.062C134.414 368.062 133 367.055 132.773 365.672H134.172C134.438 366.414 135.242 366.906 136.258 366.906C137.664 366.906 138.516 366.094 138.516 364.883V363.602H138.484C137.984 364.484 137.023 365.062 135.883 365.062C133.812 365.062 132.453 363.43 132.453 360.906C132.453 358.359 133.812 356.734 135.914 356.734C137.062 356.734 138.016 357.297 138.555 358.242H138.578V356.875H139.875V364.836C139.875 366.773 138.445 368.062 136.203 368.062ZM145.016 365.141C142.766 365.141 141.25 363.523 141.25 360.938C141.25 358.344 142.766 356.734 145.016 356.734C147.258 356.734 148.773 358.344 148.773 360.938C148.773 363.523 147.258 365.141 145.016 365.141ZM145.016 363.945C146.453 363.945 147.391 362.852 147.391 360.938C147.391 359.023 146.453 357.93 145.016 357.93C143.578 357.93 142.633 359.023 142.633 360.938C142.633 362.852 143.578 363.945 145.016 363.945ZM152.828 363.984C154.109 363.984 155.094 363.086 155.094 361.914V361.25L152.922 361.383C151.828 361.453 151.203 361.938 151.203 362.703C151.203 363.477 151.852 363.984 152.828 363.984ZM152.523 365.141C150.906 365.141 149.82 364.164 149.82 362.703C149.82 361.312 150.891 360.438 152.766 360.328L155.094 360.195V359.516C155.094 358.523 154.438 357.93 153.312 357.93C152.266 357.93 151.609 358.422 151.438 359.219H150.125C150.219 357.812 151.422 356.734 153.344 356.734C155.25 356.734 156.453 357.766 156.453 359.383V365H155.164V363.602H155.133C154.648 364.531 153.617 365.141 152.523 365.141ZM158.25 365V353.727H159.609V365H158.25ZM161.305 359.117C161.305 357.727 162.547 356.734 164.336 356.734C166.016 356.734 167.25 357.734 167.312 359.109H166.016C165.922 358.328 165.289 357.844 164.289 357.844C163.297 357.844 162.641 358.336 162.641 359.047C162.641 359.609 163.07 359.984 163.992 360.219L165.25 360.523C166.891 360.938 167.484 361.531 167.484 362.727C167.484 364.141 166.148 365.141 164.25 365.141C162.469 365.141 161.227 364.172 161.086 362.734H162.445C162.594 363.578 163.234 364.031 164.336 364.031C165.438 364.031 166.117 363.562 166.117 362.828C166.117 362.25 165.781 361.938 164.867 361.695L163.438 361.328C162.008 360.961 161.305 360.227 161.305 359.117ZM170.047 365.078C169.547 365.078 169.156 364.688 169.156 364.188C169.156 363.688 169.547 363.297 170.047 363.297C170.547 363.297 170.938 363.688 170.938 364.188C170.938 364.688 170.547 365.078 170.047 365.078Z" fill="#BDBDBD"/>
<path d="M4.2353 -42H-20V-17.6667M4.2353 -42V-17.6667M4.2353 -42H28.4706M4.2353 -17.6667H-20M4.2353 -17.6667H28.4706M4.2353 -17.6667V6.66667M-20 -17.6667V6.66667M28.4706 -42V-17.6667M28.4706 -42H52.7059M28.4706 -17.6667H52.7059M28.4706 -17.6667V6.66667M52.7059 -42V-17.6667M52.7059 -42H76.9412M52.7059 -17.6667H76.9412M52.7059 -17.6667V6.66667M76.9412 -42V-17.6667M76.9412 -42H101.176M76.9412 -17.6667H101.176M76.9412 -17.6667V6.66667M101.176 -42V-17.6667M101.176 -42H125.412M101.176 -17.6667H125.412M101.176 -17.6667V6.66667M125.412 -42V-17.6667M125.412 -42H149.647M125.412 -17.6667H149.647M125.412 -17.6667V6.66667M149.647 -42V-17.6667M149.647 -42H173.882M149.647 -17.6667H173.882M149.647 -17.6667V6.66667M173.882 -42V-17.6667M173.882 -42H198.118M173.882 -17.6667H198.118M173.882 -17.6667V6.66667M198.118 -42V-17.6667M198.118 -42H222.353M198.118 -17.6667H222.353M198.118 -17.6667V6.66667M222.353 -42V-17.6667M222.353 -42H246.588M222.353 -17.6667H246.588M222.353 -17.6667V6.66667M246.588 -42V-17.6667M246.588 -42H270.824M246.588 -17.6667H270.824M246.588 -17.6667V6.66667M270.824 -42V-17.6667M270.824 -42H295.059M270.824 -17.6667H295.059M270.824 -17.6667V6.66667M295.059 -42V-17.6667M295.059 -42H319.294M295.059 -17.6667H319.294M295.059 -17.6667V6.66667M319.294 -42V-17.6667M319.294 -42H343.529M319.294 -17.6667H343.529M319.294 -17.6667V6.66667M343.529 -42V-17.6667M343.529 -42H367.765M343.529 -17.6667H367.765M343.529 -17.6667V6.66667M367.765 -42V-17.6667M367.765 -42H392V-17.6667M367.765 -17.6667H392M367.765 -17.6667V6.66667M392 -17.6667V6.66667M4.2353 6.66667H-20M4.2353 6.66667H28.4706M4.2353 6.66667V31M-20 6.66667V31M28.4706 6.66667H52.7059M28.4706 6.66667V31M52.7059 6.66667H76.9412M52.7059 6.66667V31M76.9412 6.66667H101.176M76.9412 6.66667V31M101.176 6.66667H125.412M101.176 6.66667V31M125.412 6.66667H149.647M125.412 6.66667V31M149.647 6.66667H173.882M149.647 6.66667V31M173.882 6.66667H198.118M173.882 6.66667V31M198.118 6.66667H222.353M198.118 6.66667V31M222.353 6.66667H246.588M222.353 6.66667V31M246.588 6.66667H270.824M246.588 6.66667V31M270.824 6.66667H295.059M270.824 6.66667V31M295.059 6.66667H319.294M295.059 6.66667V31M319.294 6.66667H343.529M319.294 6.66667V31M343.529 6.66667H367.765M343.529 6.66667V31M367.765 6.66667H392M367.765 6.66667V31M392 6.66667V31M4.2353 31H-20M4.2353 31H28.4706M4.2353 31V55.3333M-20 31V55.3333M28.4706 31H52.7059M28.4706 31V55.3333M52.7059 31H76.9412M52.7059 31V55.3333M76.9412 31H101.176M76.9412 31V55.3333M101.176 31H125.412M101.176 31V55.3333M125.412 31H149.647M125.412 31V55.3333M149.647 31H173.882M149.647 31V55.3333M173.882 31H198.118M173.882 31V55.3333M198.118 31H222.353M198.118 31V55.3333M222.353 31H246.588M222.353 31V55.3333M246.588 31H270.824M246.588 31V55.3333M270.824 31H295.059M270.824 31V55.3333M295.059 31H319.294M295.059 31V55.3333M319.294 31H343.529M319.294 31V55.3333M343.529 31H367.765M343.529 31V55.3333M367.765 31H392M367.765 31V55.3333M392 31V55.3333M4.2353 55.3333H-20M4.2353 55.3333H28.4706M4.2353 55.3333V79.6667M-20 55.3333V79.6667M28.4706 55.3333H52.7059M28.4706 55.3333V79.6667M52.7059 55.3333H76.9412M52.7059 55.3333V79.6667M76.9412 55.3333H101.176M76.9412 55.3333V79.6667M101.176 55.3333H125.412M101.176 55.3333V79.6667M125.412 55.3333H149.647M125.412 55.3333V79.6667M149.647 55.3333H173.882M149.647 55.3333V79.6667M173.882 55.3333H198.118M173.882 55.3333V79.6667M198.118 55.3333H222.353M198.118 55.3333V79.6667M222.353 55.3333H246.588M222.353 55.3333V79.6667M246.588 55.3333H270.824M246.588 55.3333V79.6667M270.824 55.3333H295.059M270.824 55.3333V79.6667M295.059 55.3333H319.294M295.059 55.3333V79.6667M319.294 55.3333H343.529M319.294 55.3333V79.6667M343.529 55.3333H367.765M343.529 55.3333V79.6667M367.765 55.3333H392M367.765 55.3333V79.6667M392 55.3333V79.6667M4.2353 79.6667H-20M4.2353 79.6667H28.4706M4.2353 79.6667V104M-20 79.6667V104M28.4706 79.6667H52.7059M28.4706 79.6667V104M52.7059 79.6667H76.9412M52.7059 79.6667V104M76.9412 79.6667H101.176M76.9412 79.6667V104M101.176 79.6667H125.412M101.176 79.6667V104M125.412 79.6667H149.647M125.412 79.6667V104M149.647 79.6667H173.882M149.647 79.6667V104M173.882 79.6667H198.118M173.882 79.6667V104M198.118 79.6667H222.353M198.118 79.6667V104M222.353 79.6667H246.588M222.353 79.6667V104M246.588 79.6667H270.824M246.588 79.6667V104M270.824 79.6667H295.059M270.824 79.6667V104M295.059 79.6667H319.294M295.059 79.6667V104M319.294 79.6667H343.529M319.294 79.6667V104M343.529 79.6667H367.765M343.529 79.6667V104M367.765 79.6667H392M367.765 79.6667V104M392 79.6667V104M4.2353 104H-20M4.2353 104H28.4706M4.2353 104V128.333M-20 104V128.333M28.4706 104H52.7059M28.4706 104V128.333M52.7059 104H76.9412M52.7059 104V128.333M76.9412 104H101.176M76.9412 104V128.333M101.176 104H125.412M101.176 104V128.333M125.412 104H149.647M125.412 104V128.333M149.647 104H173.882M149.647 104V128.333M173.882 104H198.118M173.882 104V128.333M198.118 104H222.353M198.118 104V128.333M222.353 104H246.588M222.353 104V128.333M246.588 104H270.824M246.588 104V128.333M270.824 104H295.059M270.824 104V128.333M295.059 104H319.294M295.059 104V128.333M319.294 104H343.529M319.294 104V128.333M343.529 104H367.765M343.529 104V128.333M367.765 104H392M367.765 104V128.333M392 104V128.333M4.2353 128.333H-20M4.2353 128.333H28.4706M4.2353 128.333V152.667M-20 128.333V152.667M28.4706 128.333H52.7059M28.4706 128.333V152.667M52.7059 128.333H76.9412M52.7059 128.333V152.667M76.9412 128.333H101.176M76.9412 128.333V152.667M101.176 128.333H125.412M101.176 128.333V152.667M125.412 128.333H149.647M125.412 128.333V152.667M149.647 128.333H173.882M149.647 128.333V152.667M173.882 128.333H198.118M173.882 128.333V152.667M198.118 128.333H222.353M198.118 128.333V152.667M222.353 128.333H246.588M222.353 128.333V152.667M246.588 128.333H270.824M246.588 128.333V152.667M270.824 128.333H295.059M270.824 128.333V152.667M295.059 128.333H319.294M295.059 128.333V152.667M319.294 128.333H343.529M319.294 128.333V152.667M343.529 128.333H367.765M343.529 128.333V152.667M367.765 128.333H392M367.765 128.333V152.667M392 128.333V152.667M4.2353 152.667H-20M4.2353 152.667H28.4706M4.2353 152.667V177M-20 152.667V177M28.4706 152.667H52.7059M28.4706 152.667V177M52.7059 152.667H76.9412M52.7059 152.667V177M76.9412 152.667H101.176M76.9412 152.667V177M101.176 152.667H125.412M101.176 152.667V177M125.412 152.667H149.647M125.412 152.667V177M149.647 152.667H173.882M149.647 152.667V177M173.882 152.667H198.118M173.882 152.667V177M198.118 152.667H222.353M198.118 152.667V177M222.353 152.667H246.588M222.353 152.667V177M246.588 152.667H270.824M246.588 152.667V177M270.824 152.667H295.059M270.824 152.667V177M295.059 152.667H319.294M295.059 152.667V177M319.294 152.667H343.529M319.294 152.667V177M343.529 152.667H367.765M343.529 152.667V177M367.765 152.667H392M367.765 152.667V177M392 152.667V177M4.2353 177H-20M4.2353 177H28.4706M4.2353 177V201.333M-20 177V201.333M28.4706 177H52.7059M28.4706 177V201.333M52.7059 177H76.9412M52.7059 177V201.333M76.9412 177H101.176M76.9412 177V201.333M101.176 177H125.412M101.176 177V201.333M125.412 177H149.647M125.412 177V201.333M149.647 177H173.882M149.647 177V201.333M173.882 177H198.118M173.882 177V201.333M198.118 177H222.353M198.118 177V201.333M222.353 177H246.588M222.353 177V201.333M246.588 177H270.824M246.588 177V201.333M270.824 177H295.059M270.824 177V201.333M295.059 177H319.294M295.059 177V201.333M319.294 177H343.529M319.294 177V201.333M343.529 177H367.765M343.529 177V201.333M367.765 177H392M367.765 177V201.333M392 177V201.333M4.2353 201.333H-20M4.2353 201.333H28.4706M4.2353 201.333V225.667M-20 201.333V225.667M28.4706 201.333H52.7059M28.4706 201.333V225.667M52.7059 201.333H76.9412M52.7059 201.333V225.667M76.9412 201.333H101.176M76.9412 201.333V225.667M101.176 201.333H125.412M101.176 201.333V225.667M125.412 201.333H149.647M125.412 201.333V225.667M149.647 201.333H173.882M149.647 201.333V225.667M173.882 201.333H198.118M173.882 201.333V225.667M198.118 201.333H222.353M198.118 201.333V225.667M222.353 201.333H246.588M222.353 201.333V225.667M246.588 201.333H270.824M246.588 201.333V225.667M270.824 201.333H295.059M270.824 201.333V225.667M295.059 201.333H319.294M295.059 201.333V225.667M319.294 201.333H343.529M319.294 201.333V225.667M343.529 201.333H367.765M343.529 201.333V225.667M367.765 201.333H392M367.765 201.333V225.667M392 201.333V225.667M4.2353 225.667H-20M4.2353 225.667H28.4706M4.2353 225.667V250M-20 225.667V250H4.2353M28.4706 225.667H52.7059M28.4706 225.667V250M52.7059 225.667H76.9412M52.7059 225.667V250M76.9412 225.667H101.176M76.9412 225.667V250M101.176 225.667H125.412M101.176 225.667V250M125.412 225.667H149.647M125.412 225.667V250M149.647 225.667H173.882M149.647 225.667V250M173.882 225.667H198.118M173.882 225.667V250M198.118 225.667H222.353M198.118 225.667V250M222.353 225.667H246.588M222.353 225.667V250M246.588 225.667H270.824M246.588 225.667V250M270.824 225.667H295.059M270.824 225.667V250M295.059 225.667H319.294M295.059 225.667V250M319.294 225.667H343.529M319.294 225.667V250M343.529 225.667H367.765M343.529 225.667V250M367.765 225.667H392M367.765 225.667V250M392 225.667V250H367.765M4.2353 250H28.4706M28.4706 250H52.7059M52.7059 250H76.9412M76.9412 250H101.176M101.176 250H125.412M125.412 250H149.647M149.647 250H173.882M173.882 250H198.118M198.118 250H222.353M222.353 250H246.588M246.588 250H270.824M270.824 250H295.059M295.059 250H319.294M319.294 250H343.529M343.529 250H367.765" stroke="url(#paint0_radial_2_956)" stroke-opacity="0.08"/>
<g clip-path="url(#clip1_2_956)">
<path d="M76.0342 72.5012C76.0342 66.1493 81.1835 61 87.5355 61H342V107.005H87.5355C81.1835 107.005 76.0342 101.856 76.0342 95.5037V72.5012Z" fill="#202020"/>
<path d="M110.538 69.626H93.2861C90.1101 69.626 87.5355 72.2006 87.5355 75.3766V92.6284C87.5355 95.8044 90.1101 98.379 93.2861 98.379H110.538C113.714 98.379 116.289 95.8044 116.289 92.6284V75.3766C116.289 72.2006 113.714 69.626 110.538 69.626Z" fill="#2B4089"/>
<path d="M108.381 79.9591C108.381 81.8945 105.485 83.4634 101.912 83.4634C98.339 83.4634 95.4426 81.8945 95.4426 79.9591C95.4426 78.0237 98.339 76.4548 101.912 76.4548C105.485 76.4548 108.381 78.0237 108.381 79.9591Z" fill="white"/>
<path d="M101.912 84.5416C103.842 84.5416 105.643 84.1201 107 83.385C107.496 83.1163 107.968 82.7835 108.363 82.3899C108.375 82.4773 108.381 82.5656 108.381 82.6546C108.381 84.59 105.485 86.1589 101.912 86.1589C98.339 86.1589 95.4426 84.59 95.4426 82.6546C95.4426 82.5656 95.4487 82.4773 95.4608 82.3899C95.856 82.7835 96.3279 83.1163 96.8239 83.385C98.1809 84.1201 99.9818 84.5416 101.912 84.5416Z" fill="white"/>
<path d="M101.912 87.2371C103.842 87.2371 105.643 86.8157 107 86.0806C107.496 85.8119 107.968 85.4791 108.363 85.0854C108.375 85.1729 108.381 85.2611 108.381 85.3502C108.381 87.2856 105.485 88.8545 101.912 88.8545C98.339 88.8545 95.4426 87.2856 95.4426 85.3502C95.4426 85.2611 95.4487 85.1729 95.4608 85.0854C95.856 85.4791 96.3279 85.8119 96.8239 86.0806C98.1809 86.8157 99.9818 87.2371 101.912 87.2371Z" fill="white"/>
<path d="M101.912 89.9327C103.842 89.9327 105.643 89.5112 107 88.7762C107.496 88.5075 107.968 88.1746 108.363 87.781C108.375 87.8684 108.381 87.9567 108.381 88.0458C108.381 89.9811 105.485 91.55 101.912 91.55C98.339 91.55 95.4426 89.9811 95.4426 88.0458C95.4426 87.9567 95.4487 87.8684 95.4608 87.781C95.856 88.1746 96.3279 88.5075 96.8239 88.7762C98.1809 89.5112 99.9818 89.9327 101.912 89.9327Z" fill="white"/>
<path d="M132.998 89.2026C130.155 89.2026 128.358 87.1949 128.358 83.9658C128.358 80.7578 130.17 78.7361 132.998 78.7361C135.294 78.7361 137.028 80.1471 137.295 82.2601H135.736C135.455 80.9614 134.374 80.112 132.998 80.112C131.16 80.112 129.966 81.6212 129.966 83.9658C129.966 86.3315 131.145 87.8267 133.006 87.8267C134.417 87.8267 135.42 87.1037 135.736 85.8822H137.301C136.915 87.9742 135.329 89.2026 132.998 89.2026ZM138.537 89.0341V81.6493H139.983V82.9059H140.018C140.264 82.0424 140.923 81.5299 141.794 81.5299C142.012 81.5299 142.201 81.5651 142.314 81.5862V82.9971C142.194 82.948 141.928 82.9129 141.633 82.9129C140.657 82.9129 140.054 83.5657 140.054 84.6117V89.0341H138.537ZM143.984 91.7859C143.865 91.7859 143.479 91.7719 143.367 91.7508V90.5223C143.479 90.5504 143.732 90.5504 143.858 90.5504C144.567 90.5504 144.939 90.2556 145.171 89.4974C145.171 89.4834 145.304 89.0482 145.304 89.0412L142.636 81.6493H144.279L146.154 87.6582H146.174L148.049 81.6493H149.649L146.877 89.4202C146.245 91.2102 145.522 91.7859 143.984 91.7859ZM154.388 81.5299C156.262 81.5299 157.497 83.0041 157.497 85.3417C157.497 87.6793 156.269 89.1605 154.416 89.1605C153.356 89.1605 152.514 88.641 152.093 87.8197H152.057V91.477H150.541V81.6493H152.008V82.9199H152.036C152.471 82.0705 153.321 81.5299 154.388 81.5299ZM153.987 87.8759C155.188 87.8759 155.939 86.8931 155.939 85.3417C155.939 83.7973 155.188 82.8076 153.987 82.8076C152.829 82.8076 152.05 83.8184 152.05 85.3417C152.05 86.8791 152.822 87.8759 153.987 87.8759ZM159.112 79.9014H160.635V81.6493H162.039V82.8497H160.635V86.9211C160.635 87.56 160.916 87.8478 161.534 87.8478C161.688 87.8478 161.934 87.8338 162.032 87.8127V89.0131C161.864 89.0552 161.527 89.0833 161.19 89.0833C159.695 89.0833 159.112 88.5146 159.112 87.0896V82.8497H158.038V81.6493H159.112V79.9014ZM166.279 89.1745C164.166 89.1745 162.776 87.7214 162.776 85.3417C162.776 82.969 164.173 81.5159 166.279 81.5159C168.385 81.5159 169.782 82.969 169.782 85.3417C169.782 87.7214 168.392 89.1745 166.279 89.1745ZM166.279 87.925C167.473 87.925 168.238 86.9843 168.238 85.3417C168.238 83.7061 167.465 82.7655 166.279 82.7655C165.093 82.7655 164.321 83.7061 164.321 85.3417C164.321 86.9843 165.093 87.925 166.279 87.925ZM177.293 84.1905H175.847C175.693 83.4043 175.103 82.7795 174.113 82.7795C172.941 82.7795 172.169 83.7552 172.169 85.3417C172.169 86.9633 172.948 87.9039 174.127 87.9039C175.061 87.9039 175.671 87.3915 175.847 86.5351H177.308C177.146 88.1075 175.889 89.1745 174.113 89.1745C172 89.1745 170.625 87.7285 170.625 85.3417C170.625 82.9971 172 81.5159 174.099 81.5159C176.001 81.5159 177.16 82.7374 177.293 84.1905ZM184.713 81.6493V89.0341H183.26V87.7846H183.225C182.818 88.6691 182.067 89.1675 180.937 89.1675C179.329 89.1675 178.346 88.1216 178.346 86.4298V81.6493H179.862V86.135C179.862 87.2581 180.396 87.8618 181.442 87.8618C182.537 87.8618 183.197 87.1037 183.197 85.9525V81.6493H184.713ZM186.215 89.0341V81.6493H187.662V82.9059H187.697C187.943 82.0424 188.602 81.5299 189.473 81.5299C189.69 81.5299 189.88 81.5651 189.992 81.5862V82.9971C189.873 82.948 189.606 82.9129 189.311 82.9129C188.336 82.9129 187.732 83.5657 187.732 84.6117V89.0341H186.215ZM190.933 89.0341V81.6493H192.379V82.9059H192.414C192.66 82.0424 193.319 81.5299 194.19 81.5299C194.408 81.5299 194.597 81.5651 194.71 81.5862V82.9971C194.59 82.948 194.324 82.9129 194.028 82.9129C193.053 82.9129 192.449 83.5657 192.449 84.6117V89.0341H190.933ZM198.416 82.7374C197.356 82.7374 196.612 83.5447 196.535 84.6608H200.227C200.192 83.5307 199.476 82.7374 198.416 82.7374ZM200.22 86.865H201.659C201.449 88.2128 200.171 89.1745 198.479 89.1745C196.31 89.1745 194.997 87.7074 194.997 85.3768C194.997 83.0603 196.331 81.5159 198.416 81.5159C200.466 81.5159 201.743 82.962 201.743 85.2014V85.7208H196.528V85.8121C196.528 87.0967 197.3 87.946 198.514 87.946C199.378 87.946 200.017 87.5109 200.22 86.865ZM202.922 89.0341V81.6493H204.368V82.8848H204.404C204.804 82.0424 205.59 81.523 206.727 81.523C208.356 81.523 209.29 82.5619 209.29 84.2537V89.0341H207.766V84.5485C207.766 83.4394 207.247 82.8287 206.194 82.8287C205.127 82.8287 204.439 83.5868 204.439 84.731V89.0341H202.922ZM217.095 84.1905H215.65C215.495 83.4043 214.905 82.7795 213.915 82.7795C212.744 82.7795 211.971 83.7552 211.971 85.3417C211.971 86.9633 212.75 87.9039 213.93 87.9039C214.863 87.9039 215.474 87.3915 215.65 86.5351H217.11C216.948 88.1075 215.691 89.1745 213.915 89.1745C211.803 89.1745 210.427 87.7285 210.427 85.3417C210.427 82.9971 211.803 81.5159 213.902 81.5159C215.804 81.5159 216.962 82.7374 217.095 84.1905ZM218.914 91.7859C218.795 91.7859 218.408 91.7719 218.296 91.7508V90.5223C218.408 90.5504 218.661 90.5504 218.787 90.5504C219.496 90.5504 219.869 90.2556 220.1 89.4974C220.1 89.4834 220.234 89.0482 220.234 89.0412L217.566 81.6493H219.209L221.083 87.6582H221.103L222.978 81.6493H224.578L221.806 89.4202C221.174 91.2102 220.451 91.7859 218.914 91.7859Z" fill="white"/>
<path d="M76.3936 72.5012C76.3936 66.3477 81.382 61.3594 87.5354 61.3594H341.641V106.645H87.5354C81.382 106.645 76.3936 101.657 76.3936 95.5036V72.5012Z" stroke="white" stroke-opacity="0.01"/>
<path d="M76.3936 72.5012C76.3936 66.3477 81.382 61.3594 87.5354 61.3594H341.641V106.645H87.5354C81.382 106.645 76.3936 101.657 76.3936 95.5036V72.5012Z" stroke="url(#paint1_radial_2_956)" stroke-opacity="0.12"/>
<path d="M48 127.132C48 120.78 53.1493 115.631 59.5012 115.631H342V170.262H59.5012C53.1493 170.262 48 165.113 48 158.76V127.132Z" fill="#202020"/>
<path d="M85.379 127.132H65.2518C62.0759 127.132 59.5012 129.707 59.5012 132.883V153.01C59.5012 156.186 62.0759 158.76 65.2518 158.76H85.379C88.5549 158.76 91.1296 156.186 91.1296 153.01V132.883C91.1296 129.707 88.5549 127.132 85.379 127.132Z" fill="#2B892E"/>
<path d="M75.3154 139.711C74.4222 139.711 73.6981 140.435 73.6981 141.329C73.6981 142.222 74.4222 142.946 75.3154 142.946C76.2086 142.946 76.9328 142.222 76.9328 141.329C76.9328 140.435 76.2086 139.711 75.3154 139.711Z" fill="white"/>
<path fill-rule="evenodd" clip-rule="evenodd" d="M67.7677 137.825C67.7677 137.08 68.3712 136.477 69.1155 136.477H81.5153C82.2596 136.477 82.8631 137.08 82.8631 137.825V144.833C82.8631 145.578 82.2596 146.181 81.5153 146.181H69.1155C68.3712 146.181 67.7677 145.578 67.7677 144.833V137.825ZM72.6198 141.329C72.6198 139.84 73.8266 138.633 75.3154 138.633C76.8041 138.633 78.011 139.84 78.011 141.329C78.011 142.818 76.8041 144.024 75.3154 144.024C73.8266 144.024 72.6198 142.818 72.6198 141.329ZM80.1675 140.79C79.8697 140.79 79.6283 141.031 79.6283 141.329V141.335C79.6283 141.632 79.8697 141.874 80.1675 141.874H80.1728C80.4706 141.874 80.712 141.632 80.712 141.335V141.329C80.712 141.031 80.4706 140.79 80.1728 140.79H80.1675ZM69.9242 141.329C69.9242 141.031 70.1656 140.79 70.4633 140.79H70.4687C70.7664 140.79 71.0078 141.031 71.0078 141.329V141.335C71.0078 141.632 70.7664 141.874 70.4687 141.874H70.4633C70.1656 141.874 69.9242 141.632 69.9242 141.335V141.329Z" fill="white"/>
<path d="M68.3068 147.259C68.0091 147.259 67.7677 147.501 67.7677 147.798C67.7677 148.096 68.0091 148.338 68.3068 148.338C72.1885 148.338 75.9481 148.857 79.5204 149.829C80.3762 150.062 81.2457 149.428 81.2457 148.521V147.798C81.2457 147.501 81.0043 147.259 80.7066 147.259H68.3068Z" fill="white"/>
<path d="M103.212 146.029H105.074C105.208 147.234 106.379 148.025 107.98 148.025C109.513 148.025 110.617 147.234 110.617 146.147C110.617 145.204 109.951 144.639 108.376 144.252L106.801 143.873C104.568 143.334 103.532 142.289 103.532 140.596C103.532 138.498 105.36 137.058 107.955 137.058C110.524 137.058 112.284 138.498 112.343 140.596H110.507C110.397 139.383 109.395 138.65 107.929 138.65C106.464 138.65 105.461 139.392 105.461 140.47C105.461 141.329 106.101 141.834 107.668 142.222L109.008 142.55C111.501 143.14 112.537 144.142 112.537 145.92C112.537 148.194 110.726 149.618 107.845 149.618C105.149 149.618 103.33 148.228 103.212 146.029ZM114.011 149.416V140.554H115.747V142.045H115.789C116.185 141.059 117.111 140.402 118.307 140.402C119.537 140.402 120.43 141.034 120.784 142.138H120.826C121.281 141.059 122.325 140.402 123.589 140.402C125.341 140.402 126.487 141.565 126.487 143.325V149.416H124.659V143.764C124.659 142.618 124.044 141.961 122.966 141.961C121.887 141.961 121.138 142.761 121.138 143.881V149.416H119.352V143.628C119.352 142.609 118.703 141.961 117.676 141.961C116.597 141.961 115.831 142.803 115.831 143.94V149.416H114.011ZM131.347 148.127C132.62 148.127 133.614 147.251 133.614 146.097V145.397L131.431 145.533C130.345 145.608 129.73 146.088 129.73 146.847C129.73 147.622 130.37 148.127 131.347 148.127ZM130.842 149.567C129.107 149.567 127.894 148.489 127.894 146.897C127.894 145.347 129.081 144.395 131.188 144.278L133.614 144.134V143.452C133.614 142.466 132.948 141.877 131.836 141.877C130.783 141.877 130.126 142.382 129.966 143.173H128.248C128.348 141.573 129.713 140.394 131.904 140.394C134.051 140.394 135.424 141.531 135.424 143.309V149.416H133.68V147.959H133.639C133.125 148.944 132.004 149.567 130.842 149.567ZM137.193 149.416V140.554H138.929V142.062H138.971C139.266 141.026 140.057 140.411 141.102 140.411C141.363 140.411 141.59 140.453 141.726 140.478V142.171C141.583 142.112 141.262 142.07 140.908 142.07C139.737 142.07 139.013 142.854 139.013 144.109V149.416H137.193ZM143.385 138.456H145.213V140.554H146.898V141.995H145.213V146.88C145.213 147.647 145.55 147.992 146.291 147.992C146.476 147.992 146.771 147.975 146.889 147.95V149.391C146.687 149.441 146.283 149.475 145.878 149.475C144.084 149.475 143.385 148.792 143.385 147.082V141.995H142.096V140.554H143.385V138.456ZM152.121 137.26H156.678C159.036 137.26 160.679 138.886 160.679 141.253C160.679 143.628 159.003 145.263 156.618 145.263H154.007V149.416H152.121V137.26ZM154.007 138.853V143.679H156.172C157.815 143.679 158.75 142.795 158.75 141.261C158.75 139.728 157.815 138.853 156.18 138.853H154.007ZM165.531 149.584C162.996 149.584 161.327 147.841 161.327 144.985C161.327 142.138 163.004 140.394 165.531 140.394C168.058 140.394 169.735 142.138 169.735 144.985C169.735 147.841 168.066 149.584 165.531 149.584ZM165.531 148.084C166.963 148.084 167.881 146.956 167.881 144.985C167.881 143.022 166.954 141.893 165.531 141.893C164.107 141.893 163.18 143.022 163.18 144.985C163.18 146.956 164.107 148.084 165.531 148.084ZM171.141 149.416V140.554H172.877V142.062H172.918C173.213 141.026 174.005 140.411 175.05 140.411C175.311 140.411 175.538 140.453 175.673 140.478V142.171C175.53 142.112 175.21 142.07 174.856 142.07C173.685 142.07 172.961 142.854 172.961 144.109V149.416H171.141ZM177.333 138.456H179.161V140.554H180.846V141.995H179.161V146.88C179.161 147.647 179.498 147.992 180.239 147.992C180.424 147.992 180.719 147.975 180.837 147.95V149.391C180.635 149.441 180.23 149.475 179.826 149.475C178.032 149.475 177.333 148.792 177.333 147.082V141.995H176.044V140.554H177.333V138.456ZM182.876 149.416V141.995H181.654V140.571H182.876V139.703C182.876 137.985 183.684 137.176 185.487 137.176C185.857 137.176 186.27 137.218 186.506 137.26V138.608C186.33 138.574 186.085 138.558 185.841 138.558C185.049 138.558 184.678 138.953 184.678 139.737V140.571H186.473V141.995H184.704V149.416H182.876ZM191.341 149.584C188.806 149.584 187.137 147.841 187.137 144.985C187.137 142.138 188.814 140.394 191.341 140.394C193.869 140.394 195.545 142.138 195.545 144.985C195.545 147.841 193.877 149.584 191.341 149.584ZM191.341 148.084C192.773 148.084 193.692 146.956 193.692 144.985C193.692 143.022 192.765 141.893 191.341 141.893C189.918 141.893 188.991 143.022 188.991 144.985C188.991 146.956 189.918 148.084 191.341 148.084ZM197.019 149.416V137.26H198.839V149.416H197.019ZM200.767 149.416V140.554H202.587V149.416H200.767ZM201.677 139.257C201.096 139.257 200.624 138.794 200.624 138.221C200.624 137.639 201.096 137.176 201.677 137.176C202.267 137.176 202.739 137.639 202.739 138.221C202.739 138.794 202.267 139.257 201.677 139.257ZM208.256 149.584C205.721 149.584 204.053 147.841 204.053 144.985C204.053 142.138 205.729 140.394 208.256 140.394C210.783 140.394 212.46 142.138 212.46 144.985C212.46 147.841 210.792 149.584 208.256 149.584ZM208.256 148.084C209.688 148.084 210.606 146.956 210.606 144.985C210.606 143.022 209.68 141.893 208.256 141.893C206.833 141.893 205.906 143.022 205.906 144.985C205.906 146.956 206.833 148.084 208.256 148.084ZM219.477 149.416H217.59V137.26H219.477V149.416ZM221.498 149.416V140.554H223.233V142.036H223.276C223.756 141.026 224.699 140.402 226.064 140.402C228.019 140.402 229.138 141.649 229.138 143.679V149.416H227.311V144.033C227.311 142.702 226.687 141.969 225.424 141.969C224.143 141.969 223.318 142.879 223.318 144.252V149.416H221.498ZM238.464 140.554L235.288 149.416H233.334L230.141 140.554H232.078L234.303 147.638H234.336L236.56 140.554H238.464ZM242.962 141.859C241.69 141.859 240.797 142.828 240.704 144.168H245.135C245.094 142.811 244.234 141.859 242.962 141.859ZM245.127 146.813H246.854C246.601 148.43 245.068 149.584 243.038 149.584C240.435 149.584 238.86 147.823 238.86 145.027C238.86 142.247 240.46 140.394 242.962 140.394C245.422 140.394 246.955 142.129 246.955 144.817V145.44H240.696V145.549C240.696 147.091 241.622 148.11 243.08 148.11C244.116 148.11 244.883 147.588 245.127 146.813ZM248.21 143.064C248.21 141.481 249.609 140.394 251.681 140.394C253.652 140.394 255.033 141.497 255.092 143.073H253.382C253.298 142.272 252.649 141.775 251.63 141.775C250.644 141.775 249.987 142.255 249.987 142.955C249.987 143.502 250.425 143.873 251.344 144.1L252.835 144.446C254.62 144.876 255.294 145.549 255.294 146.855C255.294 148.473 253.786 149.584 251.613 149.584C249.516 149.584 248.126 148.498 247.983 146.872H249.785C249.928 147.723 250.585 148.194 251.697 148.194C252.792 148.194 253.466 147.739 253.466 147.023C253.466 146.459 253.129 146.147 252.203 145.911L250.619 145.524C249.018 145.137 248.21 144.303 248.21 143.064ZM257.24 138.456H259.068V140.554H260.753V141.995H259.068V146.88C259.068 147.647 259.405 147.992 260.147 147.992C260.332 147.992 260.627 147.975 260.745 147.95V149.391C260.543 149.441 260.138 149.475 259.734 149.475C257.94 149.475 257.24 148.792 257.24 147.082V141.995H255.951V140.554H257.24V138.456ZM262.312 149.416V140.554H264.131V149.416H262.312ZM263.221 139.257C262.64 139.257 262.168 138.794 262.168 138.221C262.168 137.639 262.64 137.176 263.221 137.176C263.811 137.176 264.283 137.639 264.283 138.221C264.283 138.794 263.811 139.257 263.221 139.257ZM265.993 149.416V140.554H267.728V142.036H267.77C268.25 141.026 269.194 140.402 270.558 140.402C272.512 140.402 273.633 141.649 273.633 143.679V149.416H271.805V144.033C271.805 142.702 271.181 141.969 269.918 141.969C268.637 141.969 267.812 142.879 267.812 144.252V149.416H265.993ZM279.167 147.941C280.591 147.941 281.526 146.788 281.526 144.96C281.526 143.14 280.591 141.943 279.167 141.943C277.769 141.943 276.859 143.114 276.859 144.96C276.859 146.813 277.769 147.941 279.167 147.941ZM279.184 152.752C277.095 152.752 275.545 151.64 275.317 150.106H277.145C277.407 150.848 278.216 151.336 279.251 151.336C280.675 151.336 281.517 150.528 281.517 149.314V147.857H281.483C280.987 148.818 279.942 149.449 278.679 149.449C276.455 149.449 274.997 147.714 274.997 144.951C274.997 142.163 276.447 140.411 278.721 140.411C279.976 140.411 281.004 141.043 281.543 142.07H281.576V140.554H283.345V149.255C283.345 151.37 281.711 152.752 279.184 152.752Z" fill="white"/>
<path d="M48.3594 127.132C48.3594 120.979 53.3478 115.99 59.5012 115.99H341.641V169.902H59.5012C53.3478 169.902 48.3594 164.914 48.3594 158.76V127.132Z" stroke="white" stroke-opacity="0.01"/>
<path d="M48.3594 127.132C48.3594 120.979 53.3478 115.99 59.5012 115.99H341.641V169.902H59.5012C53.3478 169.902 48.3594 164.914 48.3594 158.76V127.132Z" stroke="url(#paint2_radial_2_956)" stroke-opacity="0.12"/>
<path d="M76.0342 190.389C76.0342 184.036 81.1835 178.887 87.5355 178.887H342V224.892H87.5355C81.1835 224.892 76.0342 219.743 76.0342 213.391V190.389Z" fill="#202020"/>
<path d="M110.538 187.513H93.2861C90.1101 187.513 87.5355 190.088 87.5355 193.264V210.516C87.5355 213.692 90.1101 216.266 93.2861 216.266H110.538C113.714 216.266 116.289 213.692 116.289 210.516V193.264C116.289 190.088 113.714 187.513 110.538 187.513Z" fill="#D06604"/>
<path d="M97.3295 195.96C96.2874 195.96 95.4426 196.804 95.4426 197.847C95.4426 198.889 96.2874 199.734 97.3295 199.734H106.495C107.537 199.734 108.381 198.889 108.381 197.847C108.381 196.804 107.537 195.96 106.495 195.96H97.3295Z" fill="white"/>
<path d="M95.9817 201.351C95.6839 201.351 95.4426 201.592 95.4426 201.89C95.4426 202.188 95.6839 202.429 95.9817 202.429H107.842C108.14 202.429 108.381 202.188 108.381 201.89C108.381 201.592 108.14 201.351 107.842 201.351H95.9817Z" fill="white"/>
<path d="M95.4426 204.586C95.4426 204.288 95.6839 204.046 95.9817 204.046H107.842C108.14 204.046 108.381 204.288 108.381 204.586C108.381 204.883 108.14 205.125 107.842 205.125H95.9817C95.6839 205.125 95.4426 204.883 95.4426 204.586Z" fill="white"/>
<path d="M95.9817 206.742C95.6839 206.742 95.4426 206.984 95.4426 207.281C95.4426 207.579 95.6839 207.82 95.9817 207.82H107.842C108.14 207.82 108.381 207.579 108.381 207.281C108.381 206.984 108.14 206.742 107.842 206.742H95.9817Z" fill="white"/>
<path d="M128.274 204.1H129.825C129.938 205.104 130.914 205.764 132.247 205.764C133.525 205.764 134.445 205.104 134.445 204.198C134.445 203.412 133.89 202.942 132.577 202.619L131.265 202.303C129.404 201.853 128.541 200.983 128.541 199.572C128.541 197.824 130.064 196.624 132.226 196.624C134.367 196.624 135.834 197.824 135.884 199.572H134.353C134.262 198.561 133.427 197.951 132.205 197.951C130.983 197.951 130.148 198.568 130.148 199.467C130.148 200.183 130.682 200.604 131.988 200.927L133.104 201.201C135.181 201.692 136.045 202.528 136.045 204.008C136.045 205.904 134.536 207.09 132.135 207.09C129.889 207.09 128.373 205.932 128.274 204.1ZM143.605 199.537V206.922H142.152V205.672H142.117C141.71 206.557 140.959 207.055 139.829 207.055C138.221 207.055 137.239 206.009 137.239 204.317V199.537H138.755V204.023C138.755 205.145 139.288 205.749 140.334 205.749C141.429 205.749 142.089 204.991 142.089 203.84V199.537H143.605ZM144.974 201.629C144.974 200.309 146.139 199.403 147.867 199.403C149.509 199.403 150.66 200.323 150.71 201.635H149.284C149.214 200.969 148.674 200.555 147.824 200.555C147.003 200.555 146.456 200.955 146.456 201.538C146.456 201.994 146.821 202.303 147.586 202.492L148.828 202.78C150.316 203.138 150.878 203.7 150.878 204.787C150.878 206.135 149.621 207.062 147.81 207.062C146.062 207.062 144.904 206.157 144.785 204.802H146.287C146.406 205.511 146.954 205.904 147.88 205.904C148.793 205.904 149.355 205.525 149.355 204.928C149.355 204.458 149.073 204.198 148.301 204.002L146.982 203.678C145.648 203.356 144.974 202.66 144.974 201.629ZM152.499 197.789H154.023V199.537H155.426V200.737H154.023V204.809C154.023 205.447 154.304 205.736 154.921 205.736C155.076 205.736 155.322 205.721 155.42 205.7V206.901C155.251 206.943 154.914 206.971 154.578 206.971C153.082 206.971 152.499 206.402 152.499 204.977V200.737H151.425V199.537H152.499V197.789ZM159.147 205.848C160.207 205.848 161.035 205.117 161.035 204.156V203.573L159.218 203.686C158.312 203.749 157.799 204.149 157.799 204.78C157.799 205.427 158.333 205.848 159.147 205.848ZM158.726 207.048C157.28 207.048 156.269 206.15 156.269 204.823C156.269 203.531 157.259 202.738 159.014 202.64L161.035 202.52V201.952C161.035 201.13 160.481 200.639 159.554 200.639C158.677 200.639 158.129 201.06 157.996 201.72H156.564C156.648 200.386 157.786 199.403 159.611 199.403C161.401 199.403 162.545 200.351 162.545 201.832V206.922H161.092V205.708H161.056C160.629 206.528 159.695 207.048 158.726 207.048ZM164.068 206.922V199.537H165.584V206.922H164.068ZM164.826 198.456C164.342 198.456 163.949 198.07 163.949 197.592C163.949 197.108 164.342 196.722 164.826 196.722C165.318 196.722 165.711 197.108 165.711 197.592C165.711 198.07 165.318 198.456 164.826 198.456ZM167.135 206.922V199.537H168.582V200.772H168.617C169.017 199.93 169.803 199.411 170.94 199.411C172.569 199.411 173.503 200.449 173.503 202.141V206.922H171.98V202.436C171.98 201.327 171.46 200.716 170.407 200.716C169.34 200.716 168.652 201.474 168.652 202.619V206.922H167.135ZM177.553 205.848C178.613 205.848 179.441 205.117 179.441 204.156V203.573L177.623 203.686C176.717 203.749 176.206 204.149 176.206 204.78C176.206 205.427 176.739 205.848 177.553 205.848ZM177.132 207.048C175.686 207.048 174.675 206.15 174.675 204.823C174.675 203.531 175.665 202.738 177.42 202.64L179.441 202.52V201.952C179.441 201.13 178.887 200.639 177.96 200.639C177.083 200.639 176.535 201.06 176.402 201.72H174.97C175.054 200.386 176.191 199.403 178.016 199.403C179.806 199.403 180.951 200.351 180.951 201.832V206.922H179.498V205.708H179.463C179.034 206.528 178.1 207.048 177.132 207.048ZM186.356 207.048C185.275 207.048 184.44 206.521 183.983 205.665H183.955V206.922H182.481V196.792H183.997V200.794H184.032C184.474 199.937 185.317 199.418 186.363 199.418C188.223 199.418 189.438 200.891 189.438 203.229C189.438 205.574 188.23 207.048 186.356 207.048ZM185.949 200.695C184.798 200.695 183.99 201.706 183.99 203.229C183.99 204.767 184.798 205.764 185.949 205.764C187.142 205.764 187.879 204.795 187.879 203.229C187.879 201.678 187.142 200.695 185.949 200.695ZM190.68 206.922V196.792H192.197V206.922H190.68ZM196.843 200.625C195.784 200.625 195.04 201.432 194.962 202.548H198.655C198.619 201.418 197.903 200.625 196.843 200.625ZM198.647 204.752H200.086C199.876 206.1 198.598 207.062 196.906 207.062C194.738 207.062 193.425 205.595 193.425 203.264C193.425 200.948 194.758 199.403 196.843 199.403C198.893 199.403 200.171 200.85 200.171 203.089V203.609H194.955V203.7C194.955 204.984 195.727 205.833 196.942 205.833C197.805 205.833 198.444 205.398 198.647 204.752ZM206.025 206.922H204.453V196.792H206.025V206.922ZM207.71 206.922V199.537H209.156V200.772H209.191C209.591 199.93 210.378 199.411 211.515 199.411C213.143 199.411 214.077 200.449 214.077 202.141V206.922H212.554V202.436C212.554 201.327 212.034 200.716 210.981 200.716C209.914 200.716 209.226 201.474 209.226 202.619V206.922H207.71ZM221.848 199.537L219.201 206.922H217.573L214.912 199.537H216.527L218.38 205.44H218.408L220.262 199.537H221.848ZM225.596 200.625C224.537 200.625 223.793 201.432 223.715 202.548H227.408C227.372 201.418 226.656 200.625 225.596 200.625ZM227.4 204.752H228.839C228.629 206.1 227.352 207.062 225.659 207.062C223.491 207.062 222.178 205.595 222.178 203.264C222.178 200.948 223.512 199.403 225.596 199.403C227.646 199.403 228.924 200.85 228.924 203.089V203.609H223.709V203.7C223.709 204.984 224.481 205.833 225.695 205.833C226.558 205.833 227.197 205.398 227.4 204.752ZM229.969 201.629C229.969 200.309 231.135 199.403 232.862 199.403C234.505 199.403 235.656 200.323 235.705 201.635H234.28C234.21 200.969 233.669 200.555 232.82 200.555C231.999 200.555 231.451 200.955 231.451 201.538C231.451 201.994 231.816 202.303 232.581 202.492L233.824 202.78C235.312 203.138 235.873 203.7 235.873 204.787C235.873 206.135 234.617 207.062 232.806 207.062C231.058 207.062 229.9 206.157 229.78 204.802H231.283C231.402 205.511 231.949 205.904 232.876 205.904C233.789 205.904 234.35 205.525 234.35 204.928C234.35 204.458 234.07 204.198 233.297 204.002L231.977 203.678C230.644 203.356 229.969 202.66 229.969 201.629ZM237.495 197.789H239.018V199.537H240.422V200.737H239.018V204.809C239.018 205.447 239.299 205.736 239.917 205.736C240.071 205.736 240.317 205.721 240.415 205.7V206.901C240.247 206.943 239.91 206.971 239.573 206.971C238.078 206.971 237.495 206.402 237.495 204.977V200.737H236.421V199.537H237.495V197.789ZM241.721 206.922V199.537H243.237V206.922H241.721ZM242.479 198.456C241.995 198.456 241.602 198.07 241.602 197.592C241.602 197.108 241.995 196.722 242.479 196.722C242.97 196.722 243.363 197.108 243.363 197.592C243.363 198.07 242.97 198.456 242.479 198.456ZM244.789 206.922V199.537H246.234V200.772H246.27C246.67 199.93 247.456 199.411 248.594 199.411C250.222 199.411 251.155 200.449 251.155 202.141V206.922H249.632V202.436C249.632 201.327 249.113 200.716 248.059 200.716C246.993 200.716 246.305 201.474 246.305 202.619V206.922H244.789ZM255.767 205.693C256.954 205.693 257.733 204.731 257.733 203.208C257.733 201.692 256.954 200.695 255.767 200.695C254.602 200.695 253.844 201.671 253.844 203.208C253.844 204.752 254.602 205.693 255.767 205.693ZM255.782 209.701C254.041 209.701 252.749 208.775 252.559 207.497H254.082C254.3 208.115 254.975 208.523 255.838 208.523C257.024 208.523 257.726 207.848 257.726 206.838V205.623H257.698C257.283 206.424 256.414 206.95 255.361 206.95C253.507 206.95 252.293 205.503 252.293 203.201C252.293 200.878 253.5 199.418 255.396 199.418C256.442 199.418 257.298 199.944 257.747 200.8H257.775V199.537H259.249V206.788C259.249 208.551 257.887 209.701 255.782 209.701Z" fill="white"/>
<path d="M76.3936 190.389C76.3936 184.236 81.382 179.247 87.5354 179.247H341.641V224.533H87.5354C81.382 224.533 76.3936 219.544 76.3936 213.391V190.389Z" stroke="white" stroke-opacity="0.01"/>
<path d="M76.3936 190.389C76.3936 184.236 81.382 179.247 87.5354 179.247H341.641V224.533H87.5354C81.382 224.533 76.3936 219.544 76.3936 213.391V190.389Z" stroke="url(#paint3_radial_2_956)" stroke-opacity="0.12"/>
</g>
<rect y="136" width="342" height="89" fill="url(#paint4_linear_2_956)"/>
</g>
<rect x="0.5" y="0.5" width="341" height="394" rx="7.5" stroke="white" stroke-opacity="0.04"/>
<rect x="0.5" y="0.5" width="341" height="394" rx="7.5" stroke="url(#paint5_linear_2_956)" stroke-opacity="0.12"/>
<defs>
<radialGradient id="paint0_radial_2_956" cx="0" cy="0" r="1" gradientUnits="userSpaceOnUse" gradientTransform="translate(186 111.799) rotate(90) scale(137.889 206.311)">
<stop stop-color="white"/>
<stop offset="1" stop-color="white" stop-opacity="0"/>
</radialGradient>
<radialGradient id="paint1_radial_2_956" cx="0" cy="0" r="1" gradientUnits="userSpaceOnUse" gradientTransform="translate(209.017 61) rotate(90) scale(29.4175 170.07)">
<stop stop-color="white"/>
<stop offset="1" stop-color="white" stop-opacity="0"/>
</radialGradient>
<radialGradient id="paint2_radial_2_956" cx="0" cy="0" r="1" gradientUnits="userSpaceOnUse" gradientTransform="translate(195 115.631) rotate(90) scale(34.9334 187.997)">
<stop stop-color="white"/>
<stop offset="1" stop-color="white" stop-opacity="0"/>
</radialGradient>
<radialGradient id="paint3_radial_2_956" cx="0" cy="0" r="1" gradientUnits="userSpaceOnUse" gradientTransform="translate(209.017 178.888) rotate(90) scale(29.4175 170.07)">
<stop stop-color="white"/>
<stop offset="1" stop-color="white" stop-opacity="0"/>
</radialGradient>
<linearGradient id="paint4_linear_2_956" x1="171" y1="136" x2="171" y2="225" gradientUnits="userSpaceOnUse">
<stop stop-color="#131313" stop-opacity="0"/>
<stop offset="1" stop-color="#131313"/>
</linearGradient>
<linearGradient id="paint5_linear_2_956" x1="171" y1="0" x2="171" y2="292.452" gradientUnits="userSpaceOnUse">
<stop stop-color="white"/>
<stop offset="1" stop-color="white" stop-opacity="0"/>
</linearGradient>
<clipPath id="clip0_2_956">
<rect width="342" height="395" rx="8" fill="white"/>
</clipPath>
<clipPath id="clip1_2_956">
<rect width="294" height="163.892" fill="white" transform="translate(48 61)"/>
</clipPath>
</defs>
</svg>
