<svg width="442" height="500" viewBox="0 0 442 500" fill="none" xmlns="http://www.w3.org/2000/svg">
<g clip-path="url(#clip0_2_771)">
<rect width="442" height="500" rx="12" fill="#131313"/>
<path d="M-23.7059 -55H-59V-22.2619M-23.7059 -55V-22.2619M-23.7059 -55H11.5882M-23.7059 -22.2619H-59M-23.7059 -22.2619H11.5882M-23.7059 -22.2619V10.4762M-59 -22.2619V10.4762M11.5882 -55V-22.2619M11.5882 -55H46.8824M11.5882 -22.2619H46.8824M11.5882 -22.2619V10.4762M46.8824 -55V-22.2619M46.8824 -55H82.1765M46.8824 -22.2619H82.1765M46.8824 -22.2619V10.4762M82.1765 -55V-22.2619M82.1765 -55H117.471M82.1765 -22.2619H117.471M82.1765 -22.2619V10.4762M117.471 -55V-22.2619M117.471 -55H152.765M117.471 -22.2619H152.765M117.471 -22.2619V10.4762M152.765 -55V-22.2619M152.765 -55H188.059M152.765 -22.2619H188.059M152.765 -22.2619V10.4762M188.059 -55V-22.2619M188.059 -55H223.353M188.059 -22.2619H223.353M188.059 -22.2619V10.4762M223.353 -55V-22.2619M223.353 -55H258.647M223.353 -22.2619H258.647M223.353 -22.2619V10.4762M258.647 -55V-22.2619M258.647 -55H293.941M258.647 -22.2619H293.941M258.647 -22.2619V10.4762M293.941 -55V-22.2619M293.941 -55H329.235M293.941 -22.2619H329.235M293.941 -22.2619V10.4762M329.235 -55V-22.2619M329.235 -55H364.529M329.235 -22.2619H364.529M329.235 -22.2619V10.4762M364.529 -55V-22.2619M364.529 -55H399.824M364.529 -22.2619H399.824M364.529 -22.2619V10.4762M399.824 -55V-22.2619M399.824 -55H435.118M399.824 -22.2619H435.118M399.824 -22.2619V10.4762M435.118 -55V-22.2619M435.118 -55H470.412M435.118 -22.2619H470.412M435.118 -22.2619V10.4762M470.412 -55V-22.2619M470.412 -55H505.706M470.412 -22.2619H505.706M470.412 -22.2619V10.4762M505.706 -55V-22.2619M505.706 -55H541V-22.2619M505.706 -22.2619H541M505.706 -22.2619V10.4762M541 -22.2619V10.4762M-23.7059 10.4762H-59M-23.7059 10.4762H11.5882M-23.7059 10.4762V43.2143M-59 10.4762V43.2143M11.5882 10.4762H46.8824M11.5882 10.4762V43.2143M46.8824 10.4762H82.1765M46.8824 10.4762V43.2143M82.1765 10.4762H117.471M82.1765 10.4762V43.2143M117.471 10.4762H152.765M117.471 10.4762V43.2143M152.765 10.4762H188.059M152.765 10.4762V43.2143M188.059 10.4762H223.353M188.059 10.4762V43.2143M223.353 10.4762H258.647M223.353 10.4762V43.2143M258.647 10.4762H293.941M258.647 10.4762V43.2143M293.941 10.4762H329.235M293.941 10.4762V43.2143M329.235 10.4762H364.529M329.235 10.4762V43.2143M364.529 10.4762H399.824M364.529 10.4762V43.2143M399.824 10.4762H435.118M399.824 10.4762V43.2143M435.118 10.4762H470.412M435.118 10.4762V43.2143M470.412 10.4762H505.706M470.412 10.4762V43.2143M505.706 10.4762H541M505.706 10.4762V43.2143M541 10.4762V43.2143M-23.7059 43.2143H-59M-23.7059 43.2143H11.5882M-23.7059 43.2143V75.9524M-59 43.2143V75.9524M11.5882 43.2143H46.8824M11.5882 43.2143V75.9524M46.8824 43.2143H82.1765M46.8824 43.2143V75.9524M82.1765 43.2143H117.471M82.1765 43.2143V75.9524M117.471 43.2143H152.765M117.471 43.2143V75.9524M152.765 43.2143H188.059M152.765 43.2143V75.9524M188.059 43.2143H223.353M188.059 43.2143V75.9524M223.353 43.2143H258.647M223.353 43.2143V75.9524M258.647 43.2143H293.941M258.647 43.2143V75.9524M293.941 43.2143H329.235M293.941 43.2143V75.9524M329.235 43.2143H364.529M329.235 43.2143V75.9524M364.529 43.2143H399.824M364.529 43.2143V75.9524M399.824 43.2143H435.118M399.824 43.2143V75.9524M435.118 43.2143H470.412M435.118 43.2143V75.9524M470.412 43.2143H505.706M470.412 43.2143V75.9524M505.706 43.2143H541M505.706 43.2143V75.9524M541 43.2143V75.9524M-23.7059 75.9524H-59M-23.7059 75.9524H11.5882M-23.7059 75.9524V108.69M-59 75.9524V108.69M11.5882 75.9524H46.8824M11.5882 75.9524V108.69M46.8824 75.9524H82.1765M46.8824 75.9524V108.69M82.1765 75.9524H117.471M82.1765 75.9524V108.69M117.471 75.9524H152.765M117.471 75.9524V108.69M152.765 75.9524H188.059M152.765 75.9524V108.69M188.059 75.9524H223.353M188.059 75.9524V108.69M223.353 75.9524H258.647M223.353 75.9524V108.69M258.647 75.9524H293.941M258.647 75.9524V108.69M293.941 75.9524H329.235M293.941 75.9524V108.69M329.235 75.9524H364.529M329.235 75.9524V108.69M364.529 75.9524H399.824M364.529 75.9524V108.69M399.824 75.9524H435.118M399.824 75.9524V108.69M435.118 75.9524H470.412M435.118 75.9524V108.69M470.412 75.9524H505.706M470.412 75.9524V108.69M505.706 75.9524H541M505.706 75.9524V108.69M541 75.9524V108.69M-23.7059 108.69H-59M-23.7059 108.69H11.5882M-23.7059 108.69V141.429M-59 108.69V141.429M11.5882 108.69H46.8824M11.5882 108.69V141.429M46.8824 108.69H82.1765M46.8824 108.69V141.429M82.1765 108.69H117.471M82.1765 108.69V141.429M117.471 108.69H152.765M117.471 108.69V141.429M152.765 108.69H188.059M152.765 108.69V141.429M188.059 108.69H223.353M188.059 108.69V141.429M223.353 108.69H258.647M223.353 108.69V141.429M258.647 108.69H293.941M258.647 108.69V141.429M293.941 108.69H329.235M293.941 108.69V141.429M329.235 108.69H364.529M329.235 108.69V141.429M364.529 108.69H399.824M364.529 108.69V141.429M399.824 108.69H435.118M399.824 108.69V141.429M435.118 108.69H470.412M435.118 108.69V141.429M470.412 108.69H505.706M470.412 108.69V141.429M505.706 108.69H541M505.706 108.69V141.429M541 108.69V141.429M-23.7059 141.429H-59M-23.7059 141.429H11.5882M-23.7059 141.429V174.167M-59 141.429V174.167M11.5882 141.429H46.8824M11.5882 141.429V174.167M46.8824 141.429H82.1765M46.8824 141.429V174.167M82.1765 141.429H117.471M82.1765 141.429V174.167M117.471 141.429H152.765M117.471 141.429V174.167M152.765 141.429H188.059M152.765 141.429V174.167M188.059 141.429H223.353M188.059 141.429V174.167M223.353 141.429H258.647M223.353 141.429V174.167M258.647 141.429H293.941M258.647 141.429V174.167M293.941 141.429H329.235M293.941 141.429V174.167M329.235 141.429H364.529M329.235 141.429V174.167M364.529 141.429H399.824M364.529 141.429V174.167M399.824 141.429H435.118M399.824 141.429V174.167M435.118 141.429H470.412M435.118 141.429V174.167M470.412 141.429H505.706M470.412 141.429V174.167M505.706 141.429H541M505.706 141.429V174.167M541 141.429V174.167M-23.7059 174.167H-59M-23.7059 174.167H11.5882M-23.7059 174.167V206.905M-59 174.167V206.905M11.5882 174.167H46.8824M11.5882 174.167V206.905M46.8824 174.167H82.1765M46.8824 174.167V206.905M82.1765 174.167H117.471M82.1765 174.167V206.905M117.471 174.167H152.765M117.471 174.167V206.905M152.765 174.167H188.059M152.765 174.167V206.905M188.059 174.167H223.353M188.059 174.167V206.905M223.353 174.167H258.647M223.353 174.167V206.905M258.647 174.167H293.941M258.647 174.167V206.905M293.941 174.167H329.235M293.941 174.167V206.905M329.235 174.167H364.529M329.235 174.167V206.905M364.529 174.167H399.824M364.529 174.167V206.905M399.824 174.167H435.118M399.824 174.167V206.905M435.118 174.167H470.412M435.118 174.167V206.905M470.412 174.167H505.706M470.412 174.167V206.905M505.706 174.167H541M505.706 174.167V206.905M541 174.167V206.905M-23.7059 206.905H-59M-23.7059 206.905H11.5882M-23.7059 206.905V239.643M-59 206.905V239.643M11.5882 206.905H46.8824M11.5882 206.905V239.643M46.8824 206.905H82.1765M46.8824 206.905V239.643M82.1765 206.905H117.471M82.1765 206.905V239.643M117.471 206.905H152.765M117.471 206.905V239.643M152.765 206.905H188.059M152.765 206.905V239.643M188.059 206.905H223.353M188.059 206.905V239.643M223.353 206.905H258.647M223.353 206.905V239.643M258.647 206.905H293.941M258.647 206.905V239.643M293.941 206.905H329.235M293.941 206.905V239.643M329.235 206.905H364.529M329.235 206.905V239.643M364.529 206.905H399.824M364.529 206.905V239.643M399.824 206.905H435.118M399.824 206.905V239.643M435.118 206.905H470.412M435.118 206.905V239.643M470.412 206.905H505.706M470.412 206.905V239.643M505.706 206.905H541M505.706 206.905V239.643M541 206.905V239.643M-23.7059 239.643H-59M-23.7059 239.643H11.5882M-23.7059 239.643V272.381M-59 239.643V272.381M11.5882 239.643H46.8824M11.5882 239.643V272.381M46.8824 239.643H82.1765M46.8824 239.643V272.381M82.1765 239.643H117.471M82.1765 239.643V272.381M117.471 239.643H152.765M117.471 239.643V272.381M152.765 239.643H188.059M152.765 239.643V272.381M188.059 239.643H223.353M188.059 239.643V272.381M223.353 239.643H258.647M223.353 239.643V272.381M258.647 239.643H293.941M258.647 239.643V272.381M293.941 239.643H329.235M293.941 239.643V272.381M329.235 239.643H364.529M329.235 239.643V272.381M364.529 239.643H399.824M364.529 239.643V272.381M399.824 239.643H435.118M399.824 239.643V272.381M435.118 239.643H470.412M435.118 239.643V272.381M470.412 239.643H505.706M470.412 239.643V272.381M505.706 239.643H541M505.706 239.643V272.381M541 239.643V272.381M-23.7059 272.381H-59M-23.7059 272.381H11.5882M-23.7059 272.381V305.119M-59 272.381V305.119M11.5882 272.381H46.8824M11.5882 272.381V305.119M46.8824 272.381H82.1765M46.8824 272.381V305.119M82.1765 272.381H117.471M82.1765 272.381V305.119M117.471 272.381H152.765M117.471 272.381V305.119M152.765 272.381H188.059M152.765 272.381V305.119M188.059 272.381H223.353M188.059 272.381V305.119M223.353 272.381H258.647M223.353 272.381V305.119M258.647 272.381H293.941M258.647 272.381V305.119M293.941 272.381H329.235M293.941 272.381V305.119M329.235 272.381H364.529M329.235 272.381V305.119M364.529 272.381H399.824M364.529 272.381V305.119M399.824 272.381H435.118M399.824 272.381V305.119M435.118 272.381H470.412M435.118 272.381V305.119M470.412 272.381H505.706M470.412 272.381V305.119M505.706 272.381H541M505.706 272.381V305.119M541 272.381V305.119M-23.7059 305.119H-59M-23.7059 305.119H11.5882M-23.7059 305.119V337.857M-59 305.119V337.857H-23.7059M11.5882 305.119H46.8824M11.5882 305.119V337.857M46.8824 305.119H82.1765M46.8824 305.119V337.857M82.1765 305.119H117.471M82.1765 305.119V337.857M117.471 305.119H152.765M117.471 305.119V337.857M152.765 305.119H188.059M152.765 305.119V337.857M188.059 305.119H223.353M188.059 305.119V337.857M223.353 305.119H258.647M223.353 305.119V337.857M258.647 305.119H293.941M258.647 305.119V337.857M293.941 305.119H329.235M293.941 305.119V337.857M329.235 305.119H364.529M329.235 305.119V337.857M364.529 305.119H399.824M364.529 305.119V337.857M399.824 305.119H435.118M399.824 305.119V337.857M435.118 305.119H470.412M435.118 305.119V337.857M470.412 305.119H505.706M470.412 305.119V337.857M505.706 305.119H541M505.706 305.119V337.857M541 305.119V337.857H505.706M-23.7059 337.857H11.5882M11.5882 337.857H46.8824M46.8824 337.857H82.1765M82.1765 337.857H117.471M117.471 337.857H152.765M152.765 337.857H188.059M188.059 337.857H223.353M223.353 337.857H258.647M258.647 337.857H293.941M293.941 337.857H329.235M329.235 337.857H364.529M364.529 337.857H399.824M399.824 337.857H435.118M435.118 337.857H470.412M470.412 337.857H505.706" stroke="url(#paint0_radial_2_771)" stroke-opacity="0.08"/>
<path d="M41.0781 386.719H44.5312C44.7812 388.953 46.9531 390.422 49.9219 390.422C52.7656 390.422 54.8125 388.953 54.8125 386.938C54.8125 385.188 53.5781 384.141 50.6562 383.422L47.7344 382.719C43.5938 381.719 41.6719 379.781 41.6719 376.641C41.6719 372.75 45.0625 370.078 49.875 370.078C54.6406 370.078 57.9062 372.75 58.0156 376.641H54.6094C54.4062 374.391 52.5469 373.031 49.8281 373.031C47.1094 373.031 45.25 374.406 45.25 376.406C45.25 378 46.4375 378.938 49.3438 379.656L51.8281 380.266C56.4531 381.359 58.375 383.219 58.375 386.516C58.375 390.734 55.0156 393.375 49.6719 393.375C44.6719 393.375 41.2969 390.797 41.0781 386.719ZM61.1094 393V376.562H64.3281V379.328H64.4062C65.1406 377.5 66.8594 376.281 69.0781 376.281C71.3594 376.281 73.0156 377.453 73.6719 379.5H73.75C74.5938 377.5 76.5312 376.281 78.875 376.281C82.125 376.281 84.25 378.438 84.25 381.703V393H80.8594V382.516C80.8594 380.391 79.7188 379.172 77.7188 379.172C75.7188 379.172 74.3281 380.656 74.3281 382.734V393H71.0156V382.266C71.0156 380.375 69.8125 379.172 67.9062 379.172C65.9062 379.172 64.4844 380.734 64.4844 382.844V393H61.1094ZM93.2656 390.609C95.625 390.609 97.4688 388.984 97.4688 386.844V385.547L93.4219 385.797C91.4062 385.938 90.2656 386.828 90.2656 388.234C90.2656 389.672 91.4531 390.609 93.2656 390.609ZM92.3281 393.281C89.1094 393.281 86.8594 391.281 86.8594 388.328C86.8594 385.453 89.0625 383.688 92.9688 383.469L97.4688 383.203V381.938C97.4688 380.109 96.2344 379.016 94.1719 379.016C92.2188 379.016 91 379.953 90.7031 381.422H87.5156C87.7031 378.453 90.2344 376.266 94.2969 376.266C98.2812 376.266 100.828 378.375 100.828 381.672V393H97.5938V390.297H97.5156C96.5625 392.125 94.4844 393.281 92.3281 393.281ZM104.109 393V376.562H107.328V379.359H107.406C107.953 377.438 109.422 376.297 111.359 376.297C111.844 376.297 112.266 376.375 112.516 376.422V379.562C112.25 379.453 111.656 379.375 111 379.375C108.828 379.375 107.484 380.828 107.484 383.156V393H104.109ZM115.594 372.672H118.984V376.562H122.109V379.234H118.984V388.297C118.984 389.719 119.609 390.359 120.984 390.359C121.328 390.359 121.875 390.328 122.094 390.281V392.953C121.719 393.047 120.969 393.109 120.219 393.109C116.891 393.109 115.594 391.844 115.594 388.672V379.234H113.203V376.562H115.594V372.672ZM135.297 393H131.797V370.453H135.297V393ZM139.047 393V376.562H142.266V379.312H142.344C143.234 377.438 144.984 376.281 147.516 376.281C151.141 376.281 153.219 378.594 153.219 382.359V393H149.828V383.016C149.828 380.547 148.672 379.188 146.328 379.188C143.953 379.188 142.422 380.875 142.422 383.422V393H139.047ZM170.516 376.562L164.625 393H161L155.078 376.562H158.672L162.797 389.703H162.859L166.984 376.562H170.516ZM178.859 378.984C176.5 378.984 174.844 380.781 174.672 383.266H182.891C182.812 380.75 181.219 378.984 178.859 378.984ZM182.875 388.172H186.078C185.609 391.172 182.766 393.312 179 393.312C174.172 393.312 171.25 390.047 171.25 384.859C171.25 379.703 174.219 376.266 178.859 376.266C183.422 376.266 186.266 379.484 186.266 384.469V385.625H174.656V385.828C174.656 388.688 176.375 390.578 179.078 390.578C181 390.578 182.422 389.609 182.875 388.172ZM188.594 381.219C188.594 378.281 191.188 376.266 195.031 376.266C198.688 376.266 201.25 378.312 201.359 381.234H198.188C198.031 379.75 196.828 378.828 194.938 378.828C193.109 378.828 191.891 379.719 191.891 381.016C191.891 382.031 192.703 382.719 194.406 383.141L197.172 383.781C200.484 384.578 201.734 385.828 201.734 388.25C201.734 391.25 198.938 393.312 194.906 393.312C191.016 393.312 188.438 391.297 188.172 388.281H191.516C191.781 389.859 193 390.734 195.062 390.734C197.094 390.734 198.344 389.891 198.344 388.562C198.344 387.516 197.719 386.938 196 386.5L193.062 385.781C190.094 385.062 188.594 383.516 188.594 381.219ZM205.344 372.672H208.734V376.562H211.859V379.234H208.734V388.297C208.734 389.719 209.359 390.359 210.734 390.359C211.078 390.359 211.625 390.328 211.844 390.281V392.953C211.469 393.047 210.719 393.109 209.969 393.109C206.641 393.109 205.344 391.844 205.344 388.672V379.234H202.953V376.562H205.344V372.672ZM214.75 393V376.562H218.125V393H214.75ZM216.438 374.156C215.359 374.156 214.484 373.297 214.484 372.234C214.484 371.156 215.359 370.297 216.438 370.297C217.531 370.297 218.406 371.156 218.406 372.234C218.406 373.297 217.531 374.156 216.438 374.156ZM221.578 393V376.562H224.797V379.312H224.875C225.766 377.438 227.516 376.281 230.047 376.281C233.672 376.281 235.75 378.594 235.75 382.359V393H232.359V383.016C232.359 380.547 231.203 379.188 228.859 379.188C226.484 379.188 224.953 380.875 224.953 383.422V393H221.578ZM246.016 390.266C248.656 390.266 250.391 388.125 250.391 384.734C250.391 381.359 248.656 379.141 246.016 379.141C243.422 379.141 241.734 381.312 241.734 384.734C241.734 388.172 243.422 390.266 246.016 390.266ZM246.047 399.188C242.172 399.188 239.297 397.125 238.875 394.281H242.266C242.75 395.656 244.25 396.562 246.172 396.562C248.812 396.562 250.375 395.062 250.375 392.812V390.109H250.312C249.391 391.891 247.453 393.062 245.109 393.062C240.984 393.062 238.281 389.844 238.281 384.719C238.281 379.547 240.969 376.297 245.188 376.297C247.516 376.297 249.422 377.469 250.422 379.375H250.484V376.562H253.766V392.703C253.766 396.625 250.734 399.188 246.047 399.188Z" fill="white"/>
<path d="M50.6016 425.336C50.6016 428.383 48.8281 430.188 45.8203 430.188C42.6719 430.188 40.6562 427.891 40.6562 424.305C40.6562 420.781 42.6641 418.539 45.8203 418.539C48.2578 418.539 50.1094 419.984 50.5312 422.227H49.0547C48.5859 420.703 47.4062 419.836 45.8203 419.836C43.5 419.836 42.1016 421.508 42.1016 424.297C42.1016 427.133 43.5234 428.891 45.8203 428.891C47.8203 428.891 49.1953 427.594 49.1953 425.703V425.5H46.0156V424.266H50.6016V425.336ZM52.1953 430V421.875H53.4766V423.203H53.5078C53.7734 422.305 54.5234 421.734 55.4766 421.734C55.7109 421.734 55.9141 421.773 56.0234 421.789V423.109C55.9141 423.07 55.625 423.031 55.2969 423.031C54.2422 423.031 53.5547 423.789 53.5547 424.938V430H52.1953ZM60.1094 430.141C57.8594 430.141 56.3438 428.523 56.3438 425.938C56.3438 423.344 57.8594 421.734 60.1094 421.734C62.3516 421.734 63.8672 423.344 63.8672 425.938C63.8672 428.523 62.3516 430.141 60.1094 430.141ZM60.1094 428.945C61.5469 428.945 62.4844 427.852 62.4844 425.938C62.4844 424.023 61.5469 422.93 60.1094 422.93C58.6719 422.93 57.7266 424.023 57.7266 425.938C57.7266 427.852 58.6719 428.945 60.1094 428.945ZM75.5781 421.875L73.3125 430H71.9297L70.0938 423.711H70.0625L68.2344 430H66.8516L64.5781 421.875H65.9297L67.5547 428.484H67.5859L69.4219 421.875H70.7344L72.5781 428.484H72.6094L74.2344 421.875H75.5781ZM80.6484 433.039C80.4844 433.039 80.2109 433.023 80.0625 432.992V431.852C80.2109 431.883 80.4219 431.891 80.5938 431.891C81.3516 431.891 81.7734 431.523 82.0859 430.578L82.2734 430.008L79.2734 421.875H80.7266L82.9766 428.641H83L85.25 421.875H86.6797L83.4844 430.57C82.7891 432.469 82.1172 433.039 80.6484 433.039ZM90.8906 430.141C88.6406 430.141 87.125 428.523 87.125 425.938C87.125 423.344 88.6406 421.734 90.8906 421.734C93.1328 421.734 94.6484 423.344 94.6484 425.938C94.6484 428.523 93.1328 430.141 90.8906 430.141ZM90.8906 428.945C92.3281 428.945 93.2656 427.852 93.2656 425.938C93.2656 424.023 92.3281 422.93 90.8906 422.93C89.4531 422.93 88.5078 424.023 88.5078 425.938C88.5078 427.852 89.4531 428.945 90.8906 428.945ZM102.695 421.875V430H101.406V428.68H101.375C100.891 429.617 100.047 430.141 98.7969 430.141C97.0234 430.141 95.9844 428.992 95.9844 427.148V421.875H97.3438V426.906C97.3438 428.227 97.9609 428.938 99.2188 428.938C100.539 428.938 101.336 428.031 101.336 426.648V421.875H102.695ZM104.461 430V421.875H105.742V423.203H105.773C106.039 422.305 106.789 421.734 107.742 421.734C107.977 421.734 108.18 421.773 108.289 421.789V423.109C108.18 423.07 107.891 423.031 107.562 423.031C106.508 423.031 105.82 423.789 105.82 424.938V430H104.461ZM123.016 421.875L120.75 430H119.367L117.531 423.711H117.5L115.672 430H114.289L112.016 421.875H113.367L114.992 428.484H115.023L116.859 421.875H118.172L120.016 428.484H120.047L121.672 421.875H123.016ZM127.391 422.914C126.117 422.914 125.227 423.891 125.141 425.242H129.555C129.523 423.883 128.672 422.914 127.391 422.914ZM129.523 427.672H130.859C130.625 429.094 129.25 430.141 127.477 430.141C125.148 430.141 123.734 428.523 123.734 425.969C123.734 423.445 125.172 421.734 127.414 421.734C129.609 421.734 130.961 423.328 130.961 425.789V426.305H125.133V426.383C125.133 427.938 126.047 428.961 127.508 428.961C128.539 428.961 129.297 428.438 129.523 427.672ZM135.016 428.984C136.297 428.984 137.281 428.086 137.281 426.914V426.25L135.109 426.383C134.016 426.453 133.391 426.938 133.391 427.703C133.391 428.477 134.039 428.984 135.016 428.984ZM134.711 430.141C133.094 430.141 132.008 429.164 132.008 427.703C132.008 426.312 133.078 425.438 134.953 425.328L137.281 425.195V424.516C137.281 423.523 136.625 422.93 135.5 422.93C134.453 422.93 133.797 423.422 133.625 424.219H132.312C132.406 422.812 133.609 421.734 135.531 421.734C137.438 421.734 138.641 422.766 138.641 424.383V430H137.352V428.602H137.32C136.836 429.531 135.805 430.141 134.711 430.141ZM140.438 430V418.727H141.797V430H140.438ZM144.07 419.914H145.43V421.875H147.008V422.992H145.43V427.82C145.43 428.562 145.742 428.898 146.438 428.898C146.594 428.898 146.906 428.875 147 428.859V430C146.836 430.039 146.461 430.062 146.141 430.062C144.648 430.062 144.07 429.453 144.07 427.891V422.992H142.859V421.875H144.07V419.914ZM148.531 430V418.727H149.891V423.172H149.922C150.375 422.266 151.266 421.734 152.5 421.734C154.281 421.734 155.359 422.938 155.359 424.75V430H154V425C154 423.711 153.352 422.938 152.078 422.938C150.727 422.938 149.891 423.859 149.891 425.266V430H148.531ZM167.117 424.539H165.789C165.594 423.656 164.906 422.93 163.711 422.93C162.305 422.93 161.352 424.094 161.352 425.938C161.352 427.828 162.32 428.945 163.727 428.945C164.836 428.945 165.562 428.359 165.797 427.383H167.133C166.922 429 165.562 430.141 163.719 430.141C161.469 430.141 159.969 428.555 159.969 425.938C159.969 423.375 161.461 421.734 163.703 421.734C165.734 421.734 166.945 423.078 167.117 424.539ZM171.75 430.141C169.5 430.141 167.984 428.523 167.984 425.938C167.984 423.344 169.5 421.734 171.75 421.734C173.992 421.734 175.508 423.344 175.508 425.938C175.508 428.523 173.992 430.141 171.75 430.141ZM171.75 428.945C173.188 428.945 174.125 427.852 174.125 425.938C174.125 424.023 173.188 422.93 171.75 422.93C170.312 422.93 169.367 424.023 169.367 425.938C169.367 427.852 170.312 428.945 171.75 428.945ZM176.883 430V421.875H178.164V423.172H178.195C178.648 422.297 179.516 421.734 180.773 421.734C182.555 421.734 183.586 422.883 183.586 424.727V430H182.227V424.969C182.227 423.656 181.609 422.938 180.359 422.938C179.078 422.938 178.242 423.844 178.242 425.219V430H176.883ZM185.758 430V422.992H184.625V421.875H185.758V420.969C185.758 419.406 186.484 418.664 187.984 418.664C188.289 418.664 188.617 418.695 188.812 418.727V419.828C188.648 419.805 188.422 419.781 188.195 419.781C187.461 419.781 187.109 420.172 187.109 420.977V421.875H188.773V422.992H187.117V430H185.758ZM190.25 430V421.875H191.609V430H190.25ZM190.93 420.508C190.469 420.508 190.086 420.125 190.086 419.664C190.086 419.195 190.469 418.82 190.93 418.82C191.398 418.82 191.781 419.195 191.781 419.664C191.781 420.125 191.398 420.508 190.93 420.508ZM196.523 430.141C194.453 430.141 193.047 428.484 193.047 425.938C193.047 423.391 194.445 421.734 196.492 421.734C197.656 421.734 198.594 422.305 199.078 423.195H199.109V418.727H200.469V430H199.172V428.625H199.148C198.625 429.562 197.695 430.141 196.523 430.141ZM196.781 422.93C195.344 422.93 194.438 424.102 194.438 425.938C194.438 427.781 195.344 428.945 196.781 428.945C198.18 428.945 199.117 427.758 199.117 425.938C199.117 424.125 198.18 422.93 196.781 422.93ZM205.562 422.914C204.289 422.914 203.398 423.891 203.312 425.242H207.727C207.695 423.883 206.844 422.914 205.562 422.914ZM207.695 427.672H209.031C208.797 429.094 207.422 430.141 205.648 430.141C203.32 430.141 201.906 428.523 201.906 425.969C201.906 423.445 203.344 421.734 205.586 421.734C207.781 421.734 209.133 423.328 209.133 425.789V426.305H203.305V426.383C203.305 427.938 204.219 428.961 205.68 428.961C206.711 428.961 207.469 428.438 207.695 427.672ZM210.508 430V421.875H211.789V423.172H211.82C212.273 422.297 213.141 421.734 214.398 421.734C216.18 421.734 217.211 422.883 217.211 424.727V430H215.852V424.969C215.852 423.656 215.234 422.938 213.984 422.938C212.703 422.938 211.867 423.844 211.867 425.219V430H210.508ZM219.383 419.914H220.742V421.875H222.32V422.992H220.742V427.82C220.742 428.562 221.055 428.898 221.75 428.898C221.906 428.898 222.219 428.875 222.312 428.859V430C222.148 430.039 221.773 430.062 221.453 430.062C219.961 430.062 219.383 429.453 219.383 427.891V422.992H218.172V421.875H219.383V419.914ZM223.844 430V418.727H225.203V430H223.844ZM227.711 433.039C227.547 433.039 227.273 433.023 227.125 432.992V431.852C227.273 431.883 227.484 431.891 227.656 431.891C228.414 431.891 228.836 431.523 229.148 430.578L229.336 430.008L226.336 421.875H227.789L230.039 428.641H230.062L232.312 421.875H233.742L230.547 430.57C229.852 432.469 229.18 433.039 227.711 433.039ZM248.438 421.875L246.172 430H244.789L242.953 423.711H242.922L241.094 430H239.711L237.438 421.875H238.789L240.414 428.484H240.445L242.281 421.875H243.594L245.438 428.484H245.469L247.094 421.875H248.438ZM249.625 430V421.875H250.984V430H249.625ZM250.305 420.508C249.844 420.508 249.461 420.125 249.461 419.664C249.461 419.195 249.844 418.82 250.305 418.82C250.773 418.82 251.156 419.195 251.156 419.664C251.156 420.125 250.773 420.508 250.305 420.508ZM253.258 419.914H254.617V421.875H256.195V422.992H254.617V427.82C254.617 428.562 254.93 428.898 255.625 428.898C255.781 428.898 256.094 428.875 256.188 428.859V430C256.023 430.039 255.648 430.062 255.328 430.062C253.836 430.062 253.258 429.453 253.258 427.891V422.992H252.047V421.875H253.258V419.914ZM257.719 430V418.727H259.078V423.172H259.109C259.562 422.266 260.453 421.734 261.688 421.734C263.469 421.734 264.547 422.938 264.547 424.75V430H263.188V425C263.188 423.711 262.539 422.938 261.266 422.938C259.914 422.938 259.078 423.859 259.078 425.266V430H257.719ZM272.922 430.141C270.672 430.141 269.156 428.523 269.156 425.938C269.156 423.344 270.672 421.734 272.922 421.734C275.164 421.734 276.68 423.344 276.68 425.938C276.68 428.523 275.164 430.141 272.922 430.141ZM272.922 428.945C274.359 428.945 275.297 427.852 275.297 425.938C275.297 424.023 274.359 422.93 272.922 422.93C271.484 422.93 270.539 424.023 270.539 425.938C270.539 427.852 271.484 428.945 272.922 428.945ZM284.727 421.875V430H283.438V428.68H283.406C282.922 429.617 282.078 430.141 280.828 430.141C279.055 430.141 278.016 428.992 278.016 427.148V421.875H279.375V426.906C279.375 428.227 279.992 428.938 281.25 428.938C282.57 428.938 283.367 428.031 283.367 426.648V421.875H284.727ZM286.492 430V421.875H287.773V423.203H287.805C288.07 422.305 288.82 421.734 289.773 421.734C290.008 421.734 290.211 421.773 290.32 421.789V423.109C290.211 423.07 289.922 423.031 289.594 423.031C288.539 423.031 287.852 423.789 287.852 424.938V430H286.492ZM298.656 421.734C300.727 421.734 302.133 423.391 302.133 425.938C302.133 428.484 300.734 430.141 298.688 430.141C297.523 430.141 296.586 429.57 296.102 428.68H296.07V432.711H294.711V421.875H296V423.25H296.031C296.531 422.336 297.477 421.734 298.656 421.734ZM298.391 428.945C299.836 428.945 300.742 427.781 300.742 425.938C300.742 424.102 299.836 422.93 298.391 422.93C297 422.93 296.062 424.133 296.062 425.938C296.062 427.75 297 428.945 298.391 428.945ZM306.766 422.914C305.492 422.914 304.602 423.891 304.516 425.242H308.93C308.898 423.883 308.047 422.914 306.766 422.914ZM308.898 427.672H310.234C310 429.094 308.625 430.141 306.852 430.141C304.523 430.141 303.109 428.523 303.109 425.969C303.109 423.445 304.547 421.734 306.789 421.734C308.984 421.734 310.336 423.328 310.336 425.789V426.305H304.508V426.383C304.508 427.938 305.422 428.961 306.883 428.961C307.914 428.961 308.672 428.438 308.898 427.672ZM311.711 430V421.875H312.992V423.203H313.023C313.289 422.305 314.039 421.734 314.992 421.734C315.227 421.734 315.43 421.773 315.539 421.789V423.109C315.43 423.07 315.141 423.031 314.812 423.031C313.758 423.031 313.07 423.789 313.07 424.938V430H311.711ZM316.508 424.117C316.508 422.727 317.75 421.734 319.539 421.734C321.219 421.734 322.453 422.734 322.516 424.109H321.219C321.125 423.328 320.492 422.844 319.492 422.844C318.5 422.844 317.844 423.336 317.844 424.047C317.844 424.609 318.273 424.984 319.195 425.219L320.453 425.523C322.094 425.938 322.688 426.531 322.688 427.727C322.688 429.141 321.352 430.141 319.453 430.141C317.672 430.141 316.43 429.172 316.289 427.734H317.648C317.797 428.578 318.438 429.031 319.539 429.031C320.641 429.031 321.32 428.562 321.32 427.828C321.32 427.25 320.984 426.938 320.07 426.695L318.641 426.328C317.211 425.961 316.508 425.227 316.508 424.117ZM327.469 430.141C325.219 430.141 323.703 428.523 323.703 425.938C323.703 423.344 325.219 421.734 327.469 421.734C329.711 421.734 331.227 423.344 331.227 425.938C331.227 428.523 329.711 430.141 327.469 430.141ZM327.469 428.945C328.906 428.945 329.844 427.852 329.844 425.938C329.844 424.023 328.906 422.93 327.469 422.93C326.031 422.93 325.086 424.023 325.086 425.938C325.086 427.852 326.031 428.945 327.469 428.945ZM332.602 430V421.875H333.883V423.172H333.914C334.367 422.297 335.234 421.734 336.492 421.734C338.273 421.734 339.305 422.883 339.305 424.727V430H337.945V424.969C337.945 423.656 337.328 422.938 336.078 422.938C334.797 422.938 333.961 423.844 333.961 425.219V430H332.602ZM343.719 428.984C345 428.984 345.984 428.086 345.984 426.914V426.25L343.812 426.383C342.719 426.453 342.094 426.938 342.094 427.703C342.094 428.477 342.742 428.984 343.719 428.984ZM343.414 430.141C341.797 430.141 340.711 429.164 340.711 427.703C340.711 426.312 341.781 425.438 343.656 425.328L345.984 425.195V424.516C345.984 423.523 345.328 422.93 344.203 422.93C343.156 422.93 342.5 423.422 342.328 424.219H341.016C341.109 422.812 342.312 421.734 344.234 421.734C346.141 421.734 347.344 422.766 347.344 424.383V430H346.055V428.602H346.023C345.539 429.531 344.508 430.141 343.414 430.141ZM349.141 430V418.727H350.5V430H349.141ZM352.406 430V421.875H353.766V430H352.406ZM353.086 420.508C352.625 420.508 352.242 420.125 352.242 419.664C352.242 419.195 352.625 418.82 353.086 418.82C353.555 418.82 353.938 419.195 353.938 419.664C353.938 420.125 353.555 420.508 353.086 420.508ZM355.43 430V429.031L359.93 423.016V422.992H355.438V421.875H361.469V422.867L357 428.859V428.883H361.492V430H355.43ZM366.031 422.914C364.758 422.914 363.867 423.891 363.781 425.242H368.195C368.164 423.883 367.312 422.914 366.031 422.914ZM368.164 427.672H369.5C369.266 429.094 367.891 430.141 366.117 430.141C363.789 430.141 362.375 428.523 362.375 425.969C362.375 423.445 363.812 421.734 366.055 421.734C368.25 421.734 369.602 423.328 369.602 425.789V426.305H363.773V426.383C363.773 427.938 364.688 428.961 366.148 428.961C367.18 428.961 367.938 428.438 368.164 427.672ZM374.055 430.141C371.984 430.141 370.578 428.484 370.578 425.938C370.578 423.391 371.977 421.734 374.023 421.734C375.188 421.734 376.125 422.305 376.609 423.195H376.641V418.727H378V430H376.703V428.625H376.68C376.156 429.562 375.227 430.141 374.055 430.141ZM374.312 422.93C372.875 422.93 371.969 424.102 371.969 425.938C371.969 427.781 372.875 428.945 374.312 428.945C375.711 428.945 376.648 427.758 376.648 425.938C376.648 424.125 375.711 422.93 374.312 422.93ZM40.9531 454V445.875H42.3125V454H40.9531ZM41.6328 444.508C41.1719 444.508 40.7891 444.125 40.7891 443.664C40.7891 443.195 41.1719 442.82 41.6328 442.82C42.1016 442.82 42.4844 443.195 42.4844 443.664C42.4844 444.125 42.1016 444.508 41.6328 444.508ZM44.1484 454V445.875H45.4297V447.172H45.4609C45.9141 446.297 46.7812 445.734 48.0391 445.734C49.8203 445.734 50.8516 446.883 50.8516 448.727V454H49.4922V448.969C49.4922 447.656 48.875 446.938 47.625 446.938C46.3438 446.938 45.5078 447.844 45.5078 449.219V454H44.1484ZM59.25 445.875L56.2656 454H54.875L51.8828 445.875H53.3125L55.5547 452.555H55.5859L57.8359 445.875H59.25ZM63.3438 446.914C62.0703 446.914 61.1797 447.891 61.0938 449.242H65.5078C65.4766 447.883 64.625 446.914 63.3438 446.914ZM65.4766 451.672H66.8125C66.5781 453.094 65.2031 454.141 63.4297 454.141C61.1016 454.141 59.6875 452.523 59.6875 449.969C59.6875 447.445 61.125 445.734 63.3672 445.734C65.5625 445.734 66.9141 447.328 66.9141 449.789V450.305H61.0859V450.383C61.0859 451.938 62 452.961 63.4609 452.961C64.4922 452.961 65.25 452.438 65.4766 451.672ZM68.1484 448.117C68.1484 446.727 69.3906 445.734 71.1797 445.734C72.8594 445.734 74.0938 446.734 74.1562 448.109H72.8594C72.7656 447.328 72.1328 446.844 71.1328 446.844C70.1406 446.844 69.4844 447.336 69.4844 448.047C69.4844 448.609 69.9141 448.984 70.8359 449.219L72.0938 449.523C73.7344 449.938 74.3281 450.531 74.3281 451.727C74.3281 453.141 72.9922 454.141 71.0938 454.141C69.3125 454.141 68.0703 453.172 67.9297 451.734H69.2891C69.4375 452.578 70.0781 453.031 71.1797 453.031C72.2812 453.031 72.9609 452.562 72.9609 451.828C72.9609 451.25 72.625 450.938 71.7109 450.695L70.2812 450.328C68.8516 449.961 68.1484 449.227 68.1484 448.117ZM76.1797 443.914H77.5391V445.875H79.1172V446.992H77.5391V451.82C77.5391 452.562 77.8516 452.898 78.5469 452.898C78.7031 452.898 79.0156 452.875 79.1094 452.859V454C78.9453 454.039 78.5703 454.062 78.25 454.062C76.7578 454.062 76.1797 453.453 76.1797 451.891V446.992H74.9688V445.875H76.1797V443.914ZM80.5703 454V445.875H81.8516V447.172H81.8828C82.2656 446.312 83.0938 445.734 84.1875 445.734C85.2969 445.734 86.1172 446.297 86.4688 447.281H86.5C86.9531 446.312 87.9062 445.734 89.0469 445.734C90.6562 445.734 91.6953 446.781 91.6953 448.391V454H90.3359V448.703C90.3359 447.594 89.7188 446.938 88.6484 446.938C87.5703 446.938 86.8125 447.734 86.8125 448.836V454H85.4531V448.555C85.4531 447.578 84.7969 446.938 83.7891 446.938C82.7109 446.938 81.9297 447.781 81.9297 448.906V454H80.5703ZM96.6875 446.914C95.4141 446.914 94.5234 447.891 94.4375 449.242H98.8516C98.8203 447.883 97.9688 446.914 96.6875 446.914ZM98.8203 451.672H100.156C99.9219 453.094 98.5469 454.141 96.7734 454.141C94.4453 454.141 93.0312 452.523 93.0312 449.969C93.0312 447.445 94.4688 445.734 96.7109 445.734C98.9062 445.734 100.258 447.328 100.258 449.789V450.305H94.4297V450.383C94.4297 451.938 95.3438 452.961 96.8047 452.961C97.8359 452.961 98.5938 452.438 98.8203 451.672ZM101.633 454V445.875H102.914V447.172H102.945C103.398 446.297 104.266 445.734 105.523 445.734C107.305 445.734 108.336 446.883 108.336 448.727V454H106.977V448.969C106.977 447.656 106.359 446.938 105.109 446.938C103.828 446.938 102.992 447.844 102.992 449.219V454H101.633ZM110.508 443.914H111.867V445.875H113.445V446.992H111.867V451.82C111.867 452.562 112.18 452.898 112.875 452.898C113.031 452.898 113.344 452.875 113.438 452.859V454C113.273 454.039 112.898 454.062 112.578 454.062C111.086 454.062 110.508 453.453 110.508 451.891V446.992H109.297V445.875H110.508V443.914ZM118.039 448.117C118.039 446.727 119.281 445.734 121.07 445.734C122.75 445.734 123.984 446.734 124.047 448.109H122.75C122.656 447.328 122.023 446.844 121.023 446.844C120.031 446.844 119.375 447.336 119.375 448.047C119.375 448.609 119.805 448.984 120.727 449.219L121.984 449.523C123.625 449.938 124.219 450.531 124.219 451.727C124.219 453.141 122.883 454.141 120.984 454.141C119.203 454.141 117.961 453.172 117.82 451.734H119.18C119.328 452.578 119.969 453.031 121.07 453.031C122.172 453.031 122.852 452.562 122.852 451.828C122.852 451.25 122.516 450.938 121.602 450.695L120.172 450.328C118.742 449.961 118.039 449.227 118.039 448.117ZM129 454.141C126.75 454.141 125.234 452.523 125.234 449.938C125.234 447.344 126.75 445.734 129 445.734C131.242 445.734 132.758 447.344 132.758 449.938C132.758 452.523 131.242 454.141 129 454.141ZM129 452.945C130.438 452.945 131.375 451.852 131.375 449.938C131.375 448.023 130.438 446.93 129 446.93C127.562 446.93 126.617 448.023 126.617 449.938C126.617 451.852 127.562 452.945 129 452.945ZM134.203 454V442.727H135.562V454H134.203ZM144.07 445.875V454H142.781V452.68H142.75C142.266 453.617 141.422 454.141 140.172 454.141C138.398 454.141 137.359 452.992 137.359 451.148V445.875H138.719V450.906C138.719 452.227 139.336 452.938 140.594 452.938C141.914 452.938 142.711 452.031 142.711 450.648V445.875H144.07ZM146.273 443.914H147.633V445.875H149.211V446.992H147.633V451.82C147.633 452.562 147.945 452.898 148.641 452.898C148.797 452.898 149.109 452.875 149.203 452.859V454C149.039 454.039 148.664 454.062 148.344 454.062C146.852 454.062 146.273 453.453 146.273 451.891V446.992H145.062V445.875H146.273V443.914ZM150.734 454V445.875H152.094V454H150.734ZM151.414 444.508C150.953 444.508 150.57 444.125 150.57 443.664C150.57 443.195 150.953 442.82 151.414 442.82C151.883 442.82 152.266 443.195 152.266 443.664C152.266 444.125 151.883 444.508 151.414 444.508ZM157.297 454.141C155.047 454.141 153.531 452.523 153.531 449.938C153.531 447.344 155.047 445.734 157.297 445.734C159.539 445.734 161.055 447.344 161.055 449.938C161.055 452.523 159.539 454.141 157.297 454.141ZM157.297 452.945C158.734 452.945 159.672 451.852 159.672 449.938C159.672 448.023 158.734 446.93 157.297 446.93C155.859 446.93 154.914 448.023 154.914 449.938C154.914 451.852 155.859 452.945 157.297 452.945ZM162.43 454V445.875H163.711V447.172H163.742C164.195 446.297 165.062 445.734 166.32 445.734C168.102 445.734 169.133 446.883 169.133 448.727V454H167.773V448.969C167.773 447.656 167.156 446.938 165.906 446.938C164.625 446.938 163.789 447.844 163.789 449.219V454H162.43ZM170.727 448.117C170.727 446.727 171.969 445.734 173.758 445.734C175.438 445.734 176.672 446.734 176.734 448.109H175.438C175.344 447.328 174.711 446.844 173.711 446.844C172.719 446.844 172.062 447.336 172.062 448.047C172.062 448.609 172.492 448.984 173.414 449.219L174.672 449.523C176.312 449.938 176.906 450.531 176.906 451.727C176.906 453.141 175.57 454.141 173.672 454.141C171.891 454.141 170.648 453.172 170.508 451.734H171.867C172.016 452.578 172.656 453.031 173.758 453.031C174.859 453.031 175.539 452.562 175.539 451.828C175.539 451.25 175.203 450.938 174.289 450.695L172.859 450.328C171.43 449.961 170.727 449.227 170.727 448.117ZM179.25 456.242H178.117L178.875 452.266H180.32L179.25 456.242ZM185.32 443.914H186.68V445.875H188.258V446.992H186.68V451.82C186.68 452.562 186.992 452.898 187.688 452.898C187.844 452.898 188.156 452.875 188.25 452.859V454C188.086 454.039 187.711 454.062 187.391 454.062C185.898 454.062 185.32 453.453 185.32 451.891V446.992H184.109V445.875H185.32V443.914ZM192.234 452.984C193.516 452.984 194.5 452.086 194.5 450.914V450.25L192.328 450.383C191.234 450.453 190.609 450.938 190.609 451.703C190.609 452.477 191.258 452.984 192.234 452.984ZM191.93 454.141C190.312 454.141 189.227 453.164 189.227 451.703C189.227 450.312 190.297 449.438 192.172 449.328L194.5 449.195V448.516C194.5 447.523 193.844 446.93 192.719 446.93C191.672 446.93 191.016 447.422 190.844 448.219H189.531C189.625 446.812 190.828 445.734 192.75 445.734C194.656 445.734 195.859 446.766 195.859 448.383V454H194.57V452.602H194.539C194.055 453.531 193.023 454.141 191.93 454.141ZM197.656 454V445.875H199.016V454H197.656ZM198.336 444.508C197.875 444.508 197.492 444.125 197.492 443.664C197.492 443.195 197.875 442.82 198.336 442.82C198.805 442.82 199.188 443.195 199.188 443.664C199.188 444.125 198.805 444.508 198.336 444.508ZM200.922 454V442.727H202.281V454H200.922ZM207.484 454.141C205.234 454.141 203.719 452.523 203.719 449.938C203.719 447.344 205.234 445.734 207.484 445.734C209.727 445.734 211.242 447.344 211.242 449.938C211.242 452.523 209.727 454.141 207.484 454.141ZM207.484 452.945C208.922 452.945 209.859 451.852 209.859 449.938C209.859 448.023 208.922 446.93 207.484 446.93C206.047 446.93 205.102 448.023 205.102 449.938C205.102 451.852 206.047 452.945 207.484 452.945ZM212.617 454V445.875H213.898V447.203H213.93C214.195 446.305 214.945 445.734 215.898 445.734C216.133 445.734 216.336 445.773 216.445 445.789V447.109C216.336 447.07 216.047 447.031 215.719 447.031C214.664 447.031 213.977 447.789 213.977 448.938V454H212.617ZM220.422 446.914C219.148 446.914 218.258 447.891 218.172 449.242H222.586C222.555 447.883 221.703 446.914 220.422 446.914ZM222.555 451.672H223.891C223.656 453.094 222.281 454.141 220.508 454.141C218.18 454.141 216.766 452.523 216.766 449.969C216.766 447.445 218.203 445.734 220.445 445.734C222.641 445.734 223.992 447.328 223.992 449.789V450.305H218.164V450.383C218.164 451.938 219.078 452.961 220.539 452.961C221.57 452.961 222.328 452.438 222.555 451.672ZM228.445 454.141C226.375 454.141 224.969 452.484 224.969 449.938C224.969 447.391 226.367 445.734 228.414 445.734C229.578 445.734 230.516 446.305 231 447.195H231.031V442.727H232.391V454H231.094V452.625H231.07C230.547 453.562 229.617 454.141 228.445 454.141ZM228.703 446.93C227.266 446.93 226.359 448.102 226.359 449.938C226.359 451.781 227.266 452.945 228.703 452.945C230.102 452.945 231.039 451.758 231.039 449.938C231.039 448.125 230.102 446.93 228.703 446.93ZM237.945 443.914H239.305V445.875H240.883V446.992H239.305V451.82C239.305 452.562 239.617 452.898 240.312 452.898C240.469 452.898 240.781 452.875 240.875 452.859V454C240.711 454.039 240.336 454.062 240.016 454.062C238.523 454.062 237.945 453.453 237.945 451.891V446.992H236.734V445.875H237.945V443.914ZM245.469 454.141C243.219 454.141 241.703 452.523 241.703 449.938C241.703 447.344 243.219 445.734 245.469 445.734C247.711 445.734 249.227 447.344 249.227 449.938C249.227 452.523 247.711 454.141 245.469 454.141ZM245.469 452.945C246.906 452.945 247.844 451.852 247.844 449.938C247.844 448.023 246.906 446.93 245.469 446.93C244.031 446.93 243.086 448.023 243.086 449.938C243.086 451.852 244.031 452.945 245.469 452.945ZM254.555 457.039C254.391 457.039 254.117 457.023 253.969 456.992V455.852C254.117 455.883 254.328 455.891 254.5 455.891C255.258 455.891 255.68 455.523 255.992 454.578L256.18 454.008L253.18 445.875H254.633L256.883 452.641H256.906L259.156 445.875H260.586L257.391 454.57C256.695 456.469 256.023 457.039 254.555 457.039ZM264.797 454.141C262.547 454.141 261.031 452.523 261.031 449.938C261.031 447.344 262.547 445.734 264.797 445.734C267.039 445.734 268.555 447.344 268.555 449.938C268.555 452.523 267.039 454.141 264.797 454.141ZM264.797 452.945C266.234 452.945 267.172 451.852 267.172 449.938C267.172 448.023 266.234 446.93 264.797 446.93C263.359 446.93 262.414 448.023 262.414 449.938C262.414 451.852 263.359 452.945 264.797 452.945ZM276.602 445.875V454H275.312V452.68H275.281C274.797 453.617 273.953 454.141 272.703 454.141C270.93 454.141 269.891 452.992 269.891 451.148V445.875H271.25V450.906C271.25 452.227 271.867 452.938 273.125 452.938C274.445 452.938 275.242 452.031 275.242 450.648V445.875H276.602ZM278.367 454V445.875H279.648V447.203H279.68C279.945 446.305 280.695 445.734 281.648 445.734C281.883 445.734 282.086 445.773 282.195 445.789V447.109C282.086 447.07 281.797 447.031 281.469 447.031C280.414 447.031 279.727 447.789 279.727 448.938V454H278.367ZM287.023 454V446.992H285.891V445.875H287.023V444.969C287.023 443.406 287.75 442.664 289.25 442.664C289.555 442.664 289.883 442.695 290.078 442.727V443.828C289.914 443.805 289.688 443.781 289.461 443.781C288.727 443.781 288.375 444.172 288.375 444.977V445.875H290.039V446.992H288.383V454H287.023ZM291.516 454V445.875H292.875V454H291.516ZM292.195 444.508C291.734 444.508 291.352 444.125 291.352 443.664C291.352 443.195 291.734 442.82 292.195 442.82C292.664 442.82 293.047 443.195 293.047 443.664C293.047 444.125 292.664 444.508 292.195 444.508ZM294.711 454V445.875H295.992V447.172H296.023C296.477 446.297 297.344 445.734 298.602 445.734C300.383 445.734 301.414 446.883 301.414 448.727V454H300.055V448.969C300.055 447.656 299.438 446.938 298.188 446.938C296.906 446.938 296.07 447.844 296.07 449.219V454H294.711ZM305.828 452.984C307.109 452.984 308.094 452.086 308.094 450.914V450.25L305.922 450.383C304.828 450.453 304.203 450.938 304.203 451.703C304.203 452.477 304.852 452.984 305.828 452.984ZM305.523 454.141C303.906 454.141 302.82 453.164 302.82 451.703C302.82 450.312 303.891 449.438 305.766 449.328L308.094 449.195V448.516C308.094 447.523 307.438 446.93 306.312 446.93C305.266 446.93 304.609 447.422 304.438 448.219H303.125C303.219 446.812 304.422 445.734 306.344 445.734C308.25 445.734 309.453 446.766 309.453 448.383V454H308.164V452.602H308.133C307.648 453.531 306.617 454.141 305.523 454.141ZM311.18 454V445.875H312.461V447.172H312.492C312.945 446.297 313.812 445.734 315.07 445.734C316.852 445.734 317.883 446.883 317.883 448.727V454H316.523V448.969C316.523 447.656 315.906 446.938 314.656 446.938C313.375 446.938 312.539 447.844 312.539 449.219V454H311.18ZM326.367 448.539H325.039C324.844 447.656 324.156 446.93 322.961 446.93C321.555 446.93 320.602 448.094 320.602 449.938C320.602 451.828 321.57 452.945 322.977 452.945C324.086 452.945 324.812 452.359 325.047 451.383H326.383C326.172 453 324.812 454.141 322.969 454.141C320.719 454.141 319.219 452.555 319.219 449.938C319.219 447.375 320.711 445.734 322.953 445.734C324.984 445.734 326.195 447.078 326.367 448.539ZM327.703 454V445.875H329.062V454H327.703ZM328.383 444.508C327.922 444.508 327.539 444.125 327.539 443.664C327.539 443.195 327.922 442.82 328.383 442.82C328.852 442.82 329.234 443.195 329.234 443.664C329.234 444.125 328.852 444.508 328.383 444.508ZM333.578 452.984C334.859 452.984 335.844 452.086 335.844 450.914V450.25L333.672 450.383C332.578 450.453 331.953 450.938 331.953 451.703C331.953 452.477 332.602 452.984 333.578 452.984ZM333.273 454.141C331.656 454.141 330.57 453.164 330.57 451.703C330.57 450.312 331.641 449.438 333.516 449.328L335.844 449.195V448.516C335.844 447.523 335.188 446.93 334.062 446.93C333.016 446.93 332.359 447.422 332.188 448.219H330.875C330.969 446.812 332.172 445.734 334.094 445.734C336 445.734 337.203 446.766 337.203 448.383V454H335.914V452.602H335.883C335.398 453.531 334.367 454.141 333.273 454.141ZM339 454V442.727H340.359V454H339ZM348.781 452.867C350.195 452.867 351.141 451.695 351.141 449.906C351.141 448.117 350.195 446.93 348.781 446.93C347.383 446.93 346.469 448.086 346.469 449.906C346.469 451.727 347.383 452.867 348.781 452.867ZM348.828 457.062C347.039 457.062 345.625 456.055 345.398 454.672H346.797C347.062 455.414 347.867 455.906 348.883 455.906C350.289 455.906 351.141 455.094 351.141 453.883V452.602H351.109C350.609 453.484 349.648 454.062 348.508 454.062C346.438 454.062 345.078 452.43 345.078 449.906C345.078 447.359 346.438 445.734 348.539 445.734C349.688 445.734 350.641 446.297 351.18 447.242H351.203V445.875H352.5V453.836C352.5 455.773 351.07 457.062 348.828 457.062ZM357.641 454.141C355.391 454.141 353.875 452.523 353.875 449.938C353.875 447.344 355.391 445.734 357.641 445.734C359.883 445.734 361.398 447.344 361.398 449.938C361.398 452.523 359.883 454.141 357.641 454.141ZM357.641 452.945C359.078 452.945 360.016 451.852 360.016 449.938C360.016 448.023 359.078 446.93 357.641 446.93C356.203 446.93 355.258 448.023 355.258 449.938C355.258 451.852 356.203 452.945 357.641 452.945ZM365.453 452.984C366.734 452.984 367.719 452.086 367.719 450.914V450.25L365.547 450.383C364.453 450.453 363.828 450.938 363.828 451.703C363.828 452.477 364.477 452.984 365.453 452.984ZM365.148 454.141C363.531 454.141 362.445 453.164 362.445 451.703C362.445 450.312 363.516 449.438 365.391 449.328L367.719 449.195V448.516C367.719 447.523 367.062 446.93 365.938 446.93C364.891 446.93 364.234 447.422 364.062 448.219H362.75C362.844 446.812 364.047 445.734 365.969 445.734C367.875 445.734 369.078 446.766 369.078 448.383V454H367.789V452.602H367.758C367.273 453.531 366.242 454.141 365.148 454.141ZM370.875 454V442.727H372.234V454H370.875ZM373.93 448.117C373.93 446.727 375.172 445.734 376.961 445.734C378.641 445.734 379.875 446.734 379.938 448.109H378.641C378.547 447.328 377.914 446.844 376.914 446.844C375.922 446.844 375.266 447.336 375.266 448.047C375.266 448.609 375.695 448.984 376.617 449.219L377.875 449.523C379.516 449.938 380.109 450.531 380.109 451.727C380.109 453.141 378.773 454.141 376.875 454.141C375.094 454.141 373.852 453.172 373.711 451.734H375.07C375.219 452.578 375.859 453.031 376.961 453.031C378.062 453.031 378.742 452.562 378.742 451.828C378.742 451.25 378.406 450.938 377.492 450.695L376.062 450.328C374.633 449.961 373.93 449.227 373.93 448.117ZM382.672 454.078C382.172 454.078 381.781 453.688 381.781 453.188C381.781 452.688 382.172 452.297 382.672 452.297C383.172 452.297 383.562 452.688 383.562 453.188C383.562 453.688 383.172 454.078 382.672 454.078Z" fill="#BDBDBD"/>
<path d="M72 70C72 61.1634 79.1634 54 88 54H442V118H88C79.1634 118 72 110.837 72 102V70Z" fill="#202020"/>
<rect x="88" y="66" width="40" height="40" rx="8" fill="#2B4089"/>
<path d="M117 80.375C117 83.0674 112.971 85.25 108 85.25C103.029 85.25 99 83.0674 99 80.375C99 77.6826 103.029 75.5 108 75.5C112.971 75.5 117 77.6826 117 80.375Z" fill="white"/>
<path d="M108 86.75C110.685 86.75 113.191 86.1637 115.078 85.1411C115.768 84.7673 116.425 84.3043 116.975 83.7567C116.991 83.8783 117 84.0011 117 84.125C117 86.8174 112.971 89 108 89C103.029 89 99 86.8174 99 84.125C99 84.0011 99.0085 83.8783 99.0253 83.7567C99.5752 84.3043 100.232 84.7673 100.922 85.1411C102.809 86.1637 105.315 86.75 108 86.75Z" fill="white"/>
<path d="M108 90.5C110.685 90.5 113.191 89.9137 115.078 88.8911C115.768 88.5173 116.425 88.0543 116.975 87.5067C116.991 87.6283 117 87.7511 117 87.875C117 90.5674 112.971 92.75 108 92.75C103.029 92.75 99 90.5674 99 87.875C99 87.7511 99.0085 87.6283 99.0253 87.5067C99.5752 88.0543 100.232 88.5173 100.922 88.8911C102.809 89.9137 105.315 90.5 108 90.5Z" fill="white"/>
<path d="M108 94.25C110.685 94.25 113.191 93.6637 115.078 92.6411C115.768 92.2673 116.425 91.8043 116.975 91.2567C116.991 91.3783 117 91.5011 117 91.625C117 94.3174 112.971 96.5 108 96.5C103.029 96.5 99 94.3174 99 91.625C99 91.5011 99.0085 91.3783 99.0253 91.2567C99.5752 91.8043 100.232 92.2673 100.922 92.6411C102.809 93.6637 105.315 94.25 108 94.25Z" fill="white"/>
<path d="M151.246 93.2344C147.291 93.2344 144.791 90.4414 144.791 85.9492C144.791 81.4863 147.311 78.6738 151.246 78.6738C154.439 78.6738 156.852 80.6367 157.223 83.5762H155.055C154.664 81.7695 153.16 80.5879 151.246 80.5879C148.688 80.5879 147.027 82.6875 147.027 85.9492C147.027 89.2402 148.668 91.3203 151.256 91.3203C153.219 91.3203 154.615 90.3145 155.055 88.6152H157.232C156.695 91.5254 154.488 93.2344 151.246 93.2344ZM158.951 93V82.7266H160.963V84.4746H161.012C161.354 83.2734 162.271 82.5605 163.482 82.5605C163.785 82.5605 164.049 82.6094 164.205 82.6387V84.6016C164.039 84.5332 163.668 84.4844 163.258 84.4844C161.9 84.4844 161.061 85.3926 161.061 86.8477V93H158.951ZM166.529 96.8281C166.363 96.8281 165.826 96.8086 165.67 96.7793V95.0703C165.826 95.1094 166.178 95.1094 166.354 95.1094C167.34 95.1094 167.857 94.6992 168.18 93.6445C168.18 93.625 168.365 93.0195 168.365 93.0098L164.654 82.7266H166.939L169.547 91.0859H169.576L172.184 82.7266H174.41L170.553 93.5371C169.674 96.0273 168.668 96.8281 166.529 96.8281ZM181.002 82.5605C183.609 82.5605 185.328 84.6113 185.328 87.8633C185.328 91.1152 183.619 93.1758 181.041 93.1758C179.566 93.1758 178.395 92.4531 177.809 91.3105H177.76V96.3984H175.65V82.7266H177.691V84.4941H177.73C178.336 83.3125 179.518 82.5605 181.002 82.5605ZM180.445 91.3887C182.115 91.3887 183.16 90.0215 183.16 87.8633C183.16 85.7148 182.115 84.3379 180.445 84.3379C178.834 84.3379 177.75 85.7441 177.75 87.8633C177.75 90.002 178.824 91.3887 180.445 91.3887ZM187.574 80.2949H189.693V82.7266H191.646V84.3965H189.693V90.0605C189.693 90.9492 190.084 91.3496 190.943 91.3496C191.158 91.3496 191.5 91.3301 191.637 91.3008V92.9707C191.402 93.0293 190.934 93.0684 190.465 93.0684C188.385 93.0684 187.574 92.2773 187.574 90.2949V84.3965H186.08V82.7266H187.574V80.2949ZM197.545 93.1953C194.605 93.1953 192.672 91.1738 192.672 87.8633C192.672 84.5625 194.615 82.541 197.545 82.541C200.475 82.541 202.418 84.5625 202.418 87.8633C202.418 91.1738 200.484 93.1953 197.545 93.1953ZM197.545 91.457C199.205 91.457 200.27 90.1484 200.27 87.8633C200.27 85.5879 199.195 84.2793 197.545 84.2793C195.895 84.2793 194.82 85.5879 194.82 87.8633C194.82 90.1484 195.895 91.457 197.545 91.457ZM212.867 86.2617H210.855C210.641 85.168 209.82 84.2988 208.443 84.2988C206.812 84.2988 205.738 85.6562 205.738 87.8633C205.738 90.1191 206.822 91.4277 208.463 91.4277C209.762 91.4277 210.611 90.7148 210.855 89.5234H212.887C212.662 91.7109 210.914 93.1953 208.443 93.1953C205.504 93.1953 203.59 91.1836 203.59 87.8633C203.59 84.6016 205.504 82.541 208.424 82.541C211.07 82.541 212.682 84.2402 212.867 86.2617ZM223.189 82.7266V93H221.168V91.2617H221.119C220.553 92.4922 219.508 93.1855 217.936 93.1855C215.699 93.1855 214.332 91.7305 214.332 89.377V82.7266H216.441V88.9668C216.441 90.5293 217.184 91.3691 218.639 91.3691C220.162 91.3691 221.08 90.3145 221.08 88.7129V82.7266H223.189ZM225.279 93V82.7266H227.291V84.4746H227.34C227.682 83.2734 228.6 82.5605 229.811 82.5605C230.113 82.5605 230.377 82.6094 230.533 82.6387V84.6016C230.367 84.5332 229.996 84.4844 229.586 84.4844C228.229 84.4844 227.389 85.3926 227.389 86.8477V93H225.279ZM231.842 93V82.7266H233.854V84.4746H233.902C234.244 83.2734 235.162 82.5605 236.373 82.5605C236.676 82.5605 236.939 82.6094 237.096 82.6387V84.6016C236.93 84.5332 236.559 84.4844 236.148 84.4844C234.791 84.4844 233.951 85.3926 233.951 86.8477V93H231.842ZM242.252 84.2402C240.777 84.2402 239.742 85.3633 239.635 86.916H244.771C244.723 85.3438 243.727 84.2402 242.252 84.2402ZM244.762 89.9824H246.764C246.471 91.8574 244.693 93.1953 242.34 93.1953C239.322 93.1953 237.496 91.1543 237.496 87.9121C237.496 84.6895 239.352 82.541 242.252 82.541C245.104 82.541 246.881 84.5527 246.881 87.668V88.3906H239.625V88.5176C239.625 90.3047 240.699 91.4863 242.389 91.4863C243.59 91.4863 244.479 90.8809 244.762 89.9824ZM248.521 93V82.7266H250.533V84.4453H250.582C251.139 83.2734 252.232 82.5508 253.814 82.5508C256.08 82.5508 257.379 83.9961 257.379 86.3496V93H255.26V86.7598C255.26 85.2168 254.537 84.3672 253.072 84.3672C251.588 84.3672 250.631 85.4219 250.631 87.0137V93H248.521ZM268.238 86.2617H266.227C266.012 85.168 265.191 84.2988 263.814 84.2988C262.184 84.2988 261.109 85.6562 261.109 87.8633C261.109 90.1191 262.193 91.4277 263.834 91.4277C265.133 91.4277 265.982 90.7148 266.227 89.5234H268.258C268.033 91.7109 266.285 93.1953 263.814 93.1953C260.875 93.1953 258.961 91.1836 258.961 87.8633C258.961 84.6016 260.875 82.541 263.795 82.541C266.441 82.541 268.053 84.2402 268.238 86.2617ZM270.768 96.8281C270.602 96.8281 270.064 96.8086 269.908 96.7793V95.0703C270.064 95.1094 270.416 95.1094 270.592 95.1094C271.578 95.1094 272.096 94.6992 272.418 93.6445C272.418 93.625 272.604 93.0195 272.604 93.0098L268.893 82.7266H271.178L273.785 91.0859H273.814L276.422 82.7266H278.648L274.791 93.5371C273.912 96.0273 272.906 96.8281 270.768 96.8281Z" fill="white"/>
<path d="M72.5 70C72.5 61.4396 79.4396 54.5 88 54.5H441.5V117.5H88C79.4396 117.5 72.5 110.56 72.5 102V70Z" stroke="white" stroke-opacity="0.01"/>
<path d="M72.5 70C72.5 61.4396 79.4396 54.5 88 54.5H441.5V117.5H88C79.4396 117.5 72.5 110.56 72.5 102V70Z" stroke="url(#paint1_radial_2_771)" stroke-opacity="0.12"/>
<path d="M33 146C33 137.163 40.1634 130 49 130H442V206H49C40.1634 206 33 198.837 33 190V146Z" fill="#202020"/>
<rect x="49" y="146" width="44" height="44" rx="8" fill="#2B892E"/>
<path d="M71 163.5C69.7574 163.5 68.75 164.507 68.75 165.75C68.75 166.993 69.7574 168 71 168C72.2426 168 73.25 166.993 73.25 165.75C73.25 164.507 72.2426 163.5 71 163.5Z" fill="white"/>
<path fill-rule="evenodd" clip-rule="evenodd" d="M60.5 160.875C60.5 159.839 61.3395 159 62.375 159H79.625C80.6605 159 81.5 159.839 81.5 160.875V170.625C81.5 171.661 80.6605 172.5 79.625 172.5H62.375C61.3395 172.5 60.5 171.661 60.5 170.625V160.875ZM67.25 165.75C67.25 163.679 68.9289 162 71 162C73.0711 162 74.75 163.679 74.75 165.75C74.75 167.821 73.0711 169.5 71 169.5C68.9289 169.5 67.25 167.821 67.25 165.75ZM77.75 165C77.3358 165 77 165.336 77 165.75V165.758C77 166.172 77.3358 166.508 77.75 166.508H77.7575C78.1717 166.508 78.5075 166.172 78.5075 165.758V165.75C78.5075 165.336 78.1717 165 77.7575 165H77.75ZM63.5 165.75C63.5 165.336 63.8358 165 64.25 165H64.2575C64.6717 165 65.0075 165.336 65.0075 165.75V165.758C65.0075 166.172 64.6717 166.508 64.2575 166.508H64.25C63.8358 166.508 63.5 166.172 63.5 165.758V165.75Z" fill="white"/>
<path d="M61.25 174C60.8358 174 60.5 174.336 60.5 174.75C60.5 175.164 60.8358 175.5 61.25 175.5C66.65 175.5 71.8802 176.222 76.8498 177.575C78.0404 177.899 79.25 177.017 79.25 175.755V174.75C79.25 174.336 78.9142 174 78.5 174H61.25Z" fill="white"/>
<path d="M109.809 172.289H112.398C112.586 173.965 114.215 175.066 116.441 175.066C118.574 175.066 120.109 173.965 120.109 172.453C120.109 171.141 119.184 170.355 116.992 169.816L114.801 169.289C111.695 168.539 110.254 167.086 110.254 164.73C110.254 161.812 112.797 159.809 116.406 159.809C119.98 159.809 122.43 161.812 122.512 164.73H119.957C119.805 163.043 118.41 162.023 116.371 162.023C114.332 162.023 112.938 163.055 112.938 164.555C112.938 165.75 113.828 166.453 116.008 166.992L117.871 167.449C121.34 168.27 122.781 169.664 122.781 172.137C122.781 175.301 120.262 177.281 116.254 177.281C112.504 177.281 109.973 175.348 109.809 172.289ZM124.832 177V164.672H127.246V166.746H127.305C127.855 165.375 129.145 164.461 130.809 164.461C132.52 164.461 133.762 165.34 134.254 166.875H134.312C134.945 165.375 136.398 164.461 138.156 164.461C140.594 164.461 142.188 166.078 142.188 168.527V177H139.645V169.137C139.645 167.543 138.789 166.629 137.289 166.629C135.789 166.629 134.746 167.742 134.746 169.301V177H132.262V168.949C132.262 167.531 131.359 166.629 129.93 166.629C128.43 166.629 127.363 167.801 127.363 169.383V177H124.832ZM148.949 175.207C150.719 175.207 152.102 173.988 152.102 172.383V171.41L149.066 171.598C147.555 171.703 146.699 172.371 146.699 173.426C146.699 174.504 147.59 175.207 148.949 175.207ZM148.246 177.211C145.832 177.211 144.145 175.711 144.145 173.496C144.145 171.34 145.797 170.016 148.727 169.852L152.102 169.652V168.703C152.102 167.332 151.176 166.512 149.629 166.512C148.164 166.512 147.25 167.215 147.027 168.316H144.637C144.777 166.09 146.676 164.449 149.723 164.449C152.711 164.449 154.621 166.031 154.621 168.504V177H152.195V174.973H152.137C151.422 176.344 149.863 177.211 148.246 177.211ZM157.082 177V164.672H159.496V166.77H159.555C159.965 165.328 161.066 164.473 162.52 164.473C162.883 164.473 163.199 164.531 163.387 164.566V166.922C163.188 166.84 162.742 166.781 162.25 166.781C160.621 166.781 159.613 167.871 159.613 169.617V177H157.082ZM165.695 161.754H168.238V164.672H170.582V166.676H168.238V173.473C168.238 174.539 168.707 175.02 169.738 175.02C169.996 175.02 170.406 174.996 170.57 174.961V176.965C170.289 177.035 169.727 177.082 169.164 177.082C166.668 177.082 165.695 176.133 165.695 173.754V166.676H163.902V164.672H165.695V161.754ZM177.848 160.09H184.188C187.469 160.09 189.754 162.352 189.754 165.645C189.754 168.949 187.422 171.223 184.105 171.223H180.473V177H177.848V160.09ZM180.473 162.305V169.02H183.484C185.77 169.02 187.07 167.789 187.07 165.656C187.07 163.523 185.77 162.305 183.496 162.305H180.473ZM196.504 177.234C192.977 177.234 190.656 174.809 190.656 170.836C190.656 166.875 192.988 164.449 196.504 164.449C200.02 164.449 202.352 166.875 202.352 170.836C202.352 174.809 200.031 177.234 196.504 177.234ZM196.504 175.148C198.496 175.148 199.773 173.578 199.773 170.836C199.773 168.105 198.484 166.535 196.504 166.535C194.523 166.535 193.234 168.105 193.234 170.836C193.234 173.578 194.523 175.148 196.504 175.148ZM204.309 177V164.672H206.723V166.77H206.781C207.191 165.328 208.293 164.473 209.746 164.473C210.109 164.473 210.426 164.531 210.613 164.566V166.922C210.414 166.84 209.969 166.781 209.477 166.781C207.848 166.781 206.84 167.871 206.84 169.617V177H204.309ZM212.922 161.754H215.465V164.672H217.809V166.676H215.465V173.473C215.465 174.539 215.934 175.02 216.965 175.02C217.223 175.02 217.633 174.996 217.797 174.961V176.965C217.516 177.035 216.953 177.082 216.391 177.082C213.895 177.082 212.922 176.133 212.922 173.754V166.676H211.129V164.672H212.922V161.754ZM220.633 177V166.676H218.934V164.695H220.633V163.488C220.633 161.098 221.758 159.973 224.266 159.973C224.781 159.973 225.355 160.031 225.684 160.09V161.965C225.438 161.918 225.098 161.895 224.758 161.895C223.656 161.895 223.141 162.445 223.141 163.535V164.695H225.637V166.676H223.176V177H220.633ZM232.41 177.234C228.883 177.234 226.562 174.809 226.562 170.836C226.562 166.875 228.895 164.449 232.41 164.449C235.926 164.449 238.258 166.875 238.258 170.836C238.258 174.809 235.938 177.234 232.41 177.234ZM232.41 175.148C234.402 175.148 235.68 173.578 235.68 170.836C235.68 168.105 234.391 166.535 232.41 166.535C230.43 166.535 229.141 168.105 229.141 170.836C229.141 173.578 230.43 175.148 232.41 175.148ZM240.309 177V160.09H242.84V177H240.309ZM245.523 177V164.672H248.055V177H245.523ZM246.789 162.867C245.98 162.867 245.324 162.223 245.324 161.426C245.324 160.617 245.98 159.973 246.789 159.973C247.609 159.973 248.266 160.617 248.266 161.426C248.266 162.223 247.609 162.867 246.789 162.867ZM255.941 177.234C252.414 177.234 250.094 174.809 250.094 170.836C250.094 166.875 252.426 164.449 255.941 164.449C259.457 164.449 261.789 166.875 261.789 170.836C261.789 174.809 259.469 177.234 255.941 177.234ZM255.941 175.148C257.934 175.148 259.211 173.578 259.211 170.836C259.211 168.105 257.922 166.535 255.941 166.535C253.961 166.535 252.672 168.105 252.672 170.836C252.672 173.578 253.961 175.148 255.941 175.148ZM271.551 177H268.926V160.09H271.551V177ZM274.363 177V164.672H276.777V166.734H276.836C277.504 165.328 278.816 164.461 280.715 164.461C283.434 164.461 284.992 166.195 284.992 169.02V177H282.449V169.512C282.449 167.66 281.582 166.641 279.824 166.641C278.043 166.641 276.895 167.906 276.895 169.816V177H274.363ZM297.965 164.672L293.547 177H290.828L286.387 164.672H289.082L292.176 174.527H292.223L295.316 164.672H297.965ZM304.223 166.488C302.453 166.488 301.211 167.836 301.082 169.699H307.246C307.188 167.812 305.992 166.488 304.223 166.488ZM307.234 173.379H309.637C309.285 175.629 307.152 177.234 304.328 177.234C300.707 177.234 298.516 174.785 298.516 170.895C298.516 167.027 300.742 164.449 304.223 164.449C307.645 164.449 309.777 166.863 309.777 170.602V171.469H301.07V171.621C301.07 173.766 302.359 175.184 304.387 175.184C305.828 175.184 306.895 174.457 307.234 173.379ZM311.523 168.164C311.523 165.961 313.469 164.449 316.352 164.449C319.094 164.449 321.016 165.984 321.098 168.176H318.719C318.602 167.062 317.699 166.371 316.281 166.371C314.91 166.371 313.996 167.039 313.996 168.012C313.996 168.773 314.605 169.289 315.883 169.605L317.957 170.086C320.441 170.684 321.379 171.621 321.379 173.438C321.379 175.688 319.281 177.234 316.258 177.234C313.34 177.234 311.406 175.723 311.207 173.461H313.715C313.914 174.645 314.828 175.301 316.375 175.301C317.898 175.301 318.836 174.668 318.836 173.672C318.836 172.887 318.367 172.453 317.078 172.125L314.875 171.586C312.648 171.047 311.523 169.887 311.523 168.164ZM324.086 161.754H326.629V164.672H328.973V166.676H326.629V173.473C326.629 174.539 327.098 175.02 328.129 175.02C328.387 175.02 328.797 174.996 328.961 174.961V176.965C328.68 177.035 328.117 177.082 327.555 177.082C325.059 177.082 324.086 176.133 324.086 173.754V166.676H322.293V164.672H324.086V161.754ZM331.141 177V164.672H333.672V177H331.141ZM332.406 162.867C331.598 162.867 330.941 162.223 330.941 161.426C330.941 160.617 331.598 159.973 332.406 159.973C333.227 159.973 333.883 160.617 333.883 161.426C333.883 162.223 333.227 162.867 332.406 162.867ZM336.262 177V164.672H338.676V166.734H338.734C339.402 165.328 340.715 164.461 342.613 164.461C345.332 164.461 346.891 166.195 346.891 169.02V177H344.348V169.512C344.348 167.66 343.48 166.641 341.723 166.641C339.941 166.641 338.793 167.906 338.793 169.816V177H336.262ZM354.59 174.949C356.57 174.949 357.871 173.344 357.871 170.801C357.871 168.27 356.57 166.605 354.59 166.605C352.645 166.605 351.379 168.234 351.379 170.801C351.379 173.379 352.645 174.949 354.59 174.949ZM354.613 181.641C351.707 181.641 349.551 180.094 349.234 177.961H351.777C352.141 178.992 353.266 179.672 354.707 179.672C356.688 179.672 357.859 178.547 357.859 176.859V174.832H357.812C357.121 176.168 355.668 177.047 353.91 177.047C350.816 177.047 348.789 174.633 348.789 170.789C348.789 166.91 350.805 164.473 353.969 164.473C355.715 164.473 357.145 165.352 357.895 166.781H357.941V164.672H360.402V176.777C360.402 179.719 358.129 181.641 354.613 181.641Z" fill="white"/>
<path d="M33.5 146C33.5 137.44 40.4396 130.5 49 130.5H441.5V205.5H49C40.4396 205.5 33.5 198.56 33.5 190V146Z" stroke="white" stroke-opacity="0.01"/>
<path d="M33.5 146C33.5 137.44 40.4396 130.5 49 130.5H441.5V205.5H49C40.4396 205.5 33.5 198.56 33.5 190V146Z" stroke="url(#paint2_radial_2_771)" stroke-opacity="0.12"/>
<path d="M72 234C72 225.163 79.1634 218 88 218H442V282H88C79.1634 282 72 274.837 72 266V234Z" fill="#202020"/>
<rect x="88" y="230" width="40" height="40" rx="8" fill="#D06604"/>
<path d="M101.625 241.75C100.175 241.75 99 242.925 99 244.375C99 245.825 100.175 247 101.625 247H114.375C115.825 247 117 245.825 117 244.375C117 242.925 115.825 241.75 114.375 241.75H101.625Z" fill="white"/>
<path d="M99.75 249.25C99.3358 249.25 99 249.586 99 250C99 250.414 99.3358 250.75 99.75 250.75H116.25C116.664 250.75 117 250.414 117 250C117 249.586 116.664 249.25 116.25 249.25H99.75Z" fill="white"/>
<path d="M99 253.75C99 253.336 99.3358 253 99.75 253H116.25C116.664 253 117 253.336 117 253.75C117 254.164 116.664 254.5 116.25 254.5H99.75C99.3358 254.5 99 254.164 99 253.75Z" fill="white"/>
<path d="M99.75 256.75C99.3358 256.75 99 257.086 99 257.5C99 257.914 99.3358 258.25 99.75 258.25H116.25C116.664 258.25 117 257.914 117 257.5C117 257.086 116.664 256.75 116.25 256.75H99.75Z" fill="white"/>
<path d="M144.674 253.074H146.832C146.988 254.471 148.346 255.389 150.201 255.389C151.979 255.389 153.258 254.471 153.258 253.211C153.258 252.117 152.486 251.463 150.66 251.014L148.834 250.574C146.246 249.949 145.045 248.738 145.045 246.775C145.045 244.344 147.164 242.674 150.172 242.674C153.15 242.674 155.191 244.344 155.26 246.775H153.131C153.004 245.369 151.842 244.52 150.143 244.52C148.443 244.52 147.281 245.379 147.281 246.629C147.281 247.625 148.023 248.211 149.84 248.66L151.393 249.041C154.283 249.725 155.484 250.887 155.484 252.947C155.484 255.584 153.385 257.234 150.045 257.234C146.92 257.234 144.811 255.623 144.674 253.074ZM166.002 246.727V257H163.98V255.262H163.932C163.365 256.492 162.32 257.186 160.748 257.186C158.512 257.186 157.145 255.73 157.145 253.377V246.727H159.254V252.967C159.254 254.529 159.996 255.369 161.451 255.369C162.975 255.369 163.893 254.314 163.893 252.713V246.727H166.002ZM167.906 249.637C167.906 247.801 169.527 246.541 171.93 246.541C174.215 246.541 175.816 247.82 175.885 249.646H173.902C173.805 248.719 173.053 248.143 171.871 248.143C170.729 248.143 169.967 248.699 169.967 249.51C169.967 250.145 170.475 250.574 171.539 250.838L173.268 251.238C175.338 251.736 176.119 252.518 176.119 254.031C176.119 255.906 174.371 257.195 171.852 257.195C169.42 257.195 167.809 255.936 167.643 254.051H169.732C169.898 255.037 170.66 255.584 171.949 255.584C173.219 255.584 174 255.057 174 254.227C174 253.572 173.609 253.211 172.535 252.938L170.699 252.488C168.844 252.039 167.906 251.072 167.906 249.637ZM178.375 244.295H180.494V246.727H182.447V248.396H180.494V254.061C180.494 254.949 180.885 255.35 181.744 255.35C181.959 255.35 182.301 255.33 182.438 255.301V256.971C182.203 257.029 181.734 257.068 181.266 257.068C179.186 257.068 178.375 256.277 178.375 254.295V248.396H176.881V246.727H178.375V244.295ZM187.623 255.506C189.098 255.506 190.25 254.49 190.25 253.152V252.342L187.721 252.498C186.461 252.586 185.748 253.143 185.748 254.021C185.748 254.92 186.49 255.506 187.623 255.506ZM187.037 257.176C185.025 257.176 183.619 255.926 183.619 254.08C183.619 252.283 184.996 251.18 187.438 251.043L190.25 250.877V250.086C190.25 248.943 189.479 248.26 188.189 248.26C186.969 248.26 186.207 248.846 186.021 249.764H184.029C184.146 247.908 185.729 246.541 188.268 246.541C190.758 246.541 192.35 247.859 192.35 249.92V257H190.328V255.311H190.279C189.684 256.453 188.385 257.176 187.037 257.176ZM194.469 257V246.727H196.578V257H194.469ZM195.523 245.223C194.85 245.223 194.303 244.686 194.303 244.021C194.303 243.348 194.85 242.811 195.523 242.811C196.207 242.811 196.754 243.348 196.754 244.021C196.754 244.686 196.207 245.223 195.523 245.223ZM198.736 257V246.727H200.748V248.445H200.797C201.354 247.273 202.447 246.551 204.029 246.551C206.295 246.551 207.594 247.996 207.594 250.35V257H205.475V250.76C205.475 249.217 204.752 248.367 203.287 248.367C201.803 248.367 200.846 249.422 200.846 251.014V257H198.736ZM213.229 255.506C214.703 255.506 215.855 254.49 215.855 253.152V252.342L213.326 252.498C212.066 252.586 211.354 253.143 211.354 254.021C211.354 254.92 212.096 255.506 213.229 255.506ZM212.643 257.176C210.631 257.176 209.225 255.926 209.225 254.08C209.225 252.283 210.602 251.18 213.043 251.043L215.855 250.877V250.086C215.855 248.943 215.084 248.26 213.795 248.26C212.574 248.26 211.812 248.846 211.627 249.764H209.635C209.752 247.908 211.334 246.541 213.873 246.541C216.363 246.541 217.955 247.859 217.955 249.92V257H215.934V255.311H215.885C215.289 256.453 213.99 257.176 212.643 257.176ZM225.475 257.176C223.971 257.176 222.809 256.443 222.174 255.252H222.135V257H220.084V242.908H222.193V248.475H222.242C222.857 247.283 224.029 246.561 225.484 246.561C228.072 246.561 229.762 248.611 229.762 251.863C229.762 255.125 228.082 257.176 225.475 257.176ZM224.908 248.338C223.307 248.338 222.184 249.744 222.184 251.863C222.184 254.002 223.307 255.389 224.908 255.389C226.568 255.389 227.594 254.041 227.594 251.863C227.594 249.705 226.568 248.338 224.908 248.338ZM231.49 257V242.908H233.6V257H231.49ZM240.064 248.24C238.59 248.24 237.555 249.363 237.447 250.916H242.584C242.535 249.344 241.539 248.24 240.064 248.24ZM242.574 253.982H244.576C244.283 255.857 242.506 257.195 240.152 257.195C237.135 257.195 235.309 255.154 235.309 251.912C235.309 248.689 237.164 246.541 240.064 246.541C242.916 246.541 244.693 248.553 244.693 251.668V252.391H237.438V252.518C237.438 254.305 238.512 255.486 240.201 255.486C241.402 255.486 242.291 254.881 242.574 253.982ZM252.838 257H250.65V242.908H252.838V257ZM255.182 257V246.727H257.193V248.445H257.242C257.799 247.273 258.893 246.551 260.475 246.551C262.74 246.551 264.039 247.996 264.039 250.35V257H261.92V250.76C261.92 249.217 261.197 248.367 259.732 248.367C258.248 248.367 257.291 249.422 257.291 251.014V257H255.182ZM274.85 246.727L271.168 257H268.902L265.201 246.727H267.447L270.025 254.939H270.064L272.643 246.727H274.85ZM280.064 248.24C278.59 248.24 277.555 249.363 277.447 250.916H282.584C282.535 249.344 281.539 248.24 280.064 248.24ZM282.574 253.982H284.576C284.283 255.857 282.506 257.195 280.152 257.195C277.135 257.195 275.309 255.154 275.309 251.912C275.309 248.689 277.164 246.541 280.064 246.541C282.916 246.541 284.693 248.553 284.693 251.668V252.391H277.438V252.518C277.438 254.305 278.512 255.486 280.201 255.486C281.402 255.486 282.291 254.881 282.574 253.982ZM286.148 249.637C286.148 247.801 287.77 246.541 290.172 246.541C292.457 246.541 294.059 247.82 294.127 249.646H292.145C292.047 248.719 291.295 248.143 290.113 248.143C288.971 248.143 288.209 248.699 288.209 249.51C288.209 250.145 288.717 250.574 289.781 250.838L291.51 251.238C293.58 251.736 294.361 252.518 294.361 254.031C294.361 255.906 292.613 257.195 290.094 257.195C287.662 257.195 286.051 255.936 285.885 254.051H287.975C288.141 255.037 288.902 255.584 290.191 255.584C291.461 255.584 292.242 255.057 292.242 254.227C292.242 253.572 291.852 253.211 290.777 252.938L288.941 252.488C287.086 252.039 286.148 251.072 286.148 249.637ZM296.617 244.295H298.736V246.727H300.689V248.396H298.736V254.061C298.736 254.949 299.127 255.35 299.986 255.35C300.201 255.35 300.543 255.33 300.68 255.301V256.971C300.445 257.029 299.977 257.068 299.508 257.068C297.428 257.068 296.617 256.277 296.617 254.295V248.396H295.123V246.727H296.617V244.295ZM302.496 257V246.727H304.605V257H302.496ZM303.551 245.223C302.877 245.223 302.33 244.686 302.33 244.021C302.33 243.348 302.877 242.811 303.551 242.811C304.234 242.811 304.781 243.348 304.781 244.021C304.781 244.686 304.234 245.223 303.551 245.223ZM306.764 257V246.727H308.775V248.445H308.824C309.381 247.273 310.475 246.551 312.057 246.551C314.322 246.551 315.621 247.996 315.621 250.35V257H313.502V250.76C313.502 249.217 312.779 248.367 311.314 248.367C309.83 248.367 308.873 249.422 308.873 251.014V257H306.764ZM322.037 255.291C323.688 255.291 324.771 253.953 324.771 251.834C324.771 249.725 323.688 248.338 322.037 248.338C320.416 248.338 319.361 249.695 319.361 251.834C319.361 253.982 320.416 255.291 322.037 255.291ZM322.057 260.867C319.635 260.867 317.838 259.578 317.574 257.801H319.693C319.996 258.66 320.934 259.227 322.135 259.227C323.785 259.227 324.762 258.289 324.762 256.883V255.193H324.723C324.146 256.307 322.936 257.039 321.471 257.039C318.893 257.039 317.203 255.027 317.203 251.824C317.203 248.592 318.883 246.561 321.52 246.561C322.975 246.561 324.166 247.293 324.791 248.484H324.83V246.727H326.881V256.814C326.881 259.266 324.986 260.867 322.057 260.867Z" fill="white"/>
<path d="M72.5 234C72.5 225.44 79.4396 218.5 88 218.5H441.5V281.5H88C79.4396 281.5 72.5 274.56 72.5 266V234Z" stroke="white" stroke-opacity="0.01"/>
<path d="M72.5 234C72.5 225.44 79.4396 218.5 88 218.5H441.5V281.5H88C79.4396 281.5 72.5 274.56 72.5 266V234Z" stroke="url(#paint3_radial_2_771)" stroke-opacity="0.12"/>
<rect x="1" y="106" width="441" height="215" fill="url(#paint4_linear_2_771)"/>
</g>
<rect x="0.5" y="0.5" width="441" height="499" rx="11.5" stroke="white" stroke-opacity="0.04"/>
<rect x="0.5" y="0.5" width="441" height="499" rx="11.5" stroke="url(#paint5_linear_2_771)" stroke-opacity="0.12"/>
<defs>
<radialGradient id="paint0_radial_2_771" cx="0" cy="0" r="1" gradientUnits="userSpaceOnUse" gradientTransform="translate(241 151.922) rotate(90) scale(185.516 300.453)">
<stop stop-color="white"/>
<stop offset="1" stop-color="white" stop-opacity="0"/>
</radialGradient>
<radialGradient id="paint1_radial_2_771" cx="0" cy="0" r="1" gradientUnits="userSpaceOnUse" gradientTransform="translate(257 54) rotate(90) scale(40.9244 236.594)">
<stop stop-color="white"/>
<stop offset="1" stop-color="white" stop-opacity="0"/>
</radialGradient>
<radialGradient id="paint2_radial_2_771" cx="0" cy="0" r="1" gradientUnits="userSpaceOnUse" gradientTransform="translate(237.5 130) rotate(90) scale(48.5978 261.533)">
<stop stop-color="white"/>
<stop offset="1" stop-color="white" stop-opacity="0"/>
</radialGradient>
<radialGradient id="paint3_radial_2_771" cx="0" cy="0" r="1" gradientUnits="userSpaceOnUse" gradientTransform="translate(257 218) rotate(90) scale(40.9244 236.594)">
<stop stop-color="white"/>
<stop offset="1" stop-color="white" stop-opacity="0"/>
</radialGradient>
<linearGradient id="paint4_linear_2_771" x1="221.5" y1="106" x2="221.5" y2="321" gradientUnits="userSpaceOnUse">
<stop stop-color="#131313" stop-opacity="0"/>
<stop offset="1" stop-color="#131313"/>
</linearGradient>
<linearGradient id="paint5_linear_2_771" x1="221" y1="0" x2="221" y2="370.192" gradientUnits="userSpaceOnUse">
<stop stop-color="white"/>
<stop offset="1" stop-color="white" stop-opacity="0"/>
</linearGradient>
<clipPath id="clip0_2_771">
<rect width="442" height="500" rx="12" fill="white"/>
</clipPath>
</defs>
</svg>
