<svg width="342" height="440" viewBox="0 0 342 440" fill="none" xmlns="http://www.w3.org/2000/svg">
<g clip-path="url(#clip0_2_1127)">
<rect width="342" height="440" rx="12" fill="#131313"/>
<path d="M24.8086 42.2891H27.3984C27.5859 43.9648 29.2148 45.0664 31.4414 45.0664C33.5742 45.0664 35.1094 43.9648 35.1094 42.4531C35.1094 41.1406 34.1836 40.3555 31.9922 39.8164L29.8008 39.2891C26.6953 38.5391 25.2539 37.0859 25.2539 34.7305C25.2539 31.8125 27.7969 29.8086 31.4062 29.8086C34.9805 29.8086 37.4297 31.8125 37.5117 34.7305H34.957C34.8047 33.043 33.4102 32.0234 31.3711 32.0234C29.332 32.0234 27.9375 33.0547 27.9375 34.5547C27.9375 35.75 28.8281 36.4531 31.0078 36.9922L32.8711 37.4492C36.3398 38.2695 37.7812 39.6641 37.7812 42.1367C37.7812 45.3008 35.2617 47.2812 31.2539 47.2812C27.5039 47.2812 24.9727 45.3477 24.8086 42.2891ZM46.2539 34.4727C49.3828 34.4727 51.4453 36.9336 51.4453 40.8359C51.4453 44.7383 49.3945 47.2109 46.3008 47.2109C44.5312 47.2109 43.125 46.3438 42.4219 44.9727H42.3633V51.0781H39.832V34.6719H42.2812V36.793H42.3281C43.0547 35.375 44.4727 34.4727 46.2539 34.4727ZM45.5859 45.0664C47.5898 45.0664 48.8438 43.4258 48.8438 40.8359C48.8438 38.2578 47.5898 36.6055 45.5859 36.6055C43.6523 36.6055 42.3516 38.293 42.3516 40.8359C42.3516 43.4023 43.6406 45.0664 45.5859 45.0664ZM58.5586 36.4883C56.7891 36.4883 55.5469 37.8359 55.418 39.6992H61.582C61.5234 37.8125 60.3281 36.4883 58.5586 36.4883ZM61.5703 43.3789H63.9727C63.6211 45.6289 61.4883 47.2344 58.6641 47.2344C55.043 47.2344 52.8516 44.7852 52.8516 40.8945C52.8516 37.0273 55.0781 34.4492 58.5586 34.4492C61.9805 34.4492 64.1133 36.8633 64.1133 40.6016V41.4688H55.4062V41.6211C55.4062 43.7656 56.6953 45.1836 58.7227 45.1836C60.1641 45.1836 61.2305 44.457 61.5703 43.3789ZM66.082 47V34.6719H68.4961V36.7344H68.5547C69.2227 35.3281 70.5352 34.4609 72.4336 34.4609C75.1523 34.4609 76.7109 36.1953 76.7109 39.0195V47H74.168V39.5117C74.168 37.6602 73.3008 36.6406 71.543 36.6406C69.7617 36.6406 68.6133 37.9062 68.6133 39.8164V47H66.082ZM83.7891 47.2109C80.6719 47.2109 78.6094 44.7266 78.6094 40.8359C78.6094 36.9453 80.6719 34.4727 83.7656 34.4727C85.5352 34.4727 86.9414 35.3633 87.6328 36.7227H87.6797V30.0898H90.2227V47H87.7617V44.9023H87.7148C86.9883 46.3086 85.582 47.2109 83.7891 47.2109ZM84.457 36.6055C82.4531 36.6055 81.1992 38.2461 81.1992 40.8359C81.1992 43.4375 82.4531 45.0664 84.457 45.0664C86.4023 45.0664 87.7031 43.4141 87.7031 40.8359C87.7031 38.2812 86.4023 36.6055 84.457 36.6055ZM104.262 47.2109C102.457 47.2109 101.062 46.332 100.301 44.9023H100.254V47H97.793V30.0898H100.324V36.7695H100.383C101.121 35.3398 102.527 34.4727 104.273 34.4727C107.379 34.4727 109.406 36.9336 109.406 40.8359C109.406 44.75 107.391 47.2109 104.262 47.2109ZM103.582 36.6055C101.66 36.6055 100.312 38.293 100.312 40.8359C100.312 43.4023 101.66 45.0664 103.582 45.0664C105.574 45.0664 106.805 43.4492 106.805 40.8359C106.805 38.2461 105.574 36.6055 103.582 36.6055ZM116.543 36.4883C114.773 36.4883 113.531 37.8359 113.402 39.6992H119.566C119.508 37.8125 118.312 36.4883 116.543 36.4883ZM119.555 43.3789H121.957C121.605 45.6289 119.473 47.2344 116.648 47.2344C113.027 47.2344 110.836 44.7852 110.836 40.8945C110.836 37.0273 113.062 34.4492 116.543 34.4492C119.965 34.4492 122.098 36.8633 122.098 40.6016V41.4688H113.391V41.6211C113.391 43.7656 114.68 45.1836 116.707 45.1836C118.148 45.1836 119.215 44.457 119.555 43.3789ZM124.805 31.7539H127.348V34.6719H129.691V36.6758H127.348V43.4727C127.348 44.5391 127.816 45.0195 128.848 45.0195C129.105 45.0195 129.516 44.9961 129.68 44.9609V46.9648C129.398 47.0352 128.836 47.082 128.273 47.082C125.777 47.082 124.805 46.1328 124.805 43.7539V36.6758H123.012V34.6719H124.805V31.7539ZM132.516 31.7539H135.059V34.6719H137.402V36.6758H135.059V43.4727C135.059 44.5391 135.527 45.0195 136.559 45.0195C136.816 45.0195 137.227 44.9961 137.391 44.9609V46.9648C137.109 47.0352 136.547 47.082 135.984 47.082C133.488 47.082 132.516 46.1328 132.516 43.7539V36.6758H130.723V34.6719H132.516V31.7539ZM144.34 36.4883C142.57 36.4883 141.328 37.8359 141.199 39.6992H147.363C147.305 37.8125 146.109 36.4883 144.34 36.4883ZM147.352 43.3789H149.754C149.402 45.6289 147.27 47.2344 144.445 47.2344C140.824 47.2344 138.633 44.7852 138.633 40.8945C138.633 37.0273 140.859 34.4492 144.34 34.4492C147.762 34.4492 149.895 36.8633 149.895 40.6016V41.4688H141.188V41.6211C141.188 43.7656 142.477 45.1836 144.504 45.1836C145.945 45.1836 147.012 44.457 147.352 43.3789ZM151.863 47V34.6719H154.277V36.7695H154.336C154.746 35.3281 155.848 34.4727 157.301 34.4727C157.664 34.4727 157.98 34.5312 158.168 34.5664V36.9219C157.969 36.8398 157.523 36.7812 157.031 36.7812C155.402 36.7812 154.395 37.8711 154.395 39.6172V47H151.863Z" fill="white"/>
<path d="M24.5547 82.8984H25.9688C26.1016 84.1172 27.2578 84.9219 28.8672 84.9219C30.3906 84.9219 31.5 84.1172 31.5 83.0078C31.5 82.0547 30.8359 81.4688 29.3203 81.0781L27.875 80.7031C25.7969 80.1719 24.875 79.2578 24.875 77.7266C24.875 75.8516 26.5156 74.5391 28.8594 74.5391C31.1016 74.5391 32.7266 75.8672 32.7891 77.7578H31.3828C31.2578 76.5469 30.2812 75.8047 28.8125 75.8047C27.3516 75.8047 26.3359 76.5625 26.3359 77.6641C26.3359 78.5156 26.9609 79.0234 28.4922 79.4219L29.6719 79.7344C32.0078 80.3203 32.9531 81.2188 32.9531 82.8359C32.9531 84.8984 31.3281 86.1875 28.7344 86.1875C26.3438 86.1875 24.6875 84.8906 24.5547 82.8984ZM37.6406 78.9141C36.3672 78.9141 35.4766 79.8906 35.3906 81.2422H39.8047C39.7734 79.8828 38.9219 78.9141 37.6406 78.9141ZM39.7734 83.6719H41.1094C40.875 85.0938 39.5 86.1406 37.7266 86.1406C35.3984 86.1406 33.9844 84.5234 33.9844 81.9688C33.9844 79.4453 35.4219 77.7344 37.6641 77.7344C39.8594 77.7344 41.2109 79.3281 41.2109 81.7891V82.3047H35.3828V82.3828C35.3828 83.9375 36.2969 84.9609 37.7578 84.9609C38.7891 84.9609 39.5469 84.4375 39.7734 83.6719ZM43.0234 75.9141H44.3828V77.875H45.9609V78.9922H44.3828V83.8203C44.3828 84.5625 44.6953 84.8984 45.3906 84.8984C45.5469 84.8984 45.8594 84.875 45.9531 84.8594V86C45.7891 86.0391 45.4141 86.0625 45.0938 86.0625C43.6016 86.0625 43.0234 85.4531 43.0234 83.8906V78.9922H41.8125V77.875H43.0234V75.9141ZM53.375 84.9844C54.6562 84.9844 55.6406 84.0859 55.6406 82.9141V82.25L53.4688 82.3828C52.375 82.4531 51.75 82.9375 51.75 83.7031C51.75 84.4766 52.3984 84.9844 53.375 84.9844ZM53.0703 86.1406C51.4531 86.1406 50.3672 85.1641 50.3672 83.7031C50.3672 82.3125 51.4375 81.4375 53.3125 81.3281L55.6406 81.1953V80.5156C55.6406 79.5234 54.9844 78.9297 53.8594 78.9297C52.8125 78.9297 52.1562 79.4219 51.9844 80.2188H50.6719C50.7656 78.8125 51.9688 77.7344 53.8906 77.7344C55.7969 77.7344 57 78.7656 57 80.3828V86H55.7109V84.6016H55.6797C55.1953 85.5312 54.1641 86.1406 53.0703 86.1406ZM58.7266 86V77.875H60.0078V79.1719H60.0391C60.4922 78.2969 61.3594 77.7344 62.6172 77.7344C64.3984 77.7344 65.4297 78.8828 65.4297 80.7266V86H64.0703V80.9688C64.0703 79.6562 63.4531 78.9375 62.2031 78.9375C60.9219 78.9375 60.0859 79.8438 60.0859 81.2188V86H58.7266ZM70.2422 86.1406C68.1719 86.1406 66.7656 84.4844 66.7656 81.9375C66.7656 79.3906 68.1641 77.7344 70.2109 77.7344C71.375 77.7344 72.3125 78.3047 72.7969 79.1953H72.8281V74.7266H74.1875V86H72.8906V84.625H72.8672C72.3438 85.5625 71.4141 86.1406 70.2422 86.1406ZM70.5 78.9297C69.0625 78.9297 68.1562 80.1016 68.1562 81.9375C68.1562 83.7812 69.0625 84.9453 70.5 84.9453C71.8984 84.9453 72.8359 83.7578 72.8359 81.9375C72.8359 80.125 71.8984 78.9297 70.5 78.9297ZM81.9844 84.9844C83.2656 84.9844 84.25 84.0859 84.25 82.9141V82.25L82.0781 82.3828C80.9844 82.4531 80.3594 82.9375 80.3594 83.7031C80.3594 84.4766 81.0078 84.9844 81.9844 84.9844ZM81.6797 86.1406C80.0625 86.1406 78.9766 85.1641 78.9766 83.7031C78.9766 82.3125 80.0469 81.4375 81.9219 81.3281L84.25 81.1953V80.5156C84.25 79.5234 83.5938 78.9297 82.4688 78.9297C81.4219 78.9297 80.7656 79.4219 80.5938 80.2188H79.2812C79.375 78.8125 80.5781 77.7344 82.5 77.7344C84.4062 77.7344 85.6094 78.7656 85.6094 80.3828V86H84.3203V84.6016H84.2891C83.8047 85.5312 82.7734 86.1406 81.6797 86.1406ZM94.0859 80.5391H92.7578C92.5625 79.6562 91.875 78.9297 90.6797 78.9297C89.2734 78.9297 88.3203 80.0938 88.3203 81.9375C88.3203 83.8281 89.2891 84.9453 90.6953 84.9453C91.8047 84.9453 92.5312 84.3594 92.7656 83.3828H94.1016C93.8906 85 92.5312 86.1406 90.6875 86.1406C88.4375 86.1406 86.9375 84.5547 86.9375 81.9375C86.9375 79.375 88.4297 77.7344 90.6719 77.7344C92.7031 77.7344 93.9141 79.0781 94.0859 80.5391ZM95.4219 86V74.7266H96.7812V79.1719H96.8125C97.2656 78.2656 98.1562 77.7344 99.3906 77.7344C101.172 77.7344 102.25 78.9375 102.25 80.75V86H100.891V81C100.891 79.7109 100.242 78.9375 98.9688 78.9375C97.6172 78.9375 96.7812 79.8594 96.7812 81.2656V86H95.4219ZM104.047 86V77.875H105.406V86H104.047ZM104.727 76.5078C104.266 76.5078 103.883 76.125 103.883 75.6641C103.883 75.1953 104.266 74.8203 104.727 74.8203C105.195 74.8203 105.578 75.1953 105.578 75.6641C105.578 76.125 105.195 76.5078 104.727 76.5078ZM110.5 78.9141C109.227 78.9141 108.336 79.8906 108.25 81.2422H112.664C112.633 79.8828 111.781 78.9141 110.5 78.9141ZM112.633 83.6719H113.969C113.734 85.0938 112.359 86.1406 110.586 86.1406C108.258 86.1406 106.844 84.5234 106.844 81.9688C106.844 79.4453 108.281 77.7344 110.523 77.7344C112.719 77.7344 114.07 79.3281 114.07 81.7891V82.3047H108.242V82.3828C108.242 83.9375 109.156 84.9609 110.617 84.9609C111.648 84.9609 112.406 84.4375 112.633 83.6719ZM122.109 77.875L119.125 86H117.734L114.742 77.875H116.172L118.414 84.5547H118.445L120.695 77.875H122.109ZM126.203 78.9141C124.93 78.9141 124.039 79.8906 123.953 81.2422H128.367C128.336 79.8828 127.484 78.9141 126.203 78.9141ZM128.336 83.6719H129.672C129.438 85.0938 128.062 86.1406 126.289 86.1406C123.961 86.1406 122.547 84.5234 122.547 81.9688C122.547 79.4453 123.984 77.7344 126.227 77.7344C128.422 77.7344 129.773 79.3281 129.773 81.7891V82.3047H123.945V82.3828C123.945 83.9375 124.859 84.9609 126.32 84.9609C127.352 84.9609 128.109 84.4375 128.336 83.6719ZM134.867 86V78.9922H133.734V77.875H134.867V76.9688C134.867 75.4062 135.594 74.6641 137.094 74.6641C137.398 74.6641 137.727 74.6953 137.922 74.7266V75.8281C137.758 75.8047 137.531 75.7812 137.305 75.7812C136.57 75.7812 136.219 76.1719 136.219 76.9766V77.875H137.883V78.9922H136.227V86H134.867ZM139.359 86V77.875H140.719V86H139.359ZM140.039 76.5078C139.578 76.5078 139.195 76.125 139.195 75.6641C139.195 75.1953 139.578 74.8203 140.039 74.8203C140.508 74.8203 140.891 75.1953 140.891 75.6641C140.891 76.125 140.508 76.5078 140.039 76.5078ZM142.555 86V77.875H143.836V79.1719H143.867C144.32 78.2969 145.188 77.7344 146.445 77.7344C148.227 77.7344 149.258 78.8828 149.258 80.7266V86H147.898V80.9688C147.898 79.6562 147.281 78.9375 146.031 78.9375C144.75 78.9375 143.914 79.8438 143.914 81.2188V86H142.555ZM153.672 84.9844C154.953 84.9844 155.938 84.0859 155.938 82.9141V82.25L153.766 82.3828C152.672 82.4531 152.047 82.9375 152.047 83.7031C152.047 84.4766 152.695 84.9844 153.672 84.9844ZM153.367 86.1406C151.75 86.1406 150.664 85.1641 150.664 83.7031C150.664 82.3125 151.734 81.4375 153.609 81.3281L155.938 81.1953V80.5156C155.938 79.5234 155.281 78.9297 154.156 78.9297C153.109 78.9297 152.453 79.4219 152.281 80.2188H150.969C151.062 78.8125 152.266 77.7344 154.188 77.7344C156.094 77.7344 157.297 78.7656 157.297 80.3828V86H156.008V84.6016H155.977C155.492 85.5312 154.461 86.1406 153.367 86.1406ZM159.023 86V77.875H160.305V79.1719H160.336C160.789 78.2969 161.656 77.7344 162.914 77.7344C164.695 77.7344 165.727 78.8828 165.727 80.7266V86H164.367V80.9688C164.367 79.6562 163.75 78.9375 162.5 78.9375C161.219 78.9375 160.383 79.8438 160.383 81.2188V86H159.023ZM174.211 80.5391H172.883C172.688 79.6562 172 78.9297 170.805 78.9297C169.398 78.9297 168.445 80.0938 168.445 81.9375C168.445 83.8281 169.414 84.9453 170.82 84.9453C171.93 84.9453 172.656 84.3594 172.891 83.3828H174.227C174.016 85 172.656 86.1406 170.812 86.1406C168.562 86.1406 167.062 84.5547 167.062 81.9375C167.062 79.375 168.555 77.7344 170.797 77.7344C172.828 77.7344 174.039 79.0781 174.211 80.5391ZM175.547 86V77.875H176.906V86H175.547ZM176.227 76.5078C175.766 76.5078 175.383 76.125 175.383 75.6641C175.383 75.1953 175.766 74.8203 176.227 74.8203C176.695 74.8203 177.078 75.1953 177.078 75.6641C177.078 76.125 176.695 76.5078 176.227 76.5078ZM181.422 84.9844C182.703 84.9844 183.688 84.0859 183.688 82.9141V82.25L181.516 82.3828C180.422 82.4531 179.797 82.9375 179.797 83.7031C179.797 84.4766 180.445 84.9844 181.422 84.9844ZM181.117 86.1406C179.5 86.1406 178.414 85.1641 178.414 83.7031C178.414 82.3125 179.484 81.4375 181.359 81.3281L183.688 81.1953V80.5156C183.688 79.5234 183.031 78.9297 181.906 78.9297C180.859 78.9297 180.203 79.4219 180.031 80.2188H178.719C178.812 78.8125 180.016 77.7344 181.938 77.7344C183.844 77.7344 185.047 78.7656 185.047 80.3828V86H183.758V84.6016H183.727C183.242 85.5312 182.211 86.1406 181.117 86.1406ZM186.844 86V74.7266H188.203V86H186.844ZM196.625 84.8672C198.039 84.8672 198.984 83.6953 198.984 81.9062C198.984 80.1172 198.039 78.9297 196.625 78.9297C195.227 78.9297 194.312 80.0859 194.312 81.9062C194.312 83.7266 195.227 84.8672 196.625 84.8672ZM196.672 89.0625C194.883 89.0625 193.469 88.0547 193.242 86.6719H194.641C194.906 87.4141 195.711 87.9062 196.727 87.9062C198.133 87.9062 198.984 87.0938 198.984 85.8828V84.6016H198.953C198.453 85.4844 197.492 86.0625 196.352 86.0625C194.281 86.0625 192.922 84.4297 192.922 81.9062C192.922 79.3594 194.281 77.7344 196.383 77.7344C197.531 77.7344 198.484 78.2969 199.023 79.2422H199.047V77.875H200.344V85.8359C200.344 87.7734 198.914 89.0625 196.672 89.0625ZM205.484 86.1406C203.234 86.1406 201.719 84.5234 201.719 81.9375C201.719 79.3438 203.234 77.7344 205.484 77.7344C207.727 77.7344 209.242 79.3438 209.242 81.9375C209.242 84.5234 207.727 86.1406 205.484 86.1406ZM205.484 84.9453C206.922 84.9453 207.859 83.8516 207.859 81.9375C207.859 80.0234 206.922 78.9297 205.484 78.9297C204.047 78.9297 203.102 80.0234 203.102 81.9375C203.102 83.8516 204.047 84.9453 205.484 84.9453ZM213.297 84.9844C214.578 84.9844 215.562 84.0859 215.562 82.9141V82.25L213.391 82.3828C212.297 82.4531 211.672 82.9375 211.672 83.7031C211.672 84.4766 212.32 84.9844 213.297 84.9844ZM212.992 86.1406C211.375 86.1406 210.289 85.1641 210.289 83.7031C210.289 82.3125 211.359 81.4375 213.234 81.3281L215.562 81.1953V80.5156C215.562 79.5234 214.906 78.9297 213.781 78.9297C212.734 78.9297 212.078 79.4219 211.906 80.2188H210.594C210.688 78.8125 211.891 77.7344 213.812 77.7344C215.719 77.7344 216.922 78.7656 216.922 80.3828V86H215.633V84.6016H215.602C215.117 85.5312 214.086 86.1406 212.992 86.1406ZM218.719 86V74.7266H220.078V86H218.719ZM221.773 80.1172C221.773 78.7266 223.016 77.7344 224.805 77.7344C226.484 77.7344 227.719 78.7344 227.781 80.1094H226.484C226.391 79.3281 225.758 78.8438 224.758 78.8438C223.766 78.8438 223.109 79.3359 223.109 80.0469C223.109 80.6094 223.539 80.9844 224.461 81.2188L225.719 81.5234C227.359 81.9375 227.953 82.5312 227.953 83.7266C227.953 85.1406 226.617 86.1406 224.719 86.1406C222.938 86.1406 221.695 85.1719 221.555 83.7344H222.914C223.062 84.5781 223.703 85.0312 224.805 85.0312C225.906 85.0312 226.586 84.5625 226.586 83.8281C226.586 83.25 226.25 82.9375 225.336 82.6953L223.906 82.3281C222.477 81.9609 221.773 81.2266 221.773 80.1172ZM242.984 77.875L240.719 86H239.336L237.5 79.7109H237.469L235.641 86H234.258L231.984 77.875H233.336L234.961 84.4844H234.992L236.828 77.875H238.141L239.984 84.4844H240.016L241.641 77.875H242.984ZM244.172 86V77.875H245.531V86H244.172ZM244.852 76.5078C244.391 76.5078 244.008 76.125 244.008 75.6641C244.008 75.1953 244.391 74.8203 244.852 74.8203C245.32 74.8203 245.703 75.1953 245.703 75.6641C245.703 76.125 245.32 76.5078 244.852 76.5078ZM247.805 75.9141H249.164V77.875H250.742V78.9922H249.164V83.8203C249.164 84.5625 249.477 84.8984 250.172 84.8984C250.328 84.8984 250.641 84.875 250.734 84.8594V86C250.57 86.0391 250.195 86.0625 249.875 86.0625C248.383 86.0625 247.805 85.4531 247.805 83.8906V78.9922H246.594V77.875H247.805V75.9141ZM252.266 86V74.7266H253.625V79.1719H253.656C254.109 78.2656 255 77.7344 256.234 77.7344C258.016 77.7344 259.094 78.9375 259.094 80.75V86H257.734V81C257.734 79.7109 257.086 78.9375 255.812 78.9375C254.461 78.9375 253.625 79.8594 253.625 81.2656V86H252.266ZM267.359 78.9141C266.086 78.9141 265.195 79.8906 265.109 81.2422H269.523C269.492 79.8828 268.641 78.9141 267.359 78.9141ZM269.492 83.6719H270.828C270.594 85.0938 269.219 86.1406 267.445 86.1406C265.117 86.1406 263.703 84.5234 263.703 81.9688C263.703 79.4453 265.141 77.7344 267.383 77.7344C269.578 77.7344 270.93 79.3281 270.93 81.7891V82.3047H265.102V82.3828C265.102 83.9375 266.016 84.9609 267.477 84.9609C268.508 84.9609 269.266 84.4375 269.492 83.6719ZM274.984 84.9844C276.266 84.9844 277.25 84.0859 277.25 82.9141V82.25L275.078 82.3828C273.984 82.4531 273.359 82.9375 273.359 83.7031C273.359 84.4766 274.008 84.9844 274.984 84.9844ZM274.68 86.1406C273.062 86.1406 271.977 85.1641 271.977 83.7031C271.977 82.3125 273.047 81.4375 274.922 81.3281L277.25 81.1953V80.5156C277.25 79.5234 276.594 78.9297 275.469 78.9297C274.422 78.9297 273.766 79.4219 273.594 80.2188H272.281C272.375 78.8125 273.578 77.7344 275.5 77.7344C277.406 77.7344 278.609 78.7656 278.609 80.3828V86H277.32V84.6016H277.289C276.805 85.5312 275.773 86.1406 274.68 86.1406ZM280.195 80.1172C280.195 78.7266 281.438 77.7344 283.227 77.7344C284.906 77.7344 286.141 78.7344 286.203 80.1094H284.906C284.812 79.3281 284.18 78.8438 283.18 78.8438C282.188 78.8438 281.531 79.3359 281.531 80.0469C281.531 80.6094 281.961 80.9844 282.883 81.2188L284.141 81.5234C285.781 81.9375 286.375 82.5312 286.375 83.7266C286.375 85.1406 285.039 86.1406 283.141 86.1406C281.359 86.1406 280.117 85.1719 279.977 83.7344H281.336C281.484 84.5781 282.125 85.0312 283.227 85.0312C284.328 85.0312 285.008 84.5625 285.008 83.8281C285.008 83.25 284.672 82.9375 283.758 82.6953L282.328 82.3281C280.898 81.9609 280.195 81.2266 280.195 80.1172ZM291.047 78.9141C289.773 78.9141 288.883 79.8906 288.797 81.2422H293.211C293.18 79.8828 292.328 78.9141 291.047 78.9141ZM293.18 83.6719H294.516C294.281 85.0938 292.906 86.1406 291.133 86.1406C288.805 86.1406 287.391 84.5234 287.391 81.9688C287.391 79.4453 288.828 77.7344 291.07 77.7344C293.266 77.7344 294.617 79.3281 294.617 81.7891V82.3047H288.789V82.3828C288.789 83.9375 289.703 84.9609 291.164 84.9609C292.195 84.9609 292.953 84.4375 293.18 83.6719ZM296.922 88.2422H295.789L296.547 84.2656H297.992L296.922 88.2422ZM27.5625 108.984C28.8438 108.984 29.8281 108.086 29.8281 106.914V106.25L27.6562 106.383C26.5625 106.453 25.9375 106.938 25.9375 107.703C25.9375 108.477 26.5859 108.984 27.5625 108.984ZM27.2578 110.141C25.6406 110.141 24.5547 109.164 24.5547 107.703C24.5547 106.312 25.625 105.438 27.5 105.328L29.8281 105.195V104.516C29.8281 103.523 29.1719 102.93 28.0469 102.93C27 102.93 26.3438 103.422 26.1719 104.219H24.8594C24.9531 102.812 26.1562 101.734 28.0781 101.734C29.9844 101.734 31.1875 102.766 31.1875 104.383V110H29.8984V108.602H29.8672C29.3828 109.531 28.3516 110.141 27.2578 110.141ZM39.5859 101.875V110H38.2969V108.68H38.2656C37.7812 109.617 36.9375 110.141 35.6875 110.141C33.9141 110.141 32.875 108.992 32.875 107.148V101.875H34.2344V106.906C34.2344 108.227 34.8516 108.938 36.1094 108.938C37.4297 108.938 38.2266 108.031 38.2266 106.648V101.875H39.5859ZM41.7891 99.9141H43.1484V101.875H44.7266V102.992H43.1484V107.82C43.1484 108.562 43.4609 108.898 44.1562 108.898C44.3125 108.898 44.625 108.875 44.7188 108.859V110C44.5547 110.039 44.1797 110.062 43.8594 110.062C42.3672 110.062 41.7891 109.453 41.7891 107.891V102.992H40.5781V101.875H41.7891V99.9141ZM49.3125 110.141C47.0625 110.141 45.5469 108.523 45.5469 105.938C45.5469 103.344 47.0625 101.734 49.3125 101.734C51.5547 101.734 53.0703 103.344 53.0703 105.938C53.0703 108.523 51.5547 110.141 49.3125 110.141ZM49.3125 108.945C50.75 108.945 51.6875 107.852 51.6875 105.938C51.6875 104.023 50.75 102.93 49.3125 102.93C47.875 102.93 46.9297 104.023 46.9297 105.938C46.9297 107.852 47.875 108.945 49.3125 108.945ZM54.4453 110V101.875H55.7266V103.172H55.7578C56.1406 102.312 56.9688 101.734 58.0625 101.734C59.1719 101.734 59.9922 102.297 60.3438 103.281H60.375C60.8281 102.312 61.7812 101.734 62.9219 101.734C64.5312 101.734 65.5703 102.781 65.5703 104.391V110H64.2109V104.703C64.2109 103.594 63.5938 102.938 62.5234 102.938C61.4453 102.938 60.6875 103.734 60.6875 104.836V110H59.3281V104.555C59.3281 103.578 58.6719 102.938 57.6641 102.938C56.5859 102.938 55.8047 103.781 55.8047 104.906V110H54.4453ZM69.9844 108.984C71.2656 108.984 72.25 108.086 72.25 106.914V106.25L70.0781 106.383C68.9844 106.453 68.3594 106.938 68.3594 107.703C68.3594 108.477 69.0078 108.984 69.9844 108.984ZM69.6797 110.141C68.0625 110.141 66.9766 109.164 66.9766 107.703C66.9766 106.312 68.0469 105.438 69.9219 105.328L72.25 105.195V104.516C72.25 103.523 71.5938 102.93 70.4688 102.93C69.4219 102.93 68.7656 103.422 68.5938 104.219H67.2812C67.375 102.812 68.5781 101.734 70.5 101.734C72.4062 101.734 73.6094 102.766 73.6094 104.383V110H72.3203V108.602H72.2891C71.8047 109.531 70.7734 110.141 69.6797 110.141ZM75.7734 99.9141H77.1328V101.875H78.7109V102.992H77.1328V107.82C77.1328 108.562 77.4453 108.898 78.1406 108.898C78.2969 108.898 78.6094 108.875 78.7031 108.859V110C78.5391 110.039 78.1641 110.062 77.8438 110.062C76.3516 110.062 75.7734 109.453 75.7734 107.891V102.992H74.5625V101.875H75.7734V99.9141ZM83.1875 102.914C81.9141 102.914 81.0234 103.891 80.9375 105.242H85.3516C85.3203 103.883 84.4688 102.914 83.1875 102.914ZM85.3203 107.672H86.6562C86.4219 109.094 85.0469 110.141 83.2734 110.141C80.9453 110.141 79.5312 108.523 79.5312 105.969C79.5312 103.445 80.9688 101.734 83.2109 101.734C85.4062 101.734 86.7578 103.328 86.7578 105.789V106.305H80.9297V106.383C80.9297 107.938 81.8438 108.961 83.3047 108.961C84.3359 108.961 85.0938 108.438 85.3203 107.672ZM92.0859 113.039C91.9219 113.039 91.6484 113.023 91.5 112.992V111.852C91.6484 111.883 91.8594 111.891 92.0312 111.891C92.7891 111.891 93.2109 111.523 93.5234 110.578L93.7109 110.008L90.7109 101.875H92.1641L94.4141 108.641H94.4375L96.6875 101.875H98.1172L94.9219 110.57C94.2266 112.469 93.5547 113.039 92.0859 113.039ZM102.328 110.141C100.078 110.141 98.5625 108.523 98.5625 105.938C98.5625 103.344 100.078 101.734 102.328 101.734C104.57 101.734 106.086 103.344 106.086 105.938C106.086 108.523 104.57 110.141 102.328 110.141ZM102.328 108.945C103.766 108.945 104.703 107.852 104.703 105.938C104.703 104.023 103.766 102.93 102.328 102.93C100.891 102.93 99.9453 104.023 99.9453 105.938C99.9453 107.852 100.891 108.945 102.328 108.945ZM114.133 101.875V110H112.844V108.68H112.812C112.328 109.617 111.484 110.141 110.234 110.141C108.461 110.141 107.422 108.992 107.422 107.148V101.875H108.781V106.906C108.781 108.227 109.398 108.938 110.656 108.938C111.977 108.938 112.773 108.031 112.773 106.648V101.875H114.133ZM115.898 110V101.875H117.18V103.203H117.211C117.477 102.305 118.227 101.734 119.18 101.734C119.414 101.734 119.617 101.773 119.727 101.789V103.109C119.617 103.07 119.328 103.031 119 103.031C117.945 103.031 117.258 103.789 117.258 104.938V110H115.898ZM123.977 104.117C123.977 102.727 125.219 101.734 127.008 101.734C128.688 101.734 129.922 102.734 129.984 104.109H128.688C128.594 103.328 127.961 102.844 126.961 102.844C125.969 102.844 125.312 103.336 125.312 104.047C125.312 104.609 125.742 104.984 126.664 105.219L127.922 105.523C129.562 105.938 130.156 106.531 130.156 107.727C130.156 109.141 128.82 110.141 126.922 110.141C125.141 110.141 123.898 109.172 123.758 107.734H125.117C125.266 108.578 125.906 109.031 127.008 109.031C128.109 109.031 128.789 108.562 128.789 107.828C128.789 107.25 128.453 106.938 127.539 106.695L126.109 106.328C124.68 105.961 123.977 105.227 123.977 104.117ZM134.25 108.984C135.531 108.984 136.516 108.086 136.516 106.914V106.25L134.344 106.383C133.25 106.453 132.625 106.938 132.625 107.703C132.625 108.477 133.273 108.984 134.25 108.984ZM133.945 110.141C132.328 110.141 131.242 109.164 131.242 107.703C131.242 106.312 132.312 105.438 134.188 105.328L136.516 105.195V104.516C136.516 103.523 135.859 102.93 134.734 102.93C133.688 102.93 133.031 103.422 132.859 104.219H131.547C131.641 102.812 132.844 101.734 134.766 101.734C136.672 101.734 137.875 102.766 137.875 104.383V110H136.586V108.602H136.555C136.07 109.531 135.039 110.141 133.945 110.141ZM146.266 101.875L143.281 110H141.891L138.898 101.875H140.328L142.57 108.555H142.602L144.852 101.875H146.266ZM147.406 110V101.875H148.766V110H147.406ZM148.086 100.508C147.625 100.508 147.242 100.125 147.242 99.6641C147.242 99.1953 147.625 98.8203 148.086 98.8203C148.555 98.8203 148.938 99.1953 148.938 99.6641C148.938 100.125 148.555 100.508 148.086 100.508ZM150.602 110V101.875H151.883V103.172H151.914C152.367 102.297 153.234 101.734 154.492 101.734C156.273 101.734 157.305 102.883 157.305 104.727V110H155.945V104.969C155.945 103.656 155.328 102.938 154.078 102.938C152.797 102.938 151.961 103.844 151.961 105.219V110H150.602ZM162.344 108.867C163.758 108.867 164.703 107.695 164.703 105.906C164.703 104.117 163.758 102.93 162.344 102.93C160.945 102.93 160.031 104.086 160.031 105.906C160.031 107.727 160.945 108.867 162.344 108.867ZM162.391 113.062C160.602 113.062 159.188 112.055 158.961 110.672H160.359C160.625 111.414 161.43 111.906 162.445 111.906C163.852 111.906 164.703 111.094 164.703 109.883V108.602H164.672C164.172 109.484 163.211 110.062 162.07 110.062C160 110.062 158.641 108.43 158.641 105.906C158.641 103.359 160 101.734 162.102 101.734C163.25 101.734 164.203 102.297 164.742 103.242H164.766V101.875H166.062V109.836C166.062 111.773 164.633 113.062 162.391 113.062ZM167.695 104.117C167.695 102.727 168.938 101.734 170.727 101.734C172.406 101.734 173.641 102.734 173.703 104.109H172.406C172.312 103.328 171.68 102.844 170.68 102.844C169.688 102.844 169.031 103.336 169.031 104.047C169.031 104.609 169.461 104.984 170.383 105.219L171.641 105.523C173.281 105.938 173.875 106.531 173.875 107.727C173.875 109.141 172.539 110.141 170.641 110.141C168.859 110.141 167.617 109.172 167.477 107.734H168.836C168.984 108.578 169.625 109.031 170.727 109.031C171.828 109.031 172.508 108.562 172.508 107.828C172.508 107.25 172.172 106.938 171.258 106.695L169.828 106.328C168.398 105.961 167.695 105.227 167.695 104.117ZM176.219 112.242H175.086L175.844 108.266H177.289L176.219 112.242ZM184.531 108.984C185.812 108.984 186.797 108.086 186.797 106.914V106.25L184.625 106.383C183.531 106.453 182.906 106.938 182.906 107.703C182.906 108.477 183.555 108.984 184.531 108.984ZM184.227 110.141C182.609 110.141 181.523 109.164 181.523 107.703C181.523 106.312 182.594 105.438 184.469 105.328L186.797 105.195V104.516C186.797 103.523 186.141 102.93 185.016 102.93C183.969 102.93 183.312 103.422 183.141 104.219H181.828C181.922 102.812 183.125 101.734 185.047 101.734C186.953 101.734 188.156 102.766 188.156 104.383V110H186.867V108.602H186.836C186.352 109.531 185.32 110.141 184.227 110.141ZM189.883 110V101.875H191.164V103.172H191.195C191.648 102.297 192.516 101.734 193.773 101.734C195.555 101.734 196.586 102.883 196.586 104.727V110H195.227V104.969C195.227 103.656 194.609 102.938 193.359 102.938C192.078 102.938 191.242 103.844 191.242 105.219V110H189.883ZM201.398 110.141C199.328 110.141 197.922 108.484 197.922 105.938C197.922 103.391 199.32 101.734 201.367 101.734C202.531 101.734 203.469 102.305 203.953 103.195H203.984V98.7266H205.344V110H204.047V108.625H204.023C203.5 109.562 202.57 110.141 201.398 110.141ZM201.656 102.93C200.219 102.93 199.312 104.102 199.312 105.938C199.312 107.781 200.219 108.945 201.656 108.945C203.055 108.945 203.992 107.758 203.992 105.938C203.992 104.125 203.055 102.93 201.656 102.93ZM220.797 101.875L218.531 110H217.148L215.312 103.711H215.281L213.453 110H212.07L209.797 101.875H211.148L212.773 108.484H212.805L214.641 101.875H215.953L217.797 108.484H217.828L219.453 101.875H220.797ZM224.438 108.984C225.719 108.984 226.703 108.086 226.703 106.914V106.25L224.531 106.383C223.438 106.453 222.812 106.938 222.812 107.703C222.812 108.477 223.461 108.984 224.438 108.984ZM224.133 110.141C222.516 110.141 221.43 109.164 221.43 107.703C221.43 106.312 222.5 105.438 224.375 105.328L226.703 105.195V104.516C226.703 103.523 226.047 102.93 224.922 102.93C223.875 102.93 223.219 103.422 223.047 104.219H221.734C221.828 102.812 223.031 101.734 224.953 101.734C226.859 101.734 228.062 102.766 228.062 104.383V110H226.773V108.602H226.742C226.258 109.531 225.227 110.141 224.133 110.141ZM230.227 99.9141H231.586V101.875H233.164V102.992H231.586V107.82C231.586 108.562 231.898 108.898 232.594 108.898C232.75 108.898 233.062 108.875 233.156 108.859V110C232.992 110.039 232.617 110.062 232.297 110.062C230.805 110.062 230.227 109.453 230.227 107.891V102.992H229.016V101.875H230.227V99.9141ZM241.133 104.539H239.805C239.609 103.656 238.922 102.93 237.727 102.93C236.32 102.93 235.367 104.094 235.367 105.938C235.367 107.828 236.336 108.945 237.742 108.945C238.852 108.945 239.578 108.359 239.812 107.383H241.148C240.938 109 239.578 110.141 237.734 110.141C235.484 110.141 233.984 108.555 233.984 105.938C233.984 103.375 235.477 101.734 237.719 101.734C239.75 101.734 240.961 103.078 241.133 104.539ZM242.469 110V98.7266H243.828V103.172H243.859C244.312 102.266 245.203 101.734 246.438 101.734C248.219 101.734 249.297 102.938 249.297 104.75V110H247.938V105C247.938 103.711 247.289 102.938 246.016 102.938C244.664 102.938 243.828 103.859 243.828 105.266V110H242.469ZM254.977 113.039C254.812 113.039 254.539 113.023 254.391 112.992V111.852C254.539 111.883 254.75 111.891 254.922 111.891C255.68 111.891 256.102 111.523 256.414 110.578L256.602 110.008L253.602 101.875H255.055L257.305 108.641H257.328L259.578 101.875H261.008L257.812 110.57C257.117 112.469 256.445 113.039 254.977 113.039ZM265.219 110.141C262.969 110.141 261.453 108.523 261.453 105.938C261.453 103.344 262.969 101.734 265.219 101.734C267.461 101.734 268.977 103.344 268.977 105.938C268.977 108.523 267.461 110.141 265.219 110.141ZM265.219 108.945C266.656 108.945 267.594 107.852 267.594 105.938C267.594 104.023 266.656 102.93 265.219 102.93C263.781 102.93 262.836 104.023 262.836 105.938C262.836 107.852 263.781 108.945 265.219 108.945ZM277.023 101.875V110H275.734V108.68H275.703C275.219 109.617 274.375 110.141 273.125 110.141C271.352 110.141 270.312 108.992 270.312 107.148V101.875H271.672V106.906C271.672 108.227 272.289 108.938 273.547 108.938C274.867 108.938 275.664 108.031 275.664 106.648V101.875H277.023ZM278.789 110V101.875H280.07V103.203H280.102C280.367 102.305 281.117 101.734 282.07 101.734C282.305 101.734 282.508 101.773 282.617 101.789V103.109C282.508 103.07 282.219 103.031 281.891 103.031C280.836 103.031 280.148 103.789 280.148 104.938V110H278.789ZM24.8828 134V125.875H26.1641V127.172H26.1953C26.5781 126.312 27.4062 125.734 28.5 125.734C29.6094 125.734 30.4297 126.297 30.7812 127.281H30.8125C31.2656 126.312 32.2188 125.734 33.3594 125.734C34.9688 125.734 36.0078 126.781 36.0078 128.391V134H34.6484V128.703C34.6484 127.594 34.0312 126.938 32.9609 126.938C31.8828 126.938 31.125 127.734 31.125 128.836V134H29.7656V128.555C29.7656 127.578 29.1094 126.938 28.1016 126.938C27.0234 126.938 26.2422 127.781 26.2422 128.906V134H24.8828ZM41.1094 134.141C38.8594 134.141 37.3438 132.523 37.3438 129.938C37.3438 127.344 38.8594 125.734 41.1094 125.734C43.3516 125.734 44.8672 127.344 44.8672 129.938C44.8672 132.523 43.3516 134.141 41.1094 134.141ZM41.1094 132.945C42.5469 132.945 43.4844 131.852 43.4844 129.938C43.4844 128.023 42.5469 126.93 41.1094 126.93C39.6719 126.93 38.7266 128.023 38.7266 129.938C38.7266 131.852 39.6719 132.945 41.1094 132.945ZM46.2422 134V125.875H47.5234V127.172H47.5547C48.0078 126.297 48.875 125.734 50.1328 125.734C51.9141 125.734 52.9453 126.883 52.9453 128.727V134H51.5859V128.969C51.5859 127.656 50.9688 126.938 49.7188 126.938C48.4375 126.938 47.6016 127.844 47.6016 129.219V134H46.2422ZM57.9375 126.914C56.6641 126.914 55.7734 127.891 55.6875 129.242H60.1016C60.0703 127.883 59.2188 126.914 57.9375 126.914ZM60.0703 131.672H61.4062C61.1719 133.094 59.7969 134.141 58.0234 134.141C55.6953 134.141 54.2812 132.523 54.2812 129.969C54.2812 127.445 55.7188 125.734 57.9609 125.734C60.1562 125.734 61.5078 127.328 61.5078 129.789V130.305H55.6797V130.383C55.6797 131.938 56.5938 132.961 58.0547 132.961C59.0859 132.961 59.8438 132.438 60.0703 131.672ZM63.5547 137.039C63.3906 137.039 63.1172 137.023 62.9688 136.992V135.852C63.1172 135.883 63.3281 135.891 63.5 135.891C64.2578 135.891 64.6797 135.523 64.9922 134.578L65.1797 134.008L62.1797 125.875H63.6328L65.8828 132.641H65.9062L68.1562 125.875H69.5859L66.3906 134.57C65.6953 136.469 65.0234 137.039 63.5547 137.039ZM77.25 132.867C78.6641 132.867 79.6094 131.695 79.6094 129.906C79.6094 128.117 78.6641 126.93 77.25 126.93C75.8516 126.93 74.9375 128.086 74.9375 129.906C74.9375 131.727 75.8516 132.867 77.25 132.867ZM77.2969 137.062C75.5078 137.062 74.0938 136.055 73.8672 134.672H75.2656C75.5312 135.414 76.3359 135.906 77.3516 135.906C78.7578 135.906 79.6094 135.094 79.6094 133.883V132.602H79.5781C79.0781 133.484 78.1172 134.062 76.9766 134.062C74.9062 134.062 73.5469 132.43 73.5469 129.906C73.5469 127.359 74.9062 125.734 77.0078 125.734C78.1562 125.734 79.1094 126.297 79.6484 127.242H79.6719V125.875H80.9688V133.836C80.9688 135.773 79.5391 137.062 77.2969 137.062ZM82.7422 134V125.875H84.0234V127.203H84.0547C84.3203 126.305 85.0703 125.734 86.0234 125.734C86.2578 125.734 86.4609 125.773 86.5703 125.789V127.109C86.4609 127.07 86.1719 127.031 85.8438 127.031C84.7891 127.031 84.1016 127.789 84.1016 128.938V134H82.7422ZM90.6562 134.141C88.4062 134.141 86.8906 132.523 86.8906 129.938C86.8906 127.344 88.4062 125.734 90.6562 125.734C92.8984 125.734 94.4141 127.344 94.4141 129.938C94.4141 132.523 92.8984 134.141 90.6562 134.141ZM90.6562 132.945C92.0938 132.945 93.0312 131.852 93.0312 129.938C93.0312 128.023 92.0938 126.93 90.6562 126.93C89.2188 126.93 88.2734 128.023 88.2734 129.938C88.2734 131.852 89.2188 132.945 90.6562 132.945ZM106.125 125.875L103.859 134H102.477L100.641 127.711H100.609L98.7812 134H97.3984L95.125 125.875H96.4766L98.1016 132.484H98.1328L99.9688 125.875H101.281L103.125 132.484H103.156L104.781 125.875H106.125ZM120.859 125.875L118.594 134H117.211L115.375 127.711H115.344L113.516 134H112.133L109.859 125.875H111.211L112.836 132.484H112.867L114.703 125.875H116.016L117.859 132.484H117.891L119.516 125.875H120.859ZM122.047 134V125.875H123.406V134H122.047ZM122.727 124.508C122.266 124.508 121.883 124.125 121.883 123.664C121.883 123.195 122.266 122.82 122.727 122.82C123.195 122.82 123.578 123.195 123.578 123.664C123.578 124.125 123.195 124.508 122.727 124.508ZM125.68 123.914H127.039V125.875H128.617V126.992H127.039V131.82C127.039 132.562 127.352 132.898 128.047 132.898C128.203 132.898 128.516 132.875 128.609 132.859V134C128.445 134.039 128.07 134.062 127.75 134.062C126.258 134.062 125.68 133.453 125.68 131.891V126.992H124.469V125.875H125.68V123.914ZM130.141 134V122.727H131.5V127.172H131.531C131.984 126.266 132.875 125.734 134.109 125.734C135.891 125.734 136.969 126.938 136.969 128.75V134H135.609V129C135.609 127.711 134.961 126.938 133.688 126.938C132.336 126.938 131.5 127.859 131.5 129.266V134H130.141ZM142.062 134.141C139.812 134.141 138.297 132.523 138.297 129.938C138.297 127.344 139.812 125.734 142.062 125.734C144.305 125.734 145.82 127.344 145.82 129.938C145.82 132.523 144.305 134.141 142.062 134.141ZM142.062 132.945C143.5 132.945 144.438 131.852 144.438 129.938C144.438 128.023 143.5 126.93 142.062 126.93C140.625 126.93 139.68 128.023 139.68 129.938C139.68 131.852 140.625 132.945 142.062 132.945ZM153.867 125.875V134H152.578V132.68H152.547C152.062 133.617 151.219 134.141 149.969 134.141C148.195 134.141 147.156 132.992 147.156 131.148V125.875H148.516V130.906C148.516 132.227 149.133 132.938 150.391 132.938C151.711 132.938 152.508 132.031 152.508 130.648V125.875H153.867ZM156.07 123.914H157.43V125.875H159.008V126.992H157.43V131.82C157.43 132.562 157.742 132.898 158.438 132.898C158.594 132.898 158.906 132.875 159 132.859V134C158.836 134.039 158.461 134.062 158.141 134.062C156.648 134.062 156.07 133.453 156.07 131.891V126.992H154.859V125.875H156.07V123.914ZM164.18 123.914H165.539V125.875H167.117V126.992H165.539V131.82C165.539 132.562 165.852 132.898 166.547 132.898C166.703 132.898 167.016 132.875 167.109 132.859V134C166.945 134.039 166.57 134.062 166.25 134.062C164.758 134.062 164.18 133.453 164.18 131.891V126.992H162.969V125.875H164.18V123.914ZM168.641 134V122.727H170V127.172H170.031C170.484 126.266 171.375 125.734 172.609 125.734C174.391 125.734 175.469 126.938 175.469 128.75V134H174.109V129C174.109 127.711 173.461 126.938 172.188 126.938C170.836 126.938 170 127.859 170 129.266V134H168.641ZM180.453 126.914C179.18 126.914 178.289 127.891 178.203 129.242H182.617C182.586 127.883 181.734 126.914 180.453 126.914ZM182.586 131.672H183.922C183.688 133.094 182.312 134.141 180.539 134.141C178.211 134.141 176.797 132.523 176.797 129.969C176.797 127.445 178.234 125.734 180.477 125.734C182.672 125.734 184.023 127.328 184.023 129.789V130.305H178.195V130.383C178.195 131.938 179.109 132.961 180.57 132.961C181.602 132.961 182.359 132.438 182.586 131.672ZM188.539 128.117C188.539 126.727 189.781 125.734 191.57 125.734C193.25 125.734 194.484 126.734 194.547 128.109H193.25C193.156 127.328 192.523 126.844 191.523 126.844C190.531 126.844 189.875 127.336 189.875 128.047C189.875 128.609 190.305 128.984 191.227 129.219L192.484 129.523C194.125 129.938 194.719 130.531 194.719 131.727C194.719 133.141 193.383 134.141 191.484 134.141C189.703 134.141 188.461 133.172 188.32 131.734H189.68C189.828 132.578 190.469 133.031 191.57 133.031C192.672 133.031 193.352 132.562 193.352 131.828C193.352 131.25 193.016 130.938 192.102 130.695L190.672 130.328C189.242 129.961 188.539 129.227 188.539 128.117ZM196.57 123.914H197.93V125.875H199.508V126.992H197.93V131.82C197.93 132.562 198.242 132.898 198.938 132.898C199.094 132.898 199.406 132.875 199.5 132.859V134C199.336 134.039 198.961 134.062 198.641 134.062C197.148 134.062 196.57 133.453 196.57 131.891V126.992H195.359V125.875H196.57V123.914ZM200.961 134V125.875H202.242V127.203H202.273C202.539 126.305 203.289 125.734 204.242 125.734C204.477 125.734 204.68 125.773 204.789 125.789V127.109C204.68 127.07 204.391 127.031 204.062 127.031C203.008 127.031 202.32 127.789 202.32 128.938V134H200.961ZM208.766 126.914C207.492 126.914 206.602 127.891 206.516 129.242H210.93C210.898 127.883 210.047 126.914 208.766 126.914ZM210.898 131.672H212.234C212 133.094 210.625 134.141 208.852 134.141C206.523 134.141 205.109 132.523 205.109 129.969C205.109 127.445 206.547 125.734 208.789 125.734C210.984 125.734 212.336 127.328 212.336 129.789V130.305H206.508V130.383C206.508 131.938 207.422 132.961 208.883 132.961C209.914 132.961 210.672 132.438 210.898 131.672ZM213.57 128.117C213.57 126.727 214.812 125.734 216.602 125.734C218.281 125.734 219.516 126.734 219.578 128.109H218.281C218.188 127.328 217.555 126.844 216.555 126.844C215.562 126.844 214.906 127.336 214.906 128.047C214.906 128.609 215.336 128.984 216.258 129.219L217.516 129.523C219.156 129.938 219.75 130.531 219.75 131.727C219.75 133.141 218.414 134.141 216.516 134.141C214.734 134.141 213.492 133.172 213.352 131.734H214.711C214.859 132.578 215.5 133.031 216.602 133.031C217.703 133.031 218.383 132.562 218.383 131.828C218.383 131.25 218.047 130.938 217.133 130.695L215.703 130.328C214.273 129.961 213.57 129.227 213.57 128.117ZM221.023 128.117C221.023 126.727 222.266 125.734 224.055 125.734C225.734 125.734 226.969 126.734 227.031 128.109H225.734C225.641 127.328 225.008 126.844 224.008 126.844C223.016 126.844 222.359 127.336 222.359 128.047C222.359 128.609 222.789 128.984 223.711 129.219L224.969 129.523C226.609 129.938 227.203 130.531 227.203 131.727C227.203 133.141 225.867 134.141 223.969 134.141C222.188 134.141 220.945 133.172 220.805 131.734H222.164C222.312 132.578 222.953 133.031 224.055 133.031C225.156 133.031 225.836 132.562 225.836 131.828C225.836 131.25 225.5 130.938 224.586 130.695L223.156 130.328C221.727 129.961 221.023 129.227 221.023 128.117ZM229.766 134.078C229.266 134.078 228.875 133.688 228.875 133.188C228.875 132.688 229.266 132.297 229.766 132.297C230.266 132.297 230.656 132.688 230.656 133.188C230.656 133.688 230.266 134.078 229.766 134.078Z" fill="#BDBDBD"/>
<path d="M18.2941 168H-2V188.376M18.2941 168V188.376M18.2941 168H38.5882M18.2941 188.376H-2M18.2941 188.376H38.5882M18.2941 188.376V208.752M-2 188.376V208.752M38.5882 168V188.376M38.5882 168H58.8824M38.5882 188.376H58.8824M38.5882 188.376V208.752M58.8824 168V188.376M58.8824 168H79.1765M58.8824 188.376H79.1765M58.8824 188.376V208.752M79.1765 168V188.376M79.1765 168H99.4706M79.1765 188.376H99.4706M79.1765 188.376V208.752M99.4706 168V188.376M99.4706 168H119.765M99.4706 188.376H119.765M99.4706 188.376V208.752M119.765 168V188.376M119.765 168H140.059M119.765 188.376H140.059M119.765 188.376V208.752M140.059 168V188.376M140.059 168H160.353M140.059 188.376H160.353M140.059 188.376V208.752M160.353 168V188.376M160.353 168H180.647M160.353 188.376H180.647M160.353 188.376V208.752M180.647 168V188.376M180.647 168H200.941M180.647 188.376H200.941M180.647 188.376V208.752M200.941 168V188.376M200.941 168H221.235M200.941 188.376H221.235M200.941 188.376V208.752M221.235 168V188.376M221.235 168H241.529M221.235 188.376H241.529M221.235 188.376V208.752M241.529 168V188.376M241.529 168H261.824M241.529 188.376H261.824M241.529 188.376V208.752M261.824 168V188.376M261.824 168H282.118M261.824 188.376H282.118M261.824 188.376V208.752M282.118 168V188.376M282.118 168H302.412M282.118 188.376H302.412M282.118 188.376V208.752M302.412 168V188.376M302.412 168H322.706M302.412 188.376H322.706M302.412 188.376V208.752M322.706 168V188.376M322.706 168H343V188.376M322.706 188.376H343M322.706 188.376V208.752M343 188.376V208.752M18.2941 208.752H-2M18.2941 208.752H38.5882M18.2941 208.752V229.129M-2 208.752V229.129M38.5882 208.752H58.8824M38.5882 208.752V229.129M58.8824 208.752H79.1765M58.8824 208.752V229.129M79.1765 208.752H99.4706M79.1765 208.752V229.129M99.4706 208.752H119.765M99.4706 208.752V229.129M119.765 208.752H140.059M119.765 208.752V229.129M140.059 208.752H160.353M140.059 208.752V229.129M160.353 208.752H180.647M160.353 208.752V229.129M180.647 208.752H200.941M180.647 208.752V229.129M200.941 208.752H221.235M200.941 208.752V229.129M221.235 208.752H241.529M221.235 208.752V229.129M241.529 208.752H261.824M241.529 208.752V229.129M261.824 208.752H282.118M261.824 208.752V229.129M282.118 208.752H302.412M282.118 208.752V229.129M302.412 208.752H322.706M302.412 208.752V229.129M322.706 208.752H343M322.706 208.752V229.129M343 208.752V229.129M18.2941 229.129H-2M18.2941 229.129H38.5882M18.2941 229.129V249.505M-2 229.129V249.505M38.5882 229.129H58.8824M38.5882 229.129V249.505M58.8824 229.129H79.1765M58.8824 229.129V249.505M79.1765 229.129H99.4706M79.1765 229.129V249.505M99.4706 229.129H119.765M99.4706 229.129V249.505M119.765 229.129H140.059M119.765 229.129V249.505M140.059 229.129H160.353M140.059 229.129V249.505M160.353 229.129H180.647M160.353 229.129V249.505M180.647 229.129H200.941M180.647 229.129V249.505M200.941 229.129H221.235M200.941 229.129V249.505M221.235 229.129H241.529M221.235 229.129V249.505M241.529 229.129H261.824M241.529 229.129V249.505M261.824 229.129H282.118M261.824 229.129V249.505M282.118 229.129H302.412M282.118 229.129V249.505M302.412 229.129H322.706M302.412 229.129V249.505M322.706 229.129H343M322.706 229.129V249.505M343 229.129V249.505M18.2941 249.505H-2M18.2941 249.505H38.5882M18.2941 249.505V269.881M-2 249.505V269.881M38.5882 249.505H58.8824M38.5882 249.505V269.881M58.8824 249.505H79.1765M58.8824 249.505V269.881M79.1765 249.505H99.4706M79.1765 249.505V269.881M99.4706 249.505H119.765M99.4706 249.505V269.881M119.765 249.505H140.059M119.765 249.505V269.881M140.059 249.505H160.353M140.059 249.505V269.881M160.353 249.505H180.647M160.353 249.505V269.881M180.647 249.505H200.941M180.647 249.505V269.881M200.941 249.505H221.235M200.941 249.505V269.881M221.235 249.505H241.529M221.235 249.505V269.881M241.529 249.505H261.824M241.529 249.505V269.881M261.824 249.505H282.118M261.824 249.505V269.881M282.118 249.505H302.412M282.118 249.505V269.881M302.412 249.505H322.706M302.412 249.505V269.881M322.706 249.505H343M322.706 249.505V269.881M343 249.505V269.881M18.2941 269.881H-2M18.2941 269.881H38.5882M18.2941 269.881V290.257M-2 269.881V290.257M38.5882 269.881H58.8824M38.5882 269.881V290.257M58.8824 269.881H79.1765M58.8824 269.881V290.257M79.1765 269.881H99.4706M79.1765 269.881V290.257M99.4706 269.881H119.765M99.4706 269.881V290.257M119.765 269.881H140.059M119.765 269.881V290.257M140.059 269.881H160.353M140.059 269.881V290.257M160.353 269.881H180.647M160.353 269.881V290.257M180.647 269.881H200.941M180.647 269.881V290.257M200.941 269.881H221.235M200.941 269.881V290.257M221.235 269.881H241.529M221.235 269.881V290.257M241.529 269.881H261.824M241.529 269.881V290.257M261.824 269.881H282.118M261.824 269.881V290.257M282.118 269.881H302.412M282.118 269.881V290.257M302.412 269.881H322.706M302.412 269.881V290.257M322.706 269.881H343M322.706 269.881V290.257M343 269.881V290.257M18.2941 290.257H-2M18.2941 290.257H38.5882M18.2941 290.257V310.633M-2 290.257V310.633M38.5882 290.257H58.8824M38.5882 290.257V310.633M58.8824 290.257H79.1765M58.8824 290.257V310.633M79.1765 290.257H99.4706M79.1765 290.257V310.633M99.4706 290.257H119.765M99.4706 290.257V310.633M119.765 290.257H140.059M119.765 290.257V310.633M140.059 290.257H160.353M140.059 290.257V310.633M160.353 290.257H180.647M160.353 290.257V310.633M180.647 290.257H200.941M180.647 290.257V310.633M200.941 290.257H221.235M200.941 290.257V310.633M221.235 290.257H241.529M221.235 290.257V310.633M241.529 290.257H261.824M241.529 290.257V310.633M261.824 290.257H282.118M261.824 290.257V310.633M282.118 290.257H302.412M282.118 290.257V310.633M302.412 290.257H322.706M302.412 290.257V310.633M322.706 290.257H343M322.706 290.257V310.633M343 290.257V310.633M18.2941 310.633H-2M18.2941 310.633H38.5882M18.2941 310.633V331.01M-2 310.633V331.01M38.5882 310.633H58.8824M38.5882 310.633V331.01M58.8824 310.633H79.1765M58.8824 310.633V331.01M79.1765 310.633H99.4706M79.1765 310.633V331.01M99.4706 310.633H119.765M99.4706 310.633V331.01M119.765 310.633H140.059M119.765 310.633V331.01M140.059 310.633H160.353M140.059 310.633V331.01M160.353 310.633H180.647M160.353 310.633V331.01M180.647 310.633H200.941M180.647 310.633V331.01M200.941 310.633H221.235M200.941 310.633V331.01M221.235 310.633H241.529M221.235 310.633V331.01M241.529 310.633H261.824M241.529 310.633V331.01M261.824 310.633H282.118M261.824 310.633V331.01M282.118 310.633H302.412M282.118 310.633V331.01M302.412 310.633H322.706M302.412 310.633V331.01M322.706 310.633H343M322.706 310.633V331.01M343 310.633V331.01M18.2941 331.01H-2M18.2941 331.01H38.5882M18.2941 331.01V351.386M-2 331.01V351.386M38.5882 331.01H58.8824M38.5882 331.01V351.386M58.8824 331.01H79.1765M58.8824 331.01V351.386M79.1765 331.01H99.4706M79.1765 331.01V351.386M99.4706 331.01H119.765M99.4706 331.01V351.386M119.765 331.01H140.059M119.765 331.01V351.386M140.059 331.01H160.353M140.059 331.01V351.386M160.353 331.01H180.647M160.353 331.01V351.386M180.647 331.01H200.941M180.647 331.01V351.386M200.941 331.01H221.235M200.941 331.01V351.386M221.235 331.01H241.529M221.235 331.01V351.386M241.529 331.01H261.824M241.529 331.01V351.386M261.824 331.01H282.118M261.824 331.01V351.386M282.118 331.01H302.412M282.118 331.01V351.386M302.412 331.01H322.706M302.412 331.01V351.386M322.706 331.01H343M322.706 331.01V351.386M343 331.01V351.386M18.2941 351.386H-2M18.2941 351.386H38.5882M18.2941 351.386V371.762M-2 351.386V371.762M38.5882 351.386H58.8824M38.5882 351.386V371.762M58.8824 351.386H79.1765M58.8824 351.386V371.762M79.1765 351.386H99.4706M79.1765 351.386V371.762M99.4706 351.386H119.765M99.4706 351.386V371.762M119.765 351.386H140.059M119.765 351.386V371.762M140.059 351.386H160.353M140.059 351.386V371.762M160.353 351.386H180.647M160.353 351.386V371.762M180.647 351.386H200.941M180.647 351.386V371.762M200.941 351.386H221.235M200.941 351.386V371.762M221.235 351.386H241.529M221.235 351.386V371.762M241.529 351.386H261.824M241.529 351.386V371.762M261.824 351.386H282.118M261.824 351.386V371.762M282.118 351.386H302.412M282.118 351.386V371.762M302.412 351.386H322.706M302.412 351.386V371.762M322.706 351.386H343M322.706 351.386V371.762M343 351.386V371.762M18.2941 371.762H-2M18.2941 371.762H38.5882M18.2941 371.762V392.138M-2 371.762V392.138M38.5882 371.762H58.8824M38.5882 371.762V392.138M58.8824 371.762H79.1765M58.8824 371.762V392.138M79.1765 371.762H99.4706M79.1765 371.762V392.138M99.4706 371.762H119.765M99.4706 371.762V392.138M119.765 371.762H140.059M119.765 371.762V392.138M140.059 371.762H160.353M140.059 371.762V392.138M160.353 371.762H180.647M160.353 371.762V392.138M180.647 371.762H200.941M180.647 371.762V392.138M200.941 371.762H221.235M200.941 371.762V392.138M221.235 371.762H241.529M221.235 371.762V392.138M241.529 371.762H261.824M241.529 371.762V392.138M261.824 371.762H282.118M261.824 371.762V392.138M282.118 371.762H302.412M282.118 371.762V392.138M302.412 371.762H322.706M302.412 371.762V392.138M322.706 371.762H343M322.706 371.762V392.138M343 371.762V392.138M18.2941 392.138H-2M18.2941 392.138H38.5882M18.2941 392.138V412.515M-2 392.138V412.515H18.2941M38.5882 392.138H58.8824M38.5882 392.138V412.515M58.8824 392.138H79.1765M58.8824 392.138V412.515M79.1765 392.138H99.4706M79.1765 392.138V412.515M99.4706 392.138H119.765M99.4706 392.138V412.515M119.765 392.138H140.059M119.765 392.138V412.515M140.059 392.138H160.353M140.059 392.138V412.515M160.353 392.138H180.647M160.353 392.138V412.515M180.647 392.138H200.941M180.647 392.138V412.515M200.941 392.138H221.235M200.941 392.138V412.515M221.235 392.138H241.529M221.235 392.138V412.515M241.529 392.138H261.824M241.529 392.138V412.515M261.824 392.138H282.118M261.824 392.138V412.515M282.118 392.138H302.412M282.118 392.138V412.515M302.412 392.138H322.706M302.412 392.138V412.515M322.706 392.138H343M322.706 392.138V412.515M343 392.138V412.515H322.706M18.2941 412.515H38.5882M38.5882 412.515H58.8824M58.8824 412.515H79.1765M79.1765 412.515H99.4706M99.4706 412.515H119.765M119.765 412.515H140.059M140.059 412.515H160.353M160.353 412.515H180.647M180.647 412.515H200.941M200.941 412.515H221.235M221.235 412.515H241.529M241.529 412.515H261.824M261.824 412.515H282.118M282.118 412.515H302.412M302.412 412.515H322.706" stroke="url(#paint0_radial_2_1127)" stroke-opacity="0.08"/>
<path d="M162.25 290.15C162.25 292.85 163 293.25 164.7 293.85L167.25 294.75V286.25H165.75C163.85 286.25 162.25 288 162.25 290.15Z" fill="#202020"/>
<path d="M174.75 313.75H176.25C178.2 313.75 179.75 312 179.75 309.85C179.75 307.15 179 306.75 177.3 306.15L174.75 305.25V313.75Z" fill="#202020"/>
<path d="M208.9 267.4L198.65 277.65C197.9 278.4 196.95 278.75 196 278.75C195.05 278.75 194.1 278.4 193.35 277.65C191.9 276.2 191.9 273.8 193.35 272.35L203.6 262.1C194.8 254.6 183.45 250 171 250C143.4 250 121 272.4 121 300C121 327.6 143.4 350 171 350C198.6 350 221 327.6 221 300C221 287.55 216.4 276.2 208.9 267.4ZM179.75 299.1C182.95 300.25 187.25 302.55 187.25 309.9C187.25 316.15 182.3 321.3 176.25 321.3H174.75V322.55C174.75 324.6 173.05 326.3 171 326.3C168.95 326.3 167.25 324.6 167.25 322.55V321.3H166.85C160.2 321.3 154.75 315.7 154.75 308.8C154.75 306.7 156.45 305 158.5 305C160.55 305 162.25 306.7 162.25 308.75C162.25 311.5 164.3 313.75 166.85 313.75H167.25V302.65L162.25 300.9C159.05 299.75 154.75 297.45 154.75 290.1C154.75 283.85 159.7 278.7 165.75 278.7H167.25V277.5C167.25 275.45 168.95 273.75 171 273.75C173.05 273.75 174.75 275.45 174.75 277.5V278.75H175.15C181.8 278.75 187.25 284.35 187.25 291.25C187.25 293.3 185.55 295 183.5 295C181.45 295 179.75 293.3 179.75 291.25C179.75 288.5 177.7 286.25 175.15 286.25H174.75V297.35L179.75 299.1Z" fill="#202020"/>
<path d="M224.45 248.55C224.05 247.65 223.35 246.9 222.4 246.5C221.95 246.35 221.5 246.25 221 246.25H201C198.95 246.25 197.25 247.95 197.25 250C197.25 252.05 198.95 253.75 201 253.75H211.95L203.6 262.1C205.5 263.75 207.25 265.5 208.9 267.4L217.25 259.05V270C217.25 272.05 218.95 273.75 221 273.75C223.05 273.75 224.75 272.05 224.75 270V250C224.75 249.5 224.65 249.05 224.45 248.55Z" fill="#202020"/>
</g>
<rect x="0.5" y="0.5" width="341" height="439" rx="11.5" stroke="white" stroke-opacity="0.04"/>
<rect x="0.5" y="0.5" width="341" height="439" rx="11.5" stroke="url(#paint1_linear_2_1127)" stroke-opacity="0.12"/>
<defs>
<radialGradient id="paint0_radial_2_1127" cx="0" cy="0" r="1" gradientUnits="userSpaceOnUse" gradientTransform="translate(170.5 296.788) rotate(90) scale(115.465 172.76)">
<stop stop-color="white"/>
<stop offset="1" stop-color="white" stop-opacity="0"/>
</radialGradient>
<linearGradient id="paint1_linear_2_1127" x1="171" y1="0" x2="171" y2="325.769" gradientUnits="userSpaceOnUse">
<stop stop-color="white"/>
<stop offset="1" stop-color="white" stop-opacity="0"/>
</linearGradient>
<clipPath id="clip0_2_1127">
<rect width="342" height="440" rx="12" fill="white"/>
</clipPath>
</defs>
</svg>
