<svg width="620" height="670" viewBox="0 0 620 670" fill="none" xmlns="http://www.w3.org/2000/svg">
<g clip-path="url(#clip0_2_583)">
<rect width="620" height="670" rx="12" fill="#131313"/>
<path d="M55.2941 199H20V231.738M55.2941 199V231.738M55.2941 199H90.5882M55.2941 231.738H20M55.2941 231.738H90.5882M55.2941 231.738V264.476M20 231.738V264.476M90.5882 199V231.738M90.5882 199H125.882M90.5882 231.738H125.882M90.5882 231.738V264.476M125.882 199V231.738M125.882 199H161.176M125.882 231.738H161.176M125.882 231.738V264.476M161.176 199V231.738M161.176 199H196.471M161.176 231.738H196.471M161.176 231.738V264.476M196.471 199V231.738M196.471 199H231.765M196.471 231.738H231.765M196.471 231.738V264.476M231.765 199V231.738M231.765 199H267.059M231.765 231.738H267.059M231.765 231.738V264.476M267.059 199V231.738M267.059 199H302.353M267.059 231.738H302.353M267.059 231.738V264.476M302.353 199V231.738M302.353 199H337.647M302.353 231.738H337.647M302.353 231.738V264.476M337.647 199V231.738M337.647 199H372.941M337.647 231.738H372.941M337.647 231.738V264.476M372.941 199V231.738M372.941 199H408.235M372.941 231.738H408.235M372.941 231.738V264.476M408.235 199V231.738M408.235 199H443.529M408.235 231.738H443.529M408.235 231.738V264.476M443.529 199V231.738M443.529 199H478.824M443.529 231.738H478.824M443.529 231.738V264.476M478.824 199V231.738M478.824 199H514.118M478.824 231.738H514.118M478.824 231.738V264.476M514.118 199V231.738M514.118 199H549.412M514.118 231.738H549.412M514.118 231.738V264.476M549.412 199V231.738M549.412 199H584.706M549.412 231.738H584.706M549.412 231.738V264.476M584.706 199V231.738M584.706 199H620V231.738M584.706 231.738H620M584.706 231.738V264.476M620 231.738V264.476M55.2941 264.476H20M55.2941 264.476H90.5882M55.2941 264.476V297.214M20 264.476V297.214M90.5882 264.476H125.882M90.5882 264.476V297.214M125.882 264.476H161.176M125.882 264.476V297.214M161.176 264.476H196.471M161.176 264.476V297.214M196.471 264.476H231.765M196.471 264.476V297.214M231.765 264.476H267.059M231.765 264.476V297.214M267.059 264.476H302.353M267.059 264.476V297.214M302.353 264.476H337.647M302.353 264.476V297.214M337.647 264.476H372.941M337.647 264.476V297.214M372.941 264.476H408.235M372.941 264.476V297.214M408.235 264.476H443.529M408.235 264.476V297.214M443.529 264.476H478.824M443.529 264.476V297.214M478.824 264.476H514.118M478.824 264.476V297.214M514.118 264.476H549.412M514.118 264.476V297.214M549.412 264.476H584.706M549.412 264.476V297.214M584.706 264.476H620M584.706 264.476V297.214M620 264.476V297.214M55.2941 297.214H20M55.2941 297.214H90.5882M55.2941 297.214V329.952M20 297.214V329.952M90.5882 297.214H125.882M90.5882 297.214V329.952M125.882 297.214H161.176M125.882 297.214V329.952M161.176 297.214H196.471M161.176 297.214V329.952M196.471 297.214H231.765M196.471 297.214V329.952M231.765 297.214H267.059M231.765 297.214V329.952M267.059 297.214H302.353M267.059 297.214V329.952M302.353 297.214H337.647M302.353 297.214V329.952M337.647 297.214H372.941M337.647 297.214V329.952M372.941 297.214H408.235M372.941 297.214V329.952M408.235 297.214H443.529M408.235 297.214V329.952M443.529 297.214H478.824M443.529 297.214V329.952M478.824 297.214H514.118M478.824 297.214V329.952M514.118 297.214H549.412M514.118 297.214V329.952M549.412 297.214H584.706M549.412 297.214V329.952M584.706 297.214H620M584.706 297.214V329.952M620 297.214V329.952M55.2941 329.952H20M55.2941 329.952H90.5882M55.2941 329.952V362.69M20 329.952V362.69M90.5882 329.952H125.882M90.5882 329.952V362.69M125.882 329.952H161.176M125.882 329.952V362.69M161.176 329.952H196.471M161.176 329.952V362.69M196.471 329.952H231.765M196.471 329.952V362.69M231.765 329.952H267.059M231.765 329.952V362.69M267.059 329.952H302.353M267.059 329.952V362.69M302.353 329.952H337.647M302.353 329.952V362.69M337.647 329.952H372.941M337.647 329.952V362.69M372.941 329.952H408.235M372.941 329.952V362.69M408.235 329.952H443.529M408.235 329.952V362.69M443.529 329.952H478.824M443.529 329.952V362.69M478.824 329.952H514.118M478.824 329.952V362.69M514.118 329.952H549.412M514.118 329.952V362.69M549.412 329.952H584.706M549.412 329.952V362.69M584.706 329.952H620M584.706 329.952V362.69M620 329.952V362.69M55.2941 362.69H20M55.2941 362.69H90.5882M55.2941 362.69V395.429M20 362.69V395.429M90.5882 362.69H125.882M90.5882 362.69V395.429M125.882 362.69H161.176M125.882 362.69V395.429M161.176 362.69H196.471M161.176 362.69V395.429M196.471 362.69H231.765M196.471 362.69V395.429M231.765 362.69H267.059M231.765 362.69V395.429M267.059 362.69H302.353M267.059 362.69V395.429M302.353 362.69H337.647M302.353 362.69V395.429M337.647 362.69H372.941M337.647 362.69V395.429M372.941 362.69H408.235M372.941 362.69V395.429M408.235 362.69H443.529M408.235 362.69V395.429M443.529 362.69H478.824M443.529 362.69V395.429M478.824 362.69H514.118M478.824 362.69V395.429M514.118 362.69H549.412M514.118 362.69V395.429M549.412 362.69H584.706M549.412 362.69V395.429M584.706 362.69H620M584.706 362.69V395.429M620 362.69V395.429M55.2941 395.429H20M55.2941 395.429H90.5882M55.2941 395.429V428.167M20 395.429V428.167M90.5882 395.429H125.882M90.5882 395.429V428.167M125.882 395.429H161.176M125.882 395.429V428.167M161.176 395.429H196.471M161.176 395.429V428.167M196.471 395.429H231.765M196.471 395.429V428.167M231.765 395.429H267.059M231.765 395.429V428.167M267.059 395.429H302.353M267.059 395.429V428.167M302.353 395.429H337.647M302.353 395.429V428.167M337.647 395.429H372.941M337.647 395.429V428.167M372.941 395.429H408.235M372.941 395.429V428.167M408.235 395.429H443.529M408.235 395.429V428.167M443.529 395.429H478.824M443.529 395.429V428.167M478.824 395.429H514.118M478.824 395.429V428.167M514.118 395.429H549.412M514.118 395.429V428.167M549.412 395.429H584.706M549.412 395.429V428.167M584.706 395.429H620M584.706 395.429V428.167M620 395.429V428.167M55.2941 428.167H20M55.2941 428.167H90.5882M55.2941 428.167V460.905M20 428.167V460.905M90.5882 428.167H125.882M90.5882 428.167V460.905M125.882 428.167H161.176M125.882 428.167V460.905M161.176 428.167H196.471M161.176 428.167V460.905M196.471 428.167H231.765M196.471 428.167V460.905M231.765 428.167H267.059M231.765 428.167V460.905M267.059 428.167H302.353M267.059 428.167V460.905M302.353 428.167H337.647M302.353 428.167V460.905M337.647 428.167H372.941M337.647 428.167V460.905M372.941 428.167H408.235M372.941 428.167V460.905M408.235 428.167H443.529M408.235 428.167V460.905M443.529 428.167H478.824M443.529 428.167V460.905M478.824 428.167H514.118M478.824 428.167V460.905M514.118 428.167H549.412M514.118 428.167V460.905M549.412 428.167H584.706M549.412 428.167V460.905M584.706 428.167H620M584.706 428.167V460.905M620 428.167V460.905M55.2941 460.905H20M55.2941 460.905H90.5882M55.2941 460.905V493.643M20 460.905V493.643M90.5882 460.905H125.882M90.5882 460.905V493.643M125.882 460.905H161.176M125.882 460.905V493.643M161.176 460.905H196.471M161.176 460.905V493.643M196.471 460.905H231.765M196.471 460.905V493.643M231.765 460.905H267.059M231.765 460.905V493.643M267.059 460.905H302.353M267.059 460.905V493.643M302.353 460.905H337.647M302.353 460.905V493.643M337.647 460.905H372.941M337.647 460.905V493.643M372.941 460.905H408.235M372.941 460.905V493.643M408.235 460.905H443.529M408.235 460.905V493.643M443.529 460.905H478.824M443.529 460.905V493.643M478.824 460.905H514.118M478.824 460.905V493.643M514.118 460.905H549.412M514.118 460.905V493.643M549.412 460.905H584.706M549.412 460.905V493.643M584.706 460.905H620M584.706 460.905V493.643M620 460.905V493.643M55.2941 493.643H20M55.2941 493.643H90.5882M55.2941 493.643V526.381M20 493.643V526.381M90.5882 493.643H125.882M90.5882 493.643V526.381M125.882 493.643H161.176M125.882 493.643V526.381M161.176 493.643H196.471M161.176 493.643V526.381M196.471 493.643H231.765M196.471 493.643V526.381M231.765 493.643H267.059M231.765 493.643V526.381M267.059 493.643H302.353M267.059 493.643V526.381M302.353 493.643H337.647M302.353 493.643V526.381M337.647 493.643H372.941M337.647 493.643V526.381M372.941 493.643H408.235M372.941 493.643V526.381M408.235 493.643H443.529M408.235 493.643V526.381M443.529 493.643H478.824M443.529 493.643V526.381M478.824 493.643H514.118M478.824 493.643V526.381M514.118 493.643H549.412M514.118 493.643V526.381M549.412 493.643H584.706M549.412 493.643V526.381M584.706 493.643H620M584.706 493.643V526.381M620 493.643V526.381M55.2941 526.381H20M55.2941 526.381H90.5882M55.2941 526.381V559.119M20 526.381V559.119M90.5882 526.381H125.882M90.5882 526.381V559.119M125.882 526.381H161.176M125.882 526.381V559.119M161.176 526.381H196.471M161.176 526.381V559.119M196.471 526.381H231.765M196.471 526.381V559.119M231.765 526.381H267.059M231.765 526.381V559.119M267.059 526.381H302.353M267.059 526.381V559.119M302.353 526.381H337.647M302.353 526.381V559.119M337.647 526.381H372.941M337.647 526.381V559.119M372.941 526.381H408.235M372.941 526.381V559.119M408.235 526.381H443.529M408.235 526.381V559.119M443.529 526.381H478.824M443.529 526.381V559.119M478.824 526.381H514.118M478.824 526.381V559.119M514.118 526.381H549.412M514.118 526.381V559.119M549.412 526.381H584.706M549.412 526.381V559.119M584.706 526.381H620M584.706 526.381V559.119M620 526.381V559.119M55.2941 559.119H20M55.2941 559.119H90.5882M55.2941 559.119V591.857M20 559.119V591.857H55.2941M90.5882 559.119H125.882M90.5882 559.119V591.857M125.882 559.119H161.176M125.882 559.119V591.857M161.176 559.119H196.471M161.176 559.119V591.857M196.471 559.119H231.765M196.471 559.119V591.857M231.765 559.119H267.059M231.765 559.119V591.857M267.059 559.119H302.353M267.059 559.119V591.857M302.353 559.119H337.647M302.353 559.119V591.857M337.647 559.119H372.941M337.647 559.119V591.857M372.941 559.119H408.235M372.941 559.119V591.857M408.235 559.119H443.529M408.235 559.119V591.857M443.529 559.119H478.824M443.529 559.119V591.857M478.824 559.119H514.118M478.824 559.119V591.857M514.118 559.119H549.412M514.118 559.119V591.857M549.412 559.119H584.706M549.412 559.119V591.857M584.706 559.119H620M584.706 559.119V591.857M620 559.119V591.857H584.706M55.2941 591.857H90.5882M90.5882 591.857H125.882M125.882 591.857H161.176M161.176 591.857H196.471M196.471 591.857H231.765M231.765 591.857H267.059M267.059 591.857H302.353M302.353 591.857H337.647M337.647 591.857H372.941M372.941 591.857H408.235M408.235 591.857H443.529M443.529 591.857H478.824M478.824 591.857H514.118M514.118 591.857H549.412M549.412 591.857H584.706" stroke="url(#paint0_radial_2_583)" stroke-opacity="0.08"/>
<path d="M53.0781 70.7188H56.5312C56.7812 72.9531 58.9531 74.4219 61.9219 74.4219C64.7656 74.4219 66.8125 72.9531 66.8125 70.9375C66.8125 69.1875 65.5781 68.1406 62.6562 67.4219L59.7344 66.7188C55.5938 65.7188 53.6719 63.7812 53.6719 60.6406C53.6719 56.75 57.0625 54.0781 61.875 54.0781C66.6406 54.0781 69.9062 56.75 70.0156 60.6406H66.6094C66.4062 58.3906 64.5469 57.0312 61.8281 57.0312C59.1094 57.0312 57.25 58.4062 57.25 60.4062C57.25 62 58.4375 62.9375 61.3438 63.6562L63.8281 64.2656C68.4531 65.3594 70.375 67.2188 70.375 70.5156C70.375 74.7344 67.0156 77.375 61.6719 77.375C56.6719 77.375 53.2969 74.7969 53.0781 70.7188ZM81.6719 60.2969C85.8438 60.2969 88.5938 63.5781 88.5938 68.7812C88.5938 73.9844 85.8594 77.2812 81.7344 77.2812C79.375 77.2812 77.5 76.125 76.5625 74.2969H76.4844V82.4375H73.1094V60.5625H76.375V63.3906H76.4375C77.4062 61.5 79.2969 60.2969 81.6719 60.2969ZM80.7812 74.4219C83.4531 74.4219 85.125 72.2344 85.125 68.7812C85.125 65.3438 83.4531 63.1406 80.7812 63.1406C78.2031 63.1406 76.4688 65.3906 76.4688 68.7812C76.4688 72.2031 78.1875 74.4219 80.7812 74.4219ZM98.0781 62.9844C95.7188 62.9844 94.0625 64.7812 93.8906 67.2656H102.109C102.031 64.75 100.438 62.9844 98.0781 62.9844ZM102.094 72.1719H105.297C104.828 75.1719 101.984 77.3125 98.2188 77.3125C93.3906 77.3125 90.4688 74.0469 90.4688 68.8594C90.4688 63.7031 93.4375 60.2656 98.0781 60.2656C102.641 60.2656 105.484 63.4844 105.484 68.4688V69.625H93.875V69.8281C93.875 72.6875 95.5938 74.5781 98.2969 74.5781C100.219 74.5781 101.641 73.6094 102.094 72.1719ZM108.109 77V60.5625H111.328V63.3125H111.406C112.297 61.4375 114.047 60.2812 116.578 60.2812C120.203 60.2812 122.281 62.5938 122.281 66.3594V77H118.891V67.0156C118.891 64.5469 117.734 63.1875 115.391 63.1875C113.016 63.1875 111.484 64.875 111.484 67.4219V77H108.109ZM131.719 77.2812C127.562 77.2812 124.812 73.9688 124.812 68.7812C124.812 63.5938 127.562 60.2969 131.688 60.2969C134.047 60.2969 135.922 61.4844 136.844 63.2969H136.906V54.4531H140.297V77H137.016V74.2031H136.953C135.984 76.0781 134.109 77.2812 131.719 77.2812ZM132.609 63.1406C129.938 63.1406 128.266 65.3281 128.266 68.7812C128.266 72.25 129.938 74.4219 132.609 74.4219C135.203 74.4219 136.938 72.2188 136.938 68.7812C136.938 65.375 135.203 63.1406 132.609 63.1406ZM159.016 77.2812C156.609 77.2812 154.75 76.1094 153.734 74.2031H153.672V77H150.391V54.4531H153.766V63.3594H153.844C154.828 61.4531 156.703 60.2969 159.031 60.2969C163.172 60.2969 165.875 63.5781 165.875 68.7812C165.875 74 163.188 77.2812 159.016 77.2812ZM158.109 63.1406C155.547 63.1406 153.75 65.3906 153.75 68.7812C153.75 72.2031 155.547 74.4219 158.109 74.4219C160.766 74.4219 162.406 72.2656 162.406 68.7812C162.406 65.3281 160.766 63.1406 158.109 63.1406ZM175.391 62.9844C173.031 62.9844 171.375 64.7812 171.203 67.2656H179.422C179.344 64.75 177.75 62.9844 175.391 62.9844ZM179.406 72.1719H182.609C182.141 75.1719 179.297 77.3125 175.531 77.3125C170.703 77.3125 167.781 74.0469 167.781 68.8594C167.781 63.7031 170.75 60.2656 175.391 60.2656C179.953 60.2656 182.797 63.4844 182.797 68.4688V69.625H171.188V69.8281C171.188 72.6875 172.906 74.5781 175.609 74.5781C177.531 74.5781 178.953 73.6094 179.406 72.1719ZM186.406 56.6719H189.797V60.5625H192.922V63.2344H189.797V72.2969C189.797 73.7188 190.422 74.3594 191.797 74.3594C192.141 74.3594 192.688 74.3281 192.906 74.2812V76.9531C192.531 77.0469 191.781 77.1094 191.031 77.1094C187.703 77.1094 186.406 75.8438 186.406 72.6719V63.2344H184.016V60.5625H186.406V56.6719ZM196.688 56.6719H200.078V60.5625H203.203V63.2344H200.078V72.2969C200.078 73.7188 200.703 74.3594 202.078 74.3594C202.422 74.3594 202.969 74.3281 203.188 74.2812V76.9531C202.812 77.0469 202.062 77.1094 201.312 77.1094C197.984 77.1094 196.688 75.8438 196.688 72.6719V63.2344H194.297V60.5625H196.688V56.6719ZM212.453 62.9844C210.094 62.9844 208.438 64.7812 208.266 67.2656H216.484C216.406 64.75 214.812 62.9844 212.453 62.9844ZM216.469 72.1719H219.672C219.203 75.1719 216.359 77.3125 212.594 77.3125C207.766 77.3125 204.844 74.0469 204.844 68.8594C204.844 63.7031 207.812 60.2656 212.453 60.2656C217.016 60.2656 219.859 63.4844 219.859 68.4688V69.625H208.25V69.8281C208.25 72.6875 209.969 74.5781 212.672 74.5781C214.594 74.5781 216.016 73.6094 216.469 72.1719ZM222.484 77V60.5625H225.703V63.3594H225.781C226.328 61.4375 227.797 60.2969 229.734 60.2969C230.219 60.2969 230.641 60.375 230.891 60.4219V63.5625C230.625 63.4531 230.031 63.375 229.375 63.375C227.203 63.375 225.859 64.8281 225.859 67.1562V77H222.484Z" fill="white"/>
<path d="M52.6934 113.123H54.4609C54.627 114.646 56.0723 115.652 58.084 115.652C59.9883 115.652 61.375 114.646 61.375 113.26C61.375 112.068 60.5449 111.336 58.6504 110.848L56.8438 110.379C54.2461 109.715 53.0938 108.572 53.0938 106.658C53.0938 104.314 55.1445 102.674 58.0742 102.674C60.877 102.674 62.9082 104.334 62.9863 106.697H61.2285C61.0723 105.184 59.8516 104.256 58.0156 104.256C56.1895 104.256 54.9199 105.203 54.9199 106.58C54.9199 107.645 55.7012 108.279 57.6152 108.777L59.0898 109.168C62.0098 109.9 63.1914 111.023 63.1914 113.045C63.1914 115.623 61.1602 117.234 57.918 117.234C54.9297 117.234 52.8594 115.613 52.6934 113.123ZM69.0508 108.143C67.459 108.143 66.3457 109.363 66.2383 111.053H71.7559C71.7168 109.354 70.6523 108.143 69.0508 108.143ZM71.7168 114.09H73.3867C73.0938 115.867 71.375 117.176 69.1582 117.176C66.248 117.176 64.4805 115.154 64.4805 111.961C64.4805 108.807 66.2773 106.668 69.0801 106.668C71.8242 106.668 73.5137 108.66 73.5137 111.736V112.381H66.2285V112.479C66.2285 114.422 67.3711 115.701 69.1973 115.701C70.4863 115.701 71.4336 115.047 71.7168 114.09ZM75.7793 104.393H77.4785V106.844H79.4512V108.24H77.4785V114.275C77.4785 115.203 77.8691 115.623 78.7383 115.623C78.9336 115.623 79.3242 115.594 79.4414 115.574V117C79.2363 117.049 78.7676 117.078 78.3672 117.078C76.502 117.078 75.7793 116.316 75.7793 114.363V108.24H74.2656V106.844H75.7793V104.393ZM88.7188 115.73C90.3203 115.73 91.5508 114.607 91.5508 113.143V112.312L88.8359 112.479C87.4688 112.566 86.6875 113.172 86.6875 114.129C86.6875 115.096 87.498 115.73 88.7188 115.73ZM88.3379 117.176C86.3164 117.176 84.959 115.955 84.959 114.129C84.959 112.391 86.2969 111.297 88.6406 111.16L91.5508 110.994V110.145C91.5508 108.904 90.7305 108.162 89.3242 108.162C88.0156 108.162 87.1953 108.777 86.9805 109.773H85.3398C85.457 108.016 86.9609 106.668 89.3633 106.668C91.7461 106.668 93.25 107.957 93.25 109.979V117H91.6387V115.252H91.5996C90.9941 116.414 89.7051 117.176 88.3379 117.176ZM95.4082 117V106.844H97.0098V108.465H97.0488C97.6152 107.371 98.6992 106.668 100.271 106.668C102.498 106.668 103.787 108.104 103.787 110.408V117H102.088V110.711C102.088 109.07 101.316 108.172 99.7539 108.172C98.1523 108.172 97.1074 109.305 97.1074 111.023V117H95.4082ZM109.803 117.176C107.215 117.176 105.457 115.105 105.457 111.922C105.457 108.738 107.205 106.668 109.764 106.668C111.219 106.668 112.391 107.381 112.996 108.494H113.035V102.908H114.734V117H113.113V115.281H113.084C112.43 116.453 111.268 117.176 109.803 117.176ZM110.125 108.162C108.328 108.162 107.195 109.627 107.195 111.922C107.195 114.227 108.328 115.682 110.125 115.682C111.873 115.682 113.045 114.197 113.045 111.922C113.045 109.656 111.873 108.162 110.125 108.162ZM124.48 115.73C126.082 115.73 127.312 114.607 127.312 113.143V112.312L124.598 112.479C123.23 112.566 122.449 113.172 122.449 114.129C122.449 115.096 123.26 115.73 124.48 115.73ZM124.1 117.176C122.078 117.176 120.721 115.955 120.721 114.129C120.721 112.391 122.059 111.297 124.402 111.16L127.312 110.994V110.145C127.312 108.904 126.492 108.162 125.086 108.162C123.777 108.162 122.957 108.777 122.742 109.773H121.102C121.219 108.016 122.723 106.668 125.125 106.668C127.508 106.668 129.012 107.957 129.012 109.979V117H127.4V115.252H127.361C126.756 116.414 125.467 117.176 124.1 117.176ZM139.607 110.174H137.947C137.703 109.07 136.844 108.162 135.35 108.162C133.592 108.162 132.4 109.617 132.4 111.922C132.4 114.285 133.611 115.682 135.369 115.682C136.756 115.682 137.664 114.949 137.957 113.729H139.627C139.363 115.75 137.664 117.176 135.359 117.176C132.547 117.176 130.672 115.193 130.672 111.922C130.672 108.719 132.537 106.668 135.34 106.668C137.879 106.668 139.393 108.348 139.607 110.174ZM141.277 117V102.908H142.977V108.465H143.016C143.582 107.332 144.695 106.668 146.238 106.668C148.465 106.668 149.812 108.172 149.812 110.438V117H148.113V110.75C148.113 109.139 147.303 108.172 145.711 108.172C144.021 108.172 142.977 109.324 142.977 111.082V117H141.277ZM152.059 117V106.844H153.758V117H152.059ZM152.908 105.135C152.332 105.135 151.854 104.656 151.854 104.08C151.854 103.494 152.332 103.025 152.908 103.025C153.494 103.025 153.973 103.494 153.973 104.08C153.973 104.656 153.494 105.135 152.908 105.135ZM160.125 108.143C158.533 108.143 157.42 109.363 157.312 111.053H162.83C162.791 109.354 161.727 108.143 160.125 108.143ZM162.791 114.09H164.461C164.168 115.867 162.449 117.176 160.232 117.176C157.322 117.176 155.555 115.154 155.555 111.961C155.555 108.807 157.352 106.668 160.154 106.668C162.898 106.668 164.588 108.66 164.588 111.736V112.381H157.303V112.479C157.303 114.422 158.445 115.701 160.271 115.701C161.561 115.701 162.508 115.047 162.791 114.09ZM174.637 106.844L170.906 117H169.168L165.428 106.844H167.215L170.018 115.193H170.057L172.869 106.844H174.637ZM179.754 108.143C178.162 108.143 177.049 109.363 176.941 111.053H182.459C182.42 109.354 181.355 108.143 179.754 108.143ZM182.42 114.09H184.09C183.797 115.867 182.078 117.176 179.861 117.176C176.951 117.176 175.184 115.154 175.184 111.961C175.184 108.807 176.98 106.668 179.783 106.668C182.527 106.668 184.217 108.66 184.217 111.736V112.381H176.932V112.479C176.932 114.422 178.074 115.701 179.9 115.701C181.189 115.701 182.137 115.047 182.42 114.09ZM190.584 117V108.24H189.168V106.844H190.584V105.711C190.584 103.758 191.492 102.83 193.367 102.83C193.748 102.83 194.158 102.869 194.402 102.908V104.285C194.197 104.256 193.914 104.227 193.631 104.227C192.713 104.227 192.273 104.715 192.273 105.721V106.844H194.354V108.24H192.283V117H190.584ZM196.199 117V106.844H197.898V117H196.199ZM197.049 105.135C196.473 105.135 195.994 104.656 195.994 104.08C195.994 103.494 196.473 103.025 197.049 103.025C197.635 103.025 198.113 103.494 198.113 104.08C198.113 104.656 197.635 105.135 197.049 105.135ZM200.193 117V106.844H201.795V108.465H201.834C202.4 107.371 203.484 106.668 205.057 106.668C207.283 106.668 208.572 108.104 208.572 110.408V117H206.873V110.711C206.873 109.07 206.102 108.172 204.539 108.172C202.938 108.172 201.893 109.305 201.893 111.023V117H200.193ZM214.09 115.73C215.691 115.73 216.922 114.607 216.922 113.143V112.312L214.207 112.479C212.84 112.566 212.059 113.172 212.059 114.129C212.059 115.096 212.869 115.73 214.09 115.73ZM213.709 117.176C211.688 117.176 210.33 115.955 210.33 114.129C210.33 112.391 211.668 111.297 214.012 111.16L216.922 110.994V110.145C216.922 108.904 216.102 108.162 214.695 108.162C213.387 108.162 212.566 108.777 212.352 109.773H210.711C210.828 108.016 212.332 106.668 214.734 106.668C217.117 106.668 218.621 107.957 218.621 109.979V117H217.01V115.252H216.971C216.365 116.414 215.076 117.176 213.709 117.176ZM220.779 117V106.844H222.381V108.465H222.42C222.986 107.371 224.07 106.668 225.643 106.668C227.869 106.668 229.158 108.104 229.158 110.408V117H227.459V110.711C227.459 109.07 226.688 108.172 225.125 108.172C223.523 108.172 222.479 109.305 222.479 111.023V117H220.779ZM239.764 110.174H238.104C237.859 109.07 237 108.162 235.506 108.162C233.748 108.162 232.557 109.617 232.557 111.922C232.557 114.285 233.768 115.682 235.525 115.682C236.912 115.682 237.82 114.949 238.113 113.729H239.783C239.52 115.75 237.82 117.176 235.516 117.176C232.703 117.176 230.828 115.193 230.828 111.922C230.828 108.719 232.693 106.668 235.496 106.668C238.035 106.668 239.549 108.348 239.764 110.174ZM241.434 117V106.844H243.133V117H241.434ZM242.283 105.135C241.707 105.135 241.229 104.656 241.229 104.08C241.229 103.494 241.707 103.025 242.283 103.025C242.869 103.025 243.348 103.494 243.348 104.08C243.348 104.656 242.869 105.135 242.283 105.135ZM248.777 115.73C250.379 115.73 251.609 114.607 251.609 113.143V112.312L248.895 112.479C247.527 112.566 246.746 113.172 246.746 114.129C246.746 115.096 247.557 115.73 248.777 115.73ZM248.396 117.176C246.375 117.176 245.018 115.955 245.018 114.129C245.018 112.391 246.355 111.297 248.699 111.16L251.609 110.994V110.145C251.609 108.904 250.789 108.162 249.383 108.162C248.074 108.162 247.254 108.777 247.039 109.773H245.398C245.516 108.016 247.02 106.668 249.422 106.668C251.805 106.668 253.309 107.957 253.309 109.979V117H251.697V115.252H251.658C251.053 116.414 249.764 117.176 248.396 117.176ZM255.555 117V102.908H257.254V117H255.555ZM267.781 115.584C269.549 115.584 270.73 114.119 270.73 111.883C270.73 109.646 269.549 108.162 267.781 108.162C266.033 108.162 264.891 109.607 264.891 111.883C264.891 114.158 266.033 115.584 267.781 115.584ZM267.84 120.828C265.604 120.828 263.836 119.568 263.553 117.84H265.301C265.633 118.768 266.639 119.383 267.908 119.383C269.666 119.383 270.73 118.367 270.73 116.854V115.252H270.691C270.066 116.355 268.865 117.078 267.439 117.078C264.852 117.078 263.152 115.037 263.152 111.883C263.152 108.699 264.852 106.668 267.479 106.668C268.914 106.668 270.105 107.371 270.779 108.553H270.809V106.844H272.43V116.795C272.43 119.217 270.643 120.828 267.84 120.828ZM278.855 117.176C276.043 117.176 274.148 115.154 274.148 111.922C274.148 108.68 276.043 106.668 278.855 106.668C281.658 106.668 283.553 108.68 283.553 111.922C283.553 115.154 281.658 117.176 278.855 117.176ZM278.855 115.682C280.652 115.682 281.824 114.314 281.824 111.922C281.824 109.529 280.652 108.162 278.855 108.162C277.059 108.162 275.877 109.529 275.877 111.922C275.877 114.314 277.059 115.682 278.855 115.682ZM288.621 115.73C290.223 115.73 291.453 114.607 291.453 113.143V112.312L288.738 112.479C287.371 112.566 286.59 113.172 286.59 114.129C286.59 115.096 287.4 115.73 288.621 115.73ZM288.24 117.176C286.219 117.176 284.861 115.955 284.861 114.129C284.861 112.391 286.199 111.297 288.543 111.16L291.453 110.994V110.145C291.453 108.904 290.633 108.162 289.227 108.162C287.918 108.162 287.098 108.777 286.883 109.773H285.242C285.359 108.016 286.863 106.668 289.266 106.668C291.648 106.668 293.152 107.957 293.152 109.979V117H291.541V115.252H291.502C290.896 116.414 289.607 117.176 288.24 117.176ZM295.398 117V102.908H297.098V117H295.398ZM299.217 109.646C299.217 107.908 300.77 106.668 303.006 106.668C305.105 106.668 306.648 107.918 306.727 109.637H305.105C304.988 108.66 304.197 108.055 302.947 108.055C301.707 108.055 300.887 108.67 300.887 109.559C300.887 110.262 301.424 110.73 302.576 111.023L304.148 111.404C306.199 111.922 306.941 112.664 306.941 114.158C306.941 115.926 305.271 117.176 302.898 117.176C300.672 117.176 299.119 115.965 298.943 114.168H300.643C300.828 115.223 301.629 115.789 303.006 115.789C304.383 115.789 305.232 115.203 305.232 114.285C305.232 113.562 304.812 113.172 303.67 112.869L301.883 112.41C300.096 111.951 299.217 111.033 299.217 109.646ZM325.73 106.844L322.898 117H321.17L318.875 109.139H318.836L316.551 117H314.822L311.98 106.844H313.67L315.701 115.105H315.74L318.035 106.844H319.676L321.98 115.105H322.02L324.051 106.844H325.73ZM327.215 117V106.844H328.914V117H327.215ZM328.064 105.135C327.488 105.135 327.01 104.656 327.01 104.08C327.01 103.494 327.488 103.025 328.064 103.025C328.65 103.025 329.129 103.494 329.129 104.08C329.129 104.656 328.65 105.135 328.064 105.135ZM331.756 104.393H333.455V106.844H335.428V108.24H333.455V114.275C333.455 115.203 333.846 115.623 334.715 115.623C334.91 115.623 335.301 115.594 335.418 115.574V117C335.213 117.049 334.744 117.078 334.344 117.078C332.479 117.078 331.756 116.316 331.756 114.363V108.24H330.242V106.844H331.756V104.393ZM337.332 117V102.908H339.031V108.465H339.07C339.637 107.332 340.75 106.668 342.293 106.668C344.52 106.668 345.867 108.172 345.867 110.438V117H344.168V110.75C344.168 109.139 343.357 108.172 341.766 108.172C340.076 108.172 339.031 109.324 339.031 111.082V117H337.332ZM356.199 108.143C354.607 108.143 353.494 109.363 353.387 111.053H358.904C358.865 109.354 357.801 108.143 356.199 108.143ZM358.865 114.09H360.535C360.242 115.867 358.523 117.176 356.307 117.176C353.396 117.176 351.629 115.154 351.629 111.961C351.629 108.807 353.426 106.668 356.229 106.668C358.973 106.668 360.662 108.66 360.662 111.736V112.381H353.377V112.479C353.377 114.422 354.52 115.701 356.346 115.701C357.635 115.701 358.582 115.047 358.865 114.09ZM365.73 115.73C367.332 115.73 368.562 114.607 368.562 113.143V112.312L365.848 112.479C364.48 112.566 363.699 113.172 363.699 114.129C363.699 115.096 364.51 115.73 365.73 115.73ZM365.35 117.176C363.328 117.176 361.971 115.955 361.971 114.129C361.971 112.391 363.309 111.297 365.652 111.16L368.562 110.994V110.145C368.562 108.904 367.742 108.162 366.336 108.162C365.027 108.162 364.207 108.777 363.992 109.773H362.352C362.469 108.016 363.973 106.668 366.375 106.668C368.758 106.668 370.262 107.957 370.262 109.979V117H368.65V115.252H368.611C368.006 116.414 366.717 117.176 365.35 117.176ZM372.244 109.646C372.244 107.908 373.797 106.668 376.033 106.668C378.133 106.668 379.676 107.918 379.754 109.637H378.133C378.016 108.66 377.225 108.055 375.975 108.055C374.734 108.055 373.914 108.67 373.914 109.559C373.914 110.262 374.451 110.73 375.604 111.023L377.176 111.404C379.227 111.922 379.969 112.664 379.969 114.158C379.969 115.926 378.299 117.176 375.926 117.176C373.699 117.176 372.146 115.965 371.971 114.168H373.67C373.855 115.223 374.656 115.789 376.033 115.789C377.41 115.789 378.26 115.203 378.26 114.285C378.26 113.562 377.84 113.172 376.697 112.869L374.91 112.41C373.123 111.951 372.244 111.033 372.244 109.646ZM385.809 108.143C384.217 108.143 383.104 109.363 382.996 111.053H388.514C388.475 109.354 387.41 108.143 385.809 108.143ZM388.475 114.09H390.145C389.852 115.867 388.133 117.176 385.916 117.176C383.006 117.176 381.238 115.154 381.238 111.961C381.238 108.807 383.035 106.668 385.838 106.668C388.582 106.668 390.271 108.66 390.271 111.736V112.381H382.986V112.479C382.986 114.422 384.129 115.701 385.955 115.701C387.244 115.701 388.191 115.047 388.475 114.09ZM393.152 119.803H391.736L392.684 114.832H394.49L393.152 119.803ZM403.543 115.73C405.145 115.73 406.375 114.607 406.375 113.143V112.312L403.66 112.479C402.293 112.566 401.512 113.172 401.512 114.129C401.512 115.096 402.322 115.73 403.543 115.73ZM403.162 117.176C401.141 117.176 399.783 115.955 399.783 114.129C399.783 112.391 401.121 111.297 403.465 111.16L406.375 110.994V110.145C406.375 108.904 405.555 108.162 404.148 108.162C402.84 108.162 402.02 108.777 401.805 109.773H400.164C400.281 108.016 401.785 106.668 404.188 106.668C406.57 106.668 408.074 107.957 408.074 109.979V117H406.463V115.252H406.424C405.818 116.414 404.529 117.176 403.162 117.176ZM418.572 106.844V117H416.961V115.35H416.922C416.316 116.521 415.262 117.176 413.699 117.176C411.482 117.176 410.184 115.74 410.184 113.436V106.844H411.883V113.133C411.883 114.783 412.654 115.672 414.227 115.672C415.877 115.672 416.873 114.539 416.873 112.811V106.844H418.572ZM421.326 104.393H423.025V106.844H424.998V108.24H423.025V114.275C423.025 115.203 423.416 115.623 424.285 115.623C424.48 115.623 424.871 115.594 424.988 115.574V117C424.783 117.049 424.314 117.078 423.914 117.078C422.049 117.078 421.326 116.316 421.326 114.363V108.24H419.812V106.844H421.326V104.393ZM430.73 117.176C427.918 117.176 426.023 115.154 426.023 111.922C426.023 108.68 427.918 106.668 430.73 106.668C433.533 106.668 435.428 108.68 435.428 111.922C435.428 115.154 433.533 117.176 430.73 117.176ZM430.73 115.682C432.527 115.682 433.699 114.314 433.699 111.922C433.699 109.529 432.527 108.162 430.73 108.162C428.934 108.162 427.752 109.529 427.752 111.922C427.752 114.314 428.934 115.682 430.73 115.682ZM437.146 117V106.844H438.748V108.465H438.787C439.266 107.391 440.301 106.668 441.668 106.668C443.055 106.668 444.08 107.371 444.52 108.602H444.559C445.125 107.391 446.316 106.668 447.742 106.668C449.754 106.668 451.053 107.977 451.053 109.988V117H449.354V110.379C449.354 108.992 448.582 108.172 447.244 108.172C445.896 108.172 444.949 109.168 444.949 110.545V117H443.25V110.193C443.25 108.973 442.43 108.172 441.17 108.172C439.822 108.172 438.846 109.227 438.846 110.633V117H437.146ZM456.57 115.73C458.172 115.73 459.402 114.607 459.402 113.143V112.312L456.688 112.479C455.32 112.566 454.539 113.172 454.539 114.129C454.539 115.096 455.35 115.73 456.57 115.73ZM456.189 117.176C454.168 117.176 452.811 115.955 452.811 114.129C452.811 112.391 454.148 111.297 456.492 111.16L459.402 110.994V110.145C459.402 108.904 458.582 108.162 457.176 108.162C455.867 108.162 455.047 108.777 454.832 109.773H453.191C453.309 108.016 454.812 106.668 457.215 106.668C459.598 106.668 461.102 107.957 461.102 109.979V117H459.49V115.252H459.451C458.846 116.414 457.557 117.176 456.189 117.176ZM463.807 104.393H465.506V106.844H467.479V108.24H465.506V114.275C465.506 115.203 465.896 115.623 466.766 115.623C466.961 115.623 467.352 115.594 467.469 115.574V117C467.264 117.049 466.795 117.078 466.395 117.078C464.529 117.078 463.807 116.316 463.807 114.363V108.24H462.293V106.844H463.807V104.393ZM473.074 108.143C471.482 108.143 470.369 109.363 470.262 111.053H475.779C475.74 109.354 474.676 108.143 473.074 108.143ZM475.74 114.09H477.41C477.117 115.867 475.398 117.176 473.182 117.176C470.271 117.176 468.504 115.154 468.504 111.961C468.504 108.807 470.301 106.668 473.104 106.668C475.848 106.668 477.537 108.66 477.537 111.736V112.381H470.252V112.479C470.252 114.422 471.395 115.701 473.221 115.701C474.51 115.701 475.457 115.047 475.74 114.09ZM484.197 120.799C483.992 120.799 483.65 120.779 483.465 120.74V119.314C483.65 119.354 483.914 119.363 484.129 119.363C485.076 119.363 485.604 118.904 485.994 117.723L486.229 117.01L482.479 106.844H484.295L487.107 115.301H487.137L489.949 106.844H491.736L487.742 117.713C486.873 120.086 486.033 120.799 484.197 120.799ZM497 117.176C494.188 117.176 492.293 115.154 492.293 111.922C492.293 108.68 494.188 106.668 497 106.668C499.803 106.668 501.697 108.68 501.697 111.922C501.697 115.154 499.803 117.176 497 117.176ZM497 115.682C498.797 115.682 499.969 114.314 499.969 111.922C499.969 109.529 498.797 108.162 497 108.162C495.203 108.162 494.021 109.529 494.021 111.922C494.021 114.314 495.203 115.682 497 115.682ZM511.756 106.844V117H510.145V115.35H510.105C509.5 116.521 508.445 117.176 506.883 117.176C504.666 117.176 503.367 115.74 503.367 113.436V106.844H505.066V113.133C505.066 114.783 505.838 115.672 507.41 115.672C509.061 115.672 510.057 114.539 510.057 112.811V106.844H511.756ZM513.963 117V106.844H515.564V108.504H515.604C515.936 107.381 516.873 106.668 518.064 106.668C518.357 106.668 518.611 106.717 518.748 106.736V108.387C518.611 108.338 518.25 108.289 517.84 108.289C516.521 108.289 515.662 109.236 515.662 110.672V117H513.963ZM52.9277 137.646C52.9277 135.908 54.4805 134.668 56.7168 134.668C58.8164 134.668 60.3594 135.918 60.4375 137.637H58.8164C58.6992 136.66 57.9082 136.055 56.6582 136.055C55.418 136.055 54.5977 136.67 54.5977 137.559C54.5977 138.262 55.1348 138.73 56.2871 139.023L57.8594 139.404C59.9102 139.922 60.6523 140.664 60.6523 142.158C60.6523 143.926 58.9824 145.176 56.6094 145.176C54.3828 145.176 52.8301 143.965 52.6543 142.168H54.3535C54.5391 143.223 55.3398 143.789 56.7168 143.789C58.0938 143.789 58.9434 143.203 58.9434 142.285C58.9434 141.562 58.5234 141.172 57.3809 140.869L55.5938 140.41C53.8066 139.951 52.9277 139.033 52.9277 137.646ZM65.7695 143.73C67.3711 143.73 68.6016 142.607 68.6016 141.143V140.312L65.8867 140.479C64.5195 140.566 63.7383 141.172 63.7383 142.129C63.7383 143.096 64.5488 143.73 65.7695 143.73ZM65.3887 145.176C63.3672 145.176 62.0098 143.955 62.0098 142.129C62.0098 140.391 63.3477 139.297 65.6914 139.16L68.6016 138.994V138.145C68.6016 136.904 67.7812 136.162 66.375 136.162C65.0664 136.162 64.2461 136.777 64.0312 137.773H62.3906C62.5078 136.016 64.0117 134.668 66.4141 134.668C68.7969 134.668 70.3008 135.957 70.3008 137.979V145H68.6895V143.252H68.6504C68.0449 144.414 66.7559 145.176 65.3887 145.176ZM80.7891 134.844L77.0586 145H75.3203L71.5801 134.844H73.3672L76.1699 143.193H76.209L79.0215 134.844H80.7891ZM82.2148 145V134.844H83.9141V145H82.2148ZM83.0645 133.135C82.4883 133.135 82.0098 132.656 82.0098 132.08C82.0098 131.494 82.4883 131.025 83.0645 131.025C83.6504 131.025 84.1289 131.494 84.1289 132.08C84.1289 132.656 83.6504 133.135 83.0645 133.135ZM86.209 145V134.844H87.8105V136.465H87.8496C88.416 135.371 89.5 134.668 91.0723 134.668C93.2988 134.668 94.5879 136.104 94.5879 138.408V145H92.8887V138.711C92.8887 137.07 92.1172 136.172 90.5547 136.172C88.9531 136.172 87.9082 137.305 87.9082 139.023V145H86.209ZM100.887 143.584C102.654 143.584 103.836 142.119 103.836 139.883C103.836 137.646 102.654 136.162 100.887 136.162C99.1387 136.162 97.9961 137.607 97.9961 139.883C97.9961 142.158 99.1387 143.584 100.887 143.584ZM100.945 148.828C98.709 148.828 96.9414 147.568 96.6582 145.84H98.4062C98.7383 146.768 99.7441 147.383 101.014 147.383C102.771 147.383 103.836 146.367 103.836 144.854V143.252H103.797C103.172 144.355 101.971 145.078 100.545 145.078C97.957 145.078 96.2578 143.037 96.2578 139.883C96.2578 136.699 97.957 134.668 100.584 134.668C102.02 134.668 103.211 135.371 103.885 136.553H103.914V134.844H105.535V144.795C105.535 147.217 103.748 148.828 100.945 148.828ZM107.576 137.646C107.576 135.908 109.129 134.668 111.365 134.668C113.465 134.668 115.008 135.918 115.086 137.637H113.465C113.348 136.66 112.557 136.055 111.307 136.055C110.066 136.055 109.246 136.67 109.246 137.559C109.246 138.262 109.783 138.73 110.936 139.023L112.508 139.404C114.559 139.922 115.301 140.664 115.301 142.158C115.301 143.926 113.631 145.176 111.258 145.176C109.031 145.176 107.479 143.965 107.303 142.168H109.002C109.188 143.223 109.988 143.789 111.365 143.789C112.742 143.789 113.592 143.203 113.592 142.285C113.592 141.562 113.172 141.172 112.029 140.869L110.242 140.41C108.455 139.951 107.576 139.033 107.576 137.646ZM118.23 147.803H116.814L117.762 142.832H119.568L118.23 147.803ZM128.621 143.73C130.223 143.73 131.453 142.607 131.453 141.143V140.312L128.738 140.479C127.371 140.566 126.59 141.172 126.59 142.129C126.59 143.096 127.4 143.73 128.621 143.73ZM128.24 145.176C126.219 145.176 124.861 143.955 124.861 142.129C124.861 140.391 126.199 139.297 128.543 139.16L131.453 138.994V138.145C131.453 136.904 130.633 136.162 129.227 136.162C127.918 136.162 127.098 136.777 126.883 137.773H125.242C125.359 136.016 126.863 134.668 129.266 134.668C131.648 134.668 133.152 135.957 133.152 137.979V145H131.541V143.252H131.502C130.896 144.414 129.607 145.176 128.24 145.176ZM135.311 145V134.844H136.912V136.465H136.951C137.518 135.371 138.602 134.668 140.174 134.668C142.4 134.668 143.689 136.104 143.689 138.408V145H141.99V138.711C141.99 137.07 141.219 136.172 139.656 136.172C138.055 136.172 137.01 137.305 137.01 139.023V145H135.311ZM149.705 145.176C147.117 145.176 145.359 143.105 145.359 139.922C145.359 136.738 147.107 134.668 149.666 134.668C151.121 134.668 152.293 135.381 152.898 136.494H152.938V130.908H154.637V145H153.016V143.281H152.986C152.332 144.453 151.17 145.176 149.705 145.176ZM150.027 136.162C148.23 136.162 147.098 137.627 147.098 139.922C147.098 142.227 148.23 143.682 150.027 143.682C151.775 143.682 152.947 142.197 152.947 139.922C152.947 137.656 151.775 136.162 150.027 136.162ZM173.953 134.844L171.121 145H169.393L167.098 137.139H167.059L164.773 145H163.045L160.203 134.844H161.893L163.924 143.105H163.963L166.258 134.844H167.898L170.203 143.105H170.242L172.273 134.844H173.953ZM178.504 143.73C180.105 143.73 181.336 142.607 181.336 141.143V140.312L178.621 140.479C177.254 140.566 176.473 141.172 176.473 142.129C176.473 143.096 177.283 143.73 178.504 143.73ZM178.123 145.176C176.102 145.176 174.744 143.955 174.744 142.129C174.744 140.391 176.082 139.297 178.426 139.16L181.336 138.994V138.145C181.336 136.904 180.516 136.162 179.109 136.162C177.801 136.162 176.98 136.777 176.766 137.773H175.125C175.242 136.016 176.746 134.668 179.148 134.668C181.531 134.668 183.035 135.957 183.035 137.979V145H181.424V143.252H181.385C180.779 144.414 179.49 145.176 178.123 145.176ZM185.74 132.393H187.439V134.844H189.412V136.24H187.439V142.275C187.439 143.203 187.83 143.623 188.699 143.623C188.895 143.623 189.285 143.594 189.402 143.574V145C189.197 145.049 188.729 145.078 188.328 145.078C186.463 145.078 185.74 144.316 185.74 142.363V136.24H184.227V134.844H185.74V132.393ZM199.373 138.174H197.713C197.469 137.07 196.609 136.162 195.115 136.162C193.357 136.162 192.166 137.617 192.166 139.922C192.166 142.285 193.377 143.682 195.135 143.682C196.521 143.682 197.43 142.949 197.723 141.729H199.393C199.129 143.75 197.43 145.176 195.125 145.176C192.312 145.176 190.438 143.193 190.438 139.922C190.438 136.719 192.303 134.668 195.105 134.668C197.645 134.668 199.158 136.348 199.373 138.174ZM201.043 145V130.908H202.742V136.465H202.781C203.348 135.332 204.461 134.668 206.004 134.668C208.23 134.668 209.578 136.172 209.578 138.438V145H207.879V138.75C207.879 137.139 207.068 136.172 205.477 136.172C203.787 136.172 202.742 137.324 202.742 139.082V145H201.043ZM216.678 148.799C216.473 148.799 216.131 148.779 215.945 148.74V147.314C216.131 147.354 216.395 147.363 216.609 147.363C217.557 147.363 218.084 146.904 218.475 145.723L218.709 145.01L214.959 134.844H216.775L219.588 143.301H219.617L222.43 134.844H224.217L220.223 145.713C219.354 148.086 218.514 148.799 216.678 148.799ZM229.48 145.176C226.668 145.176 224.773 143.154 224.773 139.922C224.773 136.68 226.668 134.668 229.48 134.668C232.283 134.668 234.178 136.68 234.178 139.922C234.178 143.154 232.283 145.176 229.48 145.176ZM229.48 143.682C231.277 143.682 232.449 142.314 232.449 139.922C232.449 137.529 231.277 136.162 229.48 136.162C227.684 136.162 226.502 137.529 226.502 139.922C226.502 142.314 227.684 143.682 229.48 143.682ZM244.236 134.844V145H242.625V143.35H242.586C241.98 144.521 240.926 145.176 239.363 145.176C237.146 145.176 235.848 143.74 235.848 141.436V134.844H237.547V141.133C237.547 142.783 238.318 143.672 239.891 143.672C241.541 143.672 242.537 142.539 242.537 140.811V134.844H244.236ZM246.443 145V134.844H248.045V136.504H248.084C248.416 135.381 249.354 134.668 250.545 134.668C250.838 134.668 251.092 134.717 251.229 134.736V136.387C251.092 136.338 250.73 136.289 250.32 136.289C249.002 136.289 248.143 137.236 248.143 138.672V145H246.443ZM256.717 145V134.844H258.318V136.465H258.357C258.836 135.391 259.871 134.668 261.238 134.668C262.625 134.668 263.65 135.371 264.09 136.602H264.129C264.695 135.391 265.887 134.668 267.312 134.668C269.324 134.668 270.623 135.977 270.623 137.988V145H268.924V138.379C268.924 136.992 268.152 136.172 266.814 136.172C265.467 136.172 264.52 137.168 264.52 138.545V145H262.82V138.193C262.82 136.973 262 136.172 260.74 136.172C259.393 136.172 258.416 137.227 258.416 138.633V145H256.717ZM277 145.176C274.188 145.176 272.293 143.154 272.293 139.922C272.293 136.68 274.188 134.668 277 134.668C279.803 134.668 281.697 136.68 281.697 139.922C281.697 143.154 279.803 145.176 277 145.176ZM277 143.682C278.797 143.682 279.969 142.314 279.969 139.922C279.969 137.529 278.797 136.162 277 136.162C275.203 136.162 274.021 137.529 274.021 139.922C274.021 142.314 275.203 143.682 277 143.682ZM283.416 145V134.844H285.018V136.465H285.057C285.623 135.371 286.707 134.668 288.279 134.668C290.506 134.668 291.795 136.104 291.795 138.408V145H290.096V138.711C290.096 137.07 289.324 136.172 287.762 136.172C286.16 136.172 285.115 137.305 285.115 139.023V145H283.416ZM298.035 136.143C296.443 136.143 295.33 137.363 295.223 139.053H300.74C300.701 137.354 299.637 136.143 298.035 136.143ZM300.701 142.09H302.371C302.078 143.867 300.359 145.176 298.143 145.176C295.232 145.176 293.465 143.154 293.465 139.961C293.465 136.807 295.262 134.668 298.064 134.668C300.809 134.668 302.498 136.66 302.498 139.736V140.381H295.213V140.479C295.213 142.422 296.355 143.701 298.182 143.701C299.471 143.701 300.418 143.047 300.701 142.09ZM305.057 148.799C304.852 148.799 304.51 148.779 304.324 148.74V147.314C304.51 147.354 304.773 147.363 304.988 147.363C305.936 147.363 306.463 146.904 306.854 145.723L307.088 145.01L303.338 134.844H305.154L307.967 143.301H307.996L310.809 134.844H312.596L308.602 145.713C307.732 148.086 306.893 148.799 305.057 148.799ZM322.176 143.584C323.943 143.584 325.125 142.119 325.125 139.883C325.125 137.646 323.943 136.162 322.176 136.162C320.428 136.162 319.285 137.607 319.285 139.883C319.285 142.158 320.428 143.584 322.176 143.584ZM322.234 148.828C319.998 148.828 318.23 147.568 317.947 145.84H319.695C320.027 146.768 321.033 147.383 322.303 147.383C324.061 147.383 325.125 146.367 325.125 144.854V143.252H325.086C324.461 144.355 323.26 145.078 321.834 145.078C319.246 145.078 317.547 143.037 317.547 139.883C317.547 136.699 319.246 134.668 321.873 134.668C323.309 134.668 324.5 135.371 325.174 136.553H325.203V134.844H326.824V144.795C326.824 147.217 325.037 148.828 322.234 148.828ZM329.041 145V134.844H330.643V136.504H330.682C331.014 135.381 331.951 134.668 333.143 134.668C333.436 134.668 333.689 134.717 333.826 134.736V136.387C333.689 136.338 333.328 136.289 332.918 136.289C331.6 136.289 330.74 137.236 330.74 138.672V145H329.041ZM338.934 145.176C336.121 145.176 334.227 143.154 334.227 139.922C334.227 136.68 336.121 134.668 338.934 134.668C341.736 134.668 343.631 136.68 343.631 139.922C343.631 143.154 341.736 145.176 338.934 145.176ZM338.934 143.682C340.73 143.682 341.902 142.314 341.902 139.922C341.902 137.529 340.73 136.162 338.934 136.162C337.137 136.162 335.955 137.529 335.955 139.922C335.955 142.314 337.137 143.682 338.934 143.682ZM358.27 134.844L355.438 145H353.709L351.414 137.139H351.375L349.09 145H347.361L344.52 134.844H346.209L348.24 143.105H348.279L350.574 134.844H352.215L354.52 143.105H354.559L356.59 134.844H358.27ZM376.688 134.844L373.855 145H372.127L369.832 137.139H369.793L367.508 145H365.779L362.938 134.844H364.627L366.658 143.105H366.697L368.992 134.844H370.633L372.938 143.105H372.977L375.008 134.844H376.688ZM378.172 145V134.844H379.871V145H378.172ZM379.021 133.135C378.445 133.135 377.967 132.656 377.967 132.08C377.967 131.494 378.445 131.025 379.021 131.025C379.607 131.025 380.086 131.494 380.086 132.08C380.086 132.656 379.607 133.135 379.021 133.135ZM382.713 132.393H384.412V134.844H386.385V136.24H384.412V142.275C384.412 143.203 384.803 143.623 385.672 143.623C385.867 143.623 386.258 143.594 386.375 143.574V145C386.17 145.049 385.701 145.078 385.301 145.078C383.436 145.078 382.713 144.316 382.713 142.363V136.24H381.199V134.844H382.713V132.393ZM388.289 145V130.908H389.988V136.465H390.027C390.594 135.332 391.707 134.668 393.25 134.668C395.477 134.668 396.824 136.172 396.824 138.438V145H395.125V138.75C395.125 137.139 394.314 136.172 392.723 136.172C391.033 136.172 389.988 137.324 389.988 139.082V145H388.289ZM403.191 145.176C400.379 145.176 398.484 143.154 398.484 139.922C398.484 136.68 400.379 134.668 403.191 134.668C405.994 134.668 407.889 136.68 407.889 139.922C407.889 143.154 405.994 145.176 403.191 145.176ZM403.191 143.682C404.988 143.682 406.16 142.314 406.16 139.922C406.16 137.529 404.988 136.162 403.191 136.162C401.395 136.162 400.213 137.529 400.213 139.922C400.213 142.314 401.395 143.682 403.191 143.682ZM417.947 134.844V145H416.336V143.35H416.297C415.691 144.521 414.637 145.176 413.074 145.176C410.857 145.176 409.559 143.74 409.559 141.436V134.844H411.258V141.133C411.258 142.783 412.029 143.672 413.602 143.672C415.252 143.672 416.248 142.539 416.248 140.811V134.844H417.947ZM420.701 132.393H422.4V134.844H424.373V136.24H422.4V142.275C422.4 143.203 422.791 143.623 423.66 143.623C423.855 143.623 424.246 143.594 424.363 143.574V145C424.158 145.049 423.689 145.078 423.289 145.078C421.424 145.078 420.701 144.316 420.701 142.363V136.24H419.188V134.844H420.701V132.393ZM430.838 132.393H432.537V134.844H434.51V136.24H432.537V142.275C432.537 143.203 432.928 143.623 433.797 143.623C433.992 143.623 434.383 143.594 434.5 143.574V145C434.295 145.049 433.826 145.078 433.426 145.078C431.561 145.078 430.838 144.316 430.838 142.363V136.24H429.324V134.844H430.838V132.393ZM436.414 145V130.908H438.113V136.465H438.152C438.719 135.332 439.832 134.668 441.375 134.668C443.602 134.668 444.949 136.172 444.949 138.438V145H443.25V138.75C443.25 137.139 442.439 136.172 440.848 136.172C439.158 136.172 438.113 137.324 438.113 139.082V145H436.414ZM451.18 136.143C449.588 136.143 448.475 137.363 448.367 139.053H453.885C453.846 137.354 452.781 136.143 451.18 136.143ZM453.846 142.09H455.516C455.223 143.867 453.504 145.176 451.287 145.176C448.377 145.176 446.609 143.154 446.609 139.961C446.609 136.807 448.406 134.668 451.209 134.668C453.953 134.668 455.643 136.66 455.643 139.736V140.381H448.357V140.479C448.357 142.422 449.5 143.701 451.326 143.701C452.615 143.701 453.562 143.047 453.846 142.09ZM461.287 137.646C461.287 135.908 462.84 134.668 465.076 134.668C467.176 134.668 468.719 135.918 468.797 137.637H467.176C467.059 136.66 466.268 136.055 465.018 136.055C463.777 136.055 462.957 136.67 462.957 137.559C462.957 138.262 463.494 138.73 464.646 139.023L466.219 139.404C468.27 139.922 469.012 140.664 469.012 142.158C469.012 143.926 467.342 145.176 464.969 145.176C462.742 145.176 461.189 143.965 461.014 142.168H462.713C462.898 143.223 463.699 143.789 465.076 143.789C466.453 143.789 467.303 143.203 467.303 142.285C467.303 141.562 466.883 141.172 465.74 140.869L463.953 140.41C462.166 139.951 461.287 139.033 461.287 137.646ZM471.326 132.393H473.025V134.844H474.998V136.24H473.025V142.275C473.025 143.203 473.416 143.623 474.285 143.623C474.48 143.623 474.871 143.594 474.988 143.574V145C474.783 145.049 474.314 145.078 473.914 145.078C472.049 145.078 471.326 144.316 471.326 142.363V136.24H469.812V134.844H471.326V132.393ZM476.814 145V134.844H478.416V136.504H478.455C478.787 135.381 479.725 134.668 480.916 134.668C481.209 134.668 481.463 134.717 481.6 134.736V136.387C481.463 136.338 481.102 136.289 480.691 136.289C479.373 136.289 478.514 137.236 478.514 138.672V145H476.814ZM486.57 136.143C484.979 136.143 483.865 137.363 483.758 139.053H489.275C489.236 137.354 488.172 136.143 486.57 136.143ZM489.236 142.09H490.906C490.613 143.867 488.895 145.176 486.678 145.176C483.768 145.176 482 143.154 482 139.961C482 136.807 483.797 134.668 486.6 134.668C489.344 134.668 491.033 136.66 491.033 139.736V140.381H483.748V140.479C483.748 142.422 484.891 143.701 486.717 143.701C488.006 143.701 488.953 143.047 489.236 142.09ZM492.576 137.646C492.576 135.908 494.129 134.668 496.365 134.668C498.465 134.668 500.008 135.918 500.086 137.637H498.465C498.348 136.66 497.557 136.055 496.307 136.055C495.066 136.055 494.246 136.67 494.246 137.559C494.246 138.262 494.783 138.73 495.936 139.023L497.508 139.404C499.559 139.922 500.301 140.664 500.301 142.158C500.301 143.926 498.631 145.176 496.258 145.176C494.031 145.176 492.479 143.965 492.303 142.168H494.002C494.188 143.223 494.988 143.789 496.365 143.789C497.742 143.789 498.592 143.203 498.592 142.285C498.592 141.562 498.172 141.172 497.029 140.869L495.242 140.41C493.455 139.951 492.576 139.033 492.576 137.646ZM501.893 137.646C501.893 135.908 503.445 134.668 505.682 134.668C507.781 134.668 509.324 135.918 509.402 137.637H507.781C507.664 136.66 506.873 136.055 505.623 136.055C504.383 136.055 503.562 136.67 503.562 137.559C503.562 138.262 504.1 138.73 505.252 139.023L506.824 139.404C508.875 139.922 509.617 140.664 509.617 142.158C509.617 143.926 507.947 145.176 505.574 145.176C503.348 145.176 501.795 143.965 501.619 142.168H503.318C503.504 143.223 504.305 143.789 505.682 143.789C507.059 143.789 507.908 143.203 507.908 142.285C507.908 141.562 507.488 141.172 506.346 140.869L504.559 140.41C502.771 139.951 501.893 139.033 501.893 137.646ZM512.82 145.098C512.195 145.098 511.707 144.609 511.707 143.984C511.707 143.359 512.195 142.871 512.82 142.871C513.445 142.871 513.934 143.359 513.934 143.984C513.934 144.609 513.445 145.098 512.82 145.098Z" fill="#BDBDBD"/>
<path d="M295.417 387.583C295.417 392.083 296.667 392.75 299.5 393.75L303.75 395.25V381.083H301.25C298.083 381.083 295.417 384 295.417 387.583Z" fill="#202020"/>
<path d="M316.25 426.917H318.75C322 426.917 324.583 424 324.583 420.417C324.583 415.917 323.333 415.25 320.5 414.25L316.25 412.75V426.917Z" fill="#202020"/>
<path d="M373.167 349.667L356.083 366.75C354.833 368 353.25 368.583 351.667 368.583C350.083 368.583 348.5 368 347.25 366.75C344.833 364.333 344.833 360.333 347.25 357.917L364.333 340.833C349.667 328.333 330.75 320.667 310 320.667C264 320.667 226.667 358 226.667 404C226.667 450 264 487.333 310 487.333C356 487.333 393.333 450 393.333 404C393.333 383.25 385.667 364.333 373.167 349.667ZM324.583 402.5C329.917 404.417 337.083 408.25 337.083 420.5C337.083 430.917 328.833 439.5 318.75 439.5H316.25V441.583C316.25 445 313.417 447.833 310 447.833C306.583 447.833 303.75 445 303.75 441.583V439.5H303.083C292 439.5 282.917 430.167 282.917 418.667C282.917 415.167 285.75 412.333 289.167 412.333C292.583 412.333 295.417 415.167 295.417 418.583C295.417 423.167 298.833 426.917 303.083 426.917H303.75V408.417L295.417 405.5C290.083 403.583 282.917 399.75 282.917 387.5C282.917 377.083 291.167 368.5 301.25 368.5H303.75V366.5C303.75 363.083 306.583 360.25 310 360.25C313.417 360.25 316.25 363.083 316.25 366.5V368.583H316.917C328 368.583 337.083 377.917 337.083 389.417C337.083 392.833 334.25 395.667 330.833 395.667C327.417 395.667 324.583 392.833 324.583 389.417C324.583 384.833 321.167 381.083 316.917 381.083H316.25V399.583L324.583 402.5Z" fill="#202020"/>
<path d="M399.083 318.25C398.417 316.75 397.25 315.5 395.667 314.833C394.917 314.583 394.167 314.417 393.333 314.417H360C356.583 314.417 353.75 317.25 353.75 320.667C353.75 324.083 356.583 326.917 360 326.917H378.25L364.333 340.833C367.5 343.583 370.417 346.5 373.167 349.667L387.083 335.75V354C387.083 357.417 389.917 360.25 393.333 360.25C396.75 360.25 399.583 357.417 399.583 354V320.667C399.583 319.833 399.417 319.083 399.083 318.25Z" fill="#202020"/>
</g>
<rect x="0.5" y="0.5" width="619" height="669" rx="11.5" stroke="white" stroke-opacity="0.04"/>
<rect x="0.5" y="0.5" width="619" height="669" rx="11.5" stroke="url(#paint1_linear_2_583)" stroke-opacity="0.12"/>
<defs>
<radialGradient id="paint0_radial_2_583" cx="0" cy="0" r="1" gradientUnits="userSpaceOnUse" gradientTransform="translate(320 405.922) rotate(90) scale(185.516 300.453)">
<stop stop-color="white"/>
<stop offset="1" stop-color="white" stop-opacity="0"/>
</radialGradient>
<linearGradient id="paint1_linear_2_583" x1="310" y1="0" x2="310" y2="496.058" gradientUnits="userSpaceOnUse">
<stop stop-color="white"/>
<stop offset="1" stop-color="white" stop-opacity="0"/>
</linearGradient>
<clipPath id="clip0_2_583">
<rect width="620" height="670" rx="12" fill="white"/>
</clipPath>
</defs>
</svg>
